<?xml version="1.0" encoding="UTF-8" standalone="no"?>
<svg
   xmlns:dc="http://purl.org/dc/elements/1.1/"
   xmlns:cc="http://creativecommons.org/ns#"
   xmlns:rdf="http://www.w3.org/1999/02/22-rdf-syntax-ns#"
   xmlns:svg="http://www.w3.org/2000/svg"
   xmlns="http://www.w3.org/2000/svg"
   id="svg489"
   version="1.1"
   viewBox="0 0 14.85556 15.874735"
   height="15.874735mm"
   width="14.85556mm">
  <defs
     id="defs483" />
  <metadata
     id="metadata486">
    <rdf:RDF>
      <cc:Work
         rdf:about="">
        <dc:format>image/svg+xml</dc:format>
        <dc:type
           rdf:resource="http://purl.org/dc/dcmitype/StillImage" />
        <dc:title></dc:title>
      </cc:Work>
    </rdf:RDF>
  </metadata>
  <g
     transform="translate(-109.63627,-74.712472)"
     id="layer1">
    <g
       id="g259"
       transform="matrix(0.26458333,0,0,0.26458333,7.0168346,23.383041)">
      <path
         id="path241"
         d="m 434.75,219.476 -0.074,-0.776 -0.026,-0.421 4.857,-7.254 -8.061,-2.821 -0.469,-0.381 -0.275,-0.465 -0.308,-8.68 -8.222,2.442 -0.374,-0.061 -0.634,-0.258 -5.246,-6.8 -5.355,6.895 -0.548,0.209 -0.592,0.032 -8.196,-2.396 -0.271,8.681 -0.275,0.469 -0.464,0.418 -8.074,2.893 4.863,7.149 0.025,0.593 -0.021,0.6 -4.852,7.195 8.105,2.867 0.464,0.459 0.2,0.441 0.277,8.628 8.285,-2.431 0.659,0.125 0.464,0.23 5.304,6.829 5.3,-6.871 0.716,-0.232 0.391,-0.098 8.26,2.386 0.241,-8.629 0.2,-0.444 0.459,-0.497 8.119,-2.939 z m -18.831,13.433 c -7.543,0 -13.658,-6.115 -13.658,-13.658 0,-7.543 6.115,-13.658 13.658,-13.658 7.543,0 13.658,6.115 13.658,13.658 0,7.543 -6.115,13.658 -13.658,13.658 z"
         style="fill:#ffffff" />
      <g
         id="g249">
        <polygon
           id="polygon243"
           points="390.04,239.921 398.791,231.227 396.547,230.386 387.853,239.192 "
           style="fill:#ffffff" />
        <polygon
           id="polygon245"
           points="401.371,254 411.972,243.23 410.683,241.436 400.529,251.7 "
           style="fill:#ffffff" />
        <polygon
           id="polygon247"
           points="400.081,249.793 410.065,239.528 409.168,238.743 400.529,240.8 399.352,239.959 399.352,232.068 390.882,240.239 397.613,242.95 "
           style="fill:#ffffff" />
      </g>
      <g
         id="g257">
        <polygon
           id="polygon251"
           points="441.813,239.921 433.063,231.227 435.306,230.386 444,239.192 "
           style="fill:#ffffff" />
        <polygon
           id="polygon253"
           points="430.482,254 419.881,243.23 421.171,241.436 431.323,251.7 "
           style="fill:#ffffff" />
        <polygon
           id="polygon255"
           points="431.772,249.793 421.788,239.528 422.686,238.743 431.323,240.8 432.501,239.959 432.501,232.068 440.971,240.239 434.24,242.95 "
           style="fill:#ffffff" />
      </g>
    </g>
  </g>
</svg>
