<?xml version="1.0" encoding="UTF-8" standalone="no"?>
<svg
   xmlns:dc="http://purl.org/dc/elements/1.1/"
   xmlns:cc="http://creativecommons.org/ns#"
   xmlns:rdf="http://www.w3.org/1999/02/22-rdf-syntax-ns#"
   xmlns:svg="http://www.w3.org/2000/svg"
   xmlns="http://www.w3.org/2000/svg"
   id="svg324"
   version="1.1"
   viewBox="0 0 15.875039 16.404451"
   height="16.404451mm"
   width="15.875039mm">
  <defs
     id="defs318" />
  <metadata
     id="metadata321">
    <rdf:RDF>
      <cc:Work
         rdf:about="">
        <dc:format>image/svg+xml</dc:format>
        <dc:type
           rdf:resource="http://purl.org/dc/dcmitype/StillImage" />
        <dc:title></dc:title>
      </cc:Work>
    </rdf:RDF>
  </metadata>
  <g
     transform="translate(-137.20534,-121.7323)"
     id="layer1">
    <g
       id="Layer_11_copy"
       transform="matrix(0.26458333,0,0,0.26458333,68.943047,87.601145)">
      <g
         id="g171">
        <path
           id="path167"
           d="m 311.55,132.314 c -4.096,-2.211 -7.715,-4.531 -9.639,-2.584 -3.33,6.012 -12.274,24.777 -12.274,24.777 -4.858,9.344 -9.5,15.9 -10.661,17.873 -2,3.398 -1.143,16.283 -1.143,16.283 8.428,-3.823 11.713,-6.514 13.857,-9.204 2.143,-2.688 3.78,-7.888 8.857,-15.999 7,-11.186 15.289,-21.094 17.256,-24.775 1.034,-2.549 -2.157,-4.16 -6.253,-6.371 z m -1.774,14.029 c -2.984,4.1 -4.992,6.504 -9.371,13.295 -4.472,6.937 -9,16 -10.715,17.272 -1.715,1.274 -3.572,1.981 -3.572,1.981 0.43,-2.408 0.857,-5.664 0.857,-5.664 -2.143,1.133 -5.286,2.974 -5.286,2.974 0,-3.823 3.085,-8.959 5.144,-12.458 2.89,-4.915 3.857,-7.285 6.287,-11.826 2.428,-4.54 4.705,-8.775 5.856,-10.97 1.858,-3.54 6.429,-0.708 6.429,-0.708 4.717,2.834 5.818,4.12 4.371,6.104 z"
           style="fill:#ffffff" />
        <path
           id="path169"
           d="m 268.302,187.74 c -0.898,-1.344 7.96,-4.74 7.96,-8.28 0,-3.302 -2.529,-3.876 -5.853,-3.92 -2.007,-0.028 -3.859,-0.702 -3.438,-1.992 0.746,-2.29 5.574,-5.838 13.574,-10.37 0,0 -20.573,-1.556 -22.472,11.893 -0.282,1.992 0,4.957 5.328,4.106 4.515,-0.72 10.431,-0.282 6.858,2.408 -4.488,3.379 -6.43,5.521 -6.002,7.079 1.045,3.795 9,2.354 13.574,0 0.002,0 -7.904,1.492 -9.529,-0.924 z"
           style="fill:#ffffff" />
      </g>
    </g>
  </g>
</svg>
