<?xml version="1.0" encoding="UTF-8" standalone="no"?>
<svg
   xmlns:dc="http://purl.org/dc/elements/1.1/"
   xmlns:cc="http://creativecommons.org/ns#"
   xmlns:rdf="http://www.w3.org/1999/02/22-rdf-syntax-ns#"
   xmlns:svg="http://www.w3.org/2000/svg"
   xmlns="http://www.w3.org/2000/svg"
   xmlns:sodipodi="http://sodipodi.sourceforge.net/DTD/sodipodi-0.dtd"
   xmlns:inkscape="http://www.inkscape.org/namespaces/inkscape"
   id="svg489"
   version="1.1"
   viewBox="0 0 12.699975 15.875"
   height="15.875mm"
   width="12.699975mm"
   sodipodi:docname="tag-rndBottleWhite.svgz"
   inkscape:version="0.92.1 r15371">
  <sodipodi:namedview
     pagecolor="#ffffff"
     bordercolor="#666666"
     borderopacity="1"
     objecttolerance="10"
     gridtolerance="10"
     guidetolerance="10"
     inkscape:pageopacity="0"
     inkscape:pageshadow="2"
     inkscape:window-width="1920"
     inkscape:window-height="1017"
     id="namedview12"
     showgrid="false"
     inkscape:zoom="2.8284271"
     inkscape:cx="-93.620428"
     inkscape:cy="3.6063695"
     inkscape:window-x="-8"
     inkscape:window-y="-8"
     inkscape:window-maximized="1"
     inkscape:current-layer="svg489" />
  <defs
     id="defs483" />
  <metadata
     id="metadata486">
    <rdf:RDF>
      <cc:Work
         rdf:about="">
        <dc:format>image/svg+xml</dc:format>
        <dc:type
           rdf:resource="http://purl.org/dc/dcmitype/StillImage" />
        <dc:title></dc:title>
      </cc:Work>
    </rdf:RDF>
  </metadata>
  <g
     transform="translate(-103.76506,-106.25014)"
     id="layer1">
    <g
       id="g140"
       transform="matrix(0.26458333,0,0,0.26458333,0.04837999,88.787644)">
      <path
         id="path130"
         d="m 428.929,93.406 h -7.576 l 9.825,24.583 h -30.355 l 9.825,-24.583 h -7.576 l -10.749,26.896 c -0.802,2.004 -0.059,4.387 1.661,5.323 0.479,0.259 0.982,0.366 1.479,0.362 0.038,0.001 0.073,0.013 0.112,0.013 h 40.707 c 0.057,0 0.111,-0.016 0.167,-0.019 0.524,0.022 1.059,-0.081 1.567,-0.356 1.72,-0.936 2.463,-3.319 1.661,-5.323 z"
         style="fill:#8a9398" />
      <rect
         id="rect132"
         height="21.743"
         width="7.5609999"
         y="71.791"
         x="403.08401"
         style="fill:#8a9398" />
      <rect
         id="rect134"
         height="21.743"
         width="7.5609999"
         y="71.791"
         x="421.36499"
         style="fill:#8a9398" />
      <path
         id="path136"
         d="m 433.347,69.593 c 0,1.983 -1.93,3.592 -4.312,3.592 H 403.04 c -2.382,0 -4.311,-1.608 -4.311,-3.592 v 0 c 0,-1.985 1.929,-3.593 4.311,-3.593 h 25.995 c 2.382,0 4.312,1.608 4.312,3.593 z"
         style="fill:#8a9398" />
      <path
         id="path138"
         d="m 422.354,103.041 c -0.323,1.535 -1.479,2.676 -2.864,2.676 -1.638,0 -2.965,-1.581 -2.965,-3.529 0,-1.948 1.327,-3.53 2.965,-3.53 0.458,0 0.888,0.136 1.274,0.356 l -1.203,-3.047 h -7.354 l -7.45,19.5 h 22.5 z m -1.715,8.857 c -0.813,0 -1.473,-0.787 -1.473,-1.755 0,-0.971 0.659,-1.756 1.473,-1.756 0.815,0 1.473,0.785 1.473,1.756 -0.001,0.968 -0.658,1.755 -1.473,1.755 z"
         style="fill:#8a9398" />
    </g>
  </g>
  <path
     style="fill:#ffffff;fill-opacity:1;stroke-width:0.08988646"
     d="M 3.0631403,59.961551 C 1.662303,59.781832 0.44165507,58.552893 0.10505278,56.983371 0.04882482,56.721189 0.02267582,56.14114 0.0465276,55.68514 L 0.08964358,54.860844 5.5858513,41.118518 11.082059,27.376192 V 17.305274 7.2343558 L 10.340496,7.1278284 C 8.8028511,6.9069419 7.3980121,5.9047776 6.9462808,4.7065111 6.6697266,3.9729208 6.7219208,2.8603928 7.0641768,2.1935385 7.5532061,1.2407098 8.6167739,0.46228313 9.8650054,0.14360846 10.661388,-0.0597088 37.344977,-0.06089156 38.207019,0.14235219 40.178616,0.60719607 41.540685,2.2525647 41.332599,3.9180281 41.204431,4.9438468 40.406738,6.0548608 39.408161,6.5983547 38.91264,6.8680512 37.736306,7.197752 37.269583,7.197752 h -0.300225 v 10.145833 10.145834 l 5.444339,13.628226 c 3.851733,9.641627 5.473131,13.801979 5.542764,14.222201 0.202644,1.22292 -0.27593,2.781391 -1.120421,3.648644 -0.571598,0.587003 -1.18089,0.87373 -2.0752,0.976569 -0.867039,0.0997 -40.9194761,0.09633 -41.6976997,-0.0035 z M 39.126633,51.916174 c 0,-0.02477 -2.204465,-5.556009 -4.898812,-12.291648 L 29.329009,27.377911 V 17.287831 7.197752 h -5.348244 -5.348244 l 1.7e-5,10.134698 1.7e-5,10.134698 -4.728629,11.820069 C 11.303179,45.788254 9.099296,51.299418 9.0064082,51.534246 L 8.8375205,51.961207 H 23.982077 c 8.329506,0 15.144556,-0.02027 15.144556,-0.04503 z"
     id="path30"
     inkscape:connector-curvature="0"
     transform="scale(0.26458334)" />
  <path
     style="fill:#ffffff;fill-opacity:1;stroke-width:0.08988646"
     d="m 12.809963,49.332028 c 0.02161,-0.0618 1.694456,-4.450644 3.717433,-9.752994 l 3.678138,-9.640636 3.679826,0.02278 3.679825,0.02279 0.607852,1.513527 c 0.448695,1.117231 0.567818,1.496373 0.454952,1.448017 -1.290882,-0.553066 -2.58807,-0.174984 -3.388858,0.987725 -0.897295,1.302834 -0.897295,3.20296 0,4.505793 0.677939,0.984337 1.847795,1.465683 2.85239,1.173639 0.976117,-0.283764 1.758357,-1.052998 2.10233,-2.067372 0.110187,-0.324942 0.16835,-0.403483 0.224499,-0.303152 0.05492,0.09814 3.96682,9.959908 4.760076,11.999996 l 0.07864,0.202245 H 24.013867 c -8.955592,0 -11.235204,-0.02286 -11.203904,-0.112358 z m 16.428978,-3.617836 c 0.871155,-0.450492 1.125755,-1.877133 0.484933,-2.717296 -0.437815,-0.574005 -1.214056,-0.738662 -1.793627,-0.380468 -0.392381,0.242505 -0.758512,0.978452 -0.758512,1.524657 0,0.53443 0.364065,1.275883 0.746883,1.521097 0.343428,0.219984 0.949341,0.243852 1.320323,0.05201 z"
     id="path32"
     inkscape:connector-curvature="0"
     transform="scale(0.26458334)" />
  <path
     style="fill:#ffffff;fill-opacity:1;stroke-width:0.01123581"
     d="m 12.780123,49.401964 c 0.02232,-0.06128 0.02605,-0.06549 0.05004,-0.05637 0.07661,0.02913 0.570841,0.05057 1.536658,0.06667 1.091738,0.0182 5.59969,0.03273 10.266718,0.03311 2.836814,2.27e-4 4.266798,0.0041 4.266798,0.01158 0,0.0075 -2.698212,0.01124 -8.072165,0.01124 h -8.072164 z"
     id="path34"
     inkscape:connector-curvature="0"
     transform="scale(0.26458334)" />
  <path
     style="fill:#ffffff;fill-opacity:1;stroke-width:0.00794492"
     d="m 47.875235,55.065772 c -0.14853,-0.453294 -0.556227,-1.537057 -1.218636,-3.239441 -0.167163,-0.429605 -0.597436,-1.528398 -0.646337,-1.650556 -0.01174,-0.02933 -0.01378,-0.04167 -0.0069,-0.04158 0.0098,1.26e-4 1.681994,4.177602 1.749074,4.369576 0.01909,0.05462 0.05105,0.156515 0.07104,0.22643 0.05273,0.184468 0.12034,0.496881 0.107434,0.496459 -0.0017,-5.5e-5 -0.02672,-0.07245 -0.05569,-0.160884 z"
     id="path36"
     inkscape:connector-curvature="0"
     transform="scale(0.26458334)" />
  <path
     style="fill:#ffffff;fill-opacity:1;stroke-width:0.00390625"
     d="m 37.895257,7.1065027 c 0.426944,-0.095683 0.907164,-0.2436983 1.235686,-0.3808666 0.03437,-0.014353 0.06602,-0.026843 0.07031,-0.027756 0.01147,-0.00244 -0.07207,0.03784 -0.147812,0.071272 -0.364401,0.1608309 -0.745623,0.274739 -1.154922,0.345088 -0.09901,0.017017 -0.100279,0.014006 -0.0033,-0.00774 z"
     id="path44"
     inkscape:connector-curvature="0"
     transform="scale(0.26458334)" />
  <path
     style="fill:#ffffff;fill-opacity:1;stroke-width:0.00390625"
     d="m 39.863504,6.3004723 c 0.0031,-0.00287 0.03121,-0.025495 0.06236,-0.050286 0.203894,-0.1622543 0.413839,-0.3683045 0.585191,-0.5743339 0.401485,-0.4827352 0.67586,-1.0267741 0.787549,-1.5615742 0.01345,-0.064414 0.01223,-0.039613 -0.0017,0.034888 -0.117743,0.6288877 -0.434663,1.2202094 -0.9179,1.71265 -0.11731,0.119544 -0.233594,0.2246378 -0.359375,0.3247929 -0.07841,0.062432 -0.153759,0.1190753 -0.158405,0.1190753 -0.0019,0 -8.52e-4,-0.00235 0.0023,-0.00521 z"
     id="path46"
     inkscape:connector-curvature="0"
     transform="scale(0.26458334)" />
  <path
     style="fill:#ffffff;fill-opacity:1;stroke-width:0.00390625"
     d="M 41.193935,2.6509845 C 41.148615,2.510692 41.051402,2.292011 40.964896,2.1357629 40.865032,1.9553867 40.730336,1.7570508 40.600129,1.5986535 40.442303,1.4066567 40.247437,1.2112813 40.054771,1.0518701 39.632211,0.70224517 39.132053,0.42906181 38.589927,0.25178041 38.424776,0.19777409 38.229181,0.14562797 38.15598,0.13608897 37.940626,0.10802582 37.189845,0.08227517 35.986411,0.06167612 35.803794,0.05855028 35.590659,0.05482779 35.512779,0.05340392 L 35.371177,0.05081507 V 0.02395303 -0.00290901 l 0.848633,1.0685e-4 c 0.949794,1.1958e-4 1.048054,0.00178914 1.274414,0.021654 0.432034,0.03791433 0.864992,0.13290605 1.257812,0.27596613 0.53863,0.19616208 1.003979,0.46780591 1.414063,0.82544773 0.08107,0.070699 0.283836,0.2728551 0.348585,0.3475284 0.239375,0.2760686 0.415273,0.5457019 0.554736,0.8503548 0.05143,0.1123453 0.13992,0.3463636 0.136856,0.3619249 -6.13e-4,0.00311 -0.0062,-0.00998 -0.01234,-0.029089 z"
     id="path48"
     inkscape:connector-curvature="0"
     transform="scale(0.26458334)" />
  <path
     style="fill:#ffffff;fill-opacity:1;stroke-width:0.00390625"
     d="M 10.443155,7.1512535 C 9.5396469,7.044918 8.7100685,6.7091241 8.0546286,6.1844339 7.8386947,6.0115753 7.6274918,5.8022825 7.4607556,5.5959318 7.2390616,5.321566 7.0685984,5.0311861 6.94232,4.7127896 6.8652009,4.5183428 6.8055739,4.3036165 6.7701986,4.0929541 c -0.00756,-0.045007 -0.013741,-0.084219 -0.013741,-0.087139 0,-0.00383 0.00461,-0.00497 0.016513,-0.00411 l 0.016513,0.0012 0.00669,0.058543 c 0.032282,0.2824529 0.1016704,0.5437208 0.2087853,0.7861369 0.3566859,0.8072309 1.169965,1.5392133 2.1753263,1.9578772 0.2678263,0.1115313 0.5397795,0.1973769 0.8287598,0.261609 0.10556,0.023463 0.226214,0.044521 0.393064,0.068602 0.0821,0.011849 0.151907,0.022215 0.15513,0.023036 0.0183,0.00466 -0.04784,3.356e-4 -0.114084,-0.00746 z"
     id="path50"
     inkscape:connector-curvature="0"
     transform="scale(0.26458334)" />
  <path
     style="fill:#ffffff;fill-opacity:1;stroke-width:0.00390625"
     d="M 6.7548878,3.9911906 C 6.7517761,3.9735969 6.7413999,3.8766175 6.7367072,3.8212687 6.7298253,3.7400977 6.727593,3.5229651 6.7327315,3.43455 6.7518615,3.1053833 6.8135935,2.8141072 6.9304163,2.501788 6.9465603,2.458628 6.9464433,2.471046 6.9302349,2.52112 6.8153165,2.8761392 6.7564233,3.3264627 6.7717343,3.7330847 c 0.00243,0.064614 0.00609,0.1376958 0.00812,0.1624029 0.00203,0.024707 0.00484,0.058984 0.00623,0.076172 l 0.00254,0.03125 h -0.015831 c -0.014526,0 -0.016002,-9.665e-4 -0.017904,-0.011719 z"
     id="path52"
     inkscape:connector-curvature="0"
     transform="scale(0.26458334)" />
</svg>
