<?xml version="1.0" encoding="UTF-8" standalone="no"?>
<svg
   xmlns:dc="http://purl.org/dc/elements/1.1/"
   xmlns:cc="http://creativecommons.org/ns#"
   xmlns:rdf="http://www.w3.org/1999/02/22-rdf-syntax-ns#"
   xmlns:svg="http://www.w3.org/2000/svg"
   xmlns="http://www.w3.org/2000/svg"
   id="svg463"
   version="1.1"
   viewBox="0 0 16.40469 16.4039"
   height="16.4039mm"
   width="16.40469mm">
  <defs
     id="defs457" />
  <metadata
     id="metadata460">
    <rdf:RDF>
      <cc:Work
         rdf:about="">
        <dc:format>image/svg+xml</dc:format>
        <dc:type
           rdf:resource="http://purl.org/dc/dcmitype/StillImage" />
        <dc:title></dc:title>
      </cc:Work>
    </rdf:RDF>
  </metadata>
  <g
     transform="translate(-133.16075,-164.06591)"
     id="layer1">
    <path
       id="path18"
       d="m 149.15216,170.72335 h -1.51368 c -0.15372,-0.63209 -0.39952,-1.22793 -0.72257,-1.77244 l 1.08002,-1.08162 c 0.1614,-0.16139 0.1614,-0.4236 0,-0.58526 l -1.62374,-1.62666 c -0.1614,-0.16139 -0.42307,-0.16139 -0.58394,0 l -1.06389,1.06601 c -0.55139,-0.33893 -1.15676,-0.59743 -1.80075,-0.75988 v -1.48405 c 0,-0.22834 -0.18521,-0.41354 -0.41302,-0.41354 h -2.35161 c -0.22807,0 -0.41302,0.1852 -0.41302,0.41354 v 1.48405 c -0.62018,0.15637 -1.20465,0.40216 -1.73937,0.72284 l -1.02976,-1.03135 c -0.16139,-0.16166 -0.42307,-0.16166 -0.5842,0 l -1.66264,1.66608 c -0.16113,0.1614 -0.16113,0.42334 0,0.58473 l 1.03055,1.03241 c -0.32676,0.54795 -0.57494,1.14803 -0.72998,1.78514 h -1.4568 c -0.22807,0 -0.41301,0.18547 -0.41301,0.41381 v 2.30055 c 0,0.22834 0.18468,0.41355 0.41301,0.41355 h 1.46579 c 0.16193,0.64823 0.42069,1.25756 0.76042,1.81239 l -1.02791,1.02976 c -0.16087,0.1614 -0.16113,0.4236 0,0.58499 l 1.62401,1.62693 c 0.1614,0.16139 0.42281,0.16139 0.5842,-2.7e-4 l 1.04325,-1.04537 c 0.53023,0.31565 1.10861,0.55827 1.72244,0.71306 v 1.48378 c 0,0.22807 0.18468,0.41328 0.41302,0.41328 h 2.35161 c 0.22754,0 0.41302,-0.18495 0.41302,-0.41328 v -1.48352 c 0.61833,-0.1561 1.20121,-0.40111 1.73487,-0.72046 l 1.06601,1.06786 c 0.16086,0.16139 0.4228,0.16139 0.58367,-5.3e-4 l 1.66264,-1.66555 c 0.1614,-0.16166 0.1614,-0.4236 2.6e-4,-0.585 l -1.06494,-1.06706 c 0.32146,-0.53816 0.56753,-1.12633 0.72337,-1.75075 h 1.52267 c 0.22807,0 0.41328,-0.18521 0.41328,-0.41354 v -2.30056 c 0,-0.2286 -0.18494,-0.41407 -0.41328,-0.41407 z m -4.03542,1.5449 c 0,2.09233 -1.69307,3.78831 -3.78169,3.78831 -2.08889,0 -3.78169,-1.69598 -3.78169,-3.78831 0,-2.09259 1.6928,-3.78883 3.78169,-3.78883 2.08836,0 3.78169,1.69624 3.78169,3.78883 z"
       style="fill:#ffffff;stroke-width:0.26458332" />
  </g>
</svg>
