<?xml version="1.0" encoding="UTF-8" standalone="no"?>
<svg
   xmlns:dc="http://purl.org/dc/elements/1.1/"
   xmlns:cc="http://creativecommons.org/ns#"
   xmlns:rdf="http://www.w3.org/1999/02/22-rdf-syntax-ns#"
   xmlns:svg="http://www.w3.org/2000/svg"
   xmlns="http://www.w3.org/2000/svg"
   id="svg489"
   version="1.1"
   viewBox="0 0 12.699975 15.875"
   height="15.875mm"
   width="12.699975mm">
  <defs
     id="defs483" />
  <metadata
     id="metadata486">
    <rdf:RDF>
      <cc:Work
         rdf:about="">
        <dc:format>image/svg+xml</dc:format>
        <dc:type
           rdf:resource="http://purl.org/dc/dcmitype/StillImage" />
        <dc:title></dc:title>
      </cc:Work>
    </rdf:RDF>
  </metadata>
  <g
     transform="translate(-103.76506,-106.25014)"
     id="layer1">
    <g
       id="g140"
       transform="matrix(0.26458333,0,0,0.26458333,0.04837999,88.787644)">
      <path
         id="path130"
         d="m 428.929,93.406 h -7.576 l 9.825,24.583 h -30.355 l 9.825,-24.583 h -7.576 l -10.749,26.896 c -0.802,2.004 -0.059,4.387 1.661,5.323 0.479,0.259 0.982,0.366 1.479,0.362 0.038,0.001 0.073,0.013 0.112,0.013 h 40.707 c 0.057,0 0.111,-0.016 0.167,-0.019 0.524,0.022 1.059,-0.081 1.567,-0.356 1.72,-0.936 2.463,-3.319 1.661,-5.323 z"
         style="fill:#8a9398" />
      <rect
         id="rect132"
         height="21.743"
         width="7.5609999"
         y="71.791"
         x="403.08401"
         style="fill:#8a9398" />
      <rect
         id="rect134"
         height="21.743"
         width="7.5609999"
         y="71.791"
         x="421.36499"
         style="fill:#8a9398" />
      <path
         id="path136"
         d="m 433.347,69.593 c 0,1.983 -1.93,3.592 -4.312,3.592 H 403.04 c -2.382,0 -4.311,-1.608 -4.311,-3.592 v 0 c 0,-1.985 1.929,-3.593 4.311,-3.593 h 25.995 c 2.382,0 4.312,1.608 4.312,3.593 z"
         style="fill:#8a9398" />
      <path
         id="path138"
         d="m 422.354,103.041 c -0.323,1.535 -1.479,2.676 -2.864,2.676 -1.638,0 -2.965,-1.581 -2.965,-3.529 0,-1.948 1.327,-3.53 2.965,-3.53 0.458,0 0.888,0.136 1.274,0.356 l -1.203,-3.047 h -7.354 l -7.45,19.5 h 22.5 z m -1.715,8.857 c -0.813,0 -1.473,-0.787 -1.473,-1.755 0,-0.971 0.659,-1.756 1.473,-1.756 0.815,0 1.473,0.785 1.473,1.756 -0.001,0.968 -0.658,1.755 -1.473,1.755 z"
         style="fill:#8a9398" />
    </g>
  </g>
</svg>
