<?xml version="1.0" encoding="UTF-8" standalone="no"?>
<svg
   xmlns:dc="http://purl.org/dc/elements/1.1/"
   xmlns:cc="http://creativecommons.org/ns#"
   xmlns:rdf="http://www.w3.org/1999/02/22-rdf-syntax-ns#"
   xmlns:svg="http://www.w3.org/2000/svg"
   xmlns="http://www.w3.org/2000/svg"
   id="svg489"
   version="1.1"
   viewBox="0 0 13.228902 10.668264"
   height="10.668264mm"
   width="13.228902mm">
  <defs
     id="defs483" />
  <metadata
     id="metadata486">
    <rdf:RDF>
      <cc:Work
         rdf:about="">
        <dc:format>image/svg+xml</dc:format>
        <dc:type
           rdf:resource="http://purl.org/dc/dcmitype/StillImage" />
        <dc:title></dc:title>
      </cc:Work>
    </rdf:RDF>
  </metadata>
  <g
     transform="translate(-73.566407,-112.06075)"
     id="layer1">
    <g
       id="g215"
       transform="matrix(0.26458333,0,0,0.26458333,54.780991,58.170677)">
      <g
         id="g201">
        <path
           id="path197"
           d="m 111.979,216.552 c -1.221,1.123 -2.82,1.8 -4.572,1.8 -1.751,0 -3.345,-0.677 -4.571,-1.8 -5.255,2.173 -9.021,7.965 -9.021,14.783 0,0.885 0.073,1.752 0.195,2.6 h 26.8 c 0.122,-0.848 0.189,-1.715 0.189,-2.6 0.001,-6.817 -3.765,-12.61 -9.02,-14.783 z"
           style="fill:#e6e6e6" />
        <path
           id="path199"
           d="m 107.407,217.041 c 3.522,0 6.378,-2.985 6.378,-6.677 0,-3.687 -2.856,-6.677 -6.378,-6.677 -3.516,0 -6.372,2.991 -6.372,6.677 0,3.692 2.857,6.677 6.372,6.677 z"
           style="fill:#e6e6e6" />
      </g>
      <g
         id="g207">
        <path
           id="path203"
           d="m 89.158,216.546 c -1.221,1.117 -2.814,1.795 -4.572,1.795 -1.746,0 -3.345,-0.678 -4.565,-1.795 -5.255,2.167 -9.021,7.965 -9.021,14.777 0,0.885 0.067,1.758 0.189,2.606 h 26.8 c 0.122,-0.848 0.195,-1.721 0.195,-2.606 0.001,-6.812 -3.765,-12.61 -9.026,-14.777 z"
           style="fill:#e6e6e6" />
        <path
           id="path205"
           d="m 84.586,217.034 c 3.522,0 6.378,-2.99 6.378,-6.677 0,-3.693 -2.856,-6.678 -6.378,-6.678 -3.516,0 -6.372,2.985 -6.372,6.678 0,3.687 2.857,6.677 6.372,6.677 z"
           style="fill:#e6e6e6" />
      </g>
      <g
         id="g213">
        <path
           id="path209"
           d="m 100.48,226.617 c -1.221,1.117 -2.82,1.8 -4.565,1.8 -1.751,0 -3.345,-0.684 -4.572,-1.8 -5.261,2.167 -9.021,7.971 -9.021,14.782 0,0.885 0.067,1.758 0.189,2.601 h 26.807 c 0.122,-0.843 0.189,-1.715 0.189,-2.601 0,-6.811 -3.766,-12.615 -9.027,-14.782 z"
           style="fill:#ffffff" />
        <path
           id="path211"
           d="m 95.915,227.111 c 3.516,0 6.372,-2.991 6.372,-6.677 0,-3.686 -2.856,-6.683 -6.372,-6.683 -3.522,0 -6.372,2.997 -6.372,6.683 0,3.686 2.85,6.677 6.372,6.677 z"
           style="fill:#ffffff" />
      </g>
    </g>
  </g>
</svg>
