<?xml version="1.0" encoding="UTF-8" standalone="no"?>
<svg
   xmlns:dc="http://purl.org/dc/elements/1.1/"
   xmlns:cc="http://creativecommons.org/ns#"
   xmlns:rdf="http://www.w3.org/1999/02/22-rdf-syntax-ns#"
   xmlns:svg="http://www.w3.org/2000/svg"
   xmlns="http://www.w3.org/2000/svg"
   id="svg489"
   version="1.1"
   viewBox="0 0 16.404829 14.450747"
   height="14.450747mm"
   width="16.404829mm">
  <defs
     id="defs483" />
  <metadata
     id="metadata486">
    <rdf:RDF>
      <cc:Work
         rdf:about="">
        <dc:format>image/svg+xml</dc:format>
        <dc:type
           rdf:resource="http://purl.org/dc/dcmitype/StillImage" />
        <dc:title></dc:title>
      </cc:Work>
    </rdf:RDF>
  </metadata>
  <g
     transform="translate(-129.38092,-214.17938)"
     id="layer1">
    <g
       id="g32"
       transform="matrix(0.26458333,0,0,0.26458333,61.383666,212.93796)">
      <path
         id="path28"
         d="m 276.903,42.165 c 0,-1.55 -0.445,-2.814 -1.336,-3.79 -0.89,-0.977 -2.417,-1.886 -4.58,-2.728 -4.25,-1.551 -7.403,-3.278 -9.461,-5.183 -2.059,-1.905 -3.087,-4.59 -3.087,-8.055 0,-3.216 1.028,-5.853 3.087,-7.911 2.058,-2.058 4.828,-3.269 8.313,-3.632 V 4.692 h 4.565 v 6.231 c 3.37,0.498 6.017,1.905 7.94,4.221 1.923,2.316 2.866,5.322 2.828,9.017 l -0.086,0.144 h -8.184 c 0,-2.259 -0.465,-4.001 -1.393,-5.226 -0.929,-1.225 -2.197,-1.838 -3.806,-1.838 -1.646,0 -2.871,0.474 -3.675,1.421 -0.805,0.948 -1.206,2.207 -1.206,3.776 0,1.493 0.426,2.704 1.277,3.632 0.853,0.928 2.417,1.843 4.695,2.742 4.23,1.666 7.365,3.446 9.404,5.341 2.038,1.895 3.058,4.546 3.058,7.954 0,3.331 -1.023,5.992 -3.072,7.983 -2.048,1.991 -4.834,3.168 -8.356,3.532 v 5.686 h -4.565 v -5.657 c -3.58,-0.364 -6.537,-1.632 -8.873,-3.805 -2.336,-2.173 -3.464,-5.365 -3.389,-9.577 l 0.058,-0.144 h 8.184 c 0,2.565 0.589,4.403 1.767,5.513 1.177,1.11 2.675,1.666 4.494,1.666 1.741,0 3.077,-0.464 4.006,-1.393 0.928,-0.927 1.393,-2.176 1.393,-3.746 z"
         style="fill:#ffffff" />
      <path
         id="path30"
         d="m 310.644,42.165 c 0,-1.55 -0.445,-2.814 -1.335,-3.79 -0.891,-0.977 -2.417,-1.886 -4.58,-2.728 -4.25,-1.551 -7.404,-3.278 -9.462,-5.183 -2.059,-1.905 -3.087,-4.59 -3.087,-8.055 0,-3.216 1.028,-5.853 3.087,-7.911 2.058,-2.058 4.829,-3.269 8.313,-3.632 V 4.692 h 4.566 v 6.231 c 3.369,0.498 6.016,1.905 7.939,4.221 1.923,2.316 2.867,5.322 2.828,9.017 l -0.086,0.144 h -8.184 c 0,-2.259 -0.464,-4.001 -1.393,-5.226 -0.929,-1.225 -2.197,-1.838 -3.805,-1.838 -1.646,0 -2.872,0.474 -3.676,1.421 -0.804,0.948 -1.206,2.207 -1.206,3.776 0,1.493 0.426,2.704 1.277,3.632 0.853,0.928 2.417,1.843 4.695,2.742 4.23,1.666 7.365,3.446 9.404,5.341 2.041,1.896 3.061,4.547 3.061,7.955 0,3.331 -1.024,5.992 -3.073,7.983 -2.048,1.991 -4.833,3.168 -8.355,3.532 v 5.686 h -4.566 v -5.657 c -3.579,-0.364 -6.537,-1.632 -8.873,-3.805 -2.335,-2.173 -3.465,-5.365 -3.388,-9.577 l 0.057,-0.144 h 8.185 c 0,2.565 0.588,4.403 1.766,5.513 1.178,1.11 2.676,1.666 4.494,1.666 1.742,0 3.077,-0.464 4.006,-1.393 0.927,-0.928 1.391,-2.177 1.391,-3.747 z"
         style="fill:#ffffff" />
    </g>
  </g>
</svg>
