<?xml version="1.0" encoding="UTF-8" standalone="no"?>
<svg
   xmlns:dc="http://purl.org/dc/elements/1.1/"
   xmlns:cc="http://creativecommons.org/ns#"
   xmlns:rdf="http://www.w3.org/1999/02/22-rdf-syntax-ns#"
   xmlns:svg="http://www.w3.org/2000/svg"
   xmlns="http://www.w3.org/2000/svg"
   id="svg489"
   version="1.1"
   viewBox="0 0 12.70039 12.700165"
   height="12.700165mm"
   width="12.70039mm">
  <defs
     id="defs483" />
  <metadata
     id="metadata486">
    <rdf:RDF>
      <cc:Work
         rdf:about="">
        <dc:format>image/svg+xml</dc:format>
        <dc:type
           rdf:resource="http://purl.org/dc/dcmitype/StillImage" />
        <dc:title></dc:title>
      </cc:Work>
    </rdf:RDF>
  </metadata>
  <g
     transform="translate(-104.29939,-153.80792)"
     id="layer1">
    <path
       id="path44"
       d="m 115.78065,153.88673 -5.13107,5.1308 -5.13106,-5.1308 c -0.10478,-0.10504 -0.2749,-0.10504 -0.38021,0 l -0.76014,0.76041 c -0.10504,0.10478 -0.10504,0.27491 0,0.37995 l 5.13132,5.1308 -5.13132,5.13106 c -0.10504,0.10504 -0.10478,0.27517 0,0.38021 l 0.76014,0.76015 c 0.10504,0.10477 0.27517,0.10503 0.38021,0 l 5.13106,-5.13107 5.13107,5.13107 c 0.10477,0.10503 0.2749,0.10503 0.3802,0 l 0.76015,-0.76015 c 0.10504,-0.10504 0.10504,-0.27517 0,-0.38021 l -5.13133,-5.13106 5.13133,-5.13107 c 0.10504,-0.10504 0.10478,-0.27516 0,-0.37994 l -0.76015,-0.76041 c -0.1053,-0.10478 -0.27543,-0.10478 -0.3802,2.6e-4 z"
       style="fill:#ffffff;stroke-width:0.26458332" />
  </g>
</svg>
