<?xml version="1.0" encoding="UTF-8" standalone="no"?>
<svg
   xmlns:dc="http://purl.org/dc/elements/1.1/"
   xmlns:cc="http://creativecommons.org/ns#"
   xmlns:rdf="http://www.w3.org/1999/02/22-rdf-syntax-ns#"
   xmlns:svg="http://www.w3.org/2000/svg"
   xmlns="http://www.w3.org/2000/svg"
   id="svg489"
   version="1.1"
   viewBox="0 0 16.404167 16.404167"
   height="16.404167mm"
   width="16.404167mm">
  <defs
     id="defs483" />
  <metadata
     id="metadata486">
    <rdf:RDF>
      <cc:Work
         rdf:about="">
        <dc:format>image/svg+xml</dc:format>
        <dc:type
           rdf:resource="http://purl.org/dc/dcmitype/StillImage" />
        <dc:title></dc:title>
      </cc:Work>
    </rdf:RDF>
  </metadata>
  <g
     transform="translate(-84.807712,-212.35884)"
     id="layer1">
    <g
       id="g50"
       transform="matrix(0.26458333,0,0,0.26458333,84.543129,195.16092)">
      <g
         id="layer8_3_">
        <path
           d="M 63,96 C 63,113.121 49.121,127 32,127 14.879,127 1,113.121 1,96 1,78.879 14.879,65 32,65 49.121,65 63,78.879 63,96 Z"
           id="path125302_3_"
           style="fill:#e74c3c" />
      </g>
      <path
         id="path48"
         d="m 44,97.879 c 0,0.205 -0.198,0.371 -0.443,0.371 H 20.443 C 20.198,98.25 20,98.084 20,97.879 v -3.758 c 0,-0.205 0.199,-0.371 0.443,-0.371 h 23.114 c 0.245,0 0.443,0.166 0.443,0.371 z"
         style="fill:#ffffff" />
    </g>
  </g>
</svg>
