<?xml version="1.0" encoding="UTF-8" standalone="no"?>
<!-- Created with Inkscape (http://www.inkscape.org/) -->

<svg
   xmlns:dc="http://purl.org/dc/elements/1.1/"
   xmlns:cc="http://creativecommons.org/ns#"
   xmlns:rdf="http://www.w3.org/1999/02/22-rdf-syntax-ns#"
   xmlns:svg="http://www.w3.org/2000/svg"
   xmlns="http://www.w3.org/2000/svg"
   xmlns:sodipodi="http://sodipodi.sourceforge.net/DTD/sodipodi-0.dtd"
   xmlns:inkscape="http://www.inkscape.org/namespaces/inkscape"
   width="5.8208332mm"
   height="5.6885414mm"
   viewBox="0 0 5.8208332 5.6885414"
   version="1.1"
   id="svg5057"
   sodipodi:docname="tag-triDot.svgz"
   inkscape:version="0.92.1 r15371">
  <defs
     id="defs5051" />
  <sodipodi:namedview
     id="base"
     pagecolor="#ffffff"
     bordercolor="#666666"
     borderopacity="1.0"
     inkscape:pageopacity="0.0"
     inkscape:pageshadow="2"
     inkscape:zoom="0.35"
     inkscape:cx="-711.13119"
     inkscape:cy="-149.96428"
     inkscape:document-units="mm"
     inkscape:current-layer="layer1"
     showgrid="false"
     inkscape:window-width="1440"
     inkscape:window-height="837"
     inkscape:window-x="-8"
     inkscape:window-y="-8"
     inkscape:window-maximized="1"
     fit-margin-top="0"
     fit-margin-left="0"
     fit-margin-right="0"
     fit-margin-bottom="0" />
  <metadata
     id="metadata5054">
    <rdf:RDF>
      <cc:Work
         rdf:about="">
        <dc:format>image/svg+xml</dc:format>
        <dc:type
           rdf:resource="http://purl.org/dc/dcmitype/StillImage" />
        <dc:title></dc:title>
      </cc:Work>
    </rdf:RDF>
  </metadata>
  <g
     inkscape:label="Layer 1"
     inkscape:groupmode="layer"
     id="layer1"
     transform="translate(-102.16696,-169.42359)">
    <g
       transform="matrix(0.26458333,0,0,0.26458333,11.944049,96.067858)"
       id="g465">
      <path
         style="fill:#ffffff"
         inkscape:connector-curvature="0"
         d="m 349,288.75 h -6 c -1.104,0 -2,0.896 -2,2 v 6 c 0,1.104 0.896,2 2,2 h 6 c 1.104,0 2,-0.896 2,-2 v -6 c 0,-1.104 -0.896,-2 -2,-2 z"
         id="path459" />
      <path
         style="fill:#ffffff"
         inkscape:connector-curvature="0"
         d="m 361,288.75 h -6 c -1.104,0 -2,0.896 -2,2 v 6 c 0,1.104 0.896,2 2,2 h 6 c 1.104,0 2,-0.896 2,-2 v -6 c 0,-1.104 -0.896,-2 -2,-2 z"
         id="path461" />
      <path
         style="fill:#ffffff"
         inkscape:connector-curvature="0"
         d="m 349,287.25 h 6 c 1.104,0 2,-0.896 2,-2 v -6 c 0,-1.104 -0.896,-2 -2,-2 h -6 c -1.104,0 -2,0.896 -2,2 v 6 c 0,1.104 0.896,2 2,2 z"
         id="path463" />
    </g>
  </g>
</svg>
