<?xml version="1.0" encoding="UTF-8" standalone="no"?>
<svg
   xmlns:dc="http://purl.org/dc/elements/1.1/"
   xmlns:cc="http://creativecommons.org/ns#"
   xmlns:rdf="http://www.w3.org/1999/02/22-rdf-syntax-ns#"
   xmlns:svg="http://www.w3.org/2000/svg"
   xmlns="http://www.w3.org/2000/svg"
   id="svg489"
   version="1.1"
   viewBox="0 0 11.90625 15.875"
   height="15.875mm"
   width="11.90625mm">
  <defs
     id="defs483" />
  <metadata
     id="metadata486">
    <rdf:RDF>
      <cc:Work
         rdf:about="">
        <dc:format>image/svg+xml</dc:format>
        <dc:type
           rdf:resource="http://purl.org/dc/dcmitype/StillImage" />
        <dc:title></dc:title>
      </cc:Work>
    </rdf:RDF>
  </metadata>
  <g
     transform="translate(-122.33625,-186.431)"
     id="layer1">
    <path
       id="path36"
       d="m 133.15189,186.431 h -2.44369 l -8.37195,8.37194 v 6.39498 c 0,0.61198 0.48895,1.10808 1.09061,1.10808 h 2.16032 l 8.65532,-8.65558 v -6.11135 c 0,-0.61198 -0.48895,-1.10807 -1.09061,-1.10807 z m -5.92349,11.83243 -1.2708,1.27079 -2.96783,-2.96677 1.17422,-1.17422 c 0.82471,-0.82471 2.159,-0.82921 2.97974,-0.008 0.7874,0.78713 0.8636,2.1 0.0847,2.87867 z m 1.89441,-1.89442 -2.96783,-2.9673 0.60193,-0.6014 2.46247,2.46168 1.52797,-1.5277 0.5043,0.50509 z m 3.87271,-3.80497 c -0.86307,0.86254 -2.24367,0.8882 -3.08134,0.0508 -0.83714,-0.83741 -0.8165,-2.2225 0.0466,-3.08504 0.49715,-0.49689 1.15702,-0.71173 1.79255,-0.6567 l -0.0714,0.86281 c -0.40878,-0.0714 -0.83714,0.0545 -1.14882,0.36645 -0.51832,0.51726 -0.56488,1.32132 0.004,1.88938 0.55959,0.56013 1.37292,0.52229 1.89045,0.005 0.31168,-0.31167 0.43709,-0.74109 0.36539,-1.14882 l 0.86307,-0.072 c 0.055,0.635 -0.16351,1.29169 -0.66014,1.78858 z"
       style="fill:#ffffff;stroke-width:0.26458332" />
  </g>
</svg>
