<?xml version="1.0" encoding="UTF-8" standalone="no"?>
<svg
   xmlns:dc="http://purl.org/dc/elements/1.1/"
   xmlns:cc="http://creativecommons.org/ns#"
   xmlns:rdf="http://www.w3.org/1999/02/22-rdf-syntax-ns#"
   xmlns:svg="http://www.w3.org/2000/svg"
   xmlns="http://www.w3.org/2000/svg"
   id="svg489"
   version="1.1"
   viewBox="0 0 15.874804 10.498832"
   height="10.498832mm"
   width="15.874804mm">
  <defs
     id="defs483" />
  <metadata
     id="metadata486">
    <rdf:RDF>
      <cc:Work
         rdf:about="">
        <dc:format>image/svg+xml</dc:format>
        <dc:type
           rdf:resource="http://purl.org/dc/dcmitype/StillImage" />
        <dc:title></dc:title>
      </cc:Work>
    </rdf:RDF>
  </metadata>
  <g
     transform="translate(-95.763175,-136.73426)"
     id="layer1">
    <g
       id="g146"
       transform="matrix(0.26458333,0,0,0.26458333,-23.299567,116.58364)">
      <path
         id="path142"
         d="m 478.093,114.531 c -1.784,1.785 -4.725,1.74 -6.567,-0.104 L 451.414,94.315 c -1.843,-1.842 -1.889,-4.784 -0.104,-6.569 v 0 c 1.786,-1.785 4.727,-1.739 6.569,0.104 l 20.113,20.112 c 1.841,1.843 1.887,4.784 0.101,6.569 z"
         style="fill:#ffffff" />
      <path
         id="path144"
         d="m 478.679,113.946 c -2.002,2.001 -5.069,2.175 -6.855,0.39 v 0 c -1.785,-1.786 -1.612,-4.854 0.39,-6.854 l 29.698,-29.699 c 2.002,-2.001 5.07,-2.176 6.856,-0.391 v 0 c 1.785,1.786 1.61,4.854 -0.391,6.855 z"
         style="fill:#ffffff" />
    </g>
  </g>
</svg>
