<?xml version="1.0" encoding="UTF-8" standalone="no"?>
<svg
   xmlns:dc="http://purl.org/dc/elements/1.1/"
   xmlns:cc="http://creativecommons.org/ns#"
   xmlns:rdf="http://www.w3.org/1999/02/22-rdf-syntax-ns#"
   xmlns:svg="http://www.w3.org/2000/svg"
   xmlns="http://www.w3.org/2000/svg"
   id="svg489"
   version="1.1"
   viewBox="0 0 14.02275 15.875"
   height="15.875mm"
   width="14.02275mm">
  <defs
     id="defs483" />
  <metadata
     id="metadata486">
    <rdf:RDF>
      <cc:Work
         rdf:about="">
        <dc:format>image/svg+xml</dc:format>
        <dc:type
           rdf:resource="http://purl.org/dc/dcmitype/StillImage" />
        <dc:title></dc:title>
      </cc:Work>
    </rdf:RDF>
  </metadata>
  <g
     transform="translate(-20.784656,-111.59553)"
     id="layer1">
    <path
       style="fill:#f62300;fill-opacity:1;stroke-width:0.26458332"
       id="path269"
       d="m 24.741827,127.47053 c -3.718189,-1.46923 -4.411927,-4.88526 -3.718189,-6.44048 0.337608,-0.75698 0.945885,-1.68355 1.331912,-2.66621 0.406929,-1.0369 0.582613,-2.11085 0.582613,-2.11085 0.97102,0.97208 0.638175,2.44396 0.638175,2.44396 3.745706,-3.69358 2.99667,-7.10142 2.99667,-7.10142 3.412861,1.04696 4.439444,5.82401 4.439444,5.82401 1.054365,-0.86095 0.277548,-2.97153 0.277548,-2.97153 4.883679,4.52702 3.330575,7.99703 3.107796,8.74844 -0.7493,2.52704 -4.106598,4.27408 -4.106598,4.27408 2.469621,-6.19045 -2.303198,-9.16225 -2.303198,-9.16225 0.111125,2.97153 -1.331912,4.22142 -1.331912,4.22142 0,-1.66634 -0.499534,-2.30505 -0.499534,-2.30505 -0.166158,1.41658 -1.472671,3.10198 -1.775619,3.86054 -0.499533,1.24989 0.360892,3.38534 0.360892,3.38534 z" />
  </g>
</svg>
