<?xml version="1.0" encoding="UTF-8" standalone="no"?>
<svg
   xmlns:dc="http://purl.org/dc/elements/1.1/"
   xmlns:cc="http://creativecommons.org/ns#"
   xmlns:rdf="http://www.w3.org/1999/02/22-rdf-syntax-ns#"
   xmlns:svg="http://www.w3.org/2000/svg"
   xmlns="http://www.w3.org/2000/svg"
   id="svg489"
   version="1.1"
   viewBox="0 0 16.404167 16.404167"
   height="16.404167mm"
   width="16.404167mm">
  <defs
     id="defs483" />
  <metadata
     id="metadata486">
    <rdf:RDF>
      <cc:Work
         rdf:about="">
        <dc:format>image/svg+xml</dc:format>
        <dc:type
           rdf:resource="http://purl.org/dc/dcmitype/StillImage" />
        <dc:title></dc:title>
      </cc:Work>
    </rdf:RDF>
  </metadata>
  <g
     transform="translate(-113.67282,-176.54472)"
     id="layer1">
    <g
       id="g100"
       transform="matrix(0.26458333,0,0,0.26458333,62.608239,159.3468)">
      <g
         id="layer8_5_">
        <path
           d="m 255,96 c 0,17.121 -13.879,31 -31,31 -17.121,0 -31,-13.879 -31,-31 0,-17.121 13.879,-31 31,-31 17.121,0 31,13.879 31,31 z"
           id="path125302_5_"
           style="fill:#8a9398" />
      </g>
      <g
         id="g98">
        <path
           id="path92"
           d="m 217.375,87.933 c -2.146,0 -3.84,0.715 -5.082,2.144 -1.243,1.43 -1.863,3.386 -1.863,5.87 0,2.555 0.599,4.53 1.796,5.923 1.198,1.394 2.905,2.09 5.123,2.09 1.362,0 2.916,-0.245 4.661,-0.734 v 1.99 c -1.354,0.507 -3.023,0.761 -5.009,0.761 -2.875,0 -5.095,-0.873 -6.657,-2.618 C 208.781,101.614 208,99.134 208,95.92 c 0,-2.012 0.376,-3.775 1.128,-5.289 0.752,-1.514 1.838,-2.68 3.259,-3.499 1.42,-0.819 3.092,-1.229 5.015,-1.229 2.048,0 3.837,0.374 5.369,1.122 l -0.962,1.95 c -1.477,-0.695 -2.955,-1.042 -4.434,-1.042 z"
           style="fill:#ffffff" />
        <path
           id="path94"
           d="m 232.614,90.805 c 0.65,0 1.233,0.053 1.75,0.16 l -0.307,2.057 c -0.605,-0.133 -1.14,-0.2 -1.603,-0.2 -1.184,0 -2.197,0.481 -3.038,1.442 -0.842,0.962 -1.262,2.159 -1.262,3.593 v 7.853 h -2.217 V 91.072 h 1.83 l 0.254,2.711 h 0.107 c 0.543,-0.953 1.197,-1.688 1.963,-2.204 0.765,-0.516 1.606,-0.774 2.523,-0.774 z"
           style="fill:#ffffff" />
        <path
           id="path96"
           d="m 236.781,104.294 c 0,-0.597 0.136,-1.049 0.408,-1.355 0.271,-0.308 0.661,-0.461 1.168,-0.461 0.516,0 0.919,0.153 1.209,0.461 0.289,0.307 0.434,0.759 0.434,1.355 0,0.579 -0.147,1.024 -0.441,1.335 -0.293,0.312 -0.694,0.467 -1.202,0.467 -0.454,0 -0.831,-0.14 -1.129,-0.421 -0.298,-0.279 -0.447,-0.74 -0.447,-1.381 z"
           style="fill:#ffffff" />
      </g>
    </g>
  </g>
</svg>
