<?xml version="1.0" encoding="UTF-8" standalone="no"?>
<svg
   xmlns:dc="http://purl.org/dc/elements/1.1/"
   xmlns:cc="http://creativecommons.org/ns#"
   xmlns:rdf="http://www.w3.org/1999/02/22-rdf-syntax-ns#"
   xmlns:svg="http://www.w3.org/2000/svg"
   xmlns="http://www.w3.org/2000/svg"
   id="svg489"
   version="1.1"
   viewBox="0 0 14.022752 15.875"
   height="15.875mm"
   width="14.022752mm">
  <defs
     id="defs483" />
  <metadata
     id="metadata486">
    <rdf:RDF>
      <cc:Work
         rdf:about="">
        <dc:format>image/svg+xml</dc:format>
        <dc:type
           rdf:resource="http://purl.org/dc/dcmitype/StillImage" />
        <dc:title></dc:title>
      </cc:Work>
    </rdf:RDF>
  </metadata>
  <g
     transform="translate(-121.278,-132.9771)"
     id="layer1">
    <path
       id="path269"
       d="m 125.23517,148.8521 c -3.71819,-1.46923 -4.41193,-4.88527 -3.71819,-6.44049 0.33761,-0.75697 0.94589,-1.68355 1.33191,-2.66621 0.40693,-1.0369 0.58261,-2.11084 0.58261,-2.11084 0.97103,0.97208 0.63818,2.44395 0.63818,2.44395 3.74571,-3.69358 2.99667,-7.10141 2.99667,-7.10141 3.41286,1.04695 4.43944,5.824 4.43944,5.824 1.05437,-0.86095 0.27755,-2.97153 0.27755,-2.97153 4.88368,4.52702 3.33058,7.99703 3.1078,8.74845 -0.7493,2.52703 -4.1066,4.27408 -4.1066,4.27408 2.46962,-6.19046 -2.3032,-9.16226 -2.3032,-9.16226 0.11113,2.97154 -1.33191,4.22143 -1.33191,4.22143 0,-1.66635 -0.49953,-2.30505 -0.49953,-2.30505 -0.16616,1.41658 -1.47267,3.10197 -1.77562,3.86053 -0.49954,1.24989 0.36089,3.38535 0.36089,3.38535 z"
       style="fill:#ffffff;stroke-width:0.26458332" />
  </g>
</svg>
