<?xml version="1.0" encoding="UTF-8" standalone="no"?>
<!-- Created with Inkscape (http://www.inkscape.org/) -->

<svg
   xmlns:dc="http://purl.org/dc/elements/1.1/"
   xmlns:cc="http://creativecommons.org/ns#"
   xmlns:rdf="http://www.w3.org/1999/02/22-rdf-syntax-ns#"
   xmlns:svg="http://www.w3.org/2000/svg"
   xmlns="http://www.w3.org/2000/svg"
   xmlns:sodipodi="http://sodipodi.sourceforge.net/DTD/sodipodi-0.dtd"
   xmlns:inkscape="http://www.inkscape.org/namespaces/inkscape"
   width="12.036625mm"
   height="12.507288mm"
   viewBox="0 0 12.036625 12.507288"
   version="1.1"
   id="svg891"
   inkscape:version="0.92.1 r15371"
   sodipodi:docname="tag-AI.svgz">
  <defs
     id="defs885" />
  <sodipodi:namedview
     id="base"
     pagecolor="#ffffff"
     bordercolor="#666666"
     borderopacity="1.0"
     inkscape:pageopacity="0.0"
     inkscape:pageshadow="2"
     inkscape:zoom="7.9195959"
     inkscape:cx="61.907803"
     inkscape:cy="12.549468"
     inkscape:document-units="mm"
     inkscape:current-layer="layer1"
     showgrid="false"
     fit-margin-top="0"
     fit-margin-left="0"
     fit-margin-right="0"
     fit-margin-bottom="0"
     inkscape:window-width="1440"
     inkscape:window-height="837"
     inkscape:window-x="-8"
     inkscape:window-y="-8"
     inkscape:window-maximized="1" />
  <metadata
     id="metadata888">
    <rdf:RDF>
      <cc:Work
         rdf:about="">
        <dc:format>image/svg+xml</dc:format>
        <dc:type
           rdf:resource="http://purl.org/dc/dcmitype/StillImage" />
        <dc:title></dc:title>
      </cc:Work>
    </rdf:RDF>
  </metadata>
  <g
     inkscape:label="Layer 1"
     inkscape:groupmode="layer"
     id="layer1"
     transform="translate(-129.29716,-141.06778)">
    <g
       transform="matrix(0.26458333,0,0,0.26458333,8.3154473,71.121072)"
       id="g485"
       style="fill:#ffffff">
      <path
         style="fill:#ffffff"
         inkscape:connector-curvature="0"
         d="m 501.166,295.305 c -3.094,-5.053 -9.697,-6.64 -14.75,-3.545 -0.632,0.387 -1.21,0.828 -1.73,1.315 l -3.781,-2.646 c 0.908,-2.636 0.9,-5.563 -0.132,-8.273 l 4.954,-2.71 c 2.88,3.629 8.076,4.625 12.126,2.145 4.378,-2.682 5.755,-8.404 3.073,-12.783 -2.682,-4.379 -8.404,-5.754 -12.783,-3.072 -3.323,2.035 -4.912,5.823 -4.313,9.445 l -5.509,3.014 c -3.857,-4.161 -10.232,-5.171 -15.257,-2.094 -5.727,3.506 -7.525,10.99 -4.019,16.717 3.506,5.725 10.989,7.523 16.716,4.016 1.014,-0.621 1.897,-1.371 2.658,-2.21 l 3.572,2.501 c -1.126,2.992 -0.919,6.449 0.88,9.385 3.094,5.053 9.695,6.641 14.749,3.546 5.052,-3.096 6.64,-9.699 3.546,-14.751 z M 489.284,267.6 c 3.354,-2.055 7.735,-1.006 9.786,2.344 2.05,3.349 0.994,7.728 -2.359,9.781 -3.355,2.055 -7.734,1.004 -9.785,-2.344 -2.051,-3.35 -0.996,-7.728 2.358,-9.781 z m -15.016,26.795 c -4.387,2.686 -10.115,1.313 -12.797,-3.064 -2.682,-4.38 -1.301,-10.107 3.086,-12.793 4.385,-2.686 10.113,-1.313 12.796,3.066 2.68,4.378 1.299,10.105 -3.085,12.791 z m 22.035,13.507 c -3.871,2.37 -8.925,1.159 -11.291,-2.705 -2.365,-3.862 -1.148,-8.916 2.723,-11.286 3.869,-2.37 8.926,-1.158 11.291,2.704 2.366,3.865 1.146,8.917 -2.723,11.287 z"
         id="path477" />
      <circle
         style="fill:#ffffff"
         cx="491.944"
         cy="300.952"
         r="5.006"
         id="circle479" />
      <circle
         style="fill:#ffffff"
         cx="492.95999"
         cy="273.74399"
         r="4.3379998"
         id="circle481" />
      <circle
         style="fill:#ffffff"
         cx="469.362"
         cy="286.573"
         r="5.6729999"
         id="circle483" />
    </g>
  </g>
</svg>
