<?xml version="1.0" encoding="UTF-8" standalone="no"?>
<svg
   xmlns:dc="http://purl.org/dc/elements/1.1/"
   xmlns:cc="http://creativecommons.org/ns#"
   xmlns:rdf="http://www.w3.org/1999/02/22-rdf-syntax-ns#"
   xmlns:svg="http://www.w3.org/2000/svg"
   xmlns="http://www.w3.org/2000/svg"
   id="svg324"
   version="1.1"
   viewBox="0 0 15.044431 15.875"
   height="15.875mm"
   width="15.044431mm">
  <defs
     id="defs318" />
  <metadata
     id="metadata321">
    <rdf:RDF>
      <cc:Work
         rdf:about="">
        <dc:format>image/svg+xml</dc:format>
        <dc:type
           rdf:resource="http://purl.org/dc/dcmitype/StillImage" />
        <dc:title></dc:title>
      </cc:Work>
    </rdf:RDF>
  </metadata>
  <g
     transform="translate(-123.25755,-76.639881)"
     id="layer1">
    <g
       id="g267"
       transform="matrix(0.26458333,0,0,0.26458333,122.16213,8.3773819)">
      <path
         id="path261"
         d="M 15.237,274.564 C 5.635,281.043 3.927,291.116 4.16,298.352 8.343,309.832 19.069,318 31.643,318 c 0.989,0 1.966,-0.051 2.93,-0.149 -7.947,-4.481 -11.976,-17.497 -12.844,-26.525 -0.454,-4.722 -1.388,-11.498 -0.961,-14.289 -0.101,0.005 -0.201,0.009 -0.3,0.009 -2.52,-10e-4 -4.319,-0.885 -5.231,-2.482 z"
         style="fill:#ffffff" />
      <path
         id="path263"
         d="m 54.962,269.247 c -6.709,-6.756 -14.82,-5.767 -20.22,-4.364 -3.314,0.86 -5.36,1.564 -6.566,2.047 0.529,0.828 0.811,1.853 0.811,3.041 0,1.037 -0.454,2.106 -1.191,3.091 0.063,0.026 0.124,0.05 0.19,0.079 1.783,0.795 4.942,3.099 7.174,4.504 3.61,2.275 7.567,5.164 11.011,8.092 3.577,3.04 6.603,6.121 8.175,8.592 2.01,3.158 2.646,6.259 2.824,8.331 2.438,-4.421 3.831,-9.536 3.831,-14.987 C 61,280.741 58.749,274.354 54.962,269.247 Z"
         style="fill:#ffffff" />
      <path
         id="path265"
         d="m 22.341,264.586 c 0.519,-1.77 2.103,-4.682 3.198,-6.586 -6.958,1.521 -13.006,5.587 -17.189,11.212 3.636,-1.31 5.997,-0.915 7.256,-0.435 1.467,-2.131 4.228,-3.922 6.735,-4.191 z"
         style="fill:#ffffff" />
    </g>
  </g>
</svg>
