<?xml version="1.0" encoding="UTF-8" standalone="no"?>
<svg
   xmlns:dc="http://purl.org/dc/elements/1.1/"
   xmlns:cc="http://creativecommons.org/ns#"
   xmlns:rdf="http://www.w3.org/1999/02/22-rdf-syntax-ns#"
   xmlns:svg="http://www.w3.org/2000/svg"
   xmlns="http://www.w3.org/2000/svg"
   id="svg5057"
   version="1.1"
   viewBox="0 0 15.512008 15.875988"
   height="15.875988mm"
   width="15.512008mm">
  <defs
     id="defs5051" />
  <metadata
     id="metadata5054">
    <rdf:RDF>
      <cc:Work
         rdf:about="">
        <dc:format>image/svg+xml</dc:format>
        <dc:type
           rdf:resource="http://purl.org/dc/dcmitype/StillImage" />
        <dc:title></dc:title>
      </cc:Work>
    </rdf:RDF>
  </metadata>
  <g
     transform="translate(-108.66066,-162.06201)"
     id="layer1">
    <g
       id="g555"
       transform="matrix(0.26458333,0,0,0.26458333,91.016878,59.933621)">
      <path
         id="path549"
         d="m 70.658,419.023 c 0,0 -0.213,-2.155 1.023,-3.887 0,0 -1.66,-0.035 -2.438,-0.918 0,0 -4.24,2.791 -1.802,7.102 10e-4,0 0.107,-1.695 3.217,-2.297 z"
         style="fill:#8a9398" />
      <path
         id="path551"
         d="m 120.529,421.074 c -2.119,2.332 -3.038,2.015 -3.18,0.919 -0.142,-1.096 2.332,-2.12 2.19,-3.852 -0.141,-1.731 -1.271,-2.509 -1.271,-2.509 0,0 -1.414,0.248 -3.393,0.105 -1.979,-0.141 -3.762,-0.125 -4.955,0.291 -1.192,0.417 -2.146,2.006 -2.111,2.89 0.035,0.884 0.742,2.969 2.685,3.11 1.944,0.141 3.216,0.459 2.015,1.342 -1.201,0.883 -2.896,1.943 -4.169,1.131 -1.271,-0.813 -3.71,-2.863 -3.675,-5.336 0.035,-2.473 2.279,-5.548 5.256,-5.971 2.977,-0.425 5.769,-0.036 8.877,-0.531 3.11,-0.494 4.382,-3.003 4.276,-4.84 -0.107,-1.838 -2.12,-4.982 -5.795,-4.523 -3.675,0.459 -8.586,2.827 -11.484,1.625 -2.896,-1.201 -4.239,-3.356 -3.604,-5.582 0.636,-2.227 1.61,-3.588 4.452,-4.559 2.791,-0.954 6.832,-1.436 8.904,0.07 1.943,1.414 -1.271,1.767 -1.767,1.731 0,0 -3.922,-0.07 -5.194,0.212 -1.271,0.283 -4.204,1.414 -3.922,3.322 0.282,1.907 0.884,2.613 4.063,2.154 3.181,-0.459 7.031,-1.555 8.444,-1.59 1.413,-0.035 1.731,0.07 1.731,0.07 1.095,-2.119 0.884,-3.426 0.318,-4.239 -0.565,-0.813 -3.074,-4.558 -6.502,-4.771 -3.428,-0.211 -5.229,0.707 -7.03,0.919 -1.803,0.212 -2.403,0.884 -2.121,-0.247 0.283,-1.131 1.625,-2.262 3.215,-3.039 1.591,-0.777 4.347,-0.742 4.347,-0.742 -2.544,-3.286 -5.76,-2.791 -7.031,-2.227 -1.272,0.566 -2.686,1.732 -3.003,2.403 -0.318,0.671 0.6,2.791 0.389,3.462 -0.212,0.672 -0.99,0.707 -1.696,0.178 -0.707,-0.53 -1.413,-2.65 -1.024,-3.498 0.388,-0.848 0.724,-0.911 0.564,-1.272 -0.571,-1.296 -2.349,-1.511 -3.137,-1.542 v -0.004 c 0,0 -0.074,-0.002 -0.192,-0.002 -0.118,0 -0.192,0.002 -0.192,0.002 v 0.004 c -0.787,0.031 -2.565,0.246 -3.137,1.542 -0.159,0.361 0.177,0.425 0.564,1.272 0.389,0.848 -0.317,2.968 -1.024,3.498 -0.707,0.529 -1.483,0.494 -1.695,-0.178 -0.212,-0.671 0.706,-2.791 0.388,-3.462 -0.317,-0.671 -1.73,-1.837 -3.003,-2.403 -1.271,-0.564 -4.487,-1.06 -7.031,2.227 0,0 2.756,-0.035 4.347,0.742 1.59,0.777 2.932,1.908 3.215,3.039 0.282,1.131 -0.318,0.459 -2.121,0.247 -1.801,-0.212 -3.603,-1.13 -7.03,-0.919 -3.428,0.213 -5.937,3.958 -6.502,4.771 -0.564,0.813 -0.776,2.12 0.318,4.239 0,0 0.318,-0.105 1.731,-0.07 1.413,0.035 5.265,1.131 8.444,1.59 3.179,0.459 3.781,-0.247 4.063,-2.154 0.282,-1.908 -2.65,-3.039 -3.922,-3.322 -1.272,-0.282 -5.194,-0.212 -5.194,-0.212 -0.495,0.035 -3.71,-0.317 -1.767,-1.731 2.071,-1.506 6.112,-1.024 8.904,-0.07 2.842,0.971 3.816,2.332 4.452,4.559 0.636,2.226 -0.707,4.381 -3.604,5.582 -2.897,1.202 -7.809,-1.166 -11.483,-1.625 -3.674,-0.459 -5.688,2.686 -5.795,4.523 -0.105,1.837 1.166,4.346 4.276,4.84 3.108,0.495 5.899,0.106 8.877,0.531 2.977,0.423 5.221,3.498 5.256,5.971 0.035,2.473 -2.403,4.523 -3.675,5.336 -1.272,0.813 -2.968,-0.248 -4.169,-1.131 -1.201,-0.883 0.07,-1.201 2.014,-1.342 1.943,-0.142 2.65,-2.227 2.686,-3.11 0.036,-0.883 -0.919,-2.473 -2.111,-2.89 -1.193,-0.416 -2.978,-0.432 -4.955,-0.291 -1.979,0.143 -3.393,-0.105 -3.393,-0.105 0,0 -1.131,0.777 -1.271,2.509 -0.142,1.731 2.332,2.756 2.19,3.852 -0.142,1.096 -1.06,1.413 -3.181,-0.919 0,0 -1.872,1.484 -3.073,3.533 -1.201,2.05 0.177,4.417 3.32,6.042 3.146,1.625 4.913,-0.034 6.502,-1.589 1.59,-1.556 2.191,-0.672 2.015,0.953 -0.177,1.626 -0.884,1.695 -3.71,3.428 -2.827,1.73 -6.325,-1.096 -6.607,-0.777 -0.283,0.318 -0.036,2.473 1.378,3.71 1.413,1.236 5.512,1.06 10.459,1.166 4.946,0.106 6.678,2.897 6.818,3.78 0.142,0.883 -0.706,1.484 -1.201,1.803 -0.494,0.317 -2.049,0.6 -2.721,-0.106 -0.671,-0.706 0.531,-1.131 0.99,-1.626 0.459,-0.494 -2.897,-1.907 -9.682,-1.73 0,0 4.204,6.041 8.903,6.324 3.226,0.193 5.194,-1.413 6.219,-3.215 1.024,-1.803 2.05,-3.322 -0.177,-6.996 -2.226,-3.676 -5.088,-3.18 -7.525,-3.215 -2.438,-0.037 -2.297,-0.885 -1.767,-1.484 0.529,-0.602 0.988,-1.449 3.392,-1.66 2.402,-0.213 5.017,2.367 5.83,2.543 0.813,0.177 1.308,-0.142 1.661,-0.564 0.354,-0.425 0.424,-1.238 -0.071,-3.817 -0.494,-2.579 -3.427,-3.534 -4.451,-3.78 -1.025,-0.248 -1.202,-1.344 0.882,-2.05 2.085,-0.706 3.675,-2.544 4.064,-5.972 0.389,-3.428 -0.849,-3.286 -2.12,-4.875 -1.272,-1.591 -12.226,-1.52 -13.956,-1.803 -1.732,-0.283 -2.58,-1.802 -2.121,-2.826 0.459,-1.025 1.413,0.706 2.156,0.953 0.741,0.248 5.217,0.191 5.217,0.191 1.424,-0.057 3.161,0.15 5.07,0.199 1.163,0.029 1.751,-1.082 2.685,-1.889 2.188,-1.889 2.485,-6.96 1.69,-8.252 -0.796,-1.293 -2.375,-1.691 -2.872,-2.088 -0.497,-0.398 1.281,-2.983 2.972,-1.094 0,0 5.667,7.854 -1.591,14.117 0,0 10.041,3.381 1.988,14.715 0,0 5.469,9.048 0.597,11.235 0,0 2.884,4.872 0.695,9.147 0,0 0.928,2.489 2.672,2.219 1.743,0.271 2.672,-2.219 2.672,-2.219 -2.188,-4.275 0.695,-9.147 0.695,-9.147 -4.872,-2.188 0.597,-11.235 0.597,-11.235 -8.054,-11.334 1.988,-14.715 1.988,-14.715 -7.258,-6.264 -1.591,-14.117 -1.591,-14.117 1.69,-1.89 3.469,0.695 2.972,1.094 -0.497,0.396 -2.076,0.795 -2.872,2.088 -0.795,1.292 -0.497,6.363 1.69,8.252 0.934,0.807 1.521,1.918 2.685,1.889 1.909,-0.049 3.646,-0.256 5.071,-0.199 0,0 4.475,0.057 5.216,-0.191 0.743,-0.247 1.697,-1.979 2.156,-0.953 0.459,1.024 -0.39,2.543 -2.12,2.826 -1.731,0.283 -12.685,0.212 -13.957,1.803 -1.271,1.589 -2.509,1.447 -2.12,4.875 0.389,3.428 1.979,5.266 4.064,5.972 2.084,0.706 1.907,1.802 0.882,2.05 -1.024,0.246 -3.957,1.201 -4.451,3.78 -0.495,2.579 -0.425,3.393 -0.07,3.817 0.353,0.423 0.848,0.741 1.66,0.564 0.813,-0.176 3.428,-2.756 5.829,-2.543 2.403,0.211 2.863,1.059 3.393,1.66 0.53,0.6 0.672,1.447 -1.767,1.484 -2.438,0.035 -5.3,-0.461 -7.525,3.215 -2.227,3.674 -1.201,5.193 -0.177,6.996 1.024,1.802 2.993,3.408 6.219,3.215 4.698,-0.283 8.903,-6.324 8.903,-6.324 -6.784,-0.177 -10.14,1.236 -9.681,1.73 0.459,0.495 1.66,0.92 0.989,1.626 -0.672,0.706 -2.227,0.424 -2.722,0.106 -0.494,-0.318 -1.342,-0.92 -1.201,-1.803 0.142,-0.883 1.873,-3.674 6.819,-3.78 4.947,-0.106 9.046,0.07 10.459,-1.166 1.414,-1.237 1.661,-3.392 1.378,-3.71 -0.282,-0.318 -3.78,2.508 -6.606,0.777 -2.827,-1.732 -3.534,-1.802 -3.711,-3.428 -0.177,-1.625 0.425,-2.509 2.015,-0.953 1.589,1.555 3.356,3.214 6.502,1.589 3.144,-1.625 4.521,-3.992 3.32,-6.042 -1.2,-2.048 -3.073,-3.533 -3.073,-3.533 z"
         style="fill:#8a9398" />
      <path
         id="path553"
         d="m 122.755,414.219 c -0.776,0.883 -2.437,0.918 -2.437,0.918 1.235,1.731 1.023,3.887 1.023,3.887 3.11,0.602 3.216,2.297 3.216,2.297 2.439,-4.311 -1.802,-7.102 -1.802,-7.102 z"
         style="fill:#8a9398" />
    </g>
  </g>
</svg>
