<?xml version="1.0" encoding="UTF-8" standalone="no"?>
<svg
   xmlns:dc="http://purl.org/dc/elements/1.1/"
   xmlns:cc="http://creativecommons.org/ns#"
   xmlns:rdf="http://www.w3.org/1999/02/22-rdf-syntax-ns#"
   xmlns:svg="http://www.w3.org/2000/svg"
   xmlns="http://www.w3.org/2000/svg"
   id="svg489"
   version="1.1"
   viewBox="0 0 15.875 15.875"
   height="15.875mm"
   width="15.875mm">
  <defs
     id="defs483" />
  <metadata
     id="metadata486">
    <rdf:RDF>
      <cc:Work
         rdf:about="">
        <dc:format>image/svg+xml</dc:format>
        <dc:type
           rdf:resource="http://purl.org/dc/dcmitype/StillImage" />
        <dc:title></dc:title>
      </cc:Work>
    </rdf:RDF>
  </metadata>
  <g
     transform="translate(-120.57441,-194.56846)"
     id="layer1">
    <g
       id="g26"
       transform="matrix(0.26458333,0,0,0.26458333,69.245239,194.03929)">
      <path
         id="path20"
         d="M 252.964,2 H 195.037 C 194.465,2 194,2.459 194,3.026 v 11.948 c 0,0.566 0.465,1.026 1.037,1.026 h 57.927 C 253.536,16 254,15.541 254,14.974 V 3.026 C 254,2.459 253.536,2 252.964,2 Z"
         style="fill:#ffffff" />
      <path
         id="path22"
         d="M 252.964,25 H 195.037 C 194.465,25 194,25.459 194,26.026 v 11.948 c 0,0.566 0.465,1.026 1.037,1.026 h 57.927 C 253.535,39 254,38.541 254,37.974 V 26.026 C 254,25.459 253.535,25 252.964,25 Z"
         style="fill:#ffffff" />
      <path
         id="path24"
         d="M 252.964,48 H 195.037 C 194.465,48 194,48.459 194,49.026 v 11.948 c 0,0.566 0.465,1.026 1.037,1.026 h 57.927 C 253.535,62 254,61.541 254,60.974 V 49.026 C 254,48.459 253.535,48 252.964,48 Z"
         style="fill:#ffffff" />
    </g>
  </g>
</svg>
