<?xml version="1.0" encoding="UTF-8" standalone="no"?>
<svg
   xmlns:dc="http://purl.org/dc/elements/1.1/"
   xmlns:cc="http://creativecommons.org/ns#"
   xmlns:rdf="http://www.w3.org/1999/02/22-rdf-syntax-ns#"
   xmlns:svg="http://www.w3.org/2000/svg"
   xmlns="http://www.w3.org/2000/svg"
   id="svg674"
   version="1.1"
   viewBox="0 0 16.404167 16.404166"
   height="27.340279mm"
   width="27.340279mm">
  <defs
     id="defs668" />
  <metadata
     id="metadata671">
    <rdf:RDF>
      <cc:Work
         rdf:about="">
        <dc:format>image/svg+xml</dc:format>
        <dc:type
           rdf:resource="http://purl.org/dc/dcmitype/StillImage" />
        <dc:title></dc:title>
      </cc:Work>
    </rdf:RDF>
  </metadata>
  <g
     transform="translate(-118.04196,-111.14911)"
     id="layer1">
    <g
       id="g415"
       transform="matrix(0.26458333,0,0,0.26458333,-0.75595078,60.084525)">
      <polygon
         id="polygon225"
         points="501.788,204.232 501.823,204.271 501.729,204.166 501.728,204.165 "
         style="fill:#8a9398" />
      <rect
         id="rect227"
         height="0.0020000001"
         width="0.044"
         transform="matrix(0.6727,0.7399,-0.7399,0.6727,315.2304,-304.3968)"
         y="204.09801"
         x="501.646"
         style="fill:#8a9398" />
      <polygon
         id="polygon229"
         points="501.769,204.211 501.792,204.237 501.788,204.232 "
         style="fill:#8a9398" />
      <polygon
         id="polygon231"
         points="497.776,200.572 498.062,200.79 498.039,200.772 497.902,200.668 497.952,200.706 497.933,200.69 "
         style="fill:#8a9398" />
      <polygon
         id="polygon233"
         points="501.754,204.195 501.756,204.197 501.769,204.211 "
         style="fill:#8a9398" />
      <polygon
         id="polygon235"
         points="468.477,250.869 468.469,250.866 468.471,250.867 468.487,250.874 "
         style="fill:#8a9398" />
      <polygon
         id="polygon237"
         points="501.689,204.125 501.699,204.135 501.653,204.085 501.653,204.084 "
         style="fill:#8a9398" />
      <polygon
         id="polygon239"
         points="501.682,204.114 501.693,204.127 501.691,204.125 501.68,204.112 "
         style="fill:#8a9398" />
      <polygon
         id="polygon241"
         points="501.689,204.125 501.479,203.899 501.795,204.241 501.756,204.197 "
         style="fill:#8a9398" />
      <polygon
         id="polygon243"
         points="468.518,250.886 468.525,250.89 468.532,250.893 468.52,250.888 "
         style="fill:#8a9398" />
      <polygon
         id="polygon245"
         points="468.477,250.869 468.518,250.886 468.515,250.885 468.471,250.866 468.479,250.87 468.458,250.861 "
         style="fill:#8a9398" />
      <polygon
         id="polygon247"
         points="502.058,204.531 502.03,204.501 502.059,204.533 502.052,204.525 502.063,204.537 502.06,204.533 "
         style="fill:#8a9398" />
      <polygon
         id="polygon249"
         points="502.223,204.718 502.223,204.719 502.217,204.712 "
         style="fill:#8a9398" />
      <polygon
         id="polygon251"
         points="502.005,204.473 502.006,204.474 "
         style="fill:#8a9398" />
      <polygon
         id="polygon253"
         points="502.058,204.531 502.036,204.506 502.035,204.506 502.058,204.531 502.059,204.533 "
         style="fill:#8a9398" />
      <polygon
         id="polygon255"
         points="502.006,204.474 502.002,204.47 502.01,204.479 "
         style="fill:#8a9398" />
      <polygon
         id="polygon257"
         points="501.701,204.136 501.743,204.182 501.75,204.188 501.732,204.17 "
         style="fill:#8a9398" />
      <polygon
         id="polygon259"
         points="501.743,204.182 501.735,204.173 501.793,204.236 501.775,204.217 "
         style="fill:#8a9398" />
      <polygon
         id="polygon261"
         points="502.006,204.474 502.024,204.495 502.01,204.479 502.027,204.498 502.03,204.501 502.03,204.5 "
         style="fill:#8a9398" />
      <polygon
         id="polygon263"
         points="468.537,250.895 468.525,250.89 468.487,250.874 468.515,250.886 "
         style="fill:#8a9398" />
      <polygon
         id="polygon265"
         points="489.169,196.085 489.22,196.102 489.188,196.091 "
         style="fill:#8a9398" />
      <polygon
         id="polygon267"
         points="488.657,195.924 488.547,195.891 488.633,195.917 "
         style="fill:#8a9398" />
      <polygon
         id="polygon269"
         points="488.031,195.74 488.058,195.748 488.04,195.742 "
         style="fill:#8a9398" />
      <polygon
         id="polygon271"
         points="489.159,196.082 489.169,196.085 489.166,196.084 "
         style="fill:#8a9398" />
      <polygon
         id="polygon273"
         points="489.188,196.091 489.195,196.093 489.189,196.091 489.184,196.089 "
         style="fill:#8a9398" />
      <polygon
         id="polygon275"
         points="489.341,196.141 489.382,196.155 489.422,196.168 489.334,196.139 489.32,196.134 "
         style="fill:#8a9398" />
      <rect
         id="rect277"
         height="0.0020000001"
         width="0.013"
         transform="matrix(-0.669,-0.7433,0.7433,-0.669,686.0297,714.9805)"
         y="204.72301"
         x="502.22101"
         style="fill:#8a9398" />
      <polygon
         id="polygon279"
         points="488.229,195.796 488.261,195.806 488.244,195.801 "
         style="fill:#8a9398" />
      <polygon
         id="polygon281"
         points="488.485,195.872 488.496,195.875 488.479,195.87 "
         style="fill:#8a9398" />
      <polygon
         id="polygon283"
         points="488.213,195.792 488.219,195.793 488.229,195.796 488.209,195.791 "
         style="fill:#8a9398" />
      <polygon
         id="polygon285"
         points="488.568,195.897 488.485,195.872 488.287,195.814 488.283,195.813 488.358,195.836 "
         style="fill:#8a9398" />
      <polygon
         id="polygon287"
         points="488.642,195.92 488.817,195.975 488.86,195.987 488.771,195.959 "
         style="fill:#8a9398" />
      <polygon
         id="polygon289"
         points="488.058,195.748 488.059,195.748 "
         style="fill:#8a9398" />
      <polygon
         id="polygon291"
         points="489.373,196.152 489.398,196.161 489.382,196.155 "
         style="fill:#8a9398" />
      <polygon
         id="polygon293"
         points="488.094,195.758 488.059,195.748 488.025,195.739 488.055,195.747 "
         style="fill:#8a9398" />
      <polygon
         id="polygon295"
         points="489.327,196.137 489.319,196.134 489.302,196.129 489.373,196.152 "
         style="fill:#8a9398" />
      <polygon
         id="polygon297"
         points="497.76,200.56 497.755,200.556 497.732,200.539 "
         style="fill:#8a9398" />
      <polygon
         id="polygon299"
         points="488.358,195.836 488.112,195.764 488.055,195.747 488.012,195.735 487.888,195.701 488.593,195.909 "
         style="fill:#8a9398" />
      <polygon
         id="polygon301"
         points="488.817,195.975 488.593,195.909 489.302,196.129 489.254,196.113 489.127,196.071 "
         style="fill:#8a9398" />
      <polygon
         id="polygon303"
         points="489.317,196.133 489.243,196.109 489.195,196.093 489.254,196.113 "
         style="fill:#8a9398" />
      <polygon
         id="polygon305"
         points="488.642,195.92 488.595,195.905 488.568,195.897 "
         style="fill:#8a9398" />
      <polygon
         id="polygon307"
         points="497.755,200.556 497.767,200.564 497.754,200.555 "
         style="fill:#8a9398" />
      <polygon
         id="polygon309"
         points="468.899,251.048 468.937,251.063 468.891,251.044 468.855,251.029 468.78,250.999 468.787,251.001 "
         style="fill:#8a9398" />
      <polygon
         id="polygon311"
         points="505.438,209.209 505.422,209.181 505.452,209.233 "
         style="fill:#8a9398" />
      <polygon
         id="polygon313"
         points="469.117,251.138 469.121,251.139 469.111,251.135 "
         style="fill:#8a9398" />
      <polygon
         id="polygon315"
         points="469.117,251.138 469.106,251.133 469.119,251.139 469.131,251.143 "
         style="fill:#8a9398" />
      <polygon
         id="polygon317"
         points="469.226,251.181 469.253,251.191 469.271,251.199 469.256,251.193 469.261,251.195 469.24,251.187 469.186,251.165 469.104,251.132 469.212,251.175 469.308,251.213 469.256,251.192 "
         style="fill:#8a9398" />
      <polygon
         id="polygon319"
         points="468.771,250.995 468.787,251.001 "
         style="fill:#8a9398" />
      <polygon
         id="polygon321"
         points="505.353,209.062 505.279,208.938 505.422,209.181 505.364,209.08 "
         style="fill:#8a9398" />
      <rect
         id="rect323"
         height="0.0020000001"
         width="0.017999999"
         transform="matrix(-0.9149,-0.4036,0.4036,-0.9149,796.3906,669.8798)"
         y="251.004"
         x="468.78699"
         style="fill:#8a9398" />
      <polygon
         id="polygon325"
         points="469.689,251.362 469.705,251.368 469.664,251.352 "
         style="fill:#8a9398" />
      <polygon
         id="polygon327"
         points="505.56,209.42 505.569,209.437 505.639,209.559 505.626,209.536 "
         style="fill:#8a9398" />
      <polygon
         id="polygon329"
         points="492.359,197.332 492.35,197.328 492.346,197.326 "
         style="fill:#8a9398" />
      <rect
         id="rect331"
         height="0.001"
         width="0.0040000002"
         y="251.368"
         x="469.70499"
         style="fill:#8a9398" />
      <polygon
         id="polygon333"
         points="469.62,251.334 469.633,251.34 469.857,251.424 "
         style="fill:#8a9398" />
      <polygon
         id="polygon335"
         points="469.716,251.371 469.65,251.346 469.712,251.37 "
         style="fill:#8a9398" />
      <polygon
         id="polygon337"
         points="503.229,205.94 503.167,205.861 503.145,205.834 503.333,206.077 503.274,205.999 503.401,206.164 503.255,205.973 "
         style="fill:#8a9398" />
      <polygon
         id="polygon339"
         points="469.311,251.214 469.492,251.286 469.497,251.288 "
         style="fill:#8a9398" />
      <polygon
         id="polygon341"
         points="469.755,251.386 469.705,251.368 469.704,251.368 469.767,251.391 469.763,251.389 "
         style="fill:#8a9398" />
      <polygon
         id="polygon343"
         points="468.748,250.985 468.771,250.995 468.767,250.993 "
         style="fill:#8a9398" />
      <polygon
         id="polygon345"
         points="469.817,251.41 469.758,251.387 469.763,251.389 469.79,251.399 "
         style="fill:#8a9398" />
      <polygon
         id="polygon347"
         points="470.225,251.56 470.134,251.526 470.131,251.525 470.167,251.539 "
         style="fill:#8a9398" />
      <polygon
         id="polygon349"
         points="502.329,204.843 502.35,204.867 502.338,204.853 "
         style="fill:#8a9398" />
      <polygon
         id="polygon351"
         points="502.109,204.591 502.11,204.591 502.112,204.593 "
         style="fill:#8a9398" />
      <polygon
         id="polygon353"
         points="502.141,204.625 502.112,204.593 502.151,204.638 502.144,204.628 "
         style="fill:#8a9398" />
      <polygon
         id="polygon355"
         points="502.059,204.533 502.063,204.538 "
         style="fill:#8a9398" />
      <polygon
         id="polygon357"
         points="502.063,204.538 502.074,204.551 502.133,204.618 502.11,204.591 "
         style="fill:#8a9398" />
      <rect
         id="rect359"
         height="0.0020000001"
         width="0.001"
         y="204.62801"
         x="502.14301"
         style="fill:#8a9398" />
      <polygon
         id="polygon361"
         points="468.649,250.943 468.734,250.979 468.747,250.985 468.767,250.993 468.76,250.99 468.765,250.992 468.732,250.978 "
         style="fill:#8a9398" />
      <polygon
         id="polygon363"
         points="502.205,204.701 502.225,204.723 502.192,204.686 502.181,204.672 502.174,204.664 "
         style="fill:#8a9398" />
      <polygon
         id="polygon365"
         points="502.145,204.63 502.16,204.648 502.181,204.672 502.186,204.677 502.174,204.664 "
         style="fill:#8a9398" />
      <polygon
         id="polygon367"
         points="502.169,204.658 502.174,204.664 502.197,204.689 502.208,204.702 502.164,204.652 502.168,204.656 502.176,204.666 "
         style="fill:#8a9398" />
      <polygon
         id="polygon369"
         points="468.765,250.992 468.779,250.998 468.846,251.025 468.839,251.022 468.854,251.028 468.83,251.019 "
         style="fill:#8a9398" />
      <polygon
         id="polygon371"
         points="502.192,204.686 502.25,204.751 502.231,204.729 502.197,204.689 502.186,204.677 "
         style="fill:#8a9398" />
      <polygon
         id="polygon373"
         points="502.325,204.839 502.329,204.843 "
         style="fill:#8a9398" />
      <polygon
         id="polygon375"
         points="502.357,204.877 502.372,204.895 502.359,204.879 502.329,204.843 502.324,204.838 "
         style="fill:#8a9398" />
      <polygon
         id="polygon377"
         points="502.479,205.019 502.461,204.997 502.357,204.876 502.355,204.874 502.394,204.918 502.4,204.927 502.403,204.93 502.418,204.947 502.426,204.957 502.424,204.954 502.545,205.096 502.509,205.054 502.438,204.971 "
         style="fill:#8a9398" />
      <polygon
         id="polygon379"
         points="502.7,205.284 502.623,205.192 503.145,205.834 503.128,205.813 503.078,205.75 502.891,205.516 "
         style="fill:#8a9398" />
      <polygon
         id="polygon381"
         points="502.396,204.923 502.406,204.934 502.424,204.954 502.418,204.947 502.4,204.927 "
         style="fill:#8a9398" />
      <rect
         id="rect383"
         height="0.0020000001"
         width="0.001"
         y="250.97701"
         x="468.73099"
         style="fill:#8a9398" />
      <polygon
         id="polygon385"
         points="502.359,204.879 502.384,204.908 502.396,204.923 502.394,204.918 502.35,204.867 "
         style="fill:#8a9398" />
      <polygon
         id="polygon387"
         points="468.639,250.938 468.647,250.942 468.73,250.977 468.676,250.954 "
         style="fill:#8a9398" />
      <polygon
         id="polygon389"
         points="501.701,204.136 501.694,204.128 501.682,204.115 501.685,204.118 "
         style="fill:#8a9398" />
      <circle
         id="circle391"
         r="0.0020000001"
         cy="204.834"
         cx="502.32101"
         style="fill:#8a9398" />
      <polygon
         id="polygon393"
         points="502.302,204.812 502.305,204.814 502.284,204.791 "
         style="fill:#8a9398" />
      <path
         id="path395"
         d="m 480,193 c -17.12,0 -31,13.879 -31,31 0,17.121 13.88,31 31,31 17.12,0 31,-13.879 31,-31 0,-17.121 -13.88,-31 -31,-31 z m 28.739,25.541 v 0 l -0.003,-0.093 z m -0.06,-0.655 v 0 l -0.002,0.141 -0.044,-0.401 z m -1.38,-4.351 v 0 l -0.097,-0.237 z m -29.415,-18.801 h 0.01 l 0.051,-0.004 h -0.004 -0.002 l 0.026,-0.002 0.04,-0.003 0.225,-0.015 -0.265,0.018 -0.021,0.002 0.049,-0.002 0.446,-0.028 -0.057,0.002 0.246,-0.014 0.063,-0.004 0.332,-0.014 -0.307,0.013 -0.089,0.005 -0.189,0.012 0.564,-0.018 0.382,-0.018 0.216,0.015 -0.03,0.027 -0.305,0.019 0.172,0.017 -0.134,0.009 -0.216,-0.071 -0.085,0.003 -1.011,0.046 -0.1,0.006 -0.127,0.01 z m -2.924,0.382 0.207,-0.042 -0.182,0.042 h -0.027 z m -0.022,0.008 v 0 l -0.078,0.018 z m -2.073,0.714 -0.228,0.048 v 0 l -0.129,0.02 z m -2.294,0.652 h 0.002 l -0.219,0.079 z m -0.725,2.019 0.458,-0.242 0.145,0.009 -0.618,0.333 z m -0.297,-0.419 v 0 l -0.189,0.094 z m -0.437,-1.02 0.056,-0.037 -0.058,0.04 z m -0.485,0.203 h 0.003 l 0.128,-0.055 -0.278,0.122 z m -0.075,1.509 -0.117,0.166 -0.235,0.079 -0.008,-0.065 z m -0.182,0.346 -0.132,0.069 0.012,-0.101 0.118,-0.057 z m -0.411,-1.466 0.097,-0.036 -0.151,0.082 z m -0.601,0.401 v 0 l -0.123,0.125 z m -0.2,0.14 v 0 l -0.228,0.154 z m -0.801,0.7 v 0 l -0.019,0.139 z m -0.178,0.265 0.104,-0.12 -0.093,0.142 0.151,-0.059 -0.128,0.114 z m -0.137,0.385 v 0 l 0.13,-0.143 -0.019,0.141 -0.234,0.135 z m -0.501,1.381 0.188,-0.135 0.082,0.017 -0.219,0.172 0.26,-0.094 -0.137,0.081 0.127,-0.004 -0.17,0.174 -0.162,0.041 0.105,-0.112 -0.118,0.072 -0.075,-0.159 0.127,-0.001 z m 0.306,0.212 -0.05,-0.107 h 10e-4 l 0.166,-0.042 z m 0.054,1.059 -0.004,-0.001 -0.058,-0.037 z m -1.133,1.57 -0.116,0.275 -0.111,0.029 0.119,-0.187 -0.217,0.239 v 0 l -10e-4,0.001 10e-4,-0.001 0.117,-0.186 -0.166,0.068 z m 0.045,0.207 -0.126,0.18 -0.324,0.172 v 0.001 l -0.158,-0.034 z m -0.441,0.056 -0.146,0.062 h -10e-4 z m -0.27,0.243 0.355,-0.228 -0.616,0.404 z m -0.162,0.393 -0.004,-0.087 0.245,-0.167 0.003,-0.002 -0.051,0.186 z m 0.143,-0.038 -0.101,0.125 0.097,-0.124 z m -0.205,0.176 -0.146,0.129 h -0.002 z m -0.024,-0.011 0.069,-0.094 h 10e-4 z m 0.309,-0.424 -0.127,0.105 -0.274,0.103 z m -0.581,0.506 0.002,-0.084 0.319,-0.19 -0.396,0.455 -0.041,-0.088 -0.048,0.159 -0.239,0.119 0.131,-0.143 v 0 l 0.136,-0.215 z m -0.159,0.328 -0.119,0.057 h -0.002 z m -0.065,0 0.106,-0.079 h 10e-4 z m 0.218,-0.041 -0.104,0.036 0.022,-0.079 0.161,-0.035 -0.195,0.203 -0.039,-0.064 z m -0.329,-0.131 0.002,-10e-4 0.154,-0.092 -0.227,0.189 z m -0.726,0.461 0.461,-0.34 -0.082,0.212 -0.183,0.04 0.243,0.025 -0.384,0.08 -0.057,0.163 -0.089,-0.02 -0.002,0.001 -0.297,0.356 z m 0.361,0.169 -0.022,0.094 0.021,-0.094 z m -0.639,0.796 0.165,-0.154 -0.06,-0.01 0.25,-0.156 z m 0.129,-0.069 v 0.002 l -0.09,0.085 z m -0.115,-0.041 v 0 l 0.144,-0.141 z m 0.299,-0.277 0.173,-0.197 0.116,-0.104 z m 0.145,-0.197 0.046,-0.09 v 0 z m -0.628,0.803 v 0 l -0.086,0.021 z m -1.231,1.465 0.214,-0.09 -0.122,-0.111 0.415,-0.612 -0.023,-0.165 0.201,-0.023 -0.074,-0.089 0.133,-0.168 -0.125,0.741 -0.658,0.991 z m 0.41,-0.186 -0.082,0.18 z m -0.357,0.538 0.081,-0.09 v 0 z m -4.689,5.73 -0.002,-0.001 -0.004,-0.114 z m -1.458,5.705 v 0 l -0.003,0.176 z m 0.259,0.781 v 0 l 0.025,-0.133 z m 5.765,14.233 v 0 l 0.038,0.127 z m 7.266,15.718 -0.121,-0.069 -0.045,-0.031 0.16,0.068 0.277,0.148 -0.113,-0.046 z m 10.015,-0.595 -10e-4,-0.003 0.135,0.006 z m 4.615,-4.277 -1.594,1.463 -0.202,0.113 -0.108,-0.131 -0.078,0.078 -0.155,1.416 -0.273,0.187 -0.055,0.326 -0.602,0.473 0.042,0.123 -0.459,0.117 -0.021,0.109 -0.487,-0.017 -0.02,-0.071 -0.219,0.083 -0.402,-0.048 -0.453,0.176 -0.449,-0.013 -0.531,0.13 -0.271,0.146 -0.244,-0.044 0.186,0.06 -0.186,0.135 0.186,0.186 -0.082,0.258 -0.385,0.097 -0.393,0.269 -0.496,0.095 0.562,-0.199 -0.342,-0.121 0.108,0.077 -0.43,0.171 -0.061,0.185 -0.537,0.139 -0.794,-0.106 -0.721,-0.199 -0.281,-0.131 -0.081,-0.132 0.07,0.193 0.628,0.24 -0.013,0.076 0.288,0.099 0.073,0.076 -0.23,0.077 -0.322,-0.027 -0.928,-0.175 -0.482,-0.142 0.197,0.102 -0.122,-0.04 0.177,0.161 -0.466,-0.112 -0.491,-0.17 0.178,0.125 0.256,0.094 0.19,0.038 0.138,0.065 -0.139,-0.029 -0.154,-0.06 -0.181,-0.046 0.277,0.095 -0.247,-0.049 0.134,0.074 -0.41,-0.123 -0.083,-0.021 0.37,0.124 0.083,0.027 0.002,0.001 0.266,0.084 0.162,0.051 -0.1,-0.031 -0.063,-0.02 -0.259,-0.081 -0.007,-0.003 -0.035,-0.011 -0.05,-0.017 -0.036,-0.012 -0.044,-0.014 0.042,0.014 -0.021,-0.006 0.154,0.051 -0.214,-0.07 -0.029,-0.01 -0.042,-0.014 0.033,0.011 -0.148,-0.05 0.182,0.061 h 0.001 l -0.04,-0.014 -0.005,-0.001 -0.019,-0.006 -0.104,-0.035 0.029,0.01 -0.375,-0.127 -0.088,-0.031 -0.067,-0.024 -0.044,-0.015 -0.045,-0.017 -0.043,-0.015 0.007,0.001 -0.059,-0.021 -0.102,-0.037 0.046,0.016 -0.207,-0.076 0.01,0.003 -0.029,-0.011 -0.023,-0.008 0.011,0.004 0.027,0.01 0.017,0.006 -0.003,-10e-4 0.077,0.029 -0.088,-0.032 0.011,0.003 -0.014,-0.005 -0.022,-0.008 -0.005,-0.002 -0.075,-0.028 0.007,0.002 -0.008,-0.003 -0.021,-0.008 0.008,0.002 -0.034,-0.013 -0.057,-0.021 -0.052,-0.021 -0.051,-0.02 0.059,0.023 -0.097,-0.037 -0.094,-0.038 -0.024,-0.01 -0.05,-0.02 0.073,0.03 -0.055,-0.022 0.054,0.022 -0.149,-0.06 -0.028,-0.011 -0.053,-0.021 0.009,0.004 -0.021,-0.008 -0.022,-0.009 0.01,0.003 -0.107,-0.043 0.112,0.045 -0.077,-0.032 -0.135,-0.055 -0.094,-0.039 0.105,0.044 h -0.002 l 0.076,0.032 -0.076,-0.032 -0.006,-0.002 -0.106,-0.044 -0.022,-0.01 -0.03,-0.013 -0.04,-0.017 0.039,0.016 -0.009,-0.004 -0.132,-0.055 0.047,0.019 -0.041,-0.017 0.03,0.012 -0.054,-0.022 -0.033,-0.015 -0.029,-0.012 -0.008,-0.003 v 0 l -0.17,-0.073 0.113,0.048 -0.024,-0.011 -0.077,-0.033 0.051,0.021 -0.034,-0.015 0.045,0.02 0.035,0.015 0.062,0.027 0.005,0.002 0.069,0.029 -0.057,-0.024 0.012,0.005 -0.007,-0.003 0.015,0.006 0.039,0.017 0.085,0.036 0.024,0.01 0.03,0.013 h 0.001 l 0.004,0.001 -0.002,-0.001 0.04,0.017 0.057,0.023 0.027,0.011 -0.288,-0.123 0.107,0.041 -0.188,-0.083 -0.092,-0.057 0.125,0.054 -0.17,-0.078 0.151,0.069 -0.019,-0.018 -0.219,-0.098 0.099,0.023 -0.061,-0.019 -0.141,-0.061 -0.209,-0.079 0.055,0.017 -0.257,-0.128 -0.036,-0.085 -0.534,-0.358 0.144,0.045 -0.013,-0.334 -0.469,-0.568 0.074,-0.072 -0.223,-0.239 -0.01,-0.618 -0.271,-0.475 0.03,-0.436 -0.157,-0.391 -0.211,-0.461 -0.58,-0.519 -1.654,-1.198 -0.368,-0.375 -0.249,-0.326 0.041,-0.125 -0.719,-0.97 -0.69,-1.321 -0.45,-0.727 -0.482,-0.527 0.105,-0.052 -0.196,-0.598 0.466,-0.069 0.1,-0.233 -0.069,-0.18 -0.138,0.12 -0.259,-0.292 -0.017,-0.493 0.244,-0.013 -0.089,-0.157 0.216,-0.104 -0.055,-0.268 0.461,0.129 -0.037,-0.25 0.201,0.053 -0.004,-0.277 0.322,0.071 0.273,-0.267 0.05,-0.095 -0.198,-0.217 0.164,-0.929 -0.391,-0.796 0.159,-0.145 -0.147,-0.041 -0.229,-0.429 -0.578,0.055 0.152,0.403 -0.183,0.022 -0.177,-0.081 -0.031,-0.335 -0.185,-0.013 -0.069,-0.265 -0.353,-0.256 -0.08,0.084 -0.145,-0.41 0.021,0.175 -0.104,-0.087 0.012,-0.267 -0.35,-0.646 -0.174,-0.252 0.122,0.282 -0.105,0.061 -0.178,-0.279 0.062,-0.369 -0.094,-0.119 0.11,-0.005 -0.552,-1.269 0.132,0.084 0.009,-0.236 -0.449,-0.245 0.072,0.104 -0.837,-1.034 -0.669,-1.705 -0.683,-0.373 -0.942,-1.9 -0.109,-0.533 -0.298,-0.58 -0.157,-1.281 0.025,-0.206 0.117,0.055 -0.026,-0.16 0.185,-0.19 0.096,-0.805 -0.035,-1.285 0.076,-0.186 -0.102,-0.624 0.176,-0.16 -0.007,-0.797 0.133,-0.223 -0.075,-0.193 0.088,-0.699 0.424,-1.122 -0.048,-0.755 -0.431,0.817 -0.16,1.083 -0.14,0.308 -0.097,0.839 -0.335,1.077 0.075,0.361 -0.105,0.454 -0.146,-0.031 0.075,-0.361 -0.027,-1.028 0.256,-0.521 0.071,-0.619 -0.119,-0.022 0.057,-0.792 0.111,0.332 0.018,-0.186 0.158,-0.154 0.117,-0.954 0.734,-1.782 0.119,-0.579 -0.014,-0.749 0.167,-0.204 0.508,-1.175 0.185,-0.226 -0.081,0.238 0.172,-0.266 -0.06,-0.174 0.26,-0.488 0.467,-0.663 0.348,-0.232 0.458,-0.558 1.229,-0.897 0.028,0.129 -0.016,-0.157 0.271,-0.143 -0.031,-0.069 0.529,-0.541 -0.017,0.499 -0.314,0.144 0.244,-0.052 -0.156,0.152 -0.192,0.046 0.203,0.019 0.459,-0.429 0.073,-0.221 0.259,-0.195 -0.099,-0.118 0.089,0.04 0.168,-0.196 -0.178,0.029 0.086,-0.188 0.209,-0.038 -0.094,-0.105 0.246,-0.11 -0.205,0.074 -0.004,-0.106 0.108,-0.047 -0.123,0.032 0.069,-0.18 0.162,0.062 -0.135,-0.063 0.053,-0.116 0.048,0.055 0.002,-0.294 0.087,0.134 -0.032,-0.224 0.087,0.1 -0.022,-0.14 0.151,0.018 -0.095,-0.032 0.142,-0.136 0.354,-0.033 -0.201,-0.057 0.131,-0.11 -0.098,-0.02 0.186,0.005 0.32,-0.424 -0.014,0.183 0.017,-0.14 0.187,-0.092 -0.262,0.026 0.237,-0.289 0.112,0.043 0.06,-0.211 0.119,-0.056 -0.144,0.166 0.146,-0.166 0.136,0.075 0.039,-0.117 0.37,-0.149 -0.263,0.099 -0.231,-0.015 0.414,-0.186 0.147,-0.135 -0.208,-0.104 0.269,-0.009 0.43,-0.567 0.067,0.057 0.162,-0.176 -0.106,0.178 0.129,-0.175 0.034,0.061 0.101,-0.198 0.201,-0.031 -0.139,-0.011 0.098,-0.145 0.487,-0.288 -0.548,0.263 0.084,-0.168 0.306,-0.165 -0.137,0.046 0.162,-0.191 -0.327,0.289 -0.057,-0.082 0.695,-0.748 0.184,-0.009 -0.197,0.098 0.09,0.03 0.137,-0.14 -0.124,-0.076 0.248,-0.241 0.11,-0.439 0.227,-0.152 0.069,-0.167 0.154,-0.055 -0.005,-0.082 0.018,0.078 0.084,-0.115 0.066,0.041 -0.036,-0.135 0.132,-0.05 -0.113,-0.02 0.181,-0.022 -0.132,-0.102 -0.209,0.155 -0.167,-0.025 0.155,-0.173 -0.166,0.026 0.121,-0.056 -0.13,0.029 -0.014,-0.266 0.184,0.065 0.075,-0.141 0.354,-0.018 0.043,0.126 -0.217,0.235 0.24,-0.199 0.07,0.105 0.058,-0.199 -0.474,-0.367 -0.145,0.028 -0.16,0.156 -0.183,-0.085 0.026,-0.19 -0.325,-0.442 0.138,-0.06 0.027,-0.185 0.148,-0.075 -0.127,-0.02 0.177,-0.124 -0.138,0.041 0.092,-0.072 -0.014,-0.043 0.142,0.161 -0.276,0.256 0.205,-0.057 0.051,0.366 0.367,-0.093 0.164,0.057 v -0.173 l 0.248,-0.089 h -0.243 l 0.452,-0.26 0.08,-0.237 0.089,0.063 0.487,-0.146 0.151,-0.253 0.315,-0.074 -0.088,0.139 0.311,-0.232 0.033,0.04 0.092,-0.1 0.229,-0.081 0.402,0.188 -0.222,0.142 0.082,0.114 -0.156,0.147 0.097,0.043 0.308,-0.109 0.033,0.086 0.16,-0.116 -0.082,-0.121 0.169,-0.043 -0.095,-0.002 0.451,-0.354 0.314,-0.078 -0.083,0.102 0.424,-0.215 -0.115,0.414 -0.276,0.064 -0.277,0.3 0.484,-0.151 -0.299,0.096 -0.137,0.154 0.16,-0.144 0.217,-0.016 0.252,-0.22 0.256,-0.04 0.573,-0.248 0.138,0.081 -0.197,0.225 0.33,0.236 -0.029,0.178 -0.147,0.02 0.187,0.029 -0.119,0.175 0.125,0.134 -0.165,0.084 -0.147,-0.045 0.1,0.092 -0.223,0.086 -0.094,0.191 -0.111,-0.032 -0.176,0.147 -0.515,0.853 -0.927,1.04 0.281,-0.146 0.217,0.118 -0.227,0.086 0.04,0.124 0.417,0.266 -0.455,-0.011 0.408,0.274 0.207,-0.127 -0.582,0.48 0.439,-0.037 -0.41,0.16 0.282,0.201 -0.282,0.73 0.09,0.243 -0.162,0.231 -0.165,-0.111 -0.171,0.104 0.118,0.418 0.269,0.131 -0.177,0.428 -0.139,-0.009 -0.21,0.352 0.223,-0.233 -0.008,0.122 0.141,-0.084 0.204,-0.284 0.529,0.04 -0.323,-0.088 -0.046,-0.167 0.488,0.114 -0.253,0.344 0.137,0.177 -0.107,0.271 0.329,0.354 0.202,-0.093 -0.107,0.313 0.183,-0.124 -0.102,-0.079 0.134,-0.212 0.18,0.108 0.023,0.154 -0.157,0.067 0.2,-0.013 -0.39,0.207 0.01,0.216 0.331,-0.305 0.421,0.032 0.126,-0.176 -0.188,0.008 0.26,-0.148 0.119,0.069 -0.102,-0.418 0.383,-0.221 -0.037,-0.108 0.664,-0.17 -0.402,0.823 -0.068,-0.095 -0.267,0.132 0.193,0.303 -0.16,-0.063 -0.296,0.501 0.496,-0.276 0.016,0.209 -0.543,0.703 0.211,0.01 0.598,-0.423 0.116,0.08 0.278,-0.471 0.326,0.293 -0.146,0.005 0.148,0.274 -0.199,0.062 0.036,0.152 -0.262,-0.038 -0.102,0.488 -0.673,0.231 0.103,-0.264 -0.184,-0.113 -0.053,0.411 -0.296,-0.425 v 0.227 l -0.497,0.163 -0.113,-0.495 -0.17,-0.09 0.286,0.696 -0.516,0.241 -0.268,-0.208 -0.35,0.185 -0.158,-0.634 -0.129,0.086 0.17,0.26 -0.115,0.054 0.164,0.026 -0.031,0.315 -0.244,0.048 -0.125,-0.141 -0.018,0.162 -0.48,0.003 -0.025,0.125 -0.658,0.245 -0.558,0.497 -0.124,0.339 0.145,-0.134 0.143,0.16 -0.356,0.625 -0.214,0.112 0.482,0.125 0.403,1.594 0.583,0.41 -0.616,0.942 0.08,0.775 -0.126,0.18 0.178,0.177 0.244,-0.177 -0.012,0.277 0.103,-0.287 0.274,-0.127 0.349,-0.93 -0.046,-0.291 0.656,-0.028 0.535,-0.357 0.316,-0.765 -0.164,-0.449 0.659,-0.434 0.152,-0.366 -0.157,-0.047 0.351,-0.24 0.064,-0.366 0.233,-0.064 0.432,0.458 0.26,-0.086 0.063,0.506 0.158,0.042 -0.123,0.195 0.287,0.295 0.144,-0.087 -0.244,0.432 -0.283,-0.093 0.239,0.131 -0.152,0.283 0.12,0.043 -0.182,0.204 -0.014,-0.138 -0.156,0.093 0.442,0.157 -0.243,0.324 0.281,-0.207 -0.035,0.284 0.475,-0.28 -0.014,0.297 0.076,-0.258 0.227,-0.047 -0.06,-0.134 0.194,0.002 -0.055,-0.203 0.277,-0.236 0.088,0.089 -0.118,0.079 0.169,0.47 -0.199,0.034 0.227,0.045 0.01,0.182 -0.256,0.139 0.291,-0.016 -0.285,0.183 0.262,-0.033 -0.1,0.098 0.15,0.19 -0.186,0.025 0.238,0.26 -0.158,0.206 -0.203,-0.125 0.197,0.164 -0.16,-0.008 0.139,0.133 -0.127,-0.005 0.186,0.049 -0.154,0.094 0.285,0.149 -0.059,0.121 0.127,-0.086 -0.218,0.353 0.303,-0.108 -0.09,0.095 0.164,0.013 -0.202,0.164 0.273,-0.19 -0.095,0.117 0.13,-0.066 -0.029,0.16 0.301,0.013 -0.092,0.072 0.219,0.13 -0.711,0.125 0.37,-0.016 -0.817,0.317 0.877,-0.31 0.262,0.206 -0.133,0.235 0.301,-0.126 0.148,0.258 -0.174,0.225 0.102,0.14 -0.23,-0.048 0.256,0.129 -0.188,-0.037 0.128,0.208 -0.459,0.253 -0.546,-0.029 -0.503,0.404 -1.968,-0.543 -0.439,0.365 -0.969,0.231 -0.068,0.241 -0.566,0.306 1.241,-0.536 0.702,-0.074 0.459,0.191 -0.023,0.361 -0.352,0.112 -0.48,-0.139 0.282,0.131 -10e-4,0.165 0.303,-0.018 -0.311,0.298 0.197,0.057 -0.09,0.378 0.372,0.43 0.477,0.034 0.24,0.356 -0.134,0.036 -0.852,0.02 -0.038,0.146 -0.199,-0.129 -0.556,0.43 -0.18,-0.242 0.13,-0.334 0.659,-0.248 0.078,0.201 0.293,-0.108 -0.52,-0.132 0.281,-0.211 -0.815,0.191 -0.208,-0.157 0.01,0.223 -0.438,0.115 -0.017,-0.145 -0.234,0.068 0.061,-0.171 -0.25,0.309 -0.158,-0.143 -0.059,0.168 -0.158,-0.045 -0.496,0.547 0.121,0.409 0.148,-0.126 -0.033,0.203 -0.441,-0.063 -0.004,-0.204 -0.107,0.211 -0.74,-0.129 -0.326,0.156 -0.075,0.38 -0.4,0.281 -0.07,-0.473 -0.089,0.697 -0.53,0.476 0.257,-0.358 -0.075,-0.526 0.292,-0.249 -0.294,0.019 -0.134,0.624 -0.176,-0.435 -0.092,0.133 0.268,0.384 -0.093,0.114 -0.112,-0.266 0.125,0.297 -0.125,0.117 -0.047,-0.182 0.049,0.27 -0.16,-0.161 0.266,0.305 -0.049,0.614 0.025,-0.513 -0.063,0.332 -0.097,-0.172 -0.241,0.09 0.236,0.078 -0.053,0.167 0.121,-0.125 -0.021,0.185 -0.195,0.074 -0.255,-0.209 0.139,0.19 -0.218,0.041 0.197,0.158 -1.017,0.121 -0.875,0.381 -0.026,-0.15 0.002,0.16 -0.483,0.294 -0.183,2.334 -0.455,0.752 0.035,-0.094 -0.195,-0.081 0.086,-0.193 -0.193,-0.298 0.07,-0.543 -0.131,-0.042 -0.023,-0.322 0.172,-0.159 -0.161,-0.054 0.239,-0.417 -0.162,-0.691 -0.129,-0.203 -0.447,-0.012 0.048,-0.341 -0.271,-0.226 0.116,0.017 -0.328,-0.134 0.098,-0.087 -0.371,-0.036 0.104,-0.016 0.01,-0.227 -0.128,0.18 -0.674,-0.445 0.27,0.399 -0.199,0.043 0.135,0.324 -0.172,0.027 0.005,-0.327 -0.105,-0.133 -0.06,0.208 -0.055,-0.166 -0.166,0.024 -0.124,-0.546 -0.194,0.02 -0.373,-0.416 0.055,-0.136 -0.059,0.14 -0.307,-0.077 0.118,-0.015 -0.101,-0.19 -0.168,0.25 -0.395,-0.01 0.096,-0.014 -0.158,-0.194 0.007,0.184 -0.25,-0.074 -0.22,0.309 -0.102,-0.073 0.084,0.098 -0.183,0.628 -0.271,0.311 0.104,-0.146 -0.129,-0.029 -0.147,0.301 -0.34,0.822 -0.058,0.254 0.002,1.938 0.186,0.171 0.128,0.48 0.681,0.251 0.203,0.296 0.374,-0.199 0.364,-0.639 0.749,0.242 0.394,0.432 -0.529,0.527 0.096,0.11 -0.31,0.524 0.012,-0.344 -0.17,0.13 0.096,0.082 -0.202,0.584 -0.35,0.297 0.236,0.278 1.088,0.584 0.508,0.686 -0.016,0.449 -0.484,1.168 0.461,1.344 0.168,0.122 -0.026,-0.127 0.286,0.339 0.605,-0.04 0.252,0.155 0.41,0.414 0.39,0.73 -0.039,-0.307 0.577,-0.13 0.002,-0.316 0.219,-0.203 0.188,-0.056 0.229,0.152 0.074,-0.123 0.361,0.176 0.742,-0.24 0.216,0.277 -0.393,0.073 0.12,0.439 -0.279,0.295 0.147,0.402 0.286,-0.006 0.038,-0.167 -0.192,-0.567 0.666,-0.098 0.144,0.117 0.008,-0.12 -0.19,-0.042 0.123,-0.215 0.134,0.384 0.524,0.319 0.086,0.347 0.855,0.208 0.512,0.423 0.664,0.001 -0.278,-0.159 1.11,0.269 -0.487,0.038 0.235,0.312 0.332,0.049 0.352,0.296 -0.033,0.365 0.309,0.052 0.547,0.425 0.257,0.327 -0.12,0.385 0.178,-0.182 0.562,0.567 1.458,0.242 0.922,0.534 0.309,0.412 0.057,-0.144 0.123,0.091 0.256,0.911 0.418,0.207 -0.104,0.189 0.121,0.018 -0.712,0.419 -0.195,0.328 0.206,-0.158 0.021,0.19 0.207,-0.146 0.018,0.184 0.23,-0.331 0.985,0.183 -0.257,0.442 -0.777,0.087 0.584,-0.021 -0.102,0.237 0.42,-0.333 0.104,0.132 0.193,-0.043 -0.217,-0.055 0.223,-0.289 0.347,0.097 0.038,-0.088 0.48,0.237 0.076,-0.081 0.025,0.161 0.081,-0.094 0.148,0.158 0.144,-0.043 -0.055,0.081 0.1,-0.068 0.045,0.206 0.206,-0.155 0.18,0.253 -0.257,0.136 0.32,-0.024 -0.198,0.097 -0.034,0.272 0.711,-0.351 0.594,0.218 1.143,0.007 0.789,0.315 0.675,0.448 0.78,0.02 0.179,0.123 0.228,0.577 z m -21.419,-6.268 -0.045,-0.123 0.124,0.067 z m 0.039,0.097 -0.075,0.011 v -0.001 z m -5.916,-19.401 v 0 l 0.024,0.098 z m 0.203,-2.37 0.061,-0.317 h 10e-4 z m 0.082,0.177 0.078,-0.022 -0.1,0.183 z m 7.543,-12.49 0.096,-0.003 v 10e-4 z m 3.063,-3.837 -0.141,-0.002 h -0.001 l -0.054,-0.059 z m -0.004,-0.111 h 0.003 l 0.104,0.005 z m 4.573,-3.324 0.063,-0.064 v 10e-4 z m 0.862,1.131 v 0 l 0.031,0.046 z m 1.151,4.214 0.197,-0.089 -0.281,-0.035 h -0.001 l 0.061,-0.217 0.295,0.135 -0.123,-0.154 0.226,0.137 -0.057,-0.152 0.193,0.115 0.018,-0.117 0.142,0.035 -0.345,0.467 0.086,0.188 0.34,-0.294 0.273,-0.002 -0.432,0.299 -0.006,0.116 0.204,-0.073 -0.04,0.132 -0.391,0.141 -0.134,-0.224 -0.46,-0.155 0.047,-0.227 0.408,0.162 z m 2.104,-0.13 0.228,-0.14 v 0.394 l -0.332,0.302 v 0.001 -0.001 0 l 0.022,-0.338 -0.136,-0.07 0.264,-0.037 z m 0.95,0.663 -0.266,-0.243 0.247,-0.088 -0.073,-0.138 0.11,-0.067 0.046,0.148 0.043,-0.196 0.209,0.086 0.037,-0.149 0.326,-0.058 -0.242,0.561 0.165,-0.063 -0.313,0.258 0.141,0.049 -0.07,0.14 -0.412,0.063 0.095,-0.129 -0.365,0.213 0.103,-0.19 -0.145,0.157 -0.15,-0.15 0.05,-0.124 0.118,0.042 0.021,-0.246 h 10e-4 z m -0.271,-0.549 0.148,-0.137 -0.146,0.137 z m -0.119,1.054 0.086,0.363 0.439,-0.144 -0.387,0.056 0.393,-0.324 -0.236,0.111 0.074,-0.104 -0.215,-0.001 0.271,-0.153 0.188,0.027 0.074,0.23 0.027,-0.127 0.201,0.009 -0.242,-0.126 0.105,0.048 0.238,-0.503 0.148,0.122 -0.021,0.336 0.086,-0.337 0.609,0.06 -0.16,-0.082 0.309,-0.116 -0.506,0.12 -0.174,-0.044 0.179,-0.033 -0.081,-0.06 -0.277,-0.015 0.129,-0.058 0.316,0.003 -0.494,-0.028 0.006,-0.156 0.396,0.07 -0.376,-0.108 0.313,-0.04 -0.209,-0.083 0.146,-0.037 -0.1,-0.097 0.361,0.016 0.082,0.182 -0.002,-0.166 0.183,-0.027 0.09,0.271 0.114,-0.243 0.402,0.001 h 0.005 l 0.509,0.286 -0.199,0.063 0.338,0.021 0.059,0.206 -0.148,0.108 -0.309,0.067 -0.207,-0.107 0.131,0.127 -0.336,0.069 0.45,0.013 -0.591,0.247 -0.047,-0.101 -0.045,0.147 -0.16,-0.076 0.109,0.099 -0.174,0.098 -0.166,-0.144 -0.024,0.16 -0.418,-0.115 0.185,0.239 -0.335,-0.176 0.198,0.322 -0.188,-0.057 0.077,0.131 -0.191,-0.036 0.01,0.128 -0.191,-0.101 -0.252,0.197 -0.152,-0.271 -0.156,0.172 0.273,0.24 -0.2,0.165 -0.353,-0.023 0.082,-0.314 -0.105,0.165 0.026,-0.178 -0.102,0.123 -0.013,-0.137 -0.211,0.07 0.016,-0.189 -0.113,0.089 0.035,-0.136 -0.113,0.085 0.096,-0.178 -0.152,0.102 -0.02,-0.114 0.463,-0.015 z m 3.168,-7.139 0.223,-0.111 0.268,0.032 0.119,0.12 z m 0.582,6.79 -0.004,0.002 -0.091,-0.142 z m -2.346,1.306 v 0.001 l -0.104,-0.064 z m -1.127,4.829 -0.254,-0.073 0.122,0.193 -0.166,-0.115 -0.051,0.264 -0.099,-0.201 -0.198,0.46 -0.216,-0.489 0.336,-0.2 -0.365,0.092 0.164,-0.167 -0.151,0.091 -0.036,-0.254 -0.21,-0.087 0.015,0.311 -0.216,-0.1 -0.118,0.283 0.225,-0.043 -0.088,0.443 0.078,-0.136 -0.019,0.21 0.171,-0.065 0.046,0.221 -0.151,0.018 0.149,0.207 -0.12,0.331 -0.057,-0.298 -0.14,0.545 -0.393,-0.699 -0.04,0.189 -0.176,-0.257 0.24,0.996 -0.908,-0.926 -0.02,-0.168 0.215,0.006 -0.215,-0.218 0.084,-0.391 -0.143,0.121 -0.035,-0.325 -0.109,0.226 -0.623,-0.318 0.408,-0.364 0.203,0.225 0.466,0.094 0.016,-0.368 0.38,-0.125 0.16,0.092 -0.133,-0.111 0.268,-0.141 0.115,-0.664 -0.126,0.02 -0.051,-0.284 -0.269,0.046 0.31,-0.136 0.034,-0.209 -0.15,-0.056 0.129,-0.119 -0.158,0.047 0.1,-0.454 -0.182,0.081 -0.04,0.238 -0.312,-0.307 -0.029,0.214 -0.082,-0.373 0.021,0.255 -0.469,-0.365 0.112,-0.226 -0.275,-0.02 -0.012,-0.165 0.135,-0.258 0.548,0.315 -0.065,0.112 0.273,-0.224 -0.041,-0.245 0.174,-0.024 0.031,0.165 0.139,-0.414 0.134,0.173 -0.071,-0.206 0.188,0.133 -0.021,-0.202 0.49,0.093 -0.17,0.429 -0.356,0.256 0.336,-0.146 0.021,0.407 0.004,-0.251 0.203,0.152 -0.1,-0.206 0.215,-0.058 0.219,0.241 -0.338,0.163 0.341,0.053 -0.257,0.075 0.092,0.054 -0.19,0.157 0.358,-0.144 -0.231,0.266 0.341,-0.161 0.094,0.228 -0.367,0.178 0.392,-0.064 -0.357,0.175 0.149,-0.003 -0.186,0.184 0.455,-0.247 -0.211,0.129 0.254,-0.07 0.108,0.169 -0.4,0.096 0.269,0.012 -0.344,0.163 0.449,-0.18 0.061,0.188 -0.048,0.107 -0.486,-0.085 0.428,0.187 0.021,0.15 -0.332,-0.205 0.12,0.109 -0.205,0.048 0.171,-0.025 -0.014,0.174 -0.259,-0.105 0.367,0.307 -0.24,0.006 0.157,0.023 -0.037,0.181 0.113,-0.057 -0.085,0.147 0.13,-0.087 -0.107,0.179 0.119,-0.147 10e-4,0.187 0.188,-0.132 -0.156,0.117 0.157,-0.036 0.012,0.229 -0.146,-0.055 0.131,0.087 -0.189,0.071 0.266,-0.035 -0.119,0.128 0.207,-0.15 -0.226,0.191 0.209,-0.021 -0.037,0.141 0.203,-0.137 0.069,0.202 -0.179,-0.021 z m -0.596,9.649 0.192,-0.288 -0.058,-0.235 -0.457,0.376 v 0 l -0.27,-0.025 0.502,-0.282 -0.496,0.019 0.164,-0.229 -0.397,0.151 -0.45,-0.229 -0.305,0.051 -0.038,-0.181 0.442,-0.225 -0.324,-0.046 0.358,-0.267 0.142,0.121 -0.058,-0.239 0.176,0.004 0.24,-0.595 0.569,-0.367 0.098,0.15 -0.182,-0.028 0.079,0.153 -0.529,0.697 0.294,-0.259 -0.041,0.111 0.236,0.021 -0.27,0.226 h 0.326 l -0.127,0.237 0.349,-0.211 -0.038,0.155 0.326,0.038 -0.311,0.412 0.409,-0.02 -0.346,0.109 0.101,0.107 -0.128,0.082 0.099,0.188 0.27,-0.294 -0.176,0.295 0.188,-0.107 0.034,0.152 -0.259,0.423 -0.156,-0.033 0.075,-0.285 z m 0.005,22.313 -0.175,0.145 h -10e-4 l -0.199,-0.135 z m -0.319,-0.03 0.043,-0.092 h 0.002 z m 0.311,-22.581 0.084,-0.082 v 0 z m 0.16,-1.14 -0.128,0.023 0.001,-0.001 z m -0.609,-7.002 -0.031,-0.175 v 0 z m -0.206,0.331 -0.136,-0.028 10e-4,-10e-4 z m -0.238,0.349 -0.113,0.095 h -10e-4 l -0.054,-0.139 z m -1.08,-0.964 v 0 l 0.105,0.174 z m -0.63,-0.176 v 0 l -0.112,-0.07 z m 1.077,-3.104 0.192,-0.034 10e-4,0.003 z m 0.248,0.147 h 0.002 l -0.072,0.125 z m -0.374,-0.273 v 0.001 l -0.071,-0.11 0.217,0.061 z m 0.179,0.198 -0.257,0.071 0.001,-0.001 z m -0.091,0.55 0.168,0.217 -0.003,0.002 -0.213,0.231 -0.287,-0.078 z m 0.376,0.304 10e-4,0.001 -0.003,0.12 -0.15,-0.191 z m -0.07,-0.2 0.067,-0.153 v 0.002 z m -1.088,-1.508 h -0.002 l -0.068,-0.11 z m -0.666,-1.459 -0.116,-0.072 0.304,-0.674 0.205,-0.064 0.018,0.255 0.209,-0.083 -0.01,-0.227 0.046,0.121 0.154,-0.149 0.249,0.331 -0.426,0.086 0.055,0.232 -0.451,0.253 h -0.002 l -0.143,-0.073 0.1,-0.075 z m -0.665,-0.476 -0.087,0.569 -0.218,0.151 0.071,-0.124 -0.26,-0.005 -0.008,-0.141 -0.229,0.201 0.249,-0.023 -0.172,0.196 -0.322,-0.323 0.151,-0.316 -0.506,-0.065 -0.372,-0.41 0.226,-0.166 v 0 l 0.051,-0.421 0.261,-0.226 0.416,0.57 0.052,-0.332 -0.201,-0.391 0.173,-0.147 0.355,0.241 -0.187,-0.298 0.146,-0.002 0.006,-0.159 0.369,-0.071 0.555,0.213 -0.379,0.154 0.27,0.077 -0.05,0.205 -0.249,0.017 0.053,0.097 0.15,-0.035 -0.018,0.12 0.195,-0.208 0.048,0.071 -0.503,0.52 0.681,-0.417 0.141,0.102 -0.12,0.244 z m 0.16,0.459 -0.064,0.101 z m -0.232,1.073 -0.311,-0.005 -0.057,-0.392 v 0 l 0.502,-0.191 z m 0.131,-0.35 -0.039,0.108 0.037,-0.11 z m 1.545,-1.505 0.162,0.107 h -0.003 z m 0.352,0.294 0.406,0.392 -0.625,0.225 -0.186,-0.182 -0.056,0.167 -0.323,0.012 h -0.002 z m -0.153,-0.941 0.163,-0.108 -0.161,0.11 z m 0.323,-0.052 0.196,0.093 0.219,-0.225 -0.132,0.279 0.209,-0.231 0.066,0.157 0.16,-0.039 -0.46,0.422 -0.206,0.051 -0.155,-0.14 -0.003,-0.002 0.111,-0.148 0.218,-0.004 z m 0.306,-0.147 -0.176,-0.041 h -0.001 z m -0.04,-0.064 0.132,-0.118 v 0.002 z m -0.133,0.124 v 0 l -0.055,-0.068 z m 0.052,0.073 h -0.003 l -0.154,-0.056 z m 0.511,0.494 -0.092,0.07 -0.001,-0.001 z m -0.149,0.105 -0.299,0.341 -0.109,-0.313 h 0.002 z m -0.272,-0.099 0.129,0.022 h -0.002 z m 0.282,1.166 0.132,0.15 -0.515,0.25 -0.234,0.257 -0.118,0.32 -0.25,-0.128 -0.24,-0.318 0.728,-0.491 z m 0.558,0.398 0.317,0.269 -0.042,0.331 -0.43,-0.15 -0.01,-0.143 z m 0.861,-0.637 v 0 l 0.078,-0.079 z m 0.166,4.258 -0.101,0.067 h -0.001 z m -0.769,-5.795 h -0.002 l -0.04,-0.141 0.313,-0.216 0.004,0.288 z m 0.259,0.43 -0.158,0.081 0.081,-0.157 0.076,0.075 z m -0.191,-0.28 v 0 l -0.094,0.108 -0.109,-0.204 z m -0.079,0.484 -0.141,0.107 -0.003,-0.004 z m 0.151,-7.623 v -0.063 -0.001 l 0.227,0.01 z m -0.386,7.385 -0.201,0.157 0.291,0.08 -0.114,0.028 0.093,0.2 -0.176,-0.154 0.031,0.147 -0.174,0.009 0.174,0.022 -0.137,0.237 0.11,-0.068 0.071,0.235 0.607,0.137 0.082,0.227 -0.219,0.108 0.063,0.101 -0.383,0.008 -0.027,-0.249 -0.131,0.115 -0.426,-0.23 0.092,-0.196 -0.268,0.022 -0.008,-0.287 0.004,-0.002 0.465,-0.455 -0.216,-0.109 0.22,-0.292 z m -0.123,-0.774 0.045,0.107 v 0.002 z m -0.002,-0.548 -0.225,-0.201 v -10e-4 l 0.305,0.059 z m -0.2,0.351 -0.118,0.139 v 0.001 l -0.12,0.082 z m -0.093,-0.292 -0.272,0.04 -0.024,-0.178 0.193,-0.07 0.105,0.209 z m -0.229,-0.227 v -0.001 l 0.163,-0.083 z m -0.385,-4.886 0.318,-0.298 0.068,0.175 z m 0.055,4.59 0.112,0.137 -0.017,0.135 -0.534,0.042 0.233,-0.142 -0.51,10e-4 0.143,-0.136 -0.167,-0.097 z m -0.064,0.44 v 0 l -0.09,-0.036 z m -0.477,-0.142 -0.205,0.04 -0.002,-0.001 -0.09,-0.093 z m -0.608,1.585 -0.299,0.101 -0.002,-0.001 0.098,-0.284 0.132,-0.017 z m -0.463,-1.355 0.164,0.089 -0.262,0.334 -0.896,-0.196 h -0.001 l -0.248,0.059 -0.256,-0.188 0.393,-0.324 -0.01,-0.113 0.9,-0.041 0.279,-0.172 0.154,0.258 z m -1.767,2.706 -0.033,-0.077 h 10e-4 z m 1.822,1.818 -0.188,0.212 0.057,-0.122 10e-4,-0.002 z m -0.005,2.594 -0.008,0.141 h -0.002 z m -0.125,0.08 -0.15,0.094 -0.008,-0.178 z m -0.912,0.466 0.273,-0.241 -0.063,0.192 -0.212,0.051 z m -0.546,-0.547 0.064,-0.152 0.283,-0.054 h 10e-4 l 0.213,0.091 z m 0.682,-0.471 0.079,-0.254 -0.702,0.19 0.123,-0.28 -0.278,-0.105 0.323,-0.089 0.695,-0.623 -0.129,0.327 0.148,-0.061 0.126,0.611 -0.202,0.208 0.224,0.044 0.03,0.211 -0.25,0.053 h -0.002 z m 0.247,-0.936 0.125,-0.188 v 0 z m 0.179,-0.015 -0.002,-0.001 0.063,-0.185 0.051,0.282 z m -2.202,4.408 v 0 l 0.361,-0.226 -0.146,0.259 0.15,-0.121 -0.221,0.193 0.063,-0.083 z m 0.415,-0.031 -10e-4,0.002 -0.126,0.068 z m -0.452,0.565 -0.182,-0.035 h 0.002 z m -0.948,0.493 -0.038,0.276 -0.226,-0.313 z m 5.705,0.476 -0.126,-0.058 h 10e-4 z m -2.471,4.467 0.192,-0.18 -0.076,0.291 0.642,0.183 -0.365,0.144 v -0.001 z m 0.475,-1.594 0.518,0.263 0.215,0.237 -0.086,0.103 z m 0.632,1.36 -0.243,0.127 h -0.001 z m 0.24,0.367 -0.097,0.368 -0.325,0.227 0.127,0.023 0.245,-0.264 0.105,0.204 -0.002,0.003 -0.541,0.104 -0.021,-0.264 z m -3.131,17.322 -0.137,0.012 0.132,-0.012 z m -0.683,0.368 0.229,-0.052 -0.085,-0.207 0.348,0.028 -0.054,0.306 v 0 z m -1.062,-16.01 v 0 l 0.18,0.033 z m 0.238,12.193 -0.156,-0.011 h 0.001 z m -0.36,-12.135 -0.462,-0.139 0.658,0.019 z m -0.23,-0.009 -0.116,-0.015 h 0.001 z m 0.168,11.709 -0.195,0.14 -0.523,-0.146 -0.002,-0.21 z m -0.002,0.139 0.139,0.027 z m 0.311,3.432 0.003,-0.002 0.115,0.034 -0.292,-0.072 z m -2.467,-4.334 -0.236,0.122 -0.146,0.138 -0.207,-0.395 -0.766,-0.213 -0.205,-0.29 0.129,-0.068 0.743,0.386 -0.146,-0.312 0.089,-0.173 -0.285,-0.235 0.281,-0.015 1.151,0.586 0.057,0.218 0.251,0.083 -0.219,0.029 0.514,0.417 -0.167,0.138 z m 0.623,3.279 -0.07,-0.131 v -0.001 z m -0.385,-0.305 0.164,0.221 -0.106,-0.119 v -0.001 z m -2.929,-4.856 0.292,-0.119 -0.015,-0.167 -0.331,-0.21 -0.126,-0.52 -1.04,-0.847 -0.096,-0.172 0.193,0.06 -0.053,-0.131 -0.309,-0.194 -0.546,0.095 -0.315,-0.181 0.246,0.084 0.183,-0.267 1.067,0.367 0.444,0.404 0.885,1.287 0.438,0.298 -0.054,0.198 0.574,0.479 -0.372,0.001 z m 0.41,1.169 -0.326,-0.12 -0.285,-0.144 -0.182,-0.346 0.561,0.251 z m -1.711,-1.592 -0.117,-0.09 v -0.002 z m -0.249,-1.314 -0.179,-0.05 -0.002,-0.001 0.064,-0.211 0.1,0.087 z m -0.169,-4.967 0.095,0.05 h 10e-4 l 0.152,0.085 z m 1.724,3.179 0.035,-0.104 v 0.001 z m 0.145,2.344 -0.082,-0.103 v -0.001 z m 0.023,-0.005 0.021,0.176 v 0.002 z m 1.656,2.594 -0.18,-0.188 0.121,0.067 v 0.001 z m 0.063,-0.658 0.135,0.088 v 0.001 z m 0.615,-7.443 0.001,-0.002 0.138,-0.081 z m 0.375,-0.143 0.174,-0.246 h 10e-4 z m 0.649,-1.263 v 0 l 0.125,-0.127 z m -6.575,1.063 -0.041,-0.1 v 0 z m -0.05,4.298 -0.104,-0.017 -10e-4,-0.002 z m -0.113,-4.665 v 0 l 0.073,0.086 z m -0.781,-0.506 -0.104,0.01 h 10e-4 z m -0.793,0.043 0.179,-0.034 z m -0.067,0.028 -0.002,0.001 0.084,-0.045 z m -0.698,1.128 -0.114,0.162 v -0.002 z m 2.444,4.505 -0.109,0.01 v -0.001 z m -0.391,1.938 v 0 l -0.096,-0.003 z m -0.334,-0.819 -0.086,0.084 10e-4,-10e-4 z m 15.4,13.161 -0.007,-0.113 v -10e-4 z m -0.289,0.144 v 0 l -0.069,0.088 z m -0.208,0.033 v -0.004 l 0.149,-0.094 z m 0.289,0.005 -0.081,0.072 -10e-4,-0.001 z m 4.464,-28.776 0.147,0.082 v 0.002 z m 1.477,-2.555 0.002,-10e-4 0.152,-0.052 z m 1.586,-2.87 -0.158,0.094 0.511,0.044 -0.184,0.18 -0.206,-0.067 -0.15,0.33 0.454,-0.068 -0.31,0.208 0.218,0.04 0.306,-0.259 0.569,0.038 -0.557,0.756 -0.513,0.277 -0.123,-0.085 0.008,0.135 -0.287,0.056 -0.217,-0.237 0.146,0.309 -0.212,0.133 -0.242,0.64 -0.229,-0.045 0.073,0.147 -0.284,0.132 -0.06,-0.11 0.021,0.163 -0.131,-0.053 0.126,-0.206 -0.149,-0.047 -0.055,0.37 -0.366,0.028 -0.062,0.269 -0.197,-0.071 0.168,0.369 -0.273,0.04 0.219,0.071 0.016,0.196 -0.226,-0.083 0.172,0.133 -0.196,0.042 0.103,0.09 -0.179,-0.082 0.137,0.194 -0.182,-0.094 0.07,0.202 -0.323,0.027 0.229,0.18 -0.198,-0.07 0.2,0.25 -0.188,0.108 0.154,0.035 -0.208,0.044 0.162,0.055 -0.212,0.071 0.146,0.119 -0.244,-0.027 0.227,0.04 -0.21,0.11 0.158,0.133 -0.339,-0.017 0.26,0.242 -0.239,-0.145 -0.161,0.165 0.078,-0.257 -0.194,0.186 0.161,-0.271 -0.158,0.145 0.014,-0.178 -0.202,0.082 0.166,-0.198 -0.22,0.112 0.273,-0.202 -0.622,0.143 -0.032,-0.25 -0.28,-0.059 0.208,-0.048 -0.242,-0.026 0.168,-0.031 -0.137,-0.045 0.105,-0.126 -0.17,0.069 0.176,-0.11 -0.216,0.029 0.126,-0.131 -0.227,-0.131 0.188,-0.247 -0.174,0.112 0.105,-0.199 -0.229,-0.083 0.217,0.005 -0.238,-0.055 0.186,-0.082 -0.232,-0.037 0.164,-0.099 -0.143,-0.071 0.34,-0.001 -0.359,-0.065 0.36,-0.08 -0.134,-0.101 0.248,0.159 -0.217,-0.438 0.031,0.229 -0.342,0.215 0.012,-0.233 0.223,-0.116 -0.219,0.063 0.1,-0.228 -0.127,-0.017 0.473,-0.108 -0.146,-0.085 -0.302,0.165 -0.109,-0.192 0.329,-0.104 -0.354,-0.031 0.705,-0.279 -0.111,-0.074 -0.627,0.313 0.146,-0.083 -0.083,-0.099 0.234,0.033 -0.2,-0.087 0.269,-0.051 -0.287,-0.188 0.488,-0.015 -0.445,-0.097 0.719,-0.104 -0.385,-0.025 0.142,-0.063 -0.444,0.165 0.15,-0.232 0.205,0.066 -0.211,-0.138 0.535,0.194 -0.184,-0.144 0.146,-0.126 -0.51,0.018 0.258,-0.117 0.279,0.1 -0.025,-0.288 0.111,0.123 0.096,-0.118 -0.209,-0.037 0.235,-0.353 -0.362,-0.045 -0.31,-0.319 0.29,-0.006 0.352,0.242 -0.168,-0.331 0.168,0.024 -0.201,-0.069 0.133,-0.066 -0.178,0.037 0.22,-0.111 -0.267,-0.01 0.238,-0.108 -0.249,-0.023 0.028,-0.281 -0.158,0.38 -0.275,-0.155 0.296,-0.196 -0.17,0.111 0.14,-0.172 -0.129,-0.058 0.207,0.019 -0.138,-0.275 0.112,-0.516 -0.189,0.042 0.217,-0.157 -0.33,-0.768 -0.239,-0.158 -0.299,0.073 -0.136,-0.146 -0.005,0.152 -0.185,-0.145 -0.037,-0.163 0.241,-0.037 -0.255,-0.266 0.514,0.161 -0.239,-0.155 0.29,0.107 0.076,-0.13 -0.338,-0.055 -0.163,-0.388 0.571,-0.17 0.277,0.06 0.4,-0.321 -0.272,-0.043 0.033,-0.117 0.42,-0.194 -0.005,0.156 0.066,-0.174 0.082,0.108 0.146,-0.286 0.153,0.009 0.097,0.23 -0.092,-0.296 0.373,-0.044 -0.068,0.272 0.123,-0.128 0.203,0.175 -0.009,-0.353 0.388,0.327 0.003,-0.191 0.162,0.019 -0.195,-0.218 0.36,0.171 -0.017,-0.136 -0.295,-0.088 0.115,-0.123 0.272,0.205 0.05,-0.295 0.709,0.013 -0.461,0.114 -0.111,0.175 0.627,-0.231 0.002,0.15 0.334,-0.003 -0.184,0.216 -0.482,0.05 -0.084,0.15 0.563,-0.129 -0.053,0.237 0.262,-0.308 0.078,0.597 0.125,-0.447 0.217,0.011 0.016,-0.206 0.296,-0.014 0.058,0.34 -0.434,0.247 0.412,-0.082 -0.286,0.241 0.077,0.127 0.193,-0.145 -0.063,0.79 0.058,0.182 0.058,-0.156 0.224,0.069 -0.167,0.121 0.317,0.014 0.106,0.194 -0.472,0.157 0.177,0.174 0.244,-0.033 -0.209,0.132 0.336,0.03 0.072,0.243 -0.422,-0.089 0.294,0.092 -0.232,0.058 h 0.246 l 0.012,0.174 0.294,0.004 -0.043,0.12 -0.379,-0.078 0.033,0.234 0.15,0.152 -0.05,-0.176 0.223,0.041 0.048,0.159 -0.24,0.154 -0.297,-0.131 0.268,-0.024 -0.291,-0.03 -0.012,0.121 -0.229,-0.141 0.203,0.159 -0.152,0.144 -0.219,-0.08 0.168,0.089 -0.183,0.075 0.384,-0.034 -0.318,0.15 0.156,0.115 0.17,-0.149 0.141,0.115 -0.248,0.084 0.16,-0.029 -0.003,0.125 0.095,-0.154 0.382,0.151 -0.053,0.144 0.173,-0.084 -0.06,0.135 0.122,-0.038 -0.024,0.205 0.214,0.197 -0.141,0.055 -0.07,-0.176 -0.083,0.204 -0.325,-0.343 -0.657,-0.188 z m 0.45,0.4 -0.396,0.14 0.271,-0.315 z m -2.507,3.033 -0.147,-0.227 v -0.001 z m -1.33,1.98 v 0 l 0.07,-0.094 z m -0.298,-0.326 v 0 l 0.133,-0.064 z m -0.816,-4.059 0.124,-0.126 -0.251,-0.05 0.075,-0.268 0.252,0.046 0.156,0.317 -0.002,10e-4 z m 0.21,0.568 v 0 l 0.146,0.008 z m 0.316,-0.794 0.004,0.171 v 0.001 z m -0.146,-0.669 v 0 l 0.032,0.101 z m -0.32,-0.408 0.129,-0.07 v 10e-4 z m 2.132,-10.97 -0.221,-0.085 0.07,-0.055 h 10e-4 l 0.474,0.033 z m 0.251,0.066 -0.1,-0.053 h 10e-4 z m -0.436,0.149 0.746,-0.017 v 0 l 0.116,0.164 -0.235,0.133 -0.223,-0.136 -0.094,0.13 -0.523,-0.132 0.242,-0.111 0.146,0.147 z m 0.805,-0.686 0.157,0.004 v 0.002 z m -0.403,7.28 -0.004,-0.001 -0.071,-0.074 z m -0.473,0.102 0.165,0.058 -0.014,0.173 -0.154,-0.229 z m 1.065,-6.584 v 0 l 0.004,0.102 z m 1.807,8.16 0.023,0.102 h -0.002 z m 0.314,1.306 v 0 l -0.102,-0.109 z m 0.109,-0.141 0.01,-0.194 0.158,0.138 z m -0.027,0.366 -0.263,0.027 h 0.001 l 0.09,-0.1 z m -0.633,0.562 0.132,-0.126 0.274,0.097 z m 0.492,-0.009 0.133,0.103 -0.337,-0.018 z m -0.071,0.093 0.247,0.256 -0.32,-0.08 -0.126,-0.144 z m 0.823,-8.432 -0.002,-0.097 0.297,-0.153 0.27,0.181 v 0.226 l -0.525,-0.099 0.11,-0.054 z m 0.506,0.17 v 0 l 0.111,0.076 -0.127,0.066 -0.117,-0.14 z m -0.555,-0.425 0.185,-0.109 -0.221,0.012 0.072,-0.185 0.577,0.12 h 10e-4 z m 0.095,0.337 0.304,0.105 h -0.002 l 0.039,0.133 -0.611,0.003 0.069,-0.199 z m 2.134,11.305 -0.117,0.371 -0.334,0.317 -0.296,0.275 -0.582,-0.131 -0.333,0.138 0.203,-0.326 -0.631,-0.113 0.445,-0.154 -0.188,-0.038 0.15,-0.16 -0.585,0.092 0.149,-0.042 -0.102,-0.11 0.188,0.025 -0.114,-0.224 0.258,0.122 -0.221,-0.239 0.417,0.115 0.174,0.368 -0.01,-0.444 0.256,0.118 0.043,-0.24 0.236,0.203 -0.133,-0.22 0.34,-0.045 -0.016,-0.218 0.223,0.121 0.121,-0.144 -0.07,0.154 0.531,0.346 -0.136,0.063 z m -1.157,-6.554 0.38,0.11 -0.201,-0.028 h -0.002 z m 1.077,0.255 -0.311,-0.052 0.164,-0.11 -0.164,0.028 0.021,-0.203 -0.097,0.23 -0.16,-0.074 0.07,-0.307 -0.168,-0.028 0.044,0.129 -0.165,-0.098 0.121,0.297 -0.673,-0.252 0.044,-0.236 0.041,0.147 0.224,0.002 -0.179,-0.17 0.463,0.136 -0.496,-0.277 0.363,0.103 -0.08,-0.094 0.535,0.033 0.018,0.218 0.653,0.588 z m -1.129,-1.251 0.191,0.071 -0.043,-0.139 0.261,-0.031 h 0.001 l 0.221,0.337 -0.279,0.13 -0.083,-0.164 -0.095,0.172 -0.225,-0.049 0.08,-0.091 -0.158,-0.087 0.346,-0.009 z m 0.171,-4.201 0.12,0.005 v 0 z m 0.306,3.701 0.027,0.11 v 0 z m 0.3,1.096 0.019,-0.119 0.145,0.136 h -10e-4 z m 0.498,0.064 -0.005,0.143 -0.297,-0.159 0.037,-0.152 0.337,0.072 v 0 l 0.105,0.173 z m -0.317,-0.595 v -0.003 l 0.03,-0.114 z m 3.122,-1.236 -0.171,-0.19 -0.045,0.186 -0.192,-0.153 0.053,-0.111 -0.088,0.097 -0.246,-0.192 -0.236,0.047 -0.639,-0.465 -0.118,-0.277 -0.429,-0.278 0.359,0.007 0.661,0.567 0.483,0.225 -0.041,0.073 0.264,0.03 -0.081,0.055 0.203,-0.006 -0.033,0.109 0.103,-0.074 -0.03,0.103 0.235,0.009 z m -2.17,-2.349 0.148,-0.016 v 0 z m 1.285,0.102 v 0 l 0.082,-0.059 z m 0.454,0.695 0.002,10e-4 0.098,0.092 -0.18,-0.007 -0.08,-0.108 z m 1.369,1.96 -0.182,0.008 -0.408,-0.311 -0.027,0.119 -0.094,-0.139 -0.125,0.015 -0.066,-0.163 0.025,-0.153 0.301,0.187 0.328,0.051 0.527,-0.146 0.049,0.387 h -0.002 l -0.382,-0.033 z m -0.553,4.207 -0.149,-0.234 0.11,-0.005 v 0 z m 0.069,0.085 0.04,0.328 h -0.001 l -0.186,-0.267 0.165,0.109 z m -0.032,0.556 -0.021,-0.116 h 10e-4 z m -0.189,-0.472 0.155,0.155 -0.11,0.028 z m 0.246,6.665 0.061,0.117 -0.284,-0.199 z m -0.265,-6.854 0.06,0.167 v 0 z m -0.169,6.862 v 0 l 0.105,-0.065 z m 0.043,-0.211 0.035,-0.315 0.092,0.274 -0.063,0.142 z m 1.125,2.859 v 0 l -0.396,0.379 0.029,-0.166 -0.17,0.128 0.112,-0.189 -0.225,0.105 0.112,-0.211 -0.181,0.024 0.362,-0.363 -0.312,0.17 0.147,-0.407 -0.386,0.038 0.085,-0.244 -0.237,-0.147 0.416,-0.144 0.007,-0.239 -0.188,0.045 0.09,-0.32 0.149,0.083 -0.038,-0.213 0.15,0.017 -0.045,0.144 0.236,-0.221 0.348,0.258 -0.131,0.316 0.425,0.795 z m -0.569,-2.175 0.003,-0.173 0.123,0.051 z m 0.126,0.127 -0.038,0.151 v -0.002 z m 0.018,-0.036 v 0 l 0.033,-0.101 z m 0.23,0.1 0.117,0.042 -0.113,-0.038 z m 0.52,0.632 v 0 l 0.019,-0.207 z m 0.236,0.326 0.129,-0.076 -0.127,0.077 z m 0.753,0.715 -0.606,0.011 0.19,-0.475 -0.117,-0.152 -0.149,0.14 0.044,-0.253 0.338,-0.242 -0.15,-0.034 -0.099,-0.343 -0.039,0.12 -0.229,-0.143 0.022,-0.276 -0.402,0.25 0.059,0.106 -0.125,-0.068 -0.199,-0.512 0.117,-0.031 -0.151,-0.099 -0.045,0.217 0.013,0.296 -0.15,-0.709 -0.289,0.119 0.104,-0.254 -0.278,-0.286 0.174,-0.057 -0.185,-0.36 0.421,-0.206 -0.01,0.646 0.543,-0.332 0.115,0.529 -0.141,0.171 0.205,-0.036 -0.246,0.204 0.441,-0.101 0.559,0.474 0.386,0.063 0.112,0.145 -0.166,0.126 0.143,-0.049 0.082,0.018 0.17,0.289 0.006,-0.01 0.289,-0.181 0.23,0.136 0.039,0.499 -0.131,0.144 0.301,-0.125 0.055,0.109 -0.243,0.348 -0.003,0.001 -0.857,0.493 0.066,0.233 -0.52,0.324 0.139,-0.692 0.308,-0.139 0.026,-0.366 z m -1.832,-3.388 v 0 l 0.097,0.1 z m 0.311,-4.446 0.041,0.102 h -0.002 z m 0.829,2.972 0.08,0.093 v 0.001 z m 1.452,4.878 -0.124,0.078 v 0 z m 16.886,14.565 v 0 l 0.049,-0.219 z m 0.099,-0.677 v 0 l -0.014,0.142 -0.013,-0.016 0.032,-0.203 z m 0.076,-0.481 -0.016,0.165 z m 0.23,-1.707 -0.041,0.164 0.012,0.06 -0.078,0.444 -0.153,1.07 -0.106,0.666 0.021,0.12 -0.086,0.423 0.023,-0.088 -0.052,0.244 -0.1,0.512 0.021,-0.054 -0.084,0.334 -0.119,0.436 -0.042,0.146 -0.167,0.559 -0.29,0.891 -0.535,1.432 -0.213,0.512 -0.338,0.765 -0.003,0.006 -0.14,0.297 -0.134,0.279 -0.325,0.649 -0.769,1.386 0.021,-0.033 -0.029,0.049 -0.023,0.043 -0.007,0.009 0.03,-0.052 0.009,-0.016 -0.534,0.876 -0.371,0.568 -0.599,0.861 -1.059,1.378 -0.591,0.702 -0.449,0.503 -0.45,0.475 -0.009,0.018 -0.168,0.172 -0.176,0.183 -0.213,0.211 0.141,-0.141 0.115,-0.116 0.31,-0.327 0.298,-0.57 0.533,-0.943 -0.131,-0.7 0.131,-0.37 0.001,-0.042 0.003,-0.004 -0.003,0.044 0.103,-0.29 0.486,-0.992 0.445,-0.689 0.162,-0.476 -0.123,-0.45 0.165,-0.353 -0.228,-0.526 0.129,-0.152 -0.145,0.027 -0.094,-0.364 -0.633,-0.238 -0.291,-0.44 0.146,-0.09 0.075,-0.474 0.051,0.083 0.16,-0.169 -0.227,0.037 0.119,-0.065 0.007,-0.255 -0.117,0.049 0.181,-0.918 -0.159,-0.187 0.096,-0.071 -0.042,-0.091 -0.167,0.192 -0.151,-0.234 -0.084,0.176 -0.123,-0.105 0.027,0.151 -0.318,0.265 -0.102,-0.057 -0.013,0.167 -0.089,-0.066 0.041,0.105 -0.059,-0.069 0.003,0.117 -0.253,0.183 -0.248,-0.205 0.1,-0.229 -0.106,0.137 -0.073,-0.03 0.129,-0.108 -0.168,0.067 0.092,-0.172 -0.102,0.156 -0.25,-0.097 -0.379,0.216 0.146,-0.188 -0.909,0.738 -1.26,1.279 -0.841,0.192 -0.874,0.504 -0.564,0.506 -0.546,0.03 -1.157,-0.419 -0.597,-0.054 0.019,-0.174 -0.401,-0.156 0.204,-0.127 -0.152,0.062 -0.086,-0.329 -0.196,-0.013 0.071,-0.154 -0.432,-0.049 -0.145,-0.348 -0.165,0.121 0.021,-0.126 -0.096,0.112 -0.139,-0.108 0.203,-0.203 -0.223,-0.002 0.249,-0.165 -0.451,0.25 0.034,-0.129 -0.23,0.02 0.143,-0.156 -0.352,0.071 0.246,-0.161 -0.248,0.087 -0.02,-0.406 0.176,0.048 0.342,-0.221 -0.416,0.19 -0.027,-0.232 -0.51,-0.267 0.387,-0.555 0.117,-1.015 -0.33,-0.699 0.096,-0.441 -0.383,-0.355 -0.063,0.177 -0.016,-0.472 0.381,-1.194 -0.076,0.106 0.352,-0.549 0.041,-0.783 0.288,-0.329 0.164,-0.724 0.516,-0.354 0.39,-0.668 0.117,-0.446 -0.242,-0.614 0.051,-0.633 0.677,-1.071 0.021,-0.975 0.138,-0.13 0.388,0.219 0.536,-0.382 0.107,0.132 0.296,-0.126 0.212,-0.477 0.279,-0.212 0.211,-0.49 0.761,-0.699 0.484,-0.138 0.206,-0.403 0.469,-0.177 0.379,-0.59 0.329,0.143 0.069,-0.289 0.076,0.535 0.395,0.261 -0.075,0.693 0.14,0.132 0.769,-0.025 0.271,-0.266 0.571,-0.185 0.351,0.301 0.61,-0.294 0.407,0.001 0.109,-0.503 -0.301,-0.57 0.154,-0.705 0.357,-0.218 0.157,0.146 0.357,-0.343 0.15,0.127 0.335,-0.425 0.496,-0.296 0.098,-0.825 0.141,-0.211 0.146,0.14 0.197,-0.687 -0.665,-1.667 -0.328,-0.312 -0.322,-0.569 0.01,0.315 -0.155,0.085 0.096,0.384 -0.083,0.37 -0.446,0.099 -0.071,0.13 0.156,0.308 -0.082,0.205 -0.393,0.014 -0.102,0.342 0.031,-0.378 -0.138,0.296 -0.021,-0.203 -0.219,-0.005 -0.053,-0.184 -0.248,0.131 -0.089,-0.205 0.147,0.083 0.039,-0.17 -0.132,0.026 -0.235,-0.405 -0.109,0.24 -0.121,-0.19 -0.055,-0.326 0.344,-0.501 -0.088,-0.104 0.105,-0.253 -0.118,0.129 -0.144,-0.136 0.305,-0.434 -0.051,-0.832 0.149,-0.417 0.413,-0.037 0.275,-0.361 0.124,-0.442 -0.075,-0.452 -0.135,-0.243 -0.324,-0.205 -1.193,0.323 0.008,-0.271 -0.26,-0.45 h 0.104 l -0.306,-0.014 0.079,-0.185 -0.176,-0.336 -0.028,0.927 0.125,0.395 -0.144,-0.193 0.149,0.362 0.245,0.074 0.071,-0.083 -0.364,-0.145 0.359,0.138 0.076,-0.29 0.1,0.934 -0.129,0.068 -0.317,-0.257 -0.057,0.178 -0.03,-0.418 -0.121,-0.089 -0.23,0.354 -0.036,-0.111 -0.104,0.063 0.134,-0.17 -0.19,-0.039 -0.02,0.38 0.133,0.224 -0.148,-0.034 0.15,0.036 0.076,0.336 -0.06,-0.202 0.056,0.19 -0.09,-0.054 0.33,0.353 -0.023,0.194 -0.107,-0.07 0.451,0.598 0.176,0.693 0.051,-0.104 0.624,0.24 -0.202,0.346 0.082,0.664 -0.088,-0.375 -0.373,0.239 -0.157,0.415 0.292,0.083 -0.172,0.072 0.159,0.115 -0.386,-0.044 -0.009,0.142 0.511,0.336 -0.126,0.026 0.121,0.108 -0.052,0.185 0.478,-0.081 0.137,0.217 -0.202,-0.039 -0.049,0.188 0.219,0.058 -0.183,0.133 0.397,0.342 -0.205,-0.018 0.085,0.205 -0.24,-0.174 -0.024,0.183 -0.399,-0.285 -0.05,-0.208 0.367,-0.236 -0.002,-0.164 -0.45,0.413 -0.206,-0.112 0.012,-0.177 -0.051,0.124 -0.697,-0.282 -0.346,-0.63 -0.359,-0.1 -0.503,0.149 0.2,-0.079 -0.34,-0.058 -0.225,0.143 -0.816,-0.468 0.018,0.342 -0.377,-0.358 -0.186,0.427 0.393,0.449 0.459,0.042 0.682,0.402 0.331,-0.218 0.085,0.225 0.909,0.012 0.06,0.179 -0.237,-0.1 -0.243,0.143 0.097,0.365 0.354,0.152 -0.074,0.219 0.116,0.489 -0.122,0.053 -0.088,-0.478 -0.438,-0.379 -1.691,-0.091 -0.639,-0.502 -0.47,0.056 -0.282,1.064 -0.676,0.116 -0.136,0.246 0.003,0.268 0.293,0.383 -0.438,0.757 -0.069,0.785 0.11,0.292 0.227,0.104 -0.146,0.309 0.079,0.374 -0.21,0.174 -0.069,0.466 -0.75,0.366 -0.279,0.523 -0.647,-0.433 -0.69,0.427 -0.174,-0.676 0.073,-0.042 -0.204,0.077 v -0.319 l -0.154,0.176 0.017,-0.737 -0.327,-1.092 -0.354,-0.252 0.375,-0.554 0.26,0.065 1.652,-0.734 -0.332,-1.052 -0.07,-0.04 -0.105,-0.305 -0.238,0.021 -0.392,-0.384 -0.614,0.13 -0.18,-0.191 0.141,-0.046 -0.229,-0.039 0.379,-0.39 0.195,0.125 0.32,-0.241 -0.415,-0.416 0.6,-0.081 0.197,-0.61 -0.2,-0.292 0.498,-0.582 -0.24,0.038 0.229,-0.249 -0.216,-0.017 -0.123,-0.528 0.304,0.204 0.049,-0.2 -0.252,-0.134 0.022,-0.211 0.378,-0.148 -0.18,-0.102 0.136,-0.179 0.218,0.063 -0.129,-0.238 0.344,-0.023 -0.488,-0.129 0.026,-0.138 -0.202,-0.102 -0.024,0.1 -0.69,-0.993 0.165,-0.518 0.245,0.472 0.24,-0.013 -0.016,0.487 0.254,0.371 0.3,0.098 0.164,-0.175 0.095,0.208 0.236,-0.512 0.559,0.08 -0.119,-0.186 0.252,-0.815 0.305,0.042 0.057,-0.285 0.074,0.236 -0.008,-0.337 -0.063,0.101 -0.094,-0.108 0.031,-0.164 -0.164,-0.313 0.203,0.367 0.105,-0.119 -0.619,-0.511 -0.297,-0.473 0.043,-0.208 0.434,0.108 -0.014,-0.215 -0.4,-0.386 -0.109,0.123 -0.375,-0.253 0.066,-0.474 0.34,-0.255 -0.143,-0.146 0.139,-0.395 -0.32,0.145 -0.158,-0.12 -0.221,1.147 -0.199,-0.212 -0.004,0.135 -0.285,0.029 -0.305,-0.343 -0.597,-0.33 -0.469,-1.244 -0.43,-0.125 -0.206,0.216 0.128,0.142 -0.153,0.012 0.229,0.171 -0.107,0.019 0.401,0.227 0.159,0.322 0.104,0.66 -0.143,-0.024 0.815,0.858 0.139,-0.083 0.471,0.141 -0.014,0.255 0.141,-0.039 0.067,0.279 -0.178,-0.096 0.125,0.163 -0.139,0.239 0.172,-0.05 -0.077,0.077 0.42,0.327 0.351,0.636 -0.22,0.14 0.187,0.371 -0.238,0.209 -0.375,-0.303 -0.01,-0.179 -0.591,-0.252 -0.183,-0.271 0.084,0.204 -0.15,-0.212 -0.053,0.099 -0.607,-0.53 0.232,0.363 -0.177,0.09 0.108,0.566 -0.171,0.201 -0.438,-0.054 -0.167,-0.182 0.191,-0.01 -0.002,-0.128 -0.146,0.08 -0.023,-0.274 -0.076,0.233 -0.162,-0.055 0.027,-0.61 -0.081,0.429 -0.122,-0.225 0.023,0.14 -0.124,-0.064 -0.003,-0.214 -0.031,0.136 -0.142,-0.067 0.093,-0.098 h -0.152 l 0.235,-0.241 0.183,0.065 -0.022,-0.211 -0.107,-0.085 0.068,0.159 -0.183,-0.033 0.032,0.111 -0.19,0.184 -0.01,-0.153 -0.135,0.057 0.139,-0.111 -0.187,0.046 -0.062,-0.139 0.278,-0.18 -0.286,0.176 -0.109,-0.106 0.247,-0.082 -0.116,-0.021 0.141,-0.023 -0.057,-0.105 0.164,0.034 -0.313,-0.081 0.264,-0.251 -0.271,0.03 0.339,-0.064 -0.209,-0.047 0.186,-0.026 -0.221,-0.189 0.096,-0.209 0.125,0.089 0.117,-0.178 -0.178,-0.287 0.057,0.304 -0.16,0.075 -0.133,-0.507 0.142,0.076 0.039,-0.12 -0.151,-0.031 0.007,-0.182 -0.089,0.125 0.061,-0.334 -0.082,0.135 -0.181,-0.313 0.102,-0.024 -0.157,-0.027 0.091,-0.245 -0.087,0.172 -0.115,-0.311 -0.117,0.001 0.174,-0.256 -0.196,0.068 0.054,-0.266 -0.23,0.01 0.102,-0.113 -0.127,0.011 -0.002,-0.138 0.233,0.09 -0.245,-0.152 0.15,-0.177 -0.186,0.119 0.061,-0.175 -0.277,-0.287 0.234,-0.064 -0.227,-0.061 -0.006,-0.132 0.158,0.125 -0.179,-0.227 0.26,0.242 -0.192,-0.345 0.189,-0.011 -0.293,-0.109 0.297,-0.094 -0.351,-0.385 0.143,-0.094 0.3,0.286 -0.293,-0.383 0.26,0.172 -0.006,-0.087 -0.26,-0.223 0.126,-0.05 0.2,0.204 -0.136,-0.225 0.342,-0.096 0.101,0.167 -0.149,0.145 0.292,0.028 -0.054,-0.141 0.204,-0.026 -0.129,-0.179 0.158,-0.062 -0.066,0.105 0.152,0.071 0.077,-0.146 0.213,0.171 -0.163,-0.156 0.107,-0.184 0.691,-0.292 0.535,0.006 0.391,0.504 -0.839,0.674 0.437,-0.052 0.029,0.133 0.281,-0.148 0.185,0.199 0.417,0.14 0.468,-0.19 -0.199,-0.207 -0.266,0.108 -0.181,-0.146 0.213,-0.134 0.101,0.109 -0.083,-0.11 0.215,-0.216 -0.463,-0.103 -0.202,-0.249 -0.203,-0.3 0.306,-0.141 -1.08,-0.438 -0.208,0.041 0.313,-0.299 0.151,0.034 0.155,0.287 0.305,-0.033 -0.02,-0.211 -0.322,-0.146 -0.003,-0.16 -0.149,0.011 -0.319,-0.536 0.13,0.023 -0.329,-0.269 -0.019,-0.084 0.097,0.135 0.296,0.124 v -0.193 l -0.198,-0.109 -0.037,-0.231 -0.261,-0.246 0.286,-0.029 -0.186,-0.057 -0.084,-0.153 -0.322,0.053 -0.163,-0.098 0.143,-0.547 0.002,0.071 0.316,-0.258 -0.426,-0.151 -0.201,0.104 0.061,0.141 -0.715,-0.058 -0.301,-0.177 -0.682,-0.125 -0.096,-0.203 0.021,-0.112 0.619,0.101 0.202,-0.093 0.868,0.059 0.154,-0.108 0.802,0.265 0.313,0.333 -0.035,-0.35 -0.857,-0.361 -0.453,-0.007 -0.237,-0.206 0.468,-0.047 -0.031,-0.186 0.003,0.141 -0.272,-0.077 -0.227,0.056 -0.014,0.179 0.209,0.231 -0.669,-0.071 -0.269,0.127 -0.482,-0.185 -0.273,0.026 0.646,-0.141 -0.072,-0.23 -0.231,0.255 -0.122,-0.186 -0.125,0.056 -0.148,-0.082 0.045,-0.287 -0.157,-0.158 0.588,0.064 -0.241,-0.062 0.359,0.011 0.068,-0.129 -0.777,0.078 -0.088,0.278 -0.446,0.08 -0.651,-0.497 -0.294,0.178 0.011,-0.098 -0.207,0.049 -0.887,-0.36 0.123,0.07 -0.119,0.002 -0.25,-0.158 0.139,-0.016 -0.43,-0.107 -0.024,-0.084 -0.054,0.115 -0.199,-0.115 -0.217,0.09 -0.437,-0.015 -0.1,-0.152 0.282,0.04 -0.274,-0.169 0.212,-0.032 -0.53,-0.131 -0.092,-0.279 0.108,-0.045 0.068,0.103 v -0.162 l 1.169,0.019 0.429,-0.051 -0.227,0.02 -0.712,-0.15 0.171,0.059 -0.123,0.04 -0.201,-0.061 -0.009,-0.094 -0.136,0.028 0.089,-0.162 h -0.392 l -0.393,-0.146 0.119,-0.04 -0.152,-0.097 -0.411,-0.113 -0.356,0.138 -0.191,-0.148 -0.359,-0.063 -0.042,-0.118 0.163,-0.006 -0.141,-0.079 h 0.204 l -0.319,-0.302 -0.365,0.203 -0.137,-0.112 -0.365,0.019 -0.287,-0.108 -0.048,0.087 -0.325,-0.029 0.129,0.096 -0.141,0.065 0.168,-0.004 -0.337,0.065 0.065,0.057 -0.928,-0.061 0.4,-0.047 -0.414,0.039 0.125,-0.097 0.094,0.068 -0.008,-0.133 -0.238,0.164 -0.191,0.02 -0.294,-0.048 0.177,-0.065 -0.678,-0.085 -0.517,0.137 -0.506,0.063 -0.644,-0.187 -0.115,0.129 -0.777,0.186 -0.082,0.091 -0.203,-0.045 -0.453,0.068 -0.045,0.074 0.297,0.011 0.068,0.091 -0.489,0.114 -0.382,0.198 -0.817,0.186 h -10e-4 l -1.088,0.28 -0.692,0.032 0.401,-0.014 -0.115,0.095 -0.326,0.177 -0.552,0.164 -0.066,-0.108 0.197,-0.082 -0.183,0.026 0.359,-0.188 -0.206,0.083 -0.146,-0.019 0.062,-0.123 -0.265,0.089 0.081,-0.1 0.152,-0.006 -0.049,-0.044 0.422,-0.162 0.412,-0.063 0.283,-0.184 0.279,0.058 0.131,-0.084 -0.259,-0.044 -0.021,-0.154 0.739,-0.377 -0.189,0.083 -0.051,-0.026 -0.172,0.142 -0.291,0.026 0.079,0.016 -0.736,0.034 -0.04,-0.065 0.451,-0.179 0.49,-0.361 0.311,-0.324 -0.06,-0.045 0.384,-0.048 0.456,-0.183 0.048,-0.089 0.13,0.039 0.199,-0.145 0.141,-0.004 0.179,-0.063 0.081,-0.232 -0.399,0.084 0.096,-0.063 -0.369,0.005 0.319,-0.093 -0.228,-0.035 0.51,-0.161 -0.168,-0.014 0.461,-0.106 h -0.127 l 0.393,-0.118 0.817,0.01 0.056,0.086 -0.093,0.103 -0.357,0.088 -0.522,0.367 -0.355,0.144 0.183,0.135 -0.212,0.091 0.191,-0.027 0.259,-0.097 -0.168,-0.068 0.21,-0.057 0.326,-0.21 0.017,0.047 0.135,-0.043 0.052,0.023 -0.031,0.095 0.791,-0.223 0.395,-0.245 -0.02,-0.036 -0.21,0.039 -0.089,-0.015 0.951,-0.173 0.086,0.012 -0.302,0.051 0.78,-0.049 0.092,-0.056 0.641,-0.036 0.104,-0.035 0.105,0.018 0.834,-0.056 1.146,-0.198 0.899,-0.044 -0.14,-0.022 -0.324,-0.01 0.035,-0.033 -0.298,0.011 0.142,-0.023 -0.39,0.006 -0.023,0.011 -0.326,-0.002 -0.513,-0.031 0.064,-0.009 0.178,0.002 -0.292,-0.02 0.343,-0.022 0.684,0.002 1.488,0.066 1.694,0.166 0.725,0.103 h -10e-4 l 0.014,0.002 -0.013,-0.002 0.437,0.07 0.073,0.013 0.146,0.025 0.426,0.078 0.389,0.078 0.934,0.209 0.24,0.059 0.004,0.001 0.433,0.112 -0.188,-0.05 0.201,0.053 0.049,0.013 0.036,0.01 0.103,0.027 0.007,0.002 0.013,0.003 -0.009,-0.002 0.018,0.005 0.074,0.02 -0.015,-0.004 0.086,0.023 0.027,0.008 0.027,0.008 0.026,0.007 0.042,0.012 0.069,0.021 0.004,0.001 -0.073,-0.022 0.108,0.032 0.009,0.002 0.027,0.009 0.007,0.002 0.026,0.007 -0.038,-0.012 0.201,0.06 0.091,0.027 -0.135,-0.04 0.047,0.014 -0.011,-0.003 0.036,0.011 0.144,0.042 0.009,0.003 0.004,0.001 -0.004,-0.001 h 10e-4 0.001 v 0 l 0.004,0.001 0.107,0.034 0.15,0.046 -0.061,-0.018 0.027,0.009 0.021,0.006 0.164,0.052 -0.015,-0.005 -0.054,-0.018 0.048,0.016 -0.056,-0.019 0.169,0.056 0.018,0.005 -0.089,-0.029 0.095,0.031 0.086,0.028 0.08,0.026 0.081,0.028 -0.015,-0.005 0.296,0.101 -0.008,-0.003 0.009,0.003 h 0.001 l 0.003,0.001 0.041,0.014 0.008,0.003 0.041,0.014 0.179,0.063 -0.044,-0.015 0.023,0.008 0.12,0.042 0.043,0.017 0.629,0.236 0.121,0.048 -0.117,-0.046 0.528,0.212 0.122,0.051 0.241,0.102 -0.051,-0.031 0.114,0.049 -0.066,-0.028 0.082,0.036 0.605,0.271 -0.132,-0.061 -0.096,-0.043 0.004,0.001 0.092,0.042 0.085,0.039 -0.026,-0.012 0.036,0.017 0.096,0.043 -0.042,-0.019 0.068,0.031 -0.071,-0.033 0.067,0.031 0.133,0.061 0.029,0.014 0.172,0.081 0.125,0.061 0.265,0.129 0.036,0.017 0.641,0.331 0.039,0.021 0.09,0.046 0.059,0.032 -0.053,-0.028 0.203,0.109 0.258,0.144 -0.042,-0.024 0.185,0.104 0.049,0.028 0.121,0.069 0.07,0.039 0.12,0.071 0.183,0.108 0.025,0.017 0.315,0.19 -0.046,-0.028 0.154,0.094 0.208,0.13 0.022,0.014 0.164,0.104 0.281,0.183 -0.043,-0.027 0.217,0.143 -0.09,-0.059 0.222,0.148 0.01,0.007 -0.052,-0.036 0.128,0.086 -0.076,-0.051 0.247,0.168 -0.012,-0.009 0.141,0.098 -0.123,-0.084 0.24,0.168 0.059,0.041 0.105,0.077 0.102,0.073 0.109,0.078 0.315,0.236 -0.029,-0.022 0.051,0.039 -0.014,-0.012 0.192,0.147 0.079,0.06 0.061,0.047 0.057,0.043 0.073,0.058 -0.13,-0.101 -0.011,-0.008 0.136,0.106 0.265,0.209 0.143,0.114 0.076,0.063 0.025,0.02 0.152,0.126 0.262,0.221 0.373,0.325 0.373,0.332 0.008,0.01 0.186,0.169 0.755,0.725 0.048,0.05 0.435,0.443 0.107,0.116 0.122,0.127 0.127,0.137 -0.053,-0.057 0.103,0.111 0.024,0.026 -0.002,-0.002 -0.041,-0.045 -0.031,-0.034 -0.02,-0.021 0.019,0.02 -0.058,-0.062 0.085,0.092 -0.019,-0.021 0.03,0.033 0.04,0.043 -0.038,-0.041 10e-4,0.001 0.031,0.034 0.007,0.008 0.031,0.034 -0.014,-0.015 0.025,0.028 0.058,0.063 -0.042,-0.047 0.044,0.049 0.014,0.015 v 0 l 0.036,0.039 -0.027,-0.029 0.019,0.021 10e-4,0.001 0.022,0.024 0.029,0.034 0.033,0.037 -0.014,-0.015 0.082,0.092 v 0 l 0.005,0.005 -0.019,-0.021 0.02,0.022 0.007,0.007 0.015,0.018 0.005,0.006 0.036,0.04 0.007,0.008 0.001,0.001 0.056,0.064 0.047,0.053 0.008,0.009 0.01,0.011 0.057,0.065 -0.056,-0.064 0.015,0.018 -0.01,-0.011 0.021,0.024 h 0.001 l -0.01,-0.011 0.109,0.127 0.065,0.076 -0.035,-0.042 0.015,0.017 -0.019,-0.022 0.074,0.088 0.063,0.074 -0.013,-0.015 0.003,0.004 0.09,0.105 -0.117,-0.137 0.029,0.035 0.083,0.098 -0.027,-0.032 0.112,0.132 0.116,0.143 0.098,0.122 0.004,0.005 -0.008,-0.012 0.191,0.241 0.038,0.047 0.012,0.015 0.039,0.049 0.039,0.048 0.023,0.031 10e-4,0.001 0.024,0.031 0.227,0.295 -0.11,-0.143 0.023,0.032 0.113,0.146 0.253,0.344 0.039,0.052 -0.008,-0.01 0.016,0.022 0.022,0.03 -0.077,-0.107 0.087,0.12 -0.01,-0.013 0.025,0.035 0.046,0.062 -0.021,-0.027 0.024,0.033 0.021,0.028 0.012,0.018 0.146,0.203 0.396,0.581 0.057,0.082 0.102,0.156 0.087,0.135 0.058,0.088 -0.031,-0.05 0.073,0.116 0.049,0.076 0.176,0.28 0.086,0.142 0.073,0.119 0.038,0.065 0.079,0.13 0.039,0.067 0.036,0.059 0.216,0.378 0.01,0.019 0.002,0.003 0.017,0.03 0.111,0.195 0.007,0.019 -0.044,-0.08 0.306,0.559 0.106,0.207 0.042,0.078 0.041,0.083 0.041,0.08 0.094,0.182 0.189,0.389 -0.004,-0.007 0.123,0.26 0.016,0.031 0.01,0.021 0.021,0.046 0.131,0.291 0.117,0.262 -0.006,-0.013 -0.264,-0.586 -0.025,-0.052 -0.443,-0.904 -0.083,-0.161 -0.451,-0.833 -0.11,-0.198 -0.036,-0.063 -0.081,-0.141 0.171,0.305 -0.011,0.006 -0.129,-0.226 0.143,0.257 -0.092,-0.152 0.136,0.264 -0.147,-0.219 0.075,0.164 -0.139,-0.19 0.659,1.55 0.172,1.044 -0.285,-0.286 0.248,0.786 -0.012,0.243 -0.188,0.056 -0.051,0.206 -0.553,-0.393 0.045,0.215 -0.104,0.047 0.098,0.141 -0.027,0.243 0.137,0.116 0.037,0.198 0.009,-0.106 0.437,0.394 0.232,-0.046 0.146,0.275 0.276,0.222 -0.279,-0.514 0.009,-0.148 0.355,0.653 0.069,-0.107 -0.069,-0.247 -0.026,-0.423 -0.588,-1.479 0.174,0.315 0.229,0.284 0.082,0.021 -0.018,-0.329 0.175,0.127 0.431,1.016 -0.014,0.03 0.09,0.236 0.211,0.44 0.106,0.412 0.155,0.437 0.063,0.324 0.142,0.426 0.164,1.004 0.125,0.401 0.147,1.272 0.069,0.432 0.01,1.237 0.043,0.429 -0.068,0.532 -0.367,-0.723 -0.203,-0.618 -0.607,-0.568 -0.369,-0.04 -0.252,-0.494 -0.334,-0.328 -0.221,0.076 -0.189,-0.262 -0.855,-0.526 -0.086,0.166 -0.293,-0.672 0.338,0.905 -0.32,-0.042 -0.432,-0.332 0.249,0.336 0.391,0.174 0.917,0.862 0.198,0.046 -0.04,0.083 0.216,0.33 0.306,-0.016 0.227,0.265 -0.047,0.003 0.433,0.828 0.242,-0.028 0.533,0.808 -0.041,-0.213 0.103,0.114 0.119,-0.179 0.398,0.164 0.057,0.174 -0.005,0.454 0.031,-0.236 0.196,0.029 0.006,-0.588 0.039,-0.134 -0.021,-0.506 0.011,-0.71 -0.068,-0.69 0.013,-0.1 0.143,0.628 -0.009,-0.136 0.019,0.215 0.078,0.368 0.292,2.858 0.009,1.445 -0.089,1.476 z m -7.068,7.556 v -0.001 l 0.158,-0.279 -0.07,0.277 z m -6.851,-14.227 0.079,-0.119 h 0.001 z m 0.176,-0.524 0.167,-0.316 0.133,0.067 -0.051,0.264 v 0.001 z m 0.398,-0.435 0.105,-0.036 -0.104,0.036 z m 0.933,-1.977 0.029,0.384 -0.346,-0.306 0.051,-0.444 z m -0.04,-0.384 0.061,-0.097 -0.059,0.099 z m 0.183,0.819 0.336,0.205 0.26,0.577 -0.235,0.359 v 0.001 l -0.548,-0.805 z m 1.782,0.929 -0.153,-0.162 0.682,-0.771 0.252,0.807 h -0.002 z m 0.448,1.971 v 0 l -0.041,0.111 z m 0.35,-1.636 v 0 l 0.097,0.012 z m 0.172,-2.769 0.176,0.091 h -0.002 z m 0.471,0.155 0.046,0.157 h -0.002 z m 0.074,0.187 0.152,0.093 -0.119,0.074 v -0.003 z m 0.439,-1.711 -0.018,0.153 0.016,-0.154 z m 0.178,0.822 0.229,0.204 v 0 l -0.523,0.01 0.035,-0.175 z m 0.109,-0.63 0.045,-0.167 0.146,0.081 -0.046,0.084 z m 0.287,0.781 0.002,0.001 -0.109,-0.004 z m -0.071,-0.563 0.129,0.178 -0.003,-0.001 z m 0.162,1.686 v 0 l -0.075,-0.086 z m 0.152,-1.256 v -0.001 l 0.008,-0.156 z m 0.631,0.995 0.029,-0.207 0.056,0.168 -0.241,0.342 v 0 l -0.274,0.188 -0.104,-0.162 z m -0.471,-0.649 0.018,-0.1 v 0 z m 0.216,-0.291 v 0 l 0.021,-0.134 z m 0.277,0.066 -0.002,-0.25 0.082,0.256 z m 0.054,0.374 v 0 l -0.035,-0.134 z m -0.68,-0.718 0.076,-0.093 h 10e-4 z m 1.573,-0.407 0.106,-0.814 0.049,0.339 0.106,0.067 -0.021,0.427 v 0 z m -4.856,0.423 -0.08,0.072 0.078,-0.071 z m -0.119,-0.118 -0.103,0.098 v -0.001 z m -0.938,-0.066 0.104,0.051 z m -0.073,-0.14 v 0 l 0.135,0.146 z m 0.153,0.06 0.107,0.021 0.114,0.05 z m -4.407,2.052 v 0 l 0.104,-0.007 z m 0.104,0.088 v 0 l 0.088,0.067 z m -0.307,-4.168 0.068,-0.091 -0.065,0.094 z m 0.526,-2.133 0.249,0.155 0.062,0.341 0.154,0.166 -0.592,-0.304 0.087,-0.222 0.161,0.083 z m 0.174,0.788 -0.053,-0.14 h 0.002 z m -0.102,-0.146 -0.164,0.087 -0.128,-0.166 v 0 l 0.087,-0.121 z m 0.032,0.119 h -0.102 v -0.001 z m -0.104,0.075 v 0 l -0.131,-0.036 z m -0.264,-0.53 v 0 l 0.085,0.081 z m 0.616,-1.474 0.307,0.536 -0.227,-0.355 v 0 z m 0.495,1.198 -0.14,-0.08 z m 0.026,0.476 -0.119,0.048 0.012,-0.155 z m -0.063,-2.618 -0.231,-0.163 0.189,-0.216 z m -0.23,-0.328 -0.144,-0.009 0.03,-0.091 0.131,-0.034 z m 0.065,1.243 -0.211,-0.18 -0.015,-0.273 z m 0.465,1.774 0.029,-0.12 h 0.002 z m -1.073,-3.448 -0.003,-10e-4 -0.022,-0.169 z m -0.255,0.343 v 0 l -0.211,-0.094 z m -0.313,0.112 -0.104,-0.036 v 0 z m -2.693,0.078 v 0 l 0.063,-0.106 z m 0.121,-0.069 v 0 l -0.063,0.141 z m -1.037,-3.634 -0.077,-0.133 z m 0.032,0.018 v 0 l -0.081,0.047 z m 0.887,-3.872 0.184,-0.145 0.117,0.068 -0.098,0.122 z m 0.557,1.173 0.194,-0.068 0.177,0.21 v 0 l -0.176,0.036 z m 0.463,-2.415 0.123,0.07 -0.002,0.001 z m 0.163,0.075 v 0 l 0.022,0.081 z m -7.368,-2.877 0.149,-0.03 0.043,0.085 h -10e-4 z m -11.781,-0.003 0.096,-0.073 0.012,-0.006 0.121,-0.064 z m 1.951,-1.893 0.199,-0.119 0.038,0.046 z m 6.9,-1.142 0.226,0.002 -0.125,0.017 z m 25.518,17.611 -0.139,-0.427 0.07,0.159 v 10e-4 z m 0.185,1.53 0.054,0.037 v 0 z m 0.385,-0.327 0.014,0.11 v 0 z m 1.166,7.383 -0.039,0.119 -0.001,0.001 -0.042,-0.1 z m -2.049,-2.796 -0.061,0.037 v -0.001 z"
         style="fill:#8a9398" />
      <polygon
         id="polygon397"
         points="502.335,204.85 502.33,204.844 "
         style="fill:#8a9398" />
      <polygon
         id="polygon399"
         points="504.539,207.762 504.56,207.793 504.54,207.764 "
         style="fill:#8a9398" />
      <polygon
         id="polygon401"
         points="502.137,204.623 502.126,204.61 502.146,204.633 "
         style="fill:#8a9398" />
      <polygon
         id="polygon403"
         points="504.818,208.192 504.8,208.163 504.763,208.106 "
         style="fill:#8a9398" />
      <polygon
         id="polygon405"
         points="504.384,207.535 504.042,207.036 503.965,206.929 "
         style="fill:#8a9398" />
      <polygon
         id="polygon407"
         points="502.181,204.672 502.166,204.655 502.146,204.632 "
         style="fill:#8a9398" />
      <polygon
         id="polygon409"
         points="470.885,251.787 470.945,251.807 470.967,251.813 470.786,251.753 470.861,251.779 "
         style="fill:#8a9398" />
      <polygon
         id="polygon411"
         points="487.752,195.664 487.888,195.701 487.867,195.695 487.833,195.686 487.85,195.69 487.846,195.688 "
         style="fill:#8a9398" />
      <polygon
         id="polygon413"
         points="502.543,205.094 502.556,205.109 502.591,205.152 502.651,205.224 502.612,205.177 502.552,205.105 "
         style="fill:#8a9398" />
    </g>
  </g>
</svg>
