<?xml version="1.0" encoding="UTF-8" standalone="no"?>
<!-- Created with Inkscape (http://www.inkscape.org/) -->

<svg
   xmlns:dc="http://purl.org/dc/elements/1.1/"
   xmlns:cc="http://creativecommons.org/ns#"
   xmlns:rdf="http://www.w3.org/1999/02/22-rdf-syntax-ns#"
   xmlns:svg="http://www.w3.org/2000/svg"
   xmlns="http://www.w3.org/2000/svg"
   xmlns:sodipodi="http://sodipodi.sourceforge.net/DTD/sodipodi-0.dtd"
   xmlns:inkscape="http://www.inkscape.org/namespaces/inkscape"
   width="9.2604208mm"
   height="16.29834mm"
   viewBox="0 0 9.2604208 16.29834"
   version="1.1"
   id="svg324"
   sodipodi:docname="writingQuill.svgz"
   inkscape:version="0.92.1 r15371">
  <defs
     id="defs318" />
  <sodipodi:namedview
     id="base"
     pagecolor="#ffffff"
     bordercolor="#666666"
     borderopacity="1.0"
     inkscape:pageopacity="0.0"
     inkscape:pageshadow="2"
     inkscape:zoom="0.35"
     inkscape:cx="-1237.7686"
     inkscape:cy="15.943406"
     inkscape:document-units="mm"
     inkscape:current-layer="layer1"
     showgrid="false"
     inkscape:window-width="1440"
     inkscape:window-height="837"
     inkscape:window-x="-8"
     inkscape:window-y="-8"
     inkscape:window-maximized="1"
     fit-margin-top="0"
     fit-margin-left="0"
     fit-margin-right="0"
     fit-margin-bottom="0" />
  <metadata
     id="metadata321">
    <rdf:RDF>
      <cc:Work
         rdf:about="">
        <dc:format>image/svg+xml</dc:format>
        <dc:type
           rdf:resource="http://purl.org/dc/dcmitype/StillImage" />
        <dc:title></dc:title>
      </cc:Work>
    </rdf:RDF>
  </metadata>
  <g
     inkscape:label="Layer 1"
     inkscape:groupmode="layer"
     id="layer1"
     transform="translate(-92.887649,-111.20202)">
    <path
       inkscape:connector-curvature="0"
       style="fill:#ffffff;stroke-width:0.26458332"
       d="m 96.190972,121.71074 c 1.196181,-0.64426 2.343414,-1.01785 3.274483,-1.23533 0.05212,-0.41937 0.142875,-0.97923 0.297127,-1.69466 -1.513681,0.17383 -2.96545,1.12659 -2.96545,1.12659 0.812535,-1.05013 2.051844,-1.58458 3.133196,-1.85684 0.110592,-0.45694 0.243412,-0.96282 0.404282,-1.52427 -1.255711,0.16563 -2.173022,1.02606 -2.173022,1.02606 0.595048,-0.87022 1.567921,-1.42028 2.387862,-1.7526 0.17727,-0.58367 0.38074,-1.21682 0.61675,-1.90527 -0.97949,0.42149 -2.071691,1.46156 -2.071691,1.46156 0.602192,-1.03637 1.603901,-1.75789 2.320391,-2.1754 0.21987,-0.61913 0.46303,-1.27794 0.73317,-1.97856 0,0 -8.784171,6.13834 -9.260421,16.29834 0,0 0.291041,-0.56383 1.178983,-1.00542 0,0 -0.675217,-2.48708 0.601663,-3.54542 0.674687,-0.55906 1.553368,-0.68791 3.457839,-0.74083 0,0 0.423598,-0.15875 1.270265,-0.71437 0,0 -7.94e-4,-0.0161 -0.0013,-0.0455 -1.544638,-0.254 -3.204104,0.26193 -3.204104,0.26193 z"
       id="path183" />
  </g>
</svg>
