<?xml version="1.0" encoding="UTF-8" standalone="no"?>
<svg
   xmlns:dc="http://purl.org/dc/elements/1.1/"
   xmlns:cc="http://creativecommons.org/ns#"
   xmlns:rdf="http://www.w3.org/1999/02/22-rdf-syntax-ns#"
   xmlns:svg="http://www.w3.org/2000/svg"
   xmlns="http://www.w3.org/2000/svg"
   id="svg5057"
   version="1.1"
   viewBox="0 0 16.40443 14.023048"
   height="14.023048mm"
   width="16.40443mm">
  <defs
     id="defs5051" />
  <metadata
     id="metadata5054">
    <rdf:RDF>
      <cc:Work
         rdf:about="">
        <dc:format>image/svg+xml</dc:format>
        <dc:type
           rdf:resource="http://purl.org/dc/dcmitype/StillImage" />
        <dc:title></dc:title>
      </cc:Work>
    </rdf:RDF>
  </metadata>
  <g
     transform="translate(-93.851356,-207.58966)"
     id="layer1">
    <g
       id="g521"
       transform="matrix(0.26458333,0,0,0.26458333,25.853705,121.46792)">
      <path
         id="path509"
         d="m 299.125,333.281 c -1.133,0 -2.051,0.941 -2.051,2.103 0,0.526 0.195,1.003 0.508,1.371 l -0.017,0.017 c 3.891,3.893 6.296,9.254 6.296,15.176 0,5.909 -2.399,11.258 -6.275,15.148 -0.025,0.025 -0.05,0.05 -0.074,0.076 -0.031,0.03 -0.059,0.063 -0.09,0.092 l 0.009,0.01 c -0.299,0.364 -0.485,0.828 -0.485,1.342 0,1.162 0.919,2.104 2.052,2.104 0.515,0 0.979,-0.201 1.339,-0.521 l 0.012,0.012 c 4.738,-4.654 7.678,-11.115 7.678,-18.262 0,-6.993 -2.816,-13.329 -7.378,-17.96 -0.377,-0.432 -0.917,-0.708 -1.524,-0.708 z"
         style="fill:#ffffff" />
      <path
         id="path511"
         d="m 290.87,325.5 c -0.344,0 -0.663,0.104 -0.929,0.281 v 0 l -0.002,0.002 -19.597,12.92 h -11.678 c -0.92,0 -1.665,0.742 -1.665,1.656 v 23.146 c 0,0.914 0.745,1.656 1.665,1.656 h 11.678 l 19.472,12.954 c 0.288,0.236 0.652,0.385 1.056,0.385 0.92,0 1.665,-0.742 1.665,-1.656 v -49.688 c 0,-0.914 -0.745,-1.656 -1.665,-1.656 z"
         style="fill:#ffffff" />
      <path
         id="path513"
         d="m 317.49,348.688 h -3.643 c -0.834,0 -1.51,0.673 -1.51,1.502 v 3.621 c 0,0.829 0.676,1.502 1.51,1.502 h 3.643 c 0.834,0 1.51,-0.673 1.51,-1.502 v -3.621 c 0,-0.83 -0.676,-1.502 -1.51,-1.502 z"
         style="fill:#ffffff" />
      <path
         id="path515"
         d="m 305.46,333.185 c 0.589,0.587 1.547,0.587 2.136,0 l 2.575,-2.56 c 0.59,-0.586 0.59,-1.538 0,-2.125 l -2.575,-2.561 c -0.59,-0.586 -1.546,-0.586 -2.135,0 l -2.576,2.561 c -0.59,0.587 -0.59,1.539 0,2.125 z"
         style="fill:#ffffff" />
      <path
         id="path517"
         d="m 309.67,339.078 1.227,3.408 c 0.281,0.781 1.146,1.188 1.932,0.908 l 3.428,-1.221 c 0.785,-0.279 1.195,-1.141 0.913,-1.92 l -1.228,-3.41 c -0.281,-0.78 -1.146,-1.188 -1.931,-0.907 l -3.429,1.221 c -0.785,0.28 -1.194,1.14 -0.912,1.921 z"
         style="fill:#ffffff" />
      <path
         id="path519"
         d="m 316.187,361.827 -3.429,-1.222 c -0.785,-0.279 -1.65,0.127 -1.931,0.908 l -1.228,3.409 c -0.281,0.78 0.127,1.642 0.913,1.92 l 3.428,1.221 c 0.785,0.28 1.649,-0.126 1.931,-0.907 l 1.229,-3.409 c 0.281,-0.78 -0.128,-1.641 -0.913,-1.92 z"
         style="fill:#ffffff" />
    </g>
  </g>
</svg>
