<?xml version="1.0" encoding="UTF-8" standalone="no"?>
<svg
   xmlns:dc="http://purl.org/dc/elements/1.1/"
   xmlns:cc="http://creativecommons.org/ns#"
   xmlns:rdf="http://www.w3.org/1999/02/22-rdf-syntax-ns#"
   xmlns:svg="http://www.w3.org/2000/svg"
   xmlns="http://www.w3.org/2000/svg"
   id="svg489"
   version="1.1"
   viewBox="0 0 16.404167 16.404167"
   height="16.404167mm"
   width="16.404167mm">
  <defs
     id="defs483" />
  <metadata
     id="metadata486">
    <rdf:RDF>
      <cc:Work
         rdf:about="">
        <dc:format>image/svg+xml</dc:format>
        <dc:type
           rdf:resource="http://purl.org/dc/dcmitype/StillImage" />
        <dc:title></dc:title>
      </cc:Work>
    </rdf:RDF>
  </metadata>
  <g
     transform="translate(-99.774806,-220.37692)"
     id="layer1">
    <g
       id="g128"
       transform="matrix(0.26458333,0,0,0.26458333,14.843557,203.179)">
      <g
         id="layer8_7_">
        <path
           d="m 383,96 c 0,17.121 -13.879,31 -31,31 -17.12,0 -31,-13.879 -31,-31 0,-17.121 13.88,-31 31,-31 17.121,0 31,13.879 31,31 z"
           id="path125302_7_"
           style="fill:#8a9398" />
      </g>
      <g
         id="g126">
        <path
           id="path116"
           d="m 360.619,94.271 h -5.051 l 6.55,16.389 h -20.236 l 6.55,-16.389 h -5.051 l -7.166,17.931 c -0.534,1.336 -0.039,2.925 1.107,3.549 0.319,0.173 0.655,0.244 0.986,0.241 0.025,10e-4 0.049,0.009 0.075,0.009 h 27.138 c 0.038,0 0.074,-0.011 0.111,-0.013 0.35,0.015 0.706,-0.054 1.045,-0.237 1.146,-0.624 1.642,-2.213 1.107,-3.549 z"
           style="fill:#ffffff" />
        <rect
           id="rect118"
           height="14.495"
           width="5.04"
           y="79.860001"
           x="343.39001"
           style="fill:#ffffff" />
        <rect
           id="rect120"
           height="14.495"
           width="5.04"
           y="79.860001"
           x="355.577"
           style="fill:#ffffff" />
        <path
           id="path122"
           d="m 363.564,78.396 c 0,1.322 -1.286,2.395 -2.874,2.395 h -17.33 c -1.588,0 -2.874,-1.072 -2.874,-2.395 v 0 c 0,-1.323 1.286,-2.396 2.874,-2.396 h 17.33 c 1.588,0 2.874,1.072 2.874,2.396 z"
           style="fill:#ffffff" />
        <path
           id="path124"
           d="m 356.235,100.694 c -0.215,1.023 -0.985,1.784 -1.909,1.784 -1.092,0 -1.977,-1.054 -1.977,-2.353 0,-1.299 0.885,-2.354 1.977,-2.354 0.306,0 0.592,0.091 0.85,0.238 l -0.802,-2.031 h -4.903 l -4.967,13 h 15 z m -1.142,5.905 c -0.543,0 -0.982,-0.524 -0.982,-1.17 0,-0.647 0.439,-1.17 0.982,-1.17 0.543,0 0.981,0.523 0.981,1.17 0,0.645 -0.438,1.17 -0.981,1.17 z"
           style="fill:#ffffff" />
      </g>
    </g>
  </g>
</svg>
