<?xml version="1.0" encoding="UTF-8" standalone="no"?>
<!-- Created with Inkscape (http://www.inkscape.org/) -->

<svg
   xmlns:dc="http://purl.org/dc/elements/1.1/"
   xmlns:cc="http://creativecommons.org/ns#"
   xmlns:rdf="http://www.w3.org/1999/02/22-rdf-syntax-ns#"
   xmlns:svg="http://www.w3.org/2000/svg"
   xmlns="http://www.w3.org/2000/svg"
   xmlns:sodipodi="http://sodipodi.sourceforge.net/DTD/sodipodi-0.dtd"
   xmlns:inkscape="http://www.inkscape.org/namespaces/inkscape"
   width="15.511849mm"
   height="15.876805mm"
   viewBox="0 0 15.511849 15.876805"
   version="1.1"
   id="svg322"
   sodipodi:docname="tag-brain.svgz"
   inkscape:version="0.92.1 r15371">
  <defs
     id="defs316" />
  <sodipodi:namedview
     id="base"
     pagecolor="#ffffff"
     bordercolor="#666666"
     borderopacity="1.0"
     inkscape:pageopacity="0.0"
     inkscape:pageshadow="2"
     inkscape:zoom="0.35"
     inkscape:cx="-329.10156"
     inkscape:cy="-321.32559"
     inkscape:document-units="mm"
     inkscape:current-layer="layer1"
     showgrid="false"
     inkscape:window-width="1440"
     inkscape:window-height="837"
     inkscape:window-x="-8"
     inkscape:window-y="-8"
     inkscape:window-maximized="1"
     fit-margin-top="0"
     fit-margin-left="0"
     fit-margin-right="0"
     fit-margin-bottom="0" />
  <metadata
     id="metadata319">
    <rdf:RDF>
      <cc:Work
         rdf:about="">
        <dc:format>image/svg+xml</dc:format>
        <dc:type
           rdf:resource="http://purl.org/dc/dcmitype/StillImage" />
        <dc:title></dc:title>
      </cc:Work>
    </rdf:RDF>
  </metadata>
  <g
     inkscape:label="Layer 1"
     inkscape:groupmode="layer"
     id="layer1"
     transform="translate(-132.09527,-139.38303)">
    <g
       transform="matrix(0.26458333,0,0,0.26458333,63.469713,88.055152)"
       id="g231">
      <path
         style="fill:#ffffff"
         inkscape:connector-curvature="0"
         d="m 263.345,227.024 c 0,0 -0.213,-2.156 1.023,-3.887 0,0 -1.66,-0.035 -2.438,-0.919 0,0 -4.24,2.792 -1.802,7.103 0.001,0 0.106,-1.696 3.217,-2.297 z"
         id="path225" />
      <path
         style="fill:#ffffff"
         inkscape:connector-curvature="0"
         d="m 313.216,229.075 c -2.119,2.332 -3.038,2.014 -3.18,0.918 -0.142,-1.096 2.332,-2.12 2.19,-3.852 -0.141,-1.731 -1.271,-2.508 -1.271,-2.508 0,0 -1.414,0.247 -3.393,0.105 -1.979,-0.141 -3.762,-0.125 -4.955,0.291 -1.192,0.417 -2.146,2.006 -2.111,2.889 0.035,0.884 0.742,2.969 2.685,3.11 1.944,0.141 3.216,0.459 2.015,1.342 -1.201,0.884 -2.896,1.943 -4.169,1.131 -1.271,-0.813 -3.71,-2.862 -3.675,-5.335 0.035,-2.473 2.279,-5.548 5.256,-5.971 2.977,-0.424 5.769,-0.036 8.877,-0.53 3.11,-0.495 4.382,-3.003 4.276,-4.841 -0.107,-1.837 -2.12,-4.982 -5.795,-4.523 -3.675,0.459 -8.586,2.827 -11.484,1.625 -2.896,-1.201 -4.239,-3.357 -3.604,-5.583 0.636,-2.226 1.61,-3.587 4.452,-4.559 2.791,-0.954 6.832,-1.436 8.904,0.07 1.943,1.414 -1.271,1.767 -1.767,1.731 0,0 -3.922,-0.07 -5.194,0.212 -1.271,0.282 -4.204,1.413 -3.922,3.321 0.282,1.908 0.884,2.614 4.063,2.155 3.181,-0.459 7.031,-1.555 8.444,-1.59 1.413,-0.036 1.731,0.07 1.731,0.07 1.095,-2.12 0.884,-3.427 0.318,-4.24 -0.565,-0.813 -3.074,-4.558 -6.502,-4.771 -3.428,-0.211 -5.229,0.707 -7.03,0.919 -1.803,0.212 -2.403,0.883 -2.121,-0.248 0.283,-1.13 1.625,-2.261 3.215,-3.039 1.591,-0.778 4.347,-0.742 4.347,-0.742 -2.544,-3.286 -5.76,-2.792 -7.031,-2.226 -1.272,0.565 -2.686,1.731 -3.003,2.403 -0.318,0.671 0.6,2.791 0.389,3.462 -0.212,0.672 -0.99,0.707 -1.696,0.177 -0.707,-0.53 -1.413,-2.65 -1.024,-3.498 0.388,-0.848 0.724,-0.911 0.564,-1.272 -0.571,-1.296 -2.349,-1.511 -3.137,-1.542 v -0.003 c 0,0 -0.074,-0.002 -0.192,-0.002 -0.118,0 -0.192,0.002 -0.192,0.002 v 0.003 c -0.787,0.031 -2.565,0.246 -3.137,1.542 -0.159,0.361 0.177,0.424 0.564,1.272 0.389,0.848 -0.317,2.968 -1.024,3.498 -0.707,0.53 -1.483,0.495 -1.695,-0.177 -0.212,-0.671 0.706,-2.791 0.388,-3.462 -0.317,-0.671 -1.73,-1.837 -3.003,-2.403 -1.271,-0.565 -4.487,-1.06 -7.031,2.226 0,0 2.756,-0.036 4.347,0.742 1.59,0.777 2.932,1.908 3.215,3.039 0.282,1.131 -0.318,0.459 -2.121,0.248 -1.801,-0.212 -3.603,-1.13 -7.03,-0.919 -3.428,0.212 -5.937,3.958 -6.502,4.771 -0.564,0.813 -0.776,2.12 0.318,4.24 0,0 0.318,-0.106 1.731,-0.07 1.413,0.035 5.265,1.13 8.444,1.59 3.18,0.459 3.781,-0.248 4.063,-2.155 0.282,-1.908 -2.65,-3.039 -3.922,-3.321 -1.272,-0.283 -5.194,-0.212 -5.194,-0.212 -0.495,0.035 -3.71,-0.318 -1.767,-1.731 2.071,-1.506 6.112,-1.024 8.904,-0.07 2.842,0.971 3.816,2.333 4.452,4.559 0.636,2.226 -0.707,4.381 -3.604,5.583 -2.897,1.202 -7.809,-1.166 -11.483,-1.625 -3.674,-0.459 -5.688,2.686 -5.795,4.523 -0.105,1.837 1.166,4.346 4.276,4.841 3.108,0.495 5.899,0.106 8.877,0.53 2.977,0.423 5.221,3.499 5.256,5.971 0.035,2.473 -2.403,4.523 -3.675,5.335 -1.272,0.813 -2.968,-0.247 -4.169,-1.131 -1.201,-0.883 0.07,-1.201 2.014,-1.342 1.943,-0.141 2.65,-2.226 2.686,-3.11 0.035,-0.883 -0.919,-2.473 -2.111,-2.889 -1.193,-0.416 -2.978,-0.432 -4.955,-0.291 -1.979,0.142 -3.393,-0.105 -3.393,-0.105 0,0 -1.131,0.777 -1.271,2.508 -0.142,1.731 2.332,2.756 2.19,3.852 -0.142,1.096 -1.06,1.414 -3.181,-0.918 0,0 -1.872,1.483 -3.073,3.533 -1.201,2.049 0.177,4.417 3.32,6.042 3.146,1.625 4.913,-0.035 6.502,-1.589 1.59,-1.555 2.191,-0.671 2.015,0.954 -0.176,1.625 -0.884,1.695 -3.71,3.427 -2.827,1.731 -6.325,-1.095 -6.607,-0.777 -0.283,0.318 -0.036,2.473 1.378,3.71 1.413,1.236 5.512,1.06 10.459,1.166 4.946,0.106 6.678,2.897 6.818,3.78 0.142,0.883 -0.706,1.484 -1.201,1.802 -0.494,0.318 -2.049,0.601 -2.721,-0.106 -0.671,-0.707 0.531,-1.131 0.99,-1.625 0.459,-0.494 -2.897,-1.908 -9.682,-1.731 0,0 4.204,6.042 8.903,6.325 3.226,0.193 5.194,-1.413 6.219,-3.215 1.025,-1.802 2.05,-3.321 -0.177,-6.996 -2.226,-3.675 -5.088,-3.18 -7.525,-3.215 -2.438,-0.036 -2.297,-0.884 -1.767,-1.484 0.529,-0.601 0.988,-1.449 3.392,-1.66 2.402,-0.212 5.017,2.367 5.83,2.544 0.813,0.176 1.308,-0.142 1.661,-0.565 0.354,-0.424 0.424,-1.238 -0.071,-3.817 -0.494,-2.58 -3.427,-3.534 -4.451,-3.781 -1.025,-0.247 -1.202,-1.343 0.882,-2.049 2.085,-0.707 3.675,-2.544 4.064,-5.971 0.389,-3.428 -0.849,-3.287 -2.12,-4.876 -1.272,-1.59 -12.226,-1.52 -13.956,-1.802 -1.732,-0.283 -2.58,-1.802 -2.121,-2.827 0.459,-1.025 1.413,0.707 2.156,0.954 0.741,0.247 5.217,0.191 5.217,0.191 1.424,-0.057 3.161,0.15 5.07,0.199 1.163,0.03 1.751,-1.083 2.685,-1.889 2.188,-1.889 2.485,-6.96 1.69,-8.252 -0.796,-1.292 -2.375,-1.69 -2.872,-2.088 -0.497,-0.398 1.281,-2.983 2.972,-1.094 0,0 5.667,7.854 -1.591,14.118 0,0 10.041,3.38 1.988,14.714 0,0 5.469,9.048 0.597,11.235 0,0 2.884,4.872 0.695,9.147 0,0 0.928,2.489 2.672,2.219 1.743,0.27 2.672,-2.219 2.672,-2.219 -2.188,-4.275 0.695,-9.147 0.695,-9.147 -4.872,-2.188 0.597,-11.235 0.597,-11.235 -8.054,-11.334 1.988,-14.714 1.988,-14.714 -7.258,-6.264 -1.591,-14.118 -1.591,-14.118 1.69,-1.889 3.469,0.696 2.972,1.094 -0.497,0.397 -2.076,0.795 -2.872,2.088 -0.795,1.292 -0.497,6.363 1.69,8.252 0.934,0.806 1.521,1.918 2.685,1.889 1.909,-0.048 3.646,-0.256 5.071,-0.199 0,0 4.475,0.056 5.216,-0.191 0.743,-0.248 1.697,-1.979 2.156,-0.954 0.459,1.025 -0.39,2.544 -2.12,2.827 -1.731,0.283 -12.685,0.212 -13.957,1.802 -1.271,1.589 -2.509,1.448 -2.12,4.876 0.389,3.427 1.979,5.265 4.064,5.971 2.084,0.707 1.907,1.802 0.882,2.049 -1.024,0.247 -3.957,1.201 -4.451,3.781 -0.495,2.579 -0.425,3.393 -0.07,3.817 0.353,0.423 0.848,0.742 1.66,0.565 0.813,-0.177 3.428,-2.756 5.829,-2.544 2.403,0.211 2.863,1.06 3.393,1.66 0.53,0.601 0.672,1.448 -1.767,1.484 -2.438,0.035 -5.3,-0.46 -7.525,3.215 -2.227,3.674 -1.201,5.193 -0.177,6.996 1.024,1.803 2.993,3.409 6.219,3.215 4.698,-0.283 8.903,-6.325 8.903,-6.325 -6.784,-0.176 -10.14,1.237 -9.681,1.731 0.459,0.494 1.66,0.919 0.989,1.625 -0.672,0.707 -2.227,0.424 -2.722,0.106 -0.494,-0.318 -1.342,-0.919 -1.201,-1.802 0.142,-0.883 1.873,-3.674 6.819,-3.78 4.947,-0.106 9.046,0.07 10.459,-1.166 1.414,-1.237 1.661,-3.392 1.378,-3.71 -0.282,-0.318 -3.78,2.508 -6.606,0.777 -2.827,-1.731 -3.534,-1.801 -3.711,-3.427 -0.177,-1.626 0.425,-2.509 2.015,-0.954 1.589,1.555 3.356,3.214 6.502,1.589 3.144,-1.625 4.521,-3.992 3.32,-6.042 -1.2,-2.05 -3.073,-3.533 -3.073,-3.533 z"
         id="path227" />
      <path
         style="fill:#ffffff"
         inkscape:connector-curvature="0"
         d="m 315.441,222.218 c -0.776,0.884 -2.437,0.919 -2.437,0.919 1.235,1.731 1.023,3.887 1.023,3.887 3.11,0.601 3.216,2.297 3.216,2.297 2.44,-4.311 -1.802,-7.103 -1.802,-7.103 z"
         id="path229" />
    </g>
  </g>
</svg>
