<?xml version="1.0" encoding="UTF-8" standalone="no"?>
<svg
   xmlns:dc="http://purl.org/dc/elements/1.1/"
   xmlns:cc="http://creativecommons.org/ns#"
   xmlns:rdf="http://www.w3.org/1999/02/22-rdf-syntax-ns#"
   xmlns:svg="http://www.w3.org/2000/svg"
   xmlns="http://www.w3.org/2000/svg"
   id="svg489"
   version="1.1"
   viewBox="0 0 16.404167 16.404167"
   height="16.404167mm"
   width="16.404167mm">
  <defs
     id="defs483" />
  <metadata
     id="metadata486">
    <rdf:RDF>
      <cc:Work
         rdf:about="">
        <dc:format>image/svg+xml</dc:format>
        <dc:type
           rdf:resource="http://purl.org/dc/dcmitype/StillImage" />
        <dc:title></dc:title>
      </cc:Work>
    </rdf:RDF>
  </metadata>
  <g
     transform="translate(-85.876791,-143.4033)"
     id="layer1">
    <g
       id="g82"
       transform="matrix(0.26458333,0,0,0.26458333,51.745541,126.20538)">
      <g
         id="layer8_1_">
        <path
           d="m 191,96 c 0,17.121 -13.879,31 -31,31 -17.121,0 -31,-13.879 -31,-31 0,-17.121 13.879,-31 31,-31 17.121,0 31,13.879 31,31 z"
           id="path125302_1_"
           style="fill:#8a9398" />
      </g>
      <g
         id="g80">
        <g
           id="g66">
          <path
             id="path62"
             d="m 175.979,88.712 c -1.221,1.123 -2.82,1.8 -4.572,1.8 -1.751,0 -3.345,-0.677 -4.571,-1.8 -5.255,2.173 -9.021,7.965 -9.021,14.783 0,0.885 0.073,1.752 0.195,2.6 h 26.8 c 0.122,-0.848 0.189,-1.715 0.189,-2.6 0.001,-6.817 -3.765,-12.61 -9.02,-14.783 z"
             style="fill:#e6e6e6" />
          <path
             id="path64"
             d="m 171.407,89.201 c 3.522,0 6.378,-2.985 6.378,-6.677 0,-3.687 -2.856,-6.677 -6.378,-6.677 -3.516,0 -6.372,2.991 -6.372,6.677 0,3.692 2.857,6.677 6.372,6.677 z"
             style="fill:#e6e6e6" />
        </g>
        <g
           id="g72">
          <path
             id="path68"
             d="m 153.158,88.706 c -1.221,1.117 -2.814,1.795 -4.572,1.795 -1.746,0 -3.345,-0.678 -4.565,-1.795 -5.255,2.167 -9.021,7.965 -9.021,14.777 0,0.885 0.067,1.758 0.189,2.606 h 26.8 c 0.122,-0.848 0.195,-1.721 0.195,-2.606 0.001,-6.812 -3.765,-12.61 -9.026,-14.777 z"
             style="fill:#e6e6e6" />
          <path
             id="path70"
             d="m 148.586,89.194 c 3.522,0 6.378,-2.99 6.378,-6.677 0,-3.693 -2.856,-6.678 -6.378,-6.678 -3.516,0 -6.372,2.985 -6.372,6.678 0,3.687 2.857,6.677 6.372,6.677 z"
             style="fill:#e6e6e6" />
        </g>
        <g
           id="g78">
          <path
             id="path74"
             d="m 164.48,98.777 c -1.221,1.117 -2.82,1.8 -4.565,1.8 -1.751,0 -3.345,-0.684 -4.572,-1.8 -5.261,2.167 -9.021,7.971 -9.021,14.782 0,0.885 0.067,1.758 0.189,2.601 h 26.807 c 0.122,-0.843 0.189,-1.715 0.189,-2.601 0,-6.811 -3.766,-12.615 -9.027,-14.782 z"
             style="fill:#ffffff" />
          <path
             id="path76"
             d="m 159.915,99.271 c 3.516,0 6.372,-2.991 6.372,-6.677 0,-3.686 -2.856,-6.683 -6.372,-6.683 -3.522,0 -6.372,2.997 -6.372,6.683 0,3.686 2.85,6.677 6.372,6.677 z"
             style="fill:#ffffff" />
        </g>
      </g>
    </g>
  </g>
</svg>
