<?xml version="1.0" encoding="UTF-8" standalone="no"?>
<svg
   xmlns:dc="http://purl.org/dc/elements/1.1/"
   xmlns:cc="http://creativecommons.org/ns#"
   xmlns:rdf="http://www.w3.org/1999/02/22-rdf-syntax-ns#"
   xmlns:svg="http://www.w3.org/2000/svg"
   xmlns="http://www.w3.org/2000/svg"
   id="svg489"
   version="1.1"
   viewBox="0 0 16.404167 16.404167"
   height="16.404167mm"
   width="16.404167mm">
  <defs
     id="defs483" />
  <metadata
     id="metadata486">
    <rdf:RDF>
      <cc:Work
         rdf:about="">
        <dc:format>image/svg+xml</dc:format>
        <dc:type
           rdf:resource="http://purl.org/dc/dcmitype/StillImage" />
        <dc:title></dc:title>
      </cc:Work>
    </rdf:RDF>
  </metadata>
  <g
     transform="translate(-115.81098,-108.12372)"
     id="layer1">
    <g
       id="g158"
       transform="matrix(0.26458333,0,0,0.26458333,98.613061,73.992467)">
      <g
         id="layer8_8_">
        <path
           d="m 127,160 c 0,17.121 -13.879,31 -31,31 -17.121,0 -31,-13.879 -31,-31 0,-17.121 13.879,-31 31,-31 17.121,0 31,13.879 31,31 z"
           id="path125302_8_"
           style="fill:#8a9398" />
      </g>
      <g
         id="g156">
        <path
           id="path150"
           d="m 96,141.1 c -10.494,0 -19,4.172 -19,9.32 0,5.147 8.506,9.32 19,9.32 10.494,0 19,-4.173 19,-9.32 0,-5.148 -8.506,-9.32 -19,-9.32 z m 3.469,12.579 c -0.643,0.416 -1.518,0.662 -2.623,0.738 v 1.187 h -1.433 v -1.181 c -1.122,-0.077 -2.05,-0.34 -2.784,-0.795 -0.731,-0.452 -1.087,-1.119 -1.063,-1.999 l 0.018,-0.029 h 2.567 c 0,0.535 0.185,0.918 0.556,1.149 0.369,0.233 0.839,0.349 1.409,0.349 0.546,0 0.964,-0.097 1.256,-0.291 0.292,-0.194 0.437,-0.455 0.437,-0.783 0,-0.323 -0.138,-0.587 -0.419,-0.791 -0.278,-0.204 -0.757,-0.395 -1.435,-0.569 -1.335,-0.323 -2.324,-0.684 -2.969,-1.083 -0.646,-0.397 -0.969,-0.958 -0.969,-1.681 0,-0.67 0.324,-1.221 0.969,-1.65 0.645,-0.43 1.515,-0.683 2.608,-0.758 v -1.289 h 1.432 v 1.301 c 1.057,0.102 1.886,0.397 2.492,0.88 0.603,0.483 0.898,1.111 0.887,1.882 l -0.029,0.029 h -2.567 c 0,-0.47 -0.145,-0.835 -0.437,-1.09 -0.292,-0.255 -0.688,-0.383 -1.192,-0.383 -0.518,0 -0.902,0.098 -1.153,0.297 -0.251,0.197 -0.378,0.461 -0.378,0.787 0,0.312 0.132,0.565 0.399,0.76 0.267,0.192 0.759,0.384 1.475,0.571 1.326,0.348 2.311,0.72 2.949,1.115 0.641,0.396 0.96,0.949 0.96,1.66 0.001,0.696 -0.322,1.253 -0.963,1.667 z"
           style="fill:#ffffff" />
        <path
           id="path152"
           d="m 114.984,154.929 c -0.324,5.007 -8.696,9.019 -18.984,9.019 -10.288,0 -18.66,-4.012 -18.984,-9.019 -0.007,0.1 -0.016,0.2 -0.016,0.301 0,0.077 0.012,0.154 0.016,0.23 v 4.349 c -0.004,0.077 -0.016,0.154 -0.016,0.23 0,0.102 0.009,0.202 0.016,0.302 v 0.063 l 0.003,0.002 c 0.393,4.977 8.738,8.953 18.981,8.953 10.387,0 18.821,-4.088 18.993,-9.163 L 115,160.19 v -4.96 c 0,-0.101 -0.009,-0.201 -0.016,-0.301 z m -37.783,1.634 -0.033,-0.078 -0.021,-0.122 c 0.016,0.067 0.035,0.134 0.054,0.2 z"
           style="fill:#ffffff" />
        <path
           id="path154"
           d="m 114.984,164.67 c -0.324,5.007 -8.696,9.019 -18.984,9.019 -10.288,0 -18.66,-4.011 -18.984,-9.019 -0.007,0.1 -0.016,0.2 -0.016,0.3 0,0.078 0.012,0.154 0.016,0.23 v 4.349 c -0.004,0.077 -0.016,0.154 -0.016,0.23 0,0.102 0.009,0.202 0.016,0.302 v 0.063 l 0.003,0.001 c 0.393,4.977 8.738,8.953 18.981,8.953 10.387,0 18.821,-4.088 18.993,-9.163 L 115,169.929 v -4.96 c 0,-0.099 -0.009,-0.199 -0.016,-0.299 z m -37.783,1.634 -0.033,-0.078 -0.021,-0.122 c 0.016,0.067 0.035,0.134 0.054,0.2 z"
           style="fill:#ffffff" />
      </g>
    </g>
  </g>
</svg>
