<?xml version="1.0" encoding="UTF-8" standalone="no"?>
<svg
   xmlns:dc="http://purl.org/dc/elements/1.1/"
   xmlns:cc="http://creativecommons.org/ns#"
   xmlns:rdf="http://www.w3.org/1999/02/22-rdf-syntax-ns#"
   xmlns:svg="http://www.w3.org/2000/svg"
   xmlns="http://www.w3.org/2000/svg"
   id="svg322"
   version="1.1"
   viewBox="0 0 14.445721 15.171738"
   height="15.171738mm"
   width="14.445721mm">
  <defs
     id="defs316" />
  <metadata
     id="metadata319">
    <rdf:RDF>
      <cc:Work
         rdf:about="">
        <dc:format>image/svg+xml</dc:format>
        <dc:type
           rdf:resource="http://purl.org/dc/dcmitype/StillImage" />
        <dc:title></dc:title>
      </cc:Work>
    </rdf:RDF>
  </metadata>
  <g
     transform="translate(-60.812854,-99.670084)"
     id="layer1">
    <g
       id="layer1_1_"
       transform="matrix(0.26458333,0,0,0.26458333,-25.28362,47.988493)">
      <path
         d="m 344.03,198.499 0.817,-0.186 0.382,-0.198 0.489,-0.114 -0.068,-0.091 -0.297,-0.011 0.045,-0.074 0.453,-0.068 0.203,0.045 0.082,-0.091 0.777,-0.186 0.115,-0.129 0.644,0.187 0.506,-0.063 0.517,-0.137 0.678,0.085 -0.177,0.065 0.294,0.048 0.191,-0.02 0.238,-0.164 0.008,0.133 -0.094,-0.068 -0.125,0.097 0.414,-0.039 -0.4,0.047 0.928,0.061 -0.065,-0.057 0.337,-0.065 -0.168,0.004 0.141,-0.065 -0.129,-0.096 0.325,0.029 0.048,-0.087 0.287,0.108 0.365,-0.019 0.137,0.112 0.365,-0.203 0.319,0.302 h -0.204 l 0.141,0.079 -0.163,0.006 0.042,0.118 0.359,0.063 0.191,0.148 0.356,-0.138 0.411,0.113 0.152,0.097 -0.119,0.04 0.393,0.146 h 0.392 l -0.089,0.162 0.136,-0.028 0.009,0.094 0.201,0.061 0.123,-0.04 -0.171,-0.059 0.712,0.15 0.227,-0.02 -0.429,0.051 -1.169,-0.019 v 0.162 l -0.068,-0.103 -0.108,0.045 0.092,0.279 0.53,0.131 -0.212,0.032 0.274,0.169 -0.282,-0.04 0.1,0.152 0.437,0.015 0.217,-0.09 0.199,0.115 0.054,-0.115 0.024,0.084 0.43,0.107 -0.139,0.016 0.25,0.158 0.119,-0.002 -0.123,-0.07 0.887,0.36 0.207,-0.049 -0.011,0.098 0.294,-0.178 0.651,0.497 0.446,-0.08 0.088,-0.278 0.777,-0.078 -0.068,0.129 -0.359,-0.011 0.241,0.062 -0.588,-0.064 0.157,0.158 -0.045,0.287 0.148,0.082 0.125,-0.056 0.122,0.186 0.231,-0.255 0.072,0.23 -0.646,0.141 0.273,-0.026 0.482,0.185 0.269,-0.127 0.669,0.071 -0.209,-0.231 0.014,-0.179 0.227,-0.056 0.272,0.077 -0.003,-0.141 0.031,0.186 -0.468,0.047 0.237,0.206 0.453,0.007 0.857,0.361 0.035,0.35 -0.313,-0.333 -0.802,-0.265 -0.154,0.108 -0.868,-0.059 -0.202,0.093 -0.619,-0.101 -0.021,0.112 0.096,0.203 0.682,0.125 0.301,0.177 0.715,0.058 -0.061,-0.141 0.201,-0.104 0.426,0.151 -0.316,0.258 -0.002,-0.071 -0.143,0.547 0.163,0.098 0.322,-0.053 0.084,0.153 0.186,0.057 -0.286,0.029 0.261,0.246 0.037,0.231 0.198,0.109 v 0.193 l -0.296,-0.124 -0.097,-0.135 0.019,0.084 0.329,0.269 -0.13,-0.023 0.319,0.536 0.149,-0.011 0.003,0.16 0.322,0.146 0.02,0.211 -0.305,0.033 -0.155,-0.287 -0.151,-0.034 -0.313,0.299 0.208,-0.041 1.08,0.438 -0.306,0.141 0.203,0.3 0.202,0.249 0.463,0.103 -0.215,0.216 0.083,0.11 -0.101,-0.109 -0.213,0.134 0.181,0.146 0.266,-0.108 0.199,0.207 -0.468,0.19 -0.417,-0.14 -0.185,-0.199 -0.281,0.148 -0.029,-0.133 -0.437,0.052 0.839,-0.674 -0.391,-0.504 -0.535,-0.006 -0.691,0.292 -0.107,0.184 0.163,0.156 -0.213,-0.171 -0.077,0.146 -0.152,-0.071 0.066,-0.105 -0.158,0.062 0.129,0.179 -0.204,0.026 0.054,0.141 -0.292,-0.028 0.149,-0.145 -0.101,-0.167 -0.342,0.096 0.136,0.225 -0.2,-0.204 -0.126,0.05 0.26,0.223 0.006,0.087 -0.26,-0.172 0.293,0.383 -0.3,-0.286 -0.143,0.094 0.351,0.385 -0.297,0.094 0.293,0.109 -0.189,0.011 0.192,0.345 -0.26,-0.242 0.179,0.227 -0.158,-0.125 0.006,0.132 0.227,0.061 -0.234,0.064 0.277,0.287 -0.061,0.175 0.186,-0.119 -0.15,0.177 0.245,0.152 -0.233,-0.09 0.002,0.138 0.127,-0.011 -0.102,0.113 0.23,-0.01 -0.054,0.266 0.196,-0.068 -0.174,0.256 0.117,-0.001 0.115,0.311 0.087,-0.172 -0.091,0.245 0.157,0.027 -0.102,0.024 0.181,0.313 0.082,-0.135 -0.061,0.334 0.089,-0.125 -0.007,0.182 0.151,0.031 -0.039,0.12 -0.142,-0.076 0.133,0.507 0.16,-0.075 -0.057,-0.304 0.178,0.287 -0.117,0.178 -0.125,-0.089 -0.096,0.209 0.221,0.189 -0.186,0.026 0.209,0.047 -0.339,0.064 0.271,-0.03 -0.264,0.251 0.313,0.081 -0.164,-0.034 0.057,0.105 -0.141,0.023 0.116,0.021 -0.247,0.082 0.109,0.106 0.286,-0.176 -0.278,0.18 0.062,0.139 0.187,-0.046 -0.139,0.111 0.135,-0.057 0.01,0.153 0.19,-0.184 -0.03,-0.106 0.183,0.033 -0.068,-0.159 0.107,0.085 0.022,0.211 -0.183,-0.065 -0.235,0.241 h 0.152 l -0.093,0.098 0.142,0.067 0.031,-0.136 0.003,0.214 0.124,0.064 -0.023,-0.14 0.122,0.225 0.081,-0.429 -0.027,0.61 0.162,0.055 0.076,-0.233 0.023,0.274 0.146,-0.08 0.002,0.128 -0.191,0.01 0.167,0.182 0.438,0.054 0.171,-0.201 -0.108,-0.566 0.177,-0.09 -0.232,-0.363 0.607,0.53 0.053,-0.099 0.15,0.212 -0.084,-0.204 0.183,0.271 0.591,0.252 0.01,0.179 0.375,0.303 0.238,-0.209 -0.187,-0.371 0.22,-0.14 -0.351,-0.636 -0.42,-0.327 0.077,-0.077 -0.172,0.05 0.139,-0.239 -0.125,-0.163 0.178,0.096 -0.067,-0.279 -0.141,0.039 0.014,-0.255 -0.471,-0.141 -0.139,0.083 -0.815,-0.858 0.143,0.024 -0.104,-0.66 -0.159,-0.322 -0.401,-0.227 0.107,-0.019 -0.229,-0.171 0.153,-0.012 -0.128,-0.142 0.206,-0.216 0.43,0.125 0.469,1.244 0.597,0.33 0.305,0.343 0.285,-0.029 0.004,-0.135 0.199,0.212 0.221,-1.147 0.158,0.12 0.32,-0.145 -0.139,0.395 0.143,0.146 -0.34,0.255 -0.066,0.474 0.375,0.253 0.109,-0.123 0.4,0.386 0.014,0.215 -0.434,-0.108 -0.043,0.208 0.297,0.473 0.619,0.511 -0.105,0.119 -0.203,-0.367 0.164,0.313 -0.031,0.164 0.094,0.108 0.063,-0.101 0.008,0.337 -0.074,-0.236 -0.057,0.285 -0.305,-0.042 -0.252,0.815 0.119,0.186 -0.559,-0.08 -0.236,0.512 -0.095,-0.208 -0.164,0.175 -0.3,-0.098 -0.254,-0.371 0.016,-0.487 -0.24,0.013 -0.245,-0.472 -0.165,0.518 0.69,0.993 0.024,-0.1 0.202,0.102 -0.026,0.138 0.488,0.129 -0.344,0.023 0.129,0.238 -0.218,-0.063 -0.136,0.179 0.18,0.102 -0.378,0.148 -0.022,0.211 0.252,0.134 -0.049,0.2 -0.304,-0.204 0.123,0.528 0.216,0.017 -0.229,0.249 0.24,-0.038 -0.498,0.582 0.2,0.292 -0.197,0.61 -0.6,0.081 0.415,0.416 -0.32,0.241 -0.195,-0.125 -0.379,0.39 0.229,0.039 -0.141,0.046 0.18,0.191 0.614,-0.13 0.392,0.384 0.238,-0.021 0.105,0.305 0.07,0.04 0.332,1.052 -1.652,0.734 -0.26,-0.065 -0.375,0.554 0.354,0.252 0.327,1.092 -0.017,0.737 0.154,-0.176 v 0.319 l 0.204,-0.077 -0.073,0.042 0.174,0.676 0.69,-0.427 0.647,0.433 0.279,-0.523 0.75,-0.366 0.069,-0.466 0.21,-0.174 -0.079,-0.374 0.146,-0.309 -0.227,-0.104 -0.11,-0.292 0.069,-0.785 0.438,-0.757 -0.293,-0.383 -0.003,-0.268 0.136,-0.246 0.676,-0.116 0.282,-1.064 0.47,-0.056 0.639,0.502 1.691,0.091 0.438,0.379 0.088,0.478 0.122,-0.053 -0.116,-0.489 0.074,-0.219 -0.354,-0.152 -0.097,-0.365 0.243,-0.143 0.237,0.1 -0.06,-0.179 -0.909,-0.012 -0.085,-0.225 -0.331,0.218 -0.682,-0.402 -0.459,-0.042 -0.393,-0.449 0.186,-0.427 0.377,0.358 -0.018,-0.342 0.816,0.468 0.225,-0.143 0.34,0.058 -0.2,0.079 0.503,-0.149 0.359,0.1 0.346,0.63 0.697,0.282 0.051,-0.124 -0.012,0.177 0.206,0.112 0.45,-0.413 0.002,0.164 -0.365,0.239 0.05,0.208 0.399,0.285 0.024,-0.183 0.24,0.174 -0.085,-0.205 0.205,0.018 -0.397,-0.342 0.183,-0.133 -0.219,-0.058 0.049,-0.188 0.202,0.039 -0.137,-0.217 -0.478,0.081 0.052,-0.185 -0.121,-0.108 0.126,-0.026 -0.511,-0.336 0.009,-0.142 0.386,0.044 -0.159,-0.115 0.172,-0.072 -0.292,-0.083 0.157,-0.415 0.373,-0.239 0.088,0.375 -0.082,-0.664 0.202,-0.346 -0.624,-0.24 -0.051,0.104 -0.176,-0.693 -0.451,-0.598 0.107,0.07 0.023,-0.194 -0.33,-0.353 0.09,0.054 -0.056,-0.19 0.06,0.202 -0.076,-0.336 -0.15,-0.036 0.148,0.034 -0.133,-0.224 0.02,-0.38 0.19,0.039 -0.134,0.17 0.104,-0.063 0.036,0.111 0.23,-0.354 0.121,0.089 0.03,0.418 0.057,-0.178 0.317,0.257 0.129,-0.068 -0.1,-0.934 -0.076,0.29 -0.359,-0.138 0.364,0.145 -0.071,0.083 -0.245,-0.074 -0.149,-0.362 0.144,0.193 -0.125,-0.395 0.028,-0.927 0.176,0.336 -0.079,0.185 0.306,0.014 h -0.104 l 0.26,0.45 -0.008,0.271 1.193,-0.323 0.324,0.205 0.135,0.243 0.075,0.452 -0.124,0.442 -0.275,0.361 -0.413,0.037 -0.149,0.417 0.051,0.832 -0.305,0.434 0.144,0.136 0.118,-0.129 -0.105,0.253 0.088,0.104 -0.344,0.501 0.055,0.326 0.121,0.19 0.109,-0.24 0.235,0.405 0.132,-0.026 -0.039,0.17 -0.147,-0.083 0.089,0.205 0.248,-0.131 0.053,0.184 0.219,0.005 0.021,0.203 0.138,-0.296 -0.031,0.378 0.102,-0.342 0.393,-0.014 0.082,-0.205 -0.156,-0.308 0.071,-0.13 0.446,-0.099 0.083,-0.37 -0.096,-0.384 0.155,-0.085 -0.01,-0.315 0.322,0.569 0.328,0.312 0.665,1.667 -0.197,0.687 -0.146,-0.14 -0.141,0.211 -0.098,0.825 -0.496,0.296 -0.335,0.425 -0.15,-0.127 -0.357,0.343 -0.157,-0.146 -0.357,0.218 -0.154,0.705 0.301,0.57 -0.109,0.503 -0.407,-0.001 -0.61,0.294 -0.351,-0.301 -0.571,0.185 -0.271,0.266 -0.769,0.025 -0.14,-0.132 0.075,-0.693 -0.395,-0.261 -0.076,-0.535 -0.069,0.289 -0.329,-0.143 -0.379,0.59 -0.469,0.177 -0.206,0.403 -0.485,0.133 -0.761,0.699 -0.211,0.49 -0.279,0.212 -0.212,0.477 -0.296,0.126 -0.107,-0.132 -0.536,0.382 -0.388,-0.219 -0.138,0.13 -0.021,0.975 -0.677,1.071 -0.051,0.633 0.242,0.614 -0.117,0.446 -0.39,0.668 -0.516,0.354 -0.164,0.724 -0.288,0.329 -0.041,0.783 -0.352,0.549 0.076,-0.106 -0.381,1.194 0.016,0.472 0.063,-0.177 0.383,0.355 -0.096,0.441 0.33,0.699 -0.117,1.015 -0.387,0.555 0.51,0.267 0.027,0.232 0.416,-0.19 -0.342,0.221 -0.176,-0.048 0.02,0.406 0.248,-0.087 -0.246,0.161 0.352,-0.071 -0.143,0.156 0.23,-0.02 -0.034,0.129 0.451,-0.25 -0.249,0.165 0.223,0.002 -0.203,0.203 0.139,0.108 0.096,-0.112 -0.021,0.126 0.165,-0.121 0.145,0.348 0.432,0.049 -0.071,0.154 0.196,0.013 0.086,0.329 0.152,-0.062 -0.204,0.127 0.401,0.156 -0.019,0.174 0.597,0.054 1.157,0.419 0.546,-0.03 0.564,-0.506 0.874,-0.504 0.841,-0.192 1.26,-1.279 0.909,-0.738 -0.146,0.188 0.379,-0.216 0.25,0.097 0.102,-0.156 -0.092,0.172 0.168,-0.067 -0.129,0.108 0.073,0.03 0.106,-0.137 -0.1,0.229 0.248,0.205 0.253,-0.183 -0.003,-0.117 0.059,0.069 -0.041,-0.105 0.089,0.066 0.013,-0.167 0.102,0.057 0.318,-0.265 -0.027,-0.151 0.123,0.105 0.084,-0.176 0.151,0.234 0.167,-0.192 0.042,0.091 -0.096,0.071 0.159,0.187 -0.181,0.918 0.117,-0.049 -0.007,0.255 -0.119,0.065 0.227,-0.037 -0.16,0.169 -0.051,-0.083 -0.075,0.474 -0.146,0.09 0.291,0.44 0.633,0.238 0.094,0.364 0.145,-0.027 -0.129,0.152 0.228,0.526 -0.165,0.353 0.123,0.45 -0.162,0.476 -0.445,0.689 -0.486,0.992 -0.234,0.662 0.131,0.7 -0.533,0.943 -0.307,0.587 -0.168,0.172 -0.176,0.183 -0.213,0.211 0.141,-0.141 0.115,-0.116 0.76,-0.802 0.449,-0.503 0.591,-0.702 1.059,-1.378 0.599,-0.861 0.371,-0.568 0.555,-0.909 -0.06,0.101 0.007,-0.009 0.801,-1.445 0.325,-0.649 0.134,-0.279 0.14,-0.297 0.003,-0.006 0.338,-0.765 0.213,-0.512 0.535,-1.432 0.29,-0.891 0.167,-0.559 0.042,-0.146 0.119,-0.436 0.084,-0.334 -0.021,0.054 0.1,-0.512 0.052,-0.244 -0.023,0.088 0.086,-0.423 -0.021,-0.12 0.106,-0.666 0.153,-1.07 0.078,-0.444 -0.012,-0.06 0.041,-0.164 0.167,-1.778 0.089,-1.476 -0.009,-1.445 -0.292,-2.858 -0.078,-0.368 -0.019,-0.215 0.009,0.136 -0.143,-0.628 -0.013,0.1 0.068,0.69 -0.011,0.71 0.021,0.506 -0.039,0.134 -0.006,0.588 -0.196,-0.029 -0.031,0.236 0.005,-0.454 -0.057,-0.174 -0.398,-0.164 -0.119,0.179 -0.103,-0.114 0.041,0.213 -0.533,-0.808 -0.242,0.028 -0.433,-0.828 0.047,-0.003 -0.227,-0.265 -0.306,0.016 -0.216,-0.33 0.04,-0.083 -0.198,-0.046 -0.917,-0.862 -0.391,-0.174 -0.249,-0.336 0.432,0.332 0.32,0.042 -0.338,-0.905 0.293,0.672 0.086,-0.166 0.855,0.526 0.189,0.262 0.221,-0.076 0.334,0.328 0.252,0.494 0.369,0.04 0.607,0.568 0.203,0.618 0.367,0.723 0.068,-0.532 -0.043,-0.429 -0.01,-1.237 -0.069,-0.432 -0.147,-1.272 -0.125,-0.401 -0.164,-1.004 -0.142,-0.426 -0.063,-0.324 -0.155,-0.437 -0.106,-0.412 -0.211,-0.44 -0.09,-0.236 0.014,-0.03 -0.431,-1.016 -0.175,-0.127 0.018,0.329 -0.082,-0.021 -0.229,-0.284 -0.174,-0.315 0.588,1.479 0.026,0.423 0.069,0.247 -0.069,0.107 -0.355,-0.653 -0.009,0.148 0.279,0.514 -0.276,-0.222 -0.146,-0.275 -0.232,0.046 -0.437,-0.394 -0.009,0.106 -0.037,-0.198 -0.137,-0.116 0.027,-0.243 -0.098,-0.141 0.104,-0.047 -0.045,-0.215 0.553,0.393 0.051,-0.206 0.188,-0.056 0.012,-0.243 -0.248,-0.786 0.285,0.286 -0.172,-1.044 -0.659,-1.55 0.139,0.19 -0.075,-0.164 0.147,0.219 -0.136,-0.264 0.092,0.152 -0.143,-0.257 0.129,0.226 0.011,-0.006 -0.224,-0.399 0.123,0.214 0.24,0.429 -0.007,-0.019 -0.305,-0.533 -0.243,-0.414 -0.093,-0.151 0.124,0.205 0.055,0.091 -0.068,-0.114 0.127,0.214 0.048,0.078 0.216,0.378 0.557,1.029 0.5,1.018 0.273,0.607 0.006,0.013 -0.117,-0.262 -0.131,-0.291 -0.17,-0.358 0.004,0.007 -0.189,-0.389 -0.094,-0.182 -0.23,-0.447 -0.396,-0.723 -0.304,-0.519 -0.156,-0.259 -0.12,-0.197 -0.176,-0.28 -0.235,-0.365 -0.102,-0.156 -0.61,-0.884 -0.418,-0.569 -0.392,-0.506 -0.323,-0.403 -0.116,-0.143 -0.273,-0.321 -0.176,-0.204 0.118,0.136 -0.209,-0.241 0.039,0.044 -0.124,-0.141 0.047,0.053 -0.15,-0.169 0.014,0.015 -0.171,-0.19 0.089,0.099 -0.279,-0.305 0.137,0.149 -0.084,-0.091 -0.127,-0.138 -0.166,-0.174 0.403,0.43 -0.169,-0.184 0.137,0.148 -0.098,-0.106 0.092,0.1 0.113,0.125 0.046,0.05 -0.171,-0.187 0.385,0.427 0.493,0.575 -0.153,-0.181 0.158,0.185 -0.117,-0.138 0.033,0.039 -0.133,-0.157 0.04,0.048 -0.188,-0.218 -0.164,-0.187 -0.063,-0.071 0.02,0.022 -0.176,-0.197 -0.188,-0.206 0.185,0.204 -0.092,-0.101 0.463,0.517 0.3,0.35 -0.133,-0.157 0.229,0.272 0.282,0.344 -0.008,-0.012 0.344,0.432 0.171,0.223 -0.127,-0.165 0.627,0.839 -0.109,-0.149 0.25,0.347 0.498,0.728 0.26,0.399 0.1,0.158 -0.148,-0.235 0.031,0.05 -0.26,-0.398 -0.439,-0.644 -0.166,-0.232 -0.164,-0.227 0.087,0.12 -0.469,-0.628 0.11,0.143 -0.275,-0.358 -0.65,-0.8 -0.3,-0.352 -0.239,-0.273 0.267,0.303 -0.182,-0.207 0.005,0.004 0.295,0.341 -0.157,-0.183 0.182,0.213 -0.102,-0.118 0.007,0.007 0.394,0.468 -0.062,-0.075 -0.321,-0.381 -0.125,-0.146 0.025,0.029 -0.135,-0.153 0.038,0.045 -0.071,-0.082 -0.031,-0.038 -0.017,-0.016 -0.045,-0.05 -0.082,-0.093 -0.022,-0.024 -0.58,-0.625 -0.435,-0.443 -0.048,-0.05 -0.755,-0.725 -0.186,-0.169 -0.008,-0.01 -0.373,-0.332 -0.373,-0.325 -0.262,-0.221 -0.152,-0.126 -0.025,-0.02 -0.076,-0.063 -0.143,-0.114 -0.265,-0.209 -0.158,-0.124 -0.137,-0.104 0.05,0.038 -0.212,-0.162 0.021,0.017 0.251,0.19 0.19,0.148 -0.073,-0.058 -0.426,-0.324 0.063,0.048 -0.35,-0.261 -0.109,-0.078 -0.102,-0.073 -0.105,-0.077 -0.059,-0.041 -0.24,-0.168 0.123,0.084 -0.141,-0.098 0.012,0.009 -0.299,-0.204 0.128,0.086 -0.086,-0.058 -0.222,-0.148 0.09,0.059 -0.217,-0.143 0.043,0.027 -0.281,-0.183 -0.164,-0.104 -0.022,-0.014 -0.208,-0.13 -0.154,-0.094 0.046,0.028 -0.315,-0.19 -0.025,-0.017 -0.183,-0.108 -0.12,-0.071 -0.07,-0.039 -0.121,-0.069 -0.049,-0.028 -0.185,-0.104 0.042,0.024 -0.258,-0.144 -0.203,-0.109 0.053,0.028 -0.059,-0.032 -0.09,-0.046 -0.039,-0.021 -0.641,-0.331 -0.036,-0.017 -0.265,-0.129 -0.125,-0.061 -0.172,-0.081 -0.029,-0.014 -0.133,-0.061 -0.154,-0.071 0.158,0.073 -0.309,-0.141 -0.004,-0.001 0.286,0.13 -0.664,-0.296 -0.13,-0.056 0.114,0.049 -0.308,-0.13 -0.122,-0.051 -0.528,-0.212 0.117,0.046 -0.121,-0.048 -0.629,-0.236 -0.043,-0.017 -0.12,-0.042 -0.199,-0.07 -0.444,-0.151 -0.084,-0.028 -0.238,-0.077 0.336,0.109 0.65,0.224 -0.281,-0.099 0.252,0.089 -0.242,-0.085 -0.386,-0.131 -1.081,-0.335 -0.326,-0.092 0.086,0.023 0.646,0.19 -0.19,-0.057 0.452,0.138 -1.082,-0.319 -0.389,-0.103 0.408,0.108 -0.025,-0.006 0.174,0.047 0.252,0.073 -0.123,-0.037 0.125,0.037 -0.109,-0.032 -0.084,-0.024 -0.088,-0.024 0.334,0.096 -0.038,-0.012 0.201,0.06 0.091,0.027 -0.135,-0.04 0.229,0.068 -0.084,-0.025 0.566,0.177 0.132,0.042 0.08,0.026 0.081,0.028 -0.342,-0.113 0.125,0.042 -0.223,-0.073 0.076,0.026 -0.164,-0.052 -0.021,-0.006 -0.225,-0.07 -0.015,-0.005 -0.513,-0.151 -0.436,-0.12 -0.494,-0.127 -0.004,-0.001 -0.24,-0.059 -0.934,-0.209 -0.389,-0.078 -0.426,-0.078 -0.146,-0.025 -0.073,-0.013 -0.438,-0.07 0.014,0.002 -0.737,-0.104 -1.694,-0.166 -1.488,-0.066 -0.684,-0.002 -0.343,0.022 0.292,0.02 -0.178,-0.002 -0.064,0.009 0.513,0.031 0.326,0.002 0.023,-0.011 0.39,-0.006 -0.142,0.023 0.298,-0.011 -0.035,0.033 0.324,0.01 0.14,0.022 -0.899,0.044 -1.146,0.198 -0.834,0.056 -0.105,-0.018 -0.104,0.035 -0.641,0.036 -0.092,0.056 -0.78,0.049 0.302,-0.051 -0.086,-0.012 -0.951,0.173 0.089,0.015 0.21,-0.039 0.02,0.036 -0.395,0.245 -0.791,0.223 0.031,-0.095 -0.052,-0.023 -0.135,0.043 -0.017,-0.047 -0.326,0.21 -0.21,0.057 0.168,0.068 -0.259,0.097 -0.191,0.027 0.212,-0.091 -0.183,-0.135 0.355,-0.144 0.522,-0.367 0.357,-0.088 0.093,-0.103 -0.056,-0.086 -0.817,-0.01 -0.393,0.118 h 0.127 l -0.461,0.106 0.168,0.014 -0.51,0.161 0.228,0.035 -0.319,0.093 0.369,-0.005 -0.096,0.063 0.399,-0.084 -0.081,0.232 -0.179,0.063 -0.141,0.004 -0.199,0.145 -0.13,-0.039 -0.048,0.089 -0.456,0.183 -0.384,0.048 0.06,0.045 -0.311,0.324 -0.49,0.361 -0.451,0.179 0.04,0.065 0.736,-0.034 -0.079,-0.016 0.291,-0.026 0.172,-0.142 0.051,0.026 0.189,-0.083 -0.739,0.377 0.021,0.154 0.259,0.044 -0.131,0.084 -0.279,-0.058 -0.283,0.184 -0.412,0.063 -0.422,0.162 0.049,0.044 -0.152,0.006 -0.081,0.1 0.265,-0.089 -0.062,0.123 0.146,0.019 0.206,-0.083 -0.359,0.188 0.183,-0.026 -0.197,0.082 0.066,0.108 0.552,-0.164 0.326,-0.177 0.115,-0.095 -0.401,0.014 0.692,-0.032 1.09,-0.287 v 0 m -3.649,53.542 0.113,0.043 -0.01,-0.003 0.402,0.148 0.078,0.027 -0.166,-0.059 0.022,0.006 -0.176,-0.063 0.353,0.128 0.088,0.031 0.469,0.159 0.263,0.087 -0.214,-0.07 -0.187,-0.063 0.188,0.063 -0.174,-0.059 0.252,0.084 -0.151,-0.049 0.153,0.049 0.119,0.039 0.009,0.004 0.421,0.131 -0.1,-0.031 -0.363,-0.115 -0.42,-0.14 0.083,0.021 0.41,0.123 -0.134,-0.074 0.247,0.049 -0.277,-0.095 0.181,0.046 0.154,0.06 0.139,0.029 -0.138,-0.065 -0.19,-0.038 -0.256,-0.094 -0.178,-0.125 0.491,0.17 0.466,0.112 -0.177,-0.161 0.122,0.04 -0.197,-0.102 0.482,0.142 0.928,0.175 0.322,0.027 0.23,-0.077 -0.073,-0.076 -0.288,-0.099 0.013,-0.076 -0.628,-0.24 -0.07,-0.193 0.081,0.132 0.281,0.131 0.721,0.199 0.794,0.106 0.537,-0.139 0.061,-0.185 0.43,-0.171 -0.108,-0.077 0.342,0.121 -0.562,0.199 0.496,-0.095 0.393,-0.269 0.385,-0.097 0.082,-0.258 -0.186,-0.186 0.186,-0.135 -0.186,-0.06 0.244,0.044 0.271,-0.146 0.531,-0.13 0.449,0.013 0.453,-0.176 0.402,0.048 0.219,-0.083 0.02,0.071 0.487,0.017 0.021,-0.109 0.459,-0.117 -0.042,-0.123 0.602,-0.473 0.055,-0.326 0.273,-0.187 0.155,-1.416 0.078,-0.078 0.108,0.131 0.202,-0.113 1.594,-1.463 0.081,-0.419 -0.228,-0.577 -0.179,-0.123 -0.78,-0.02 -0.675,-0.448 -0.789,-0.315 -1.143,-0.007 -0.594,-0.218 -0.711,0.351 0.034,-0.272 0.198,-0.097 -0.32,0.024 0.257,-0.136 -0.18,-0.253 -0.206,0.155 -0.045,-0.206 -0.1,0.068 0.055,-0.081 -0.144,0.043 -0.148,-0.158 -0.081,0.094 -0.025,-0.161 -0.076,0.081 -0.48,-0.237 -0.038,0.088 -0.347,-0.097 -0.223,0.289 0.217,0.055 -0.193,0.043 -0.104,-0.132 -0.42,0.333 0.102,-0.237 -0.584,0.021 0.777,-0.087 0.257,-0.442 -0.985,-0.183 -0.23,0.331 -0.018,-0.184 -0.207,0.146 -0.021,-0.19 -0.206,0.158 0.195,-0.328 0.712,-0.419 -0.121,-0.018 0.104,-0.189 -0.418,-0.207 -0.256,-0.911 -0.123,-0.091 -0.057,0.144 -0.309,-0.412 -0.922,-0.534 -1.458,-0.242 -0.562,-0.567 -0.178,0.182 0.12,-0.385 -0.257,-0.327 -0.547,-0.425 -0.309,-0.052 0.033,-0.365 -0.352,-0.296 -0.332,-0.049 -0.235,-0.312 0.487,-0.038 -1.11,-0.269 0.278,0.159 -0.664,-0.001 -0.512,-0.423 -0.855,-0.208 -0.086,-0.347 -0.524,-0.319 -0.134,-0.384 -0.123,0.215 0.19,0.042 -0.008,0.12 -0.144,-0.117 -0.666,0.098 0.192,0.567 -0.038,0.167 -0.286,0.006 -0.147,-0.402 0.279,-0.295 -0.12,-0.439 0.393,-0.073 -0.216,-0.277 -0.742,0.24 -0.361,-0.176 -0.074,0.123 -0.229,-0.152 -0.188,0.056 -0.219,0.203 -0.002,0.316 -0.577,0.13 0.039,0.307 -0.39,-0.73 -0.41,-0.414 -0.252,-0.155 -0.605,0.04 -0.286,-0.339 0.026,0.127 -0.168,-0.122 -0.461,-1.344 0.484,-1.168 0.016,-0.449 -0.508,-0.686 -1.088,-0.584 -0.236,-0.278 0.35,-0.297 0.202,-0.584 -0.096,-0.082 0.17,-0.13 -0.012,0.344 0.31,-0.524 -0.096,-0.11 0.529,-0.527 -0.394,-0.432 -0.749,-0.242 -0.364,0.639 -0.374,0.199 -0.203,-0.296 -0.681,-0.251 -0.128,-0.48 -0.186,-0.171 -0.002,-1.938 0.058,-0.254 0.34,-0.822 0.147,-0.301 0.129,0.029 -0.104,0.146 0.271,-0.311 0.183,-0.628 -0.084,-0.098 0.102,0.073 0.22,-0.309 0.25,0.074 -0.007,-0.184 0.158,0.194 -0.096,0.014 0.395,0.01 0.168,-0.25 0.101,0.19 -0.118,0.015 0.307,0.077 0.059,-0.14 -0.055,0.136 0.373,0.416 0.194,-0.02 0.124,0.546 0.166,-0.024 0.055,0.166 0.06,-0.208 0.105,0.133 -0.005,0.327 0.172,-0.027 -0.135,-0.324 0.199,-0.043 -0.27,-0.399 0.674,0.445 0.128,-0.18 -0.01,0.227 -0.104,0.016 0.371,0.036 -0.098,0.087 0.328,0.134 -0.116,-0.017 0.271,0.226 -0.048,0.341 0.447,0.012 0.129,0.203 0.162,0.691 -0.239,0.417 0.161,0.054 -0.172,0.159 0.023,0.322 0.131,0.042 -0.07,0.543 0.193,0.298 -0.086,0.193 0.195,0.081 -0.035,0.094 0.455,-0.752 0.183,-2.334 0.483,-0.294 -0.002,-0.16 0.026,0.15 0.875,-0.381 1.017,-0.121 -0.197,-0.158 0.218,-0.041 -0.139,-0.19 0.255,0.209 0.195,-0.074 0.021,-0.185 -0.121,0.125 0.053,-0.167 -0.236,-0.078 0.241,-0.09 0.097,0.172 0.063,-0.332 -0.025,0.513 0.049,-0.614 -0.266,-0.305 0.16,0.161 -0.049,-0.27 0.047,0.182 0.125,-0.117 -0.125,-0.297 0.112,0.266 0.093,-0.114 -0.268,-0.384 0.092,-0.133 0.176,0.435 0.134,-0.624 0.294,-0.019 -0.292,0.249 0.075,0.526 -0.257,0.358 0.53,-0.476 0.089,-0.697 0.07,0.473 0.4,-0.281 0.075,-0.38 0.326,-0.156 0.74,0.129 0.107,-0.211 0.004,0.204 0.441,0.063 0.033,-0.203 -0.148,0.126 -0.121,-0.409 0.496,-0.547 0.158,0.045 0.059,-0.168 0.158,0.143 0.25,-0.309 -0.061,0.171 0.234,-0.068 0.017,0.145 0.438,-0.115 -0.01,-0.223 0.208,0.157 0.815,-0.191 -0.281,0.211 0.52,0.132 -0.293,0.108 -0.078,-0.201 -0.659,0.248 -0.13,0.334 0.18,0.242 0.556,-0.43 0.199,0.129 0.038,-0.146 0.852,-0.02 0.134,-0.036 -0.24,-0.356 -0.477,-0.034 -0.372,-0.43 0.09,-0.378 -0.197,-0.057 0.311,-0.298 -0.303,0.018 10e-4,-0.165 -0.282,-0.131 0.48,0.139 0.352,-0.112 0.023,-0.361 -0.459,-0.191 -0.702,0.074 -1.241,0.536 0.566,-0.306 0.068,-0.241 0.969,-0.231 0.439,-0.365 1.968,0.543 0.503,-0.404 0.546,0.029 0.459,-0.253 -0.128,-0.208 0.188,0.037 -0.256,-0.129 0.23,0.048 -0.102,-0.14 0.174,-0.225 -0.148,-0.258 -0.301,0.126 0.133,-0.235 -0.262,-0.206 -0.877,0.31 0.817,-0.317 -0.37,0.016 0.711,-0.125 -0.219,-0.13 0.092,-0.072 -0.301,-0.013 0.029,-0.16 -0.13,0.066 0.095,-0.117 -0.273,0.19 0.202,-0.164 -0.164,-0.013 0.09,-0.095 -0.303,0.108 0.218,-0.353 -0.127,0.086 0.059,-0.121 -0.285,-0.149 0.154,-0.094 -0.186,-0.049 0.127,0.005 -0.139,-0.133 0.16,0.008 -0.197,-0.164 0.203,0.125 0.158,-0.206 -0.238,-0.26 0.186,-0.025 -0.15,-0.19 0.1,-0.098 -0.262,0.033 0.285,-0.183 -0.291,0.016 0.256,-0.139 -0.01,-0.182 -0.227,-0.045 0.199,-0.034 -0.169,-0.47 0.118,-0.079 -0.088,-0.089 -0.277,0.236 0.055,0.203 -0.194,-0.002 0.06,0.134 -0.227,0.047 -0.076,0.258 0.014,-0.297 -0.475,0.28 0.035,-0.284 -0.281,0.207 0.243,-0.324 -0.442,-0.157 0.156,-0.093 0.014,0.138 0.182,-0.204 -0.12,-0.043 0.152,-0.283 -0.239,-0.131 0.283,0.093 0.244,-0.432 -0.144,0.087 -0.287,-0.295 0.123,-0.195 -0.158,-0.042 -0.063,-0.506 -0.26,0.086 -0.432,-0.458 -0.233,0.064 -0.064,0.366 -0.351,0.24 0.157,0.047 -0.152,0.366 -0.659,0.434 0.164,0.449 -0.316,0.765 -0.535,0.357 -0.656,0.028 0.046,0.291 -0.349,0.93 -0.274,0.127 -0.103,0.287 0.012,-0.277 -0.244,0.177 -0.178,-0.177 0.126,-0.18 -0.08,-0.775 0.616,-0.942 -0.583,-0.41 -0.403,-1.594 -0.482,-0.125 0.214,-0.112 0.356,-0.625 -0.143,-0.16 -0.145,0.134 0.124,-0.339 0.558,-0.497 0.658,-0.245 0.025,-0.125 0.48,-0.003 0.018,-0.162 0.125,0.141 0.244,-0.048 0.031,-0.315 -0.164,-0.026 0.115,-0.054 -0.17,-0.26 0.129,-0.086 0.158,0.634 0.35,-0.185 0.268,0.208 0.516,-0.241 -0.283,-0.694 0.17,0.09 0.113,0.495 0.497,-0.163 v -0.227 l 0.296,0.425 0.053,-0.411 0.184,0.113 -0.103,0.264 0.673,-0.231 0.102,-0.488 0.262,0.038 -0.036,-0.152 0.199,-0.062 -0.148,-0.274 0.146,-0.005 -0.326,-0.293 -0.278,0.471 -0.116,-0.08 -0.598,0.423 -0.211,-0.01 0.543,-0.703 -0.016,-0.209 -0.496,0.276 0.296,-0.501 0.16,0.063 -0.193,-0.303 0.267,-0.132 0.068,0.095 0.402,-0.823 -0.664,0.17 0.037,0.108 -0.383,0.221 0.102,0.418 -0.119,-0.069 -0.26,0.148 0.188,-0.008 -0.126,0.176 -0.421,-0.032 -0.331,0.305 -0.01,-0.216 0.39,-0.207 -0.2,0.013 0.157,-0.067 -0.023,-0.154 -0.18,-0.108 -0.134,0.212 0.102,0.079 -0.183,0.124 0.107,-0.313 -0.202,0.093 -0.329,-0.354 0.107,-0.271 -0.137,-0.177 0.253,-0.344 -0.488,-0.114 0.046,0.167 0.323,0.088 -0.529,-0.04 -0.204,0.284 -0.141,0.084 0.008,-0.122 -0.223,0.233 0.21,-0.352 0.139,0.009 0.177,-0.428 -0.269,-0.131 -0.118,-0.418 0.171,-0.104 0.165,0.111 0.162,-0.231 -0.09,-0.243 0.282,-0.73 -0.282,-0.201 0.41,-0.16 -0.439,0.037 0.582,-0.48 -0.207,0.127 -0.408,-0.274 0.455,0.011 -0.417,-0.266 -0.04,-0.124 0.227,-0.086 -0.217,-0.118 -0.281,0.146 0.927,-1.04 0.515,-0.853 0.176,-0.147 0.111,0.032 0.094,-0.191 0.223,-0.086 -0.1,-0.092 0.147,0.045 0.165,-0.084 -0.125,-0.134 0.119,-0.175 -0.187,-0.029 0.147,-0.02 0.029,-0.178 -0.33,-0.236 0.197,-0.225 -0.138,-0.081 -0.573,0.248 -0.256,0.04 -0.252,0.22 -0.217,0.016 -0.16,0.144 0.137,-0.154 0.299,-0.096 -0.484,0.151 0.277,-0.3 0.276,-0.064 0.115,-0.414 -0.424,0.215 0.083,-0.102 -0.314,0.078 -0.451,0.354 0.095,0.002 -0.169,0.043 0.082,0.121 -0.16,0.116 -0.033,-0.086 -0.308,0.109 -0.097,-0.043 0.156,-0.147 -0.082,-0.114 0.222,-0.142 -0.402,-0.188 -0.229,0.081 -0.092,0.1 -0.033,-0.04 -0.311,0.232 0.088,-0.139 -0.315,0.074 -0.151,0.253 -0.487,0.146 -0.089,-0.063 -0.08,0.237 -0.452,0.26 h 0.243 l -0.248,0.089 v 0.173 l -0.164,-0.057 -0.367,0.093 -0.051,-0.366 -0.205,0.057 0.276,-0.256 -0.142,-0.161 0.014,0.043 -0.092,0.072 0.138,-0.041 -0.177,0.124 0.127,0.02 -0.148,0.075 -0.027,0.185 -0.138,0.06 0.325,0.442 -0.026,0.19 0.183,0.085 0.16,-0.156 0.145,-0.028 0.474,0.367 -0.058,0.199 -0.07,-0.105 -0.24,0.199 0.217,-0.235 -0.043,-0.126 -0.354,0.018 -0.075,0.141 -0.184,-0.065 0.014,0.266 0.13,-0.029 -0.121,0.056 0.166,-0.026 -0.155,0.173 0.167,0.025 0.209,-0.155 0.132,0.102 -0.181,0.022 0.113,0.02 -0.132,0.05 0.036,0.135 -0.066,-0.041 -0.084,0.115 -0.018,-0.078 0.005,0.082 -0.154,0.055 -0.069,0.167 -0.227,0.152 -0.11,0.439 -0.248,0.241 0.124,0.076 -0.137,0.14 -0.09,-0.03 0.197,-0.098 -0.184,0.009 -0.695,0.748 0.057,0.082 0.327,-0.289 -0.162,0.191 0.137,-0.046 -0.306,0.165 -0.084,0.168 0.548,-0.263 -0.487,0.288 -0.098,0.145 0.139,0.011 -0.201,0.031 -0.101,0.198 -0.034,-0.061 -0.129,0.175 0.106,-0.178 -0.162,0.176 -0.067,-0.057 -0.43,0.567 -0.269,0.009 0.208,0.104 -0.147,0.135 -0.414,0.186 0.231,0.015 0.263,-0.099 -0.37,0.149 -0.039,0.117 -0.136,-0.075 -0.146,0.166 0.144,-0.166 -0.119,0.056 -0.06,0.211 -0.112,-0.043 -0.237,0.289 0.262,-0.026 -0.187,0.092 -0.017,0.14 0.014,-0.183 -0.32,0.424 -0.186,-0.005 0.098,0.02 -0.131,0.11 0.201,0.057 -0.354,0.033 -0.142,0.136 0.095,0.032 -0.151,-0.018 0.022,0.14 -0.087,-0.1 0.032,0.224 -0.087,-0.134 -0.002,0.294 -0.048,-0.055 -0.053,0.116 0.135,0.063 -0.162,-0.062 -0.069,0.18 0.123,-0.032 -0.108,0.047 0.004,0.106 0.205,-0.074 -0.246,0.11 0.094,0.105 -0.209,0.038 -0.086,0.188 0.178,-0.029 -0.168,0.196 -0.089,-0.04 0.099,0.118 -0.259,0.195 -0.073,0.221 -0.459,0.429 -0.203,-0.019 0.192,-0.046 0.156,-0.152 -0.244,0.052 0.314,-0.144 0.017,-0.499 -0.529,0.541 0.031,0.069 -0.271,0.143 0.016,0.157 -0.028,-0.129 -1.229,0.897 -0.458,0.558 -0.348,0.232 -0.467,0.663 -0.26,0.488 0.06,0.174 -0.172,0.266 0.081,-0.238 -0.185,0.226 -0.508,1.175 -0.167,0.204 0.014,0.749 -0.119,0.579 -0.734,1.782 -0.117,0.954 -0.158,0.154 -0.018,0.186 -0.111,-0.332 -0.057,0.792 0.119,0.022 -0.071,0.619 -0.256,0.521 0.027,1.028 -0.075,0.361 0.146,0.031 0.105,-0.454 -0.075,-0.361 0.335,-1.077 0.097,-0.839 0.14,-0.308 0.16,-1.083 0.431,-0.817 0.048,0.755 -0.424,1.122 -0.088,0.699 0.075,0.193 -0.133,0.223 0.007,0.797 -0.176,0.16 0.102,0.624 -0.076,0.186 0.035,1.285 -0.096,0.805 -0.185,0.19 0.026,0.16 -0.117,-0.055 -0.025,0.206 0.157,1.281 0.298,0.58 0.109,0.533 0.944,1.905 0.683,0.373 0.669,1.705 0.837,1.034 -0.072,-0.104 0.449,0.245 -0.009,0.236 -0.132,-0.084 0.552,1.269 -0.11,0.005 0.094,0.119 -0.062,0.369 0.178,0.279 0.105,-0.061 -0.122,-0.282 0.174,0.252 0.35,0.646 -0.012,0.267 0.104,0.087 -0.021,-0.175 0.145,0.41 0.08,-0.084 0.353,0.256 0.069,0.265 0.185,0.013 0.031,0.335 0.177,0.081 0.183,-0.022 -0.152,-0.403 0.578,-0.055 0.229,0.429 0.147,0.041 -0.159,0.145 0.391,0.796 -0.164,0.929 0.198,0.217 -0.05,0.095 -0.273,0.267 -0.322,-0.071 0.004,0.277 -0.201,-0.053 0.037,0.25 -0.461,-0.129 0.055,0.268 -0.216,0.104 0.089,0.157 -0.244,0.013 0.017,0.493 0.259,0.292 0.138,-0.12 0.069,0.18 -0.1,0.233 -0.466,0.069 0.196,0.598 -0.105,0.052 0.482,0.527 0.45,0.727 0.69,1.321 0.719,0.97 -0.041,0.125 0.249,0.326 0.368,0.375 1.654,1.198 0.58,0.519 0.211,0.461 0.157,0.391 -0.03,0.436 0.271,0.475 0.01,0.618 0.223,0.239 -0.074,0.072 0.469,0.568 0.013,0.334 -0.144,-0.045 0.534,0.358 0.036,0.085 0.257,0.128 -0.055,-0.017 0.209,0.079 0.141,0.061 0.061,0.019 -0.099,-0.023 0.219,0.098 0.019,0.018 -0.151,-0.069 0.17,0.078 -0.125,-0.054 0.092,0.057 0.188,0.083 -0.107,-0.041 0.297,0.126 -0.162,-0.066 0.266,0.109 -0.21,-0.086 0.037,0.017 0.106,0.044 0.008,0.003 -0.14,-0.059 -0.169,-0.071 0.133,0.055 -0.105,-0.044 0.018,0.007 -0.063,-0.026 -0.132,-0.058 -0.097,-0.042 0.188,0.081 -0.029,-0.012 -0.17,-0.073 0.135,0.058 -0.106,-0.046 0.149,0.065 0.068,0.029 0.183,0.077 0.163,0.068 -0.14,-0.057 0.188,0.079 -0.214,-0.09 0.288,0.119 0.211,0.085 -0.152,-0.062 0.143,0.058 -0.422,-0.172 0.301,0.125 -0.141,-0.057 0.122,0.049 -0.024,-0.009 0.087,0.034 0.179,0.071 -0.209,-0.084 0.208,0.084 -0.258,-0.104 0.235,0.094 0.024,0.01 0.094,0.038 0.097,0.037 -0.243,-0.096 0.187,0.074 -0.038,-0.015 0.188,0.072 -0.032,-0.013 0.095,0.038 -0.089,-0.036 0.237,0.09 -0.263,-0.099 0.121,0.046 -0.035,-0.012 0.215,0.08 -0.088,-0.032 0.014,0.004 -0.039,-0.014 -0.02,-0.008 -0.219,-0.083 0.054,0.021 0.22,0.083 -0.113,-0.042 h 0.002 m 9.203,-37.47 0.161,-0.165 0.239,0.145 -0.26,-0.242 0.339,0.017 -0.158,-0.133 0.21,-0.11 -0.227,-0.04 0.244,0.027 -0.146,-0.119 0.212,-0.071 -0.162,-0.055 0.208,-0.044 -0.154,-0.035 0.188,-0.108 -0.2,-0.25 0.198,0.07 -0.229,-0.18 0.323,-0.027 -0.07,-0.202 0.182,0.094 -0.137,-0.194 0.179,0.082 -0.103,-0.09 0.196,-0.042 -0.172,-0.133 0.226,0.083 -0.016,-0.196 -0.219,-0.071 0.273,-0.04 -0.168,-0.369 0.197,0.071 0.062,-0.269 0.366,-0.028 0.055,-0.37 0.149,0.047 -0.126,0.206 0.131,0.053 -0.021,-0.163 0.06,0.11 0.284,-0.132 -0.073,-0.147 0.229,0.045 0.242,-0.64 0.212,-0.133 -0.146,-0.309 0.217,0.237 0.287,-0.056 -0.008,-0.135 0.123,0.085 0.513,-0.277 0.557,-0.756 -0.569,-0.038 -0.306,0.259 -0.218,-0.04 0.31,-0.208 -0.454,0.068 0.15,-0.33 0.206,0.067 0.184,-0.18 -0.511,-0.044 0.158,-0.094 -0.191,-0.103 0.657,0.188 0.325,0.343 0.083,-0.204 0.071,0.169 0.141,-0.055 -0.214,-0.197 0.024,-0.205 -0.122,0.038 0.06,-0.135 -0.173,0.084 0.053,-0.144 -0.382,-0.151 -0.095,0.154 0.003,-0.125 -0.16,0.029 0.248,-0.084 -0.141,-0.115 -0.17,0.149 -0.156,-0.115 0.318,-0.15 -0.384,0.034 0.183,-0.075 -0.168,-0.089 0.219,0.08 0.152,-0.144 -0.203,-0.159 0.229,0.141 0.012,-0.121 0.291,0.03 -0.268,0.024 0.297,0.131 0.24,-0.154 -0.048,-0.159 -0.223,-0.041 0.05,0.176 -0.15,-0.152 -0.033,-0.234 0.379,0.078 0.043,-0.12 -0.294,-0.004 -0.012,-0.174 h -0.246 l 0.232,-0.058 -0.294,-0.092 0.422,0.089 -0.072,-0.243 -0.336,-0.03 0.209,-0.132 -0.244,0.033 -0.177,-0.174 0.472,-0.157 -0.106,-0.194 -0.317,-0.014 0.167,-0.121 -0.224,-0.069 -0.058,0.156 -0.058,-0.182 0.063,-0.79 -0.193,0.145 -0.077,-0.127 0.286,-0.241 -0.412,0.082 0.434,-0.247 -0.058,-0.34 -0.296,0.014 -0.016,0.206 -0.217,-0.011 -0.125,0.447 -0.078,-0.597 -0.262,0.308 0.053,-0.237 -0.563,0.129 0.084,-0.15 0.482,-0.05 0.184,-0.216 -0.334,0.003 -0.002,-0.15 -0.627,0.231 0.111,-0.175 0.461,-0.114 -0.709,-0.013 -0.05,0.295 -0.272,-0.205 -0.115,0.123 0.295,0.088 0.017,0.136 -0.36,-0.171 0.195,0.218 -0.162,-0.019 -0.003,0.191 -0.388,-0.327 0.009,0.353 -0.203,-0.175 -0.123,0.128 0.068,-0.272 -0.373,0.044 0.092,0.296 -0.097,-0.23 -0.153,-0.009 -0.146,0.286 -0.082,-0.102 -0.066,0.174 0.005,-0.156 -0.42,0.194 -0.033,0.117 0.272,0.043 -0.4,0.321 -0.277,-0.06 -0.571,0.17 0.163,0.388 0.338,0.055 -0.076,0.13 -0.29,-0.107 0.239,0.155 -0.514,-0.161 0.255,0.266 -0.241,0.037 0.037,0.163 0.185,0.145 0.005,-0.152 0.136,0.146 0.299,-0.073 0.239,0.158 0.33,0.768 -0.217,0.157 0.189,-0.042 -0.112,0.516 0.138,0.275 -0.207,-0.019 0.129,0.058 -0.14,0.172 0.17,-0.111 -0.296,0.196 0.275,0.155 0.158,-0.38 -0.028,0.281 0.249,0.023 -0.238,0.108 0.267,0.01 -0.22,0.111 0.178,-0.037 -0.133,0.066 0.201,0.069 -0.168,-0.024 0.168,0.331 -0.352,-0.242 -0.29,0.006 0.31,0.319 0.362,0.045 -0.235,0.353 0.209,0.037 -0.096,0.118 -0.111,-0.123 0.025,0.288 -0.279,-0.1 -0.258,0.117 0.51,-0.018 -0.146,0.126 0.184,0.144 -0.535,-0.194 0.211,0.138 -0.205,-0.066 -0.15,0.232 0.444,-0.165 -0.142,0.063 0.385,0.025 -0.719,0.104 0.445,0.097 -0.488,0.015 0.287,0.188 -0.269,0.051 0.2,0.087 -0.234,-0.033 0.083,0.099 -0.146,0.083 0.627,-0.313 0.111,0.074 -0.705,0.279 0.354,0.031 -0.329,0.104 0.109,0.192 0.302,-0.165 0.146,0.085 -0.473,0.108 0.127,0.017 -0.1,0.228 0.219,-0.063 -0.223,0.116 -0.012,0.233 0.342,-0.215 -0.031,-0.229 0.217,0.438 -0.248,-0.159 0.134,0.101 -0.36,0.08 0.359,0.065 -0.34,0.001 0.143,0.071 -0.164,0.099 0.232,0.037 -0.186,0.082 0.238,0.055 -0.217,-0.005 0.229,0.083 -0.105,0.199 0.174,-0.112 -0.188,0.247 0.227,0.131 -0.126,0.131 0.216,-0.029 -0.176,0.11 0.17,-0.069 -0.105,0.126 0.137,0.045 -0.168,0.031 0.242,0.026 -0.208,0.048 0.28,0.059 0.032,0.25 0.622,-0.143 -0.273,0.202 0.22,-0.112 -0.166,0.198 0.202,-0.082 -0.014,0.178 0.158,-0.145 -0.161,0.271 0.194,-0.186 -0.079,0.259 m -4.84,-1.801 -0.24,-0.996 0.176,0.257 0.04,-0.189 0.393,0.699 0.14,-0.545 0.057,0.298 0.12,-0.331 -0.149,-0.207 0.151,-0.018 -0.046,-0.221 -0.171,0.065 0.019,-0.21 -0.078,0.136 0.088,-0.443 -0.225,0.043 0.118,-0.283 0.216,0.1 -0.015,-0.311 0.21,0.087 0.036,0.254 0.151,-0.091 -0.164,0.167 0.365,-0.092 -0.336,0.2 0.216,0.489 0.198,-0.46 0.099,0.201 0.051,-0.264 0.166,0.115 -0.122,-0.193 0.254,0.073 -0.071,-0.162 0.179,0.021 -0.069,-0.202 -0.203,0.137 0.037,-0.141 -0.209,0.021 0.226,-0.191 -0.207,0.15 0.119,-0.128 -0.266,0.035 0.189,-0.071 -0.131,-0.087 0.146,0.055 -0.012,-0.229 -0.157,0.036 0.156,-0.117 -0.188,0.132 -10e-4,-0.187 -0.119,0.147 0.107,-0.179 -0.13,0.087 0.085,-0.147 -0.113,0.057 0.037,-0.181 -0.157,-0.023 0.24,-0.006 -0.367,-0.307 0.259,0.105 0.014,-0.174 -0.171,0.025 0.205,-0.048 -0.12,-0.109 0.332,0.205 -0.021,-0.15 -0.428,-0.187 0.486,0.085 0.048,-0.107 -0.061,-0.188 -0.449,0.18 0.344,-0.163 -0.269,-0.012 0.4,-0.096 -0.108,-0.169 -0.254,0.07 0.211,-0.129 -0.455,0.247 0.186,-0.184 -0.149,0.003 0.357,-0.175 -0.392,0.064 0.367,-0.178 -0.094,-0.228 -0.341,0.161 0.231,-0.266 -0.358,0.144 0.19,-0.157 -0.092,-0.054 0.257,-0.075 -0.341,-0.053 0.338,-0.163 -0.219,-0.241 -0.215,0.058 0.1,0.206 -0.203,-0.152 -0.004,0.251 -0.021,-0.407 -0.336,0.146 0.356,-0.256 0.17,-0.429 -0.49,-0.093 0.021,0.202 -0.188,-0.133 0.071,0.206 -0.134,-0.173 -0.139,0.414 -0.031,-0.165 -0.174,0.024 0.041,0.245 -0.273,0.224 0.065,-0.112 -0.548,-0.315 -0.135,0.258 0.012,0.165 0.275,0.02 -0.112,0.226 0.469,0.365 -0.021,-0.255 0.082,0.373 0.029,-0.214 0.312,0.307 0.04,-0.238 0.182,-0.081 -0.1,0.454 0.158,-0.047 -0.129,0.119 0.15,0.056 -0.034,0.209 -0.31,0.136 0.269,-0.046 0.051,0.284 0.126,-0.02 -0.115,0.664 -0.268,0.141 0.133,0.111 -0.16,-0.092 -0.38,0.125 -0.016,0.368 -0.466,-0.094 -0.203,-0.225 -0.408,0.364 0.623,0.318 0.109,-0.226 0.035,0.325 0.143,-0.121 -0.084,0.391 0.215,0.218 -0.215,-0.006 0.02,0.168 0.913,0.926 v 0 m 3.926,-8.639 -0.402,-0.001 -0.114,0.243 -0.09,-0.271 -0.183,0.027 0.002,0.166 -0.082,-0.182 -0.361,-0.016 0.1,0.097 -0.146,0.037 0.209,0.083 -0.313,0.04 0.376,0.108 -0.396,-0.07 -0.006,0.156 0.494,0.028 -0.316,-0.003 -0.129,0.058 0.277,0.015 0.081,0.06 -0.179,0.033 0.174,0.044 0.506,-0.12 -0.309,0.116 0.16,0.082 -0.609,-0.06 -0.086,0.337 0.021,-0.336 -0.148,-0.122 -0.238,0.503 -0.105,-0.048 0.242,0.126 -0.201,-0.009 -0.027,0.127 -0.074,-0.23 -0.188,-0.027 -0.271,0.153 0.215,0.001 -0.074,0.104 0.236,-0.111 -0.393,0.324 0.387,-0.056 -0.439,0.144 -0.086,-0.363 -0.125,0.287 -0.463,0.015 0.02,0.114 0.152,-0.102 -0.096,0.178 0.113,-0.085 -0.035,0.136 0.113,-0.089 -0.016,0.189 0.211,-0.07 0.013,0.137 0.102,-0.123 -0.026,0.178 0.105,-0.165 -0.082,0.314 0.353,0.023 0.2,-0.165 -0.273,-0.24 0.156,-0.172 0.152,0.271 0.252,-0.197 0.191,0.101 -0.01,-0.128 0.191,0.036 -0.077,-0.131 0.188,0.057 -0.198,-0.322 0.335,0.176 -0.185,-0.239 0.418,0.115 0.024,-0.16 0.166,0.144 0.174,-0.098 -0.109,-0.099 0.16,0.076 0.045,-0.147 0.047,0.101 0.591,-0.247 -0.45,-0.013 0.336,-0.069 -0.131,-0.127 0.207,0.107 0.309,-0.067 0.148,-0.108 -0.059,-0.206 -0.338,-0.021 0.199,-0.063 -0.509,-0.286 -0.004,-0.003 m 14.028,12.221 0.243,-0.348 -0.055,-0.109 -0.301,0.125 0.131,-0.144 -0.039,-0.499 -0.23,-0.136 -0.289,0.181 -0.006,0.01 -0.17,-0.289 -0.082,-0.018 -0.143,0.049 0.166,-0.126 -0.112,-0.145 -0.386,-0.063 -0.559,-0.474 -0.441,0.101 0.246,-0.204 -0.205,0.036 0.141,-0.171 -0.115,-0.529 -0.543,0.332 0.01,-0.646 -0.421,0.206 0.185,0.36 -0.174,0.057 0.278,0.286 -0.104,0.254 0.289,-0.119 0.15,0.709 -0.013,-0.296 0.045,-0.217 0.151,0.099 -0.117,0.031 0.199,0.512 0.125,0.068 -0.059,-0.106 0.402,-0.25 -0.022,0.276 0.229,0.143 0.039,-0.12 0.099,0.343 0.15,0.034 -0.338,0.242 -0.044,0.253 0.149,-0.14 0.117,0.152 -0.19,0.475 0.606,-0.011 0.165,-0.317 -0.026,0.366 -0.308,0.139 -0.139,0.692 0.52,-0.324 -0.066,-0.233 0.857,-0.493 0.005,-0.004 m -17.155,4.252 0.457,-0.376 0.058,0.235 -0.192,0.288 0.255,-0.164 -0.075,0.285 0.156,0.033 0.259,-0.423 -0.034,-0.152 -0.188,0.107 0.176,-0.295 -0.27,0.294 -0.099,-0.188 0.128,-0.082 -0.101,-0.107 0.346,-0.109 -0.409,0.02 0.311,-0.412 -0.326,-0.038 0.038,-0.155 -0.349,0.211 0.127,-0.237 h -0.326 l 0.27,-0.226 -0.236,-0.021 0.041,-0.111 -0.294,0.259 0.529,-0.697 -0.079,-0.153 0.182,0.028 -0.098,-0.15 -0.569,0.367 -0.24,0.595 -0.176,-0.004 0.058,0.239 -0.142,-0.121 -0.358,0.267 0.324,0.046 -0.442,0.225 0.038,0.181 0.305,-0.051 0.45,0.229 0.397,-0.151 -0.164,0.229 0.496,-0.019 -0.502,0.282 0.268,0.022 v 0 m -4.834,-15.03 -0.226,0.166 0.372,0.41 0.506,0.065 -0.151,0.316 0.322,0.323 0.172,-0.196 -0.249,0.023 0.229,-0.201 0.008,0.141 0.26,0.005 -0.071,0.124 0.218,-0.151 0.087,-0.569 0.739,-0.53 0.12,-0.244 -0.141,-0.102 -0.681,0.417 0.503,-0.52 -0.048,-0.071 -0.195,0.208 0.018,-0.12 -0.15,0.035 -0.053,-0.097 0.249,-0.017 0.05,-0.205 -0.27,-0.077 0.379,-0.154 -0.555,-0.213 -0.369,0.071 -0.006,0.159 -0.146,0.002 0.187,0.298 -0.355,-0.241 -0.173,0.147 0.201,0.391 -0.052,0.332 -0.416,-0.57 -0.261,0.226 -0.052,0.419 v 0 m 15.135,6.564 0.334,-0.317 0.117,-0.371 -0.132,-0.019 0.136,-0.063 -0.531,-0.346 0.07,-0.154 -0.121,0.144 -0.223,-0.121 0.016,0.218 -0.34,0.045 0.133,0.22 -0.236,-0.203 -0.043,0.24 -0.256,-0.118 0.01,0.444 -0.174,-0.368 -0.417,-0.115 0.221,0.239 -0.258,-0.122 0.114,0.224 -0.188,-0.025 0.102,0.11 -0.149,0.042 0.585,-0.092 -0.15,0.16 0.188,0.038 -0.445,0.154 0.631,0.113 -0.203,0.326 0.333,-0.138 0.582,0.131 0.294,-0.276 v 0 m 4.535,4.696 0.362,-0.361 -0.425,-0.795 0.131,-0.316 -0.348,-0.258 -0.236,0.221 0.045,-0.144 -0.15,-0.017 0.038,0.213 -0.149,-0.083 -0.09,0.32 0.188,-0.045 -0.007,0.239 -0.416,0.144 0.237,0.147 -0.085,0.244 0.386,-0.038 -0.147,0.407 0.312,-0.17 -0.362,0.363 0.181,-0.024 -0.112,0.211 0.225,-0.105 -0.112,0.189 0.17,-0.128 -0.029,0.166 0.393,-0.38 v 0 m -15.59,-10.905 0.008,0.287 0.268,-0.022 -0.092,0.196 0.426,0.23 0.131,-0.115 0.027,0.249 0.383,-0.008 -0.063,-0.101 0.219,-0.108 -0.082,-0.227 -0.607,-0.137 -0.071,-0.235 -0.11,0.068 0.137,-0.237 -0.174,-0.022 0.174,-0.009 -0.031,-0.147 0.176,0.154 -0.093,-0.2 0.114,-0.028 -0.291,-0.08 0.201,-0.157 -0.176,-0.208 -0.22,0.292 0.216,0.109 -0.465,0.455 -0.005,0.001 m -1.353,-1.776 0.281,0.035 -0.197,0.089 0.221,0.187 -0.408,-0.162 -0.047,0.227 0.46,0.155 0.134,0.224 0.391,-0.141 0.04,-0.132 -0.204,0.073 0.006,-0.116 0.432,-0.299 -0.273,0.002 -0.34,0.294 -0.086,-0.188 0.345,-0.467 -0.142,-0.035 -0.018,0.117 -0.193,-0.115 0.057,0.152 -0.226,-0.137 0.123,0.154 -0.295,-0.135 -0.061,0.218 v 0 m 2.812,0.533 -0.021,0.246 -0.118,-0.042 -0.05,0.124 0.15,0.15 0.145,-0.157 -0.103,0.19 0.365,-0.213 -0.095,0.129 0.412,-0.063 0.07,-0.14 -0.141,-0.049 0.313,-0.258 -0.165,0.063 0.242,-0.561 -0.326,0.058 -0.037,0.149 -0.209,-0.086 -0.043,0.196 -0.046,-0.148 -0.11,0.067 0.073,0.138 -0.247,0.088 0.266,0.243 -0.325,-0.124 v 0 m 9.967,0.465 0.269,0.011 -0.653,-0.588 -0.018,-0.218 -0.535,-0.033 0.08,0.094 -0.363,-0.103 0.496,0.277 -0.463,-0.136 0.179,0.17 -0.224,-0.002 -0.041,-0.147 -0.044,0.236 0.673,0.252 -0.121,-0.297 0.165,0.098 -0.044,-0.129 0.168,0.028 -0.07,0.307 0.16,0.074 0.097,-0.23 -0.021,0.203 0.164,-0.028 -0.164,0.11 0.31,0.051 v 0 m 2.566,-2.856 -0.264,-0.03 0.041,-0.073 -0.483,-0.225 -0.661,-0.567 -0.359,-0.007 0.429,0.278 0.118,0.277 0.639,0.465 0.236,-0.047 0.246,0.192 0.088,-0.097 -0.053,0.111 0.192,0.153 0.045,-0.186 0.171,0.19 0.012,-0.238 -0.235,-0.009 0.03,-0.103 -0.103,0.074 0.033,-0.109 -0.203,0.006 0.081,-0.055 v 0 m -23.804,29.192 0.372,-0.001 -0.574,-0.479 0.054,-0.198 -0.438,-0.298 -0.885,-1.287 -0.444,-0.404 -1.067,-0.367 -0.183,0.267 -0.246,-0.084 0.315,0.181 0.546,-0.095 0.309,0.194 0.053,0.131 -0.193,-0.06 0.096,0.172 1.04,0.847 0.126,0.52 0.331,0.21 0.015,0.167 -0.292,0.119 1.065,0.465 v 0 m 1.386,1.537 0.236,-0.122 0.837,0.416 0.167,-0.138 -0.514,-0.417 0.219,-0.029 -0.251,-0.083 -0.057,-0.218 -1.151,-0.586 -0.281,0.015 0.285,0.235 -0.089,0.173 0.146,0.312 -0.743,-0.386 -0.129,0.068 0.205,0.29 0.766,0.213 0.207,0.395 0.147,-0.138 v 0 m 12.25,-37.631 0.291,-0.02 -0.225,0.015 -0.238,0.019 0.117,-0.009 0.809,-0.05 0.332,-0.014 -0.307,0.013 -0.335,0.019 0.706,-0.023 0.216,0.071 0.134,-0.009 -0.172,-0.017 0.305,-0.019 0.03,-0.027 -0.216,-0.015 -1.445,0.066 h -0.002 m -5.527,11.121 0.451,-0.253 -0.055,-0.232 0.426,-0.086 -0.249,-0.331 -0.154,0.149 -0.046,-0.121 0.01,0.227 -0.209,0.083 -0.018,-0.255 -0.205,0.064 -0.304,0.674 0.116,0.072 0.191,-0.139 -0.1,0.075 0.143,0.073 h 0.003 m -0.9,4.386 0.25,-0.053 -0.03,-0.211 -0.224,-0.044 0.202,-0.208 -0.126,-0.611 -0.148,0.061 0.129,-0.327 -0.695,0.623 -0.323,0.089 0.278,0.105 -0.123,0.28 0.702,-0.19 -0.079,0.254 0.186,0.233 h 10e-4 m 18.246,-7.907 -0.049,-0.387 -0.527,0.146 -0.328,-0.051 -0.301,-0.187 -0.025,0.153 0.066,0.163 0.125,-0.015 0.094,0.139 0.027,-0.119 0.408,0.311 0.182,-0.008 -0.056,-0.175 0.382,0.033 0.002,-0.003 m -24.216,-1.398 0.009,0.052 -0.127,0.001 0.075,0.159 0.118,-0.072 -0.105,0.112 0.162,-0.041 0.17,-0.174 -0.127,0.004 0.137,-0.081 -0.26,0.094 0.219,-0.172 -0.082,-0.017 -0.189,0.135 v 0 m 19.279,2.206 -0.261,0.031 0.043,0.139 -0.191,-0.071 0.217,0.141 -0.346,0.009 0.158,0.087 -0.08,0.091 0.225,0.049 0.095,-0.172 0.083,0.164 0.279,-0.13 -0.222,-0.338 v 0 m -11.287,1.574 0.155,0.14 0.206,-0.051 0.46,-0.422 -0.16,0.039 -0.066,-0.157 -0.209,0.231 0.132,-0.279 -0.219,0.225 -0.196,-0.093 0.224,0.214 -0.218,0.004 -0.111,0.148 0.002,0.001 m -2.354,-1.129 0.896,0.196 0.262,-0.334 -0.164,-0.089 0.218,-0.294 -0.154,-0.258 -0.279,0.172 -0.9,0.041 0.01,0.113 -0.393,0.324 0.256,0.188 0.248,-0.059 v 0 m -10.246,4.364 0.122,0.111 -0.214,0.09 -0.04,0.474 0.658,-0.991 0.125,-0.741 -0.133,0.168 0.074,0.089 -0.2,0.023 0.023,0.165 -0.415,0.612 v 0 m 2.376,-2.836 -0.131,0.143 0.239,-0.119 0.048,-0.159 0.041,0.088 0.396,-0.455 -0.319,0.19 -0.002,0.084 -0.137,0.013 -0.135,0.215 v 0 m -0.879,0.548 0.089,0.02 0.057,-0.163 0.384,-0.08 -0.243,-0.025 0.183,-0.04 0.082,-0.212 -0.461,0.34 -0.389,0.518 0.297,-0.356 0.001,-0.002 m 17.948,-8.294 -0.746,0.017 0.176,0.179 -0.146,-0.147 -0.242,0.111 0.523,0.132 0.094,-0.13 0.223,0.136 0.235,-0.133 -0.117,-0.165 v 0 m -7.18,22.756 -0.105,-0.204 -0.245,0.264 -0.127,-0.023 0.325,-0.227 0.097,-0.368 -0.508,0.4 0.021,0.264 0.541,-0.104 10e-4,-0.002 m 0.7,-17.155 -0.112,-0.137 -0.739,-0.059 0.167,0.097 -0.143,0.136 0.51,-0.001 -0.233,0.142 0.534,-0.042 0.016,-0.136 v 0 m -0.44,4.005 0.118,-0.32 0.234,-0.257 0.515,-0.25 -0.132,-0.15 -0.498,0.039 -0.728,0.491 0.24,0.318 0.251,0.129 v 0 m 19.888,5.262 -0.062,-0.341 -0.249,-0.155 0.121,0.218 -0.161,-0.083 -0.087,0.222 0.592,0.304 -0.154,-0.165 v 0 m -9.341,-12.904 -0.27,-0.181 -0.297,0.153 0.002,0.097 0.149,0.004 -0.11,0.054 0.525,0.099 v -0.226 h 0.001 m -9.16,4.709 0.332,-0.302 v -0.394 l -0.228,0.14 0.046,0.11 -0.264,0.037 0.136,0.07 -0.022,0.34 v -0.001 m -10.404,0.094 0.218,-0.241 -0.119,0.187 0.111,-0.029 0.116,-0.275 -0.374,0.239 0.166,-0.068 -0.118,0.187 v 0 m 8.241,1.818 0.323,-0.012 0.056,-0.167 0.186,0.182 0.625,-0.225 -0.406,-0.392 -0.785,0.614 h 0.001 m 13.076,-2.151 -0.337,-0.072 -0.037,0.152 0.297,0.159 0.005,-0.143 0.178,0.076 -0.106,-0.172 v 0 m -16.211,9.661 0.208,0.022 -0.063,0.083 0.221,-0.193 -0.15,0.121 0.146,-0.259 -0.362,0.226 v 0 m 8.434,-4.101 -0.156,-0.317 -0.252,-0.046 -0.075,0.268 0.251,0.05 -0.124,0.126 0.354,-0.08 0.002,-0.001 m 23.847,8.308 0.241,-0.342 -0.056,-0.168 -0.029,0.207 -0.534,0.329 0.104,0.162 0.274,-0.188 v 0 m -33.632,33.071 0.113,0.046 -0.277,-0.148 -0.16,-0.068 0.045,0.031 0.121,0.069 0.158,0.07 v 0 m -4.541,-45.647 -0.161,0.035 -0.022,0.079 0.104,-0.036 -0.155,0.061 0.039,0.064 0.195,-0.203 m 20.349,-6.109 -0.577,-0.12 -0.072,0.185 0.221,-0.012 -0.185,0.109 0.613,-0.162 v 0 m -0.214,0.605 -0.304,-0.105 -0.201,0.042 -0.069,0.199 0.611,-0.003 -0.039,-0.133 h 0.002 m 13.37,19.957 0.235,-0.359 -0.26,-0.577 -0.336,-0.205 -0.188,0.337 0.549,0.804 v 0 m -24.972,0.324 0.365,-0.144 -0.642,-0.183 0.076,-0.291 -0.192,0.18 0.393,0.438 v 0 m -8.871,11.537 0.326,0.12 -0.232,-0.358 -0.561,-0.251 0.182,0.346 0.285,0.143 v 0 m 2.862,-32.238 0.034,0.077 0.128,-0.114 -0.151,0.059 0.093,-0.142 -0.104,0.12 v 0 m 37.015,16.591 0.021,-0.427 -0.106,-0.067 -0.049,-0.339 -0.106,0.814 0.24,0.019 v 0 m -33.427,21.57 0.054,-0.306 -0.348,-0.028 0.085,0.207 -0.229,0.052 0.438,0.075 v 0 m 4.82,-30.628 0.01,0.143 0.43,0.15 0.042,-0.331 -0.317,-0.269 -0.165,0.307 v 0 m 16.156,-3.543 -0.177,-0.21 -0.194,0.068 0.195,0.178 0.176,-0.036 v 0 m -17.826,15.282 0.086,-0.103 -0.215,-0.237 -0.518,-0.263 0.647,0.603 v 0 m 28.052,-2.72 0.046,-0.084 -0.146,-0.081 -0.045,0.167 0.145,-0.002 v 0 m -31.123,-17.211 -0.016,0.1 0.618,-0.333 -0.145,-0.009 -0.457,0.242 v 0 m -5.665,5.91 -0.245,0.167 0.004,0.087 0.193,-0.071 0.051,-0.186 -0.003,0.003 m 3.707,28.722 0.195,-0.14 -0.721,-0.217 0.002,0.21 0.524,0.147 v 0 m 24.928,-20.84 0.128,0.166 0.164,-0.087 -0.205,-0.201 -0.087,0.122 v 0 m 8.126,4.255 -0.229,-0.204 -0.26,0.04 -0.035,0.175 0.524,-0.011 v 0 m -12.363,-3.245 0.064,0.1 0.063,-0.142 -0.092,-0.274 -0.035,0.316 v 0 m 0.406,-6.217 -0.04,-0.328 0.019,0.17 -0.165,-0.109 0.186,0.267 v 0 m -6.441,0.915 0.32,0.08 -0.247,-0.256 -0.199,0.033 0.126,0.143 v 0 m -20.196,-1.708 0.06,0.01 -0.165,0.154 0.355,-0.32 -0.25,0.156 v 0 m -0.843,22.269 0.179,0.05 -0.017,-0.175 -0.1,-0.087 -0.064,0.211 0.002,0.001 m 26.554,-28.056 -0.16,-0.023 0.08,0.108 0.18,0.007 -0.098,-0.092 h -0.002 m -15.721,4.3 0.299,-0.101 -0.071,-0.201 -0.132,0.017 -0.098,0.284 0.002,0.001 m 6.829,-7.381 -0.268,-0.032 -0.223,0.111 0.609,0.041 -0.118,-0.12 v 0 m 0.5,-0.405 -0.07,0.055 0.221,0.085 0.324,-0.107 -0.475,-0.033 v 0 m 15.908,23.367 0.051,-0.264 -0.133,-0.067 -0.167,0.316 0.249,0.015 v 0 m 1.111,-2.042 -0.029,-0.384 -0.266,-0.366 -0.051,0.444 0.346,0.306 v 0 m -25.615,-11.852 0.057,0.392 0.311,0.005 0.135,-0.588 -0.503,0.191 v 0 m -6.709,-2.167 0.324,-0.172 0.126,-0.18 -0.608,0.319 0.158,0.033 v 0 m 35,14.873 -0.252,-0.807 -0.682,0.771 0.153,0.162 0.778,-0.125 0.003,-0.001 m -31.163,-20.181 0.235,-0.079 0.117,-0.166 -0.36,0.179 0.008,0.066 v 0 m -2.157,0.527 -0.123,0.133 0.234,-0.135 0.019,-0.141 -0.13,0.143 v 0 m 7.749,9.368 -0.168,-0.217 -0.335,0.372 0.287,0.078 0.213,-0.231 0.003,-0.002 m -2.803,1.347 -0.283,0.054 -0.064,0.152 0.562,-0.115 -0.215,-0.091 v 0 m 3.358,-6.914 -0.105,-0.209 -0.193,0.07 0.024,0.178 0.272,-0.04 0.002,10e-4 m 9.6,-3.784 -0.133,0.002 0.117,0.14 0.127,-0.066 -0.111,-0.076 v 0 m -8.937,4.65 0.275,-0.07 -0.004,-0.288 -0.313,0.216 0.04,0.141 0.002,0.001 m 33.754,25.544 0.006,-0.077 -0.032,0.203 0.013,0.016 0.013,-0.142 v 0 m -18.647,-27.998 -0.117,-0.068 -0.184,0.145 0.203,0.044 0.098,-0.121 m 3.387,7.432 -0.03,0.091 0.144,0.009 0.018,-0.134 -0.132,0.034 m -25.265,-10 0.132,-0.069 -0.002,-0.088 -0.118,0.057 -0.012,0.1 m 20.9,14.625 -0.003,0.173 0.126,-0.122 -0.123,-0.051 v 0 m -14.725,-10.729 0.225,0.201 0.08,-0.143 -0.305,-0.058 v 0 m 8.189,4.625 -0.274,-0.097 -0.132,0.126 0.406,-0.029 v 0 m 23.547,4.385 -0.07,-0.159 0.139,0.427 -0.068,-0.267 v -0.001 m 1.765,8.972 0.039,-0.119 -0.082,0.02 0.043,0.099 v 0 m -10.688,-5.156 -0.107,-0.021 0.222,0.071 -0.115,-0.05 v 0 m -41.57,2.111 -0.021,0.16 0.1,-0.183 -0.079,0.023 v 0 m 33.313,-4.516 -0.224,-0.082 0.284,0.199 -0.06,-0.117 v 0 m 4.498,-2.765 0.227,0.355 -0.307,-0.536 0.08,0.181 v 0 m -4.589,-3.745 -0.155,-0.155 0.045,0.183 0.11,-0.028 v 0 m -4.238,-2.69 0.201,0.028 -0.38,-0.11 0.177,0.082 h 0.002 m 15.489,13.094 0.119,-0.074 -0.152,-0.093 0.033,0.165 v 0.002 m -31.343,33.592 -0.087,-0.038 -0.092,-0.038 0.179,0.076 v 0 m -2.665,-49.299 0.141,0.002 -0.195,-0.061 0.054,0.059 v 0 m -2.875,3.337 -0.07,0.096 0.227,-0.189 -0.154,0.092 -0.003,10e-4 m 30.599,4.587 -0.043,-0.378 -0.189,0.216 0.232,0.162 v 0 m -28.049,-8.587 0.05,0.107 0.117,-0.149 -0.167,0.042 v 0 m 8.253,-3.097 -0.318,0.298 0.387,-0.123 -0.069,-0.175 v 0 m 14.787,8.499 -0.11,0.005 0.149,0.234 -0.039,-0.239 v 0 m -13.817,36.103 0.175,-0.145 -0.375,0.01 0.2,0.135 v 0 m -0.84,-30.122 0.113,-0.095 -0.168,-0.044 0.055,0.139 v 0 m 0.969,-15.255 v 0.063 l 0.227,-0.054 -0.227,-0.009 v 0 m -7.467,23.996 0.462,0.139 0.196,-0.12 -0.658,-0.019 v 0 m 6.092,-16.206 0.109,0.313 0.299,-0.341 -0.406,0.028 h -0.002 m -9.738,-0.474 0.127,-0.105 -0.401,0.208 0.274,-0.103 v 0 m 0.065,-0.202 -0.261,0.177 0.616,-0.404 -0.355,0.227 v 0 m 8.537,-8.394 0.228,-0.048 -0.356,0.068 0.128,-0.02 v 0 m 36.041,21.999 -0.046,-0.26 0.044,0.401 0.002,-0.141 v 0 m -36.581,-9.913 -0.057,0.122 0.188,-0.212 -0.13,0.089 -10e-4,10e-4 m -0.349,1.08 0.111,0.096 -0.051,-0.282 -0.063,0.185 0.003,0.001 m -3.451,5.398 0.226,0.313 0.038,-0.276 -0.264,-0.037 v 0 m -6.688,9.251 v 0 l -0.096,-0.05 0.248,0.135 -0.152,-0.085 m 40.476,-7.205 -0.082,-0.256 0.002,0.25 0.08,0.006 v 0 m -29.046,-13.33 0.205,-0.04 -0.297,-0.055 0.09,0.093 0.002,0.002 m 1.918,-8.05 h 0.027 l 0.182,-0.042 -0.207,0.042 h -0.002 m 27.043,40.015 0.088,-0.003 0.07,-0.277 -0.158,0.279 v 0.001 m -19.145,-28.312 0.168,-0.056 -0.158,-0.138 -0.01,0.194 v 0 m -21.607,32.708 0.079,-0.056 -0.124,-0.067 0.045,0.123 v 0 m 7.142,-2.955 -0.174,-0.041 0.292,0.072 -0.115,-0.034 -0.003,0.003 m 15.431,-38.719 -0.043,-0.085 -0.149,0.03 0.192,0.055 v 0 m -11.874,12.796 0.15,-0.094 -0.158,-0.084 0.008,0.178 v 0 m 7.609,-6.569 0.154,0.229 0.014,-0.173 -0.165,-0.058 -0.003,0.002 m -14.552,27.563 -0.121,-0.067 0.18,0.188 -0.059,-0.121 v 0 m 20.346,-27.794 -0.145,-0.136 -0.019,0.119 0.164,0.017 v 0 m -11.816,4.106 0.146,-0.047 -0.217,-0.061 0.071,0.11 v -0.002 m -2.35,3.068 0.212,-0.051 0.063,-0.192 -0.273,0.241 -0.002,0.002 m -4.964,24.291 v 0 l 0.106,0.12 -0.164,-0.221 0.058,0.101 m 14.479,-40.554 0.101,0.019 0.125,-0.017 -0.226,-0.002 v 0 m -8.744,2.956 -0.012,0.006 -0.096,0.073 0.229,-0.144 -0.121,0.065 m 2.363,6.067 0.118,-0.139 -0.238,0.222 0.12,-0.082 v -0.001 m -5.692,-6.511 -0.147,0.067 0.278,-0.122 -0.128,0.055 h -0.003 m 6.45,7.097 -0.203,-0.096 0.109,0.204 0.094,-0.108 v 0 m -1.078,4.639 -0.152,-0.07 0.15,0.191 0.003,-0.12 -0.001,-0.001 m 8.567,-1.797 0.263,-0.027 -0.172,-0.074 -0.091,0.101 v 0 m -7.3,-2.564 -0.076,-0.075 -0.081,0.157 0.158,-0.081 -0.001,-0.001 m 18.643,7.596 -0.107,-0.107 -0.012,0.155 0.119,-0.048 m -19.91,-16.46 -0.199,0.119 0.237,-0.073 -0.038,-0.046 m 8.181,13.168 0.396,-0.14 -0.124,-0.176 -0.272,0.316 m 0.303,-1.128 0.337,0.018 -0.133,-0.103 -0.204,0.085 m -14.524,-10.163 -0.055,0.045 0.151,-0.082 -0.096,0.037 m 25.721,12.879 -0.226,-0.454 0.015,0.273 0.211,0.181 m -30.952,-4.659 -0.173,0.197 0.289,-0.302 -0.116,0.105 m 0.574,23.193 0.082,0.103 -0.082,-0.103 v 0 m 25.462,-22.246 -0.06,-0.167 0.06,0.167 v 0 m -17.806,-0.513 -0.1,0.114 0.1,-0.114 v 0 m 18.264,7.958 0.038,-0.151 -0.038,0.148 v 0.003 m -33.586,3.264 -0.061,0.317 0.061,-0.317 v 0 m 42.239,-1.394 0.103,-0.098 -0.103,0.098 v 0 m -29.989,-18.441 -0.096,0.08 0.096,-0.08 v 0 m 20.957,7.533 -0.108,0.038 0.108,-0.038 v 0 m -33.751,12.349 v 0 l 0.081,-0.068 -0.081,0.068 m 19.708,24.735 0.007,0.113 -0.007,-0.113 v 0 m -0.782,-29.448 0.09,0.093 -0.09,-0.093 v 0 m 0.689,-1.399 0.031,0.175 -0.031,-0.175 v 0 m 14.057,-5.355 -0.055,0.117 0.055,-0.117 v 0 m -22.97,-6.121 -0.119,0.072 0.119,-0.072 v 0 m 8.602,11.954 0.136,0.028 -0.136,-0.028 v 0 m 21.329,7.996 h -0.002 l 0.105,-0.036 -0.103,0.036 m -33.651,-13.263 v 0 l -0.087,0.021 0.087,-0.021 m 11.216,6.019 0.01,-0.147 -0.01,0.147 v 0 m 15.672,-5.628 v 0 l -0.01,0.141 0.01,-0.141 m -28.19,27.875 v 0 l 0.038,0.128 -0.038,-0.128 m 11.444,-24.332 0.008,-0.141 -0.01,0.141 h 0.002 m 16.969,1.855 0.097,0.1 -0.097,-0.1 v 0 m -15.045,2.435 0.126,0.058 -0.126,-0.058 v 0 m 5.537,-2.613 0.178,0.123 -0.178,-0.123 v 0 m 18.418,3.87 0.002,-10e-4 -0.08,0.072 0.078,-0.071 m 9.204,-2.629 -0.097,-0.238 0.097,0.238 v 0 m -22.597,-14.495 -0.12,-0.005 0.12,0.005 v 0 m 8.371,9.827 -0.025,-0.17 0.022,0.169 0.003,0.001 m -14.632,4.632 0.133,-0.064 -0.133,0.064 v 0 m -2.203,37.411 0.062,-0.066 -0.062,0.066 v 0 m -16.497,-20.819 v 0 l -0.096,-0.004 0.096,0.004 m 28.278,-30.119 v 0 l -0.146,-0.115 0.146,0.115 m -1.549,-0.271 -0.148,0.016 0.148,-0.016 v 0 m -25.219,8.262 -0.081,0.18 0.081,-0.18 v 0 m 38.476,9.027 -0.176,-0.091 0.174,0.091 h 0.002 m -39.705,11.172 0.109,-0.01 -0.109,0.01 v 0 m 40.047,-10.951 -0.046,-0.157 0.044,0.157 h 0.002 m -7.669,-7.926 0.104,0.036 -0.104,-0.036 v 0 m -3.121,4.802 v 0 l 0.033,-0.101 -0.033,0.101 m -15.822,-5.861 0.257,-0.071 -0.256,0.07 -10e-4,0.001 m 17.501,-7.556 -0.123,-0.07 0.121,0.071 0.002,-0.001 m -31.637,28.684 0.086,-0.084 -0.086,0.084 v 0 m -0.179,-6.897 v 0 l 0.104,-0.01 -0.104,0.01 m 7.076,-20.676 -0.018,0.079 0.018,-0.079 v 0 m -1.993,2.318 0.146,-0.062 -0.146,0.062 v 0 m 2.539,18.159 0.125,-0.127 -0.125,0.127 v 0 m 2.785,-24.168 v 0 l -0.189,0.093 0.189,-0.093 m 13.167,8.325 v 0 l -0.206,-0.266 0.206,0.266 m 10.32,6.159 -0.131,-0.036 0.131,0.036 v 0 m -23.708,1.385 0.182,0.035 -0.18,-0.036 -0.002,0.001 m -5.597,-9.018 h -0.002 l 0.148,-0.129 -0.146,0.129 m 42.726,8.998 -0.054,-0.037 0.054,0.037 v 0 m -50.251,0.292 -0.006,-0.115 0.004,0.114 0.002,0.001 m 32.691,-8.535 -0.078,-0.132 0.078,0.132 v 0 m 8.07,10.143 0.135,0.146 -0.135,-0.146 v 0 m -7.429,-7.711 -0.041,-0.102 0.039,0.102 h 0.002 m 10.648,7.868 0.088,-0.052 -0.088,0.052 v 0 m 0.924,0.507 -0.107,-0.002 0.109,0.004 -0.002,-0.002 m -18.363,-9.542 -0.102,-0.109 0.102,0.109 v 0 m -24.294,15.53 0.179,-0.035 -0.179,0.035 v 0 m 9.794,28.277 0.104,0.046 -0.104,-0.046 v 0 m -2.805,-49.692 0.024,0.048 -0.024,-0.048 v 0 m 34.832,16.403 0.119,-0.019 -0.119,0.019 v 0 m -36.97,-12.211 h -0.002 l 0.121,-0.057 -0.119,0.057 m -5.731,18.541 0.114,-0.162 -0.114,0.16 v 0.002 m 12.439,13.077 h -0.005 l -0.132,0.012 0.137,-0.012 m 4.907,5.392 -0.043,0.092 0.045,-0.092 h -0.002 m 32.996,-22.25 -0.047,-0.006 0.047,0.006 v 0 m -53.167,-0.092 -0.003,0.176 0.003,-0.176 v 0 m 46.42,-3.818 -0.129,-0.178 0.126,0.177 0.003,0.001 m -28.81,-20.151 -0.23,0.054 0.23,-0.054 v 0 m 16.178,17.556 0.105,-0.065 -0.105,0.065 v 0 m -20.27,7.721 0.18,0.033 -0.18,-0.033 v 0 m 6.74,-13.24 0.142,-0.042 -0.142,0.042 v 0 m -11.826,20.932 0.146,0.134 -0.146,-0.134 v 0 m 26.631,-19.536 0.063,-0.106 -0.063,0.106 v 0 m -14.47,33.155 -0.236,0.012 0.236,-0.012 v 0 m 19.888,-21.769 -0.079,0.119 0.079,-0.119 v 0 m -4.231,-20.11 v 0 l 0.022,0.081 -0.022,-0.081 m -25.194,0.344 0.077,-0.075 -0.077,0.075 v 0 m 24.225,13.799 0.019,-0.207 -0.019,0.207 v 0 m 15.816,3.38 0.061,-0.037 -0.061,0.035 v 0.002 m 0.957,-4.514 -0.014,-0.111 0.014,0.111 v 0 m -41.231,-13.545 0.066,0.018 -0.066,-0.018 v 0 m -4.338,7.317 -0.092,0.129 0.092,-0.129 v 0 m 5.925,-9.254 v 0 l -0.228,0.154 0.228,-0.154 m -0.868,25.072 -0.174,0.246 0.174,-0.246 v 0 m 6.293,-12.089 v 0 l -0.111,-0.07 0.111,0.07 m 1.934,31.313 0.195,0.028 -0.195,-0.028 v 0 m 34.322,-13.216 -0.016,0.165 0.016,-0.165 v 0 m -47.864,-20.872 -0.081,0.089 0.081,-0.089 v 0 m 16.817,35.486 0.021,-0.102 -0.021,0.102 v 0 m -17.765,-20.944 0.073,0.086 -0.073,-0.086 v 0 m 29.905,-13.622 v 0 l -0.063,0.141 0.063,-0.141 m -26.467,-4.199 -0.106,0.079 0.106,-0.079 v 0 m 10.651,-2.006 0.163,-0.084 -0.163,0.083 v 0.001 m 25.264,16.542 0.097,0.012 -0.097,-0.012 v 0 m -21.327,30.405 0.134,0.003 -0.135,-0.006 0.001,0.003 m -2.834,-31.4 0.128,-0.023 -0.128,0.023 v 0 m -3.524,-9.794 -0.125,0.188 0.125,-0.188 v 0 m -7.886,-3.94 0.131,-0.133 -0.131,0.133 v 0 m 37.92,11.486 v 0 l 0.021,-0.134 -0.021,0.134 m -0.272,-0.371 v 0 l -0.077,0.094 0.077,-0.094 m -23.899,34.152 0.106,-0.02 -0.106,0.02 v 0 m 0.142,-40.448 v 0 l 0.172,-0.029 -0.172,0.029 m 23.83,6.858 v 0 l -0.018,0.1 0.018,-0.1 m -16.161,-13.317 0.03,-0.114 -0.03,0.117 v -0.003 m -19.012,-4.396 -0.019,0.139 0.019,-0.139 v 0 m 13.612,-1.722 0.1,0.053 -0.1,-0.053 v 0 m 22.09,19.685 -0.035,-0.135 0.035,0.135 v 0 m -22.849,-2.946 -0.147,-0.082 0.147,0.084 v -0.002 m -10.739,36.947 0.118,0.05 -0.12,-0.051 0.002,0.001 m 5.838,-8.258 0.149,-0.098 -0.149,0.094 v 0.004 m 15.957,-27.464 0.127,-0.077 -0.129,0.076 0.002,0.001 m 3.188,-3.002 -0.043,0.103 0.043,-0.103 v 0 m -17.776,-2.062 0.101,-0.067 -0.101,0.067 v 0 m -7.597,23.06 0.139,0.026 -0.139,-0.026 v 0 m -9.93,-10.416 0.207,-0.189 -0.207,0.189 v 0 m 5.772,-18.018 -0.069,0.094 0.069,-0.094 v 0 m 16.703,-7.213 0.004,0.102 -0.004,-0.102 v 0 m 20.726,18.874 0.008,-0.156 -0.008,0.158 v -0.002 m -20.359,-21.596 -0.064,0.006 0.064,-0.006 v 0 m 10.661,21.182 0.124,-0.078 -0.124,0.078 v 0 m -2.726,-10.239 -0.081,0.047 0.081,-0.047 v 0 m -14.894,-1.7 -0.132,0.118 0.132,-0.116 v -0.002 m 25.379,7.778 v 0 l -0.119,0.037 0.119,-0.037 m -11.479,-11.554 -0.067,-0.07 0.067,0.07 v 0 m -20.576,-2.177 -0.123,0.125 0.123,-0.125 v 0 m -3.279,6.575 -0.097,0.124 0.101,-0.125 -0.004,0.001 m -4.043,22.965 0.104,0.017 -0.104,-0.019 v 0.002 m 2.336,-21.204 -0.09,0.085 0.09,-0.087 v 0.002 m 31.805,5.796 h -0.002 l -0.029,0.12 0.031,-0.12 m -18.882,-17.146 -0.073,0.013 0.073,-0.013 v 0 m -1.529,9.109 0.176,0.041 -0.176,-0.041 v 0 m -11.019,1.634 -0.046,0.09 0.046,-0.09 v 0 m 3.73,29.596 0.07,0.131 -0.07,-0.131 v 0 m -8.091,-12.868 0.082,-0.044 -0.084,0.045 0.002,-0.001 m 7.873,-20.926 0.106,0.004 -0.104,-0.005 -0.002,0.001 m 7.781,3.258 -0.129,-0.022 0.127,0.022 h 0.002 m -11.783,1.503 v 0 l 0.144,-0.141 -0.144,0.141 m 3.484,17.309 0.139,-0.083 -0.138,0.081 -10e-4,0.002 m 1.961,-25.819 -0.014,-0.036 0.014,0.036 v 0 m 10.17,45.894 0.183,-0.016 -0.183,0.016 v 0 m 30.792,-13.297 0.049,-0.219 -0.049,0.219 v 0 m -52.523,-15.76 -0.02,0.142 0.02,-0.142 v 0 m 24.504,-17.486 0.098,0.053 -0.098,-0.053 v 0 m -2.49,12.191 -0.004,-0.171 0.004,0.171 v 0 m -6.588,-2.839 -0.037,0.11 0.039,-0.108 -0.002,-0.002 m 29.011,8.794 -0.044,0.088 0.044,-0.088 v 0 m -11.687,-8.135 0.021,0.116 -0.021,-0.116 v 0 m -25.462,22.141 -0.021,-0.176 0.021,0.178 v -0.002 m 29.284,-11.396 0.104,-0.007 -0.104,0.007 v 0 m 6.866,-6.317 v 0 l -0.064,0.078 0.064,-0.078 m -29.302,-15.065 -0.085,0.043 0.085,-0.043 v 0 m -10.128,26.653 0.041,0.1 -0.041,-0.1 v 0 m 15.479,-19.624 0.148,-0.137 -0.146,0.137 h -0.002 m -7.28,29.828 0.156,0.011 -0.156,-0.011 v 0 M 355.59,203.52 v 0 l -0.027,-0.11 0.027,0.11 m 23.824,15.694 -0.003,-0.094 0.003,0.094 v 0 m -47.74,-10.145 -0.043,0.099 0.043,-0.099 v 0 m 32.885,3.372 -0.141,-0.08 0.141,0.08 v 0 m -5.172,-6.043 0.027,-0.203 -0.027,0.203 v 0 m -14.716,2.931 -0.067,0.153 0.067,-0.151 v -0.002 m -12.783,30.98 0.075,-0.011 -0.075,0.011 v 0 m -1.831,-10.58 v 0 l 0.079,-0.095 -0.079,0.095 m 9.73,-31.986 0.056,-0.037 -0.058,0.04 0.002,-0.003 m 2.558,8.755 v 0 l -0.064,0.101 0.064,-0.101 m 1.171,1.476 -0.07,-0.11 0.068,0.11 h 0.002 m 0.435,-2.151 -0.162,-0.107 0.159,0.107 h 0.003 m -11.761,2.167 0.018,0.093 -0.018,-0.093 v 0 m -6.508,13.4 0.025,-0.133 -0.025,0.133 v 0 m 19.931,-25.593 -0.078,0.018 0.078,-0.018 v 0 m -2.279,24.2 0.244,-0.127 -0.244,0.127 v 0 m 7.881,-8.041 0.154,-0.053 -0.152,0.052 -0.002,10e-4 m -3.342,31.958 0.041,-0.092 -0.041,0.092 v 0 m -1.928,-23.534 v 0 l -0.084,0.082 0.084,-0.082 m -7.471,1.571 0.116,0.015 -0.116,-0.015 v 0 m -12.427,-1.054 0.024,0.098 -0.024,-0.098 v 0 m 15.201,-23.734 -0.219,0.079 0.217,-0.079 h 0.002 m 26.467,19.489 0.104,0.051 -0.104,-0.051 v 0 m -22.523,26.707 0.081,-0.072 -0.081,0.072 v 0 m 14.996,-28.495 0.113,0.038 -0.117,-0.042 0.004,0.004 m 3.304,3.847 0.088,0.067 -0.088,-0.067 v 0 m 10e-4,-8.828 -0.211,-0.094 0.211,0.094 v 0 m -14.813,-0.664 0.032,0.101 -0.032,-0.101 v 0 m -2.393,-2.79 v 0 l 0.078,-0.078 -0.078,0.078 m -4.718,-7.552 -0.063,0.064 0.063,-0.063 v -10e-4 m -5.633,32.992 -0.135,-0.088 0.135,0.088 v 0 m 38.835,-14.142 0.021,-0.088 -0.021,0.088 v 0 m -1.944,24.511 -10e-4,0.053 0.004,-0.058 -0.003,0.005 m -3.122,-20.261 -0.041,0.111 0.041,-0.111 v 0 m -20.291,-7.478 0.07,-0.094 -0.07,0.094 v 0 m 14.299,-1.328 h 0.102 -0.102 v 0 m -27.137,-10.294 -0.004,-0.001 -0.058,-0.037 0.062,0.038 m 16.555,3.553 -0.023,-0.102 0.021,0.103 0.002,-0.001 m 14.163,11.83 0.059,-0.099 -0.061,0.097 0.002,0.002 m -22.102,24.989 -0.069,0.088 0.069,-0.088 v 0 m -1.303,-31.213 0.105,0.174 -0.105,-0.174 v 0 m 0.1,-6.965 0.161,-0.11 -0.163,0.108 0.002,0.002 m 1.232,38.065 0.112,0.006 -0.112,-0.006 v 0 m -4.922,-29.126 v 0 l 0.197,-0.095 -0.197,0.095 m 4.229,-5.288 -0.192,0.034 0.193,-0.031 -10e-4,-0.003 m 0.831,-4.1 -0.045,-0.107 0.045,0.109 v -0.002 m -11.802,1.72 h -0.002 l -0.021,0.094 0.023,-0.094 m 10.839,-2.4 -0.09,-0.036 0.09,0.036 v 0 m -11.906,26.575 0.117,0.09 -0.117,-0.092 v 0.002 m 18.779,-33.143 -0.157,-0.004 0.157,0.006 v -0.002 m 12.178,15.343 0.085,0.081 -0.085,-0.081 v 0 m 7.762,3.485 -0.016,0.154 0.018,-0.153 -0.002,-0.001 m -7.377,-3.143 0.053,0.14 -0.051,-0.14 h -0.002 m -15.344,-4.318 -0.129,0.07 0.129,-0.07 v 0 m -0.9,-2.459 -0.104,-0.063 0.104,0.064 v -10e-4 m -3.092,-1.279 -0.157,-0.056 0.154,0.056 h 0.003 m -3.447,1.658 0.033,0.077 -0.033,-0.077 v 0 m 17.232,-6.169 0.082,-0.059 -0.082,0.059 v 0 m 4.907,14.055 0.065,-0.094 -0.068,0.091 0.003,0.003 m 8.688,3.752 -0.075,-0.086 0.075,0.086 v 0 m -26.344,-12.665 0.141,-0.107 -0.144,0.103 0.003,0.004 m 5.065,6.658 0.147,0.227 -0.147,-0.227 v 0 m -6.154,-7.362 -0.055,-0.069 0.055,0.069 v 0 m -3.806,9.173 -0.127,0.07 0.126,-0.068 10e-4,-0.002 m 1.732,-14.03 0.031,0.046 -0.031,-0.046 v 0 m 6.141,10.609 0.146,0.008 -0.146,-0.008 v 0 m -14.539,-4.472 -0.096,0.003 0.096,-0.003 v 0 m 10.613,2.693 -0.07,0.126 0.072,-0.125 -0.002,-0.001 m 16.497,2.862 v 0 l -0.08,-0.094 0.08,0.094 m -27.132,15.637 -0.035,0.103 0.035,-0.104 v 10e-4 m 10.966,-21.835 0.092,-0.07 -0.093,0.069 0.001,0.001 m 5.019,-0.591 -0.095,-0.14 0.091,0.142 0.004,-0.002 m -1.445,4.331 0.081,-0.076 -0.081,0.076 v 0 m 2.296,-4.708 -0.096,-0.09 0.096,0.09 v 0 m -0.076,0.05 -0.075,-0.075 0.071,0.074 0.004,0.001"
         id="polygon0_1_"
         style="fill:#ffffff" />
    </g>
  </g>
</svg>
