<svg xmlns="http://www.w3.org/2000/svg" viewBox="0 0 71.5 54.8"><title>icon_staff</title><g id="Layer_2" data-name="Layer 2"><g id="icons"><path d="M71.4,28.8c-.4-10.6-.3-17.7-5.1-21.9s-9.5-3-9.5-3-12.6-9.8-23,1.7c-6.8,7.5-2,19.3-6.1,30-2.1,5.4,4.2,6.2,4.2,6.2s2.1,6.3,6.9,5.1c3.4,4.5,7.6,7.7,12,7.7s9.7-4.1,13.3-9.5c1.9-.5,3.9-3.9,3.9-3.9C69.5,40,72,41,71.4,28.8ZM50.8,52.6c-8.2,0-16-13.7-17-23.3,7.2-1.8,20.2-4.2,24-17.6A17.1,17.1,0,0,1,67.9,27.3C67.9,36.8,59.6,52.6,50.8,52.6Z" fill="#fff"/><path d="M31.2,46.5c-2.6,3.3-5.7,5.6-9.2,5.6-7,0-12.3-8.8-14.9-17L6.7,34l-1.1.4H5.5c-1.1.2-2.6-1.4-3.2-3.9s.3-4.6,1.3-4.9H5.2l2.1,1.9a17.8,17.8,0,0,0,.6-8c5.5,1,14-.8,19.4-3.1.3-4.1,1.1-8.1,3.7-11.5A15,15,0,0,0,25.2,1C19.6-1.3,8.6,0,4.7,8.6A22.3,22.3,0,0,0,3,23.1v.4C.7,24.2-.5,27.4.2,30.9S3,36.6,5.3,36.6c3,8.7,8.8,17.7,16.7,17.7,4.2,0,7.8-2.5,10.7-6.2A10.6,10.6,0,0,1,31.2,46.5Z" fill="#fff"/></g></g></svg>