<svg xmlns="http://www.w3.org/2000/svg" viewBox="0 0 50.4 68.3"><title>icon_contract</title><g id="Layer_2" data-name="Layer 2"><g id="icons"><rect x="8.4" y="21.7" width="14.6" height="2.83" rx="1.4" ry="1.4" fill="#fff"/><rect x="8.4" y="15.7" width="14.6" height="2.83" rx="1.4" ry="1.4" fill="#fff"/><path d="M47.7,10h0A1.9,1.9,0,0,0,47,7.3l-1-.5a1.9,1.9,0,0,0-2.6.8h0a3,3,0,0,0-3.1,1.5l-10.1,19a3,3,0,0,0,1.3,4.1L34,33.7a3,3,0,0,0,4.1-1.3l10.1-19A3,3,0,0,0,47.7,10Z" fill="#fff"/><path d="M30.5,34A4.9,4.9,0,0,1,29,32.8L21.6,46.7a7,7,0,0,0-.8,2.3l-.7,5.2a1.3,1.3,0,0,0,2.1,1.1l3.9-3.5a7,7,0,0,0,1.5-1.9L35,36a4.9,4.9,0,0,1-1.9-.6Z" fill="#fff"/><path d="M19.6,56.2l-.4.7a.7.7,0,0,0,1.3.7l.4-.7-.7-.2Z" fill="#fff"/><path d="M50.1,13.3a.5.5,0,0,0-.7.2L38.8,33.4a.5.5,0,0,0,.9.5L50.3,14A.5.5,0,0,0,50.1,13.3Z" fill="#fff"/><path d="M46.1,26.6V62.3A2.1,2.1,0,0,1,44,64.3H6.1A2.1,2.1,0,0,1,4,62.3V6.1A2.1,2.1,0,0,1,6.1,4H44a2,2,0,0,1,1.1.3h.3a3.9,3.9,0,0,1,1.8.5l1,.5a3.9,3.9,0,0,1,1.9,2.2V6.1A6.1,6.1,0,0,0,44,0H6.1A6.1,6.1,0,0,0,0,6.1V62.3a6.1,6.1,0,0,0,6.1,6.1H44a6.1,6.1,0,0,0,6.1-6.1V19Z" fill="#fff"/><path d="M28.2,30.2a5,5,0,0,1,.2-2.6H9.8a1.4,1.4,0,1,0,0,2.8H28Z" fill="#fff"/><path d="M26.4,33.7H9.8a1.4,1.4,0,1,0,0,2.8H24.9Z" fill="#fff"/><path d="M39.6,35.9a2.5,2.5,0,0,1-1.2-.3l-.5-.3h-.1l-.6,1.1h3.1a1.4,1.4,0,0,0,1.4-1.4,1.4,1.4,0,0,0,0-.3A2.5,2.5,0,0,1,39.6,35.9Z" fill="#fff"/><path d="M23.2,39.7H9.8a1.4,1.4,0,1,0,0,2.8H21.7Z" fill="#fff"/><path d="M40.3,39.7H35.5L34,42.5h6.3a1.4,1.4,0,1,0,0-2.8Z" fill="#fff"/><path d="M19.2,48.4a9,9,0,0,1,.9-2.8H9.8a1.4,1.4,0,1,0,0,2.8h9.4Z" fill="#fff"/><path d="M40.3,45.7h-8l-1.5,2.8h9.5a1.4,1.4,0,1,0,0-2.8Z" fill="#fff"/><path d="M17.5,57.1H10.9a.4.4,0,1,0,0,.9h6.8A2.7,2.7,0,0,1,17.5,57.1Z" fill="#fff"/></g></g></svg>