<svg xmlns="http://www.w3.org/2000/svg" viewBox="0 0 71.5 54.8"><title>icon_staff_fire</title><g id="Layer_2" data-name="Layer 2"><g id="icons"><path d="M71.4,28.8c-.4-10.6-.3-17.7-5.1-21.9s-9.5-3-9.5-3-12.6-9.8-23,1.7a13.2,13.2,0,0,0-2,3,20,20,0,0,1,22,10.9,20.7,20.7,0,0,0,4-7.8A17.1,17.1,0,0,1,67.9,27.3c0,9.5-8.3,25.3-17.1,25.3-3.2,0-6.4-2.1-9.1-5.2l-2.3.6c3.2,4.1,7.2,6.9,11.4,6.9s9.7-4.1,13.3-9.5c1.9-.5,3.9-3.9,3.9-3.9C69.5,40,72,41,71.4,28.8Z" fill="#fff"/><path d="M30.4,47.5c-2.4,2.7-5.2,4.6-8.4,4.6-7,0-12.3-8.8-14.9-17L6.7,34l-1.1.4H5.5c-1.1.2-2.6-1.4-3.2-3.9s.3-4.6,1.3-4.9H5.2l2.1,1.9a17.8,17.8,0,0,0,.6-8A29.2,29.2,0,0,0,18,19.2,20.1,20.1,0,0,1,28.4,9.7a16.6,16.6,0,0,1,2.5-4.7A15,15,0,0,0,25.2,1C19.6-1.3,8.6,0,4.7,8.6A22.3,22.3,0,0,0,3,23.1v.4C.7,24.2-.5,27.4.2,30.9S3,36.6,5.3,36.6c3,8.7,8.8,17.7,16.7,17.7,4.2,0,7.8-2.5,10.7-6.2h-.1Z" fill="#fff"/><path d="M35.8,12.1A16.1,16.1,0,1,0,51.9,28.3,16.1,16.1,0,0,0,35.8,12.1ZM44,31.8a2.8,2.8,0,0,1,0,3.9l-.7.7a2.8,2.8,0,0,1-3.9,0l-3.6-3.6-3.6,3.6a2.8,2.8,0,0,1-3.9,0l-.7-.7a2.8,2.8,0,0,1,0-3.9l3.6-3.6-3.6-3.6a2.8,2.8,0,0,1,0-3.9l.7-.7a2.8,2.8,0,0,1,3.9,0l3.6,3.6L39.3,20a2.8,2.8,0,0,1,3.9,0l.7.7a2.8,2.8,0,0,1,0,3.9l-3.6,3.6Z" fill="#fff"/></g></g></svg>