<svg xmlns="http://www.w3.org/2000/svg" viewBox="0 0 69.9 72.6"><title>icon_publishingdeal</title><g id="Layer_2" data-name="Layer 2"><g id="icons"><path d="M6,1.5H6A1.9,1.9,0,0,0,3.7.1L2.6.4A1.9,1.9,0,0,0,1.3,2.7h0A3,3,0,0,0,.1,6.1L6,26.8a3,3,0,0,0,3.7,2.1l2.9-.8a3,3,0,0,0,2.1-3.7L8.8,3.6A3,3,0,0,0,6,1.5Z" fill="#fff"/><path d="M10.3,30.7a4.9,4.9,0,0,1-2,.1L12.6,46a7,7,0,0,0,1.1,2.2l3.1,4.3a1.3,1.3,0,0,0,2.3-.6l.4-5.3a7,7,0,0,0-.2-2.4L14.9,29a4.9,4.9,0,0,1-1.8.9Z" fill="#fff"/><path d="M17.8,54.3l.2.8a.7.7,0,0,0,1.4-.4l-.2-.8-.7.3Z" fill="#fff"/><path d="M10.1,2.2a.5.5,0,0,0-.4.7l6.2,21.6a.5.5,0,0,0,1-.3L10.7,2.6A.5.5,0,0,0,10.1,2.2Z" fill="#fff"/><path d="M68.8,31.6H67.1l-1.2,2h1.3L45,70.6H8.7l.6-1H6.9l-.8,1.3a1.1,1.1,0,0,0,1,1.7H45.5a1.1,1.1,0,0,0,1-.5L69.8,33.3A1.1,1.1,0,0,0,68.8,31.6Z" fill="#fff"/><path d="M65.8,27.6H63.5l-1.2,2h1.9L42,66.6H5.7l1.2-2H4.5L3.2,66.9a1.1,1.1,0,0,0,1,1.7H42.5a1.1,1.1,0,0,0,1-.5L66.8,29.3A1.1,1.1,0,0,0,65.8,27.6Z" fill="#fff"/><path d="M47.3,32.3a5,5,0,0,0-3.4,1.5l-5.3,1.3a1.7,1.7,0,0,0-.9-.7l2.4-4.1a4.3,4.3,0,0,0,2.2-1.6c.6-1,0-1.8-1.4-1.8a4.8,4.8,0,0,0-3.7,1.9,1,1,0,0,0,.3,1.6L35,34.6a7.6,7.6,0,0,0-2.1.9l-3.8-.7c.1-.8-.5-1.3-1.7-1.3a4.8,4.8,0,0,0-3.7,1.9c-.6,1,0,1.8,1.4,1.8a4.9,4.9,0,0,0,2.1-.6l3.8.7a1.5,1.5,0,0,0-.1,1.2l-5.1,3.5h0A4.8,4.8,0,0,0,22.3,44c-.6,1,0,1.8,1.4,1.8a4.8,4.8,0,0,0,3.7-1.9,1.4,1.4,0,0,0,.2-.8l5.1-3.5H34l.9,3.4a3.2,3.2,0,0,0-.8.8c-.6,1,0,1.8,1.4,1.8a4.8,4.8,0,0,0,3.7-1.9c.6-1,0-1.8-1.4-1.8h0l-.9-3.4A5.1,5.1,0,0,0,38.4,37l5.3-1.3a2,2,0,0,0,1.3.4,4.8,4.8,0,0,0,3.7-1.9C49.4,33.1,48.7,32.3,47.3,32.3Z" fill="#fff"/><path d="M62.8,21.6H24.4a1.1,1.1,0,0,0-1,.5l-5,8.4,1.1,3.9,5.9-9.9h34l-21.1,35H4.4l6.3-10.4a10,10,0,0,1-1-2.3l-.4-1.3L.2,60.9a1.1,1.1,0,0,0,1,1.7H39.5a1.1,1.1,0,0,0,1-.5L63.8,23.3A1.1,1.1,0,0,0,62.8,21.6Z" fill="#fff"/><path d="M17.2,54.9H13.1a.7.7,0,0,0-.6.5c-.1.3,0,.5.3.5h4.8A2.2,2.2,0,0,1,17.2,54.9Z" fill="#fff"/></g></g></svg>