<svg xmlns="http://www.w3.org/2000/svg" viewBox="0 0 51.3 59.6"><title>icon_marketing</title><g id="Layer_2" data-name="Layer 2"><g id="icons"><rect y="39.4" width="9.7" height="20.19" rx="1.8" ry="1.8" fill="#fff"/><rect x="13.9" y="32.3" width="9.7" height="27.37" rx="1.8" ry="1.8" fill="#fff"/><rect x="27.7" y="36.1" width="9.7" height="23.54" rx="1.8" ry="1.8" fill="#fff"/><rect x="41.6" y="24.1" width="9.7" height="35.58" rx="1.8" ry="1.8" fill="#fff"/><path d="M46.5,0a3.1,3.1,0,0,0-2.3,5.2L33.5,24.6H33a3.1,3.1,0,0,0-1.6.5l-9-7.2a3.1,3.1,0,0,0,.2-1,3.1,3.1,0,0,0-6.2,0,3.1,3.1,0,0,0,.3,1.4L6.4,28.8a3.2,3.2,0,0,0-1.5-.4,3.2,3.2,0,1,0,3,2L18.2,19.7l1.3.3a3.1,3.1,0,0,0,1.6-.5l9,7.2a3.1,3.1,0,0,0-.2,1,3.1,3.1,0,1,0,5.5-2L46.1,6.2h.5a3.1,3.1,0,1,0,0-6.2Z" fill="#fff"/></g></g></svg>