<svg xmlns="http://www.w3.org/2000/svg" viewBox="0 0 83.2 84.9"><title>icon_engine</title><g id="Layer_2" data-name="Layer 2"><g id="icons"><path d="M83.1,20.1v-.6l-.2-.2H82L42.4.2a2,2,0,0,0-1.7,0L1.1,18.8H.6l-.2.2v.6a2,2,0,0,0-.1.5V64.3a2,2,0,0,0,1.1,1.8L40.7,84.7h1.7L82,66.1a2,2,0,0,0,1.1-1.8V20.6A2,2,0,0,0,83.1,20.1ZM39.6,67.9,27.7,62.2V48.3L15.6,42.6V29.2l24,11.3Zm2-30.9L6.7,20.6,41.6,4.2,76.5,20.6,49.3,33.3Zm37,1.1V63.3l-11,5.2L56.7,73.7h-.1L45.8,78.9V66.3l10.9-5.2V48.5l11-5.2V30.6l11-5.2Z" fill="#fff"/></g></g></svg>