<svg xmlns="http://www.w3.org/2000/svg" viewBox="0 0 48 48"><title>icon_boost</title><g id="Layer_2" data-name="Layer 2"><g id="Layer_1-2" data-name="Layer 1"><path d="M40.8,19.7,26,33.5v8.2L20.3,46l-2.7-7-3.9,1.2-6-6L9,30.8c-.2-.3-.3-.7-.5-.8L2,27.7,6.3,22h7.8c4.9-5.1,9.6-9.9,14.2-14.8S46,0,48,0C48,2,44.6,16.2,40.8,19.7ZM34,10a4.1,4.1,0,0,0-4,3.9A4.1,4.1,0,0,0,33.8,18,4,4,0,0,0,38,13.9,4.1,4.1,0,0,0,34,10Z" fill="#fff"/><path d="M0,48c.4-2.2,2.4-11,5.8-14,.4,2.2-2.4,8.9-2.6,10.8a79.2,79.2,0,0,0,11-3.2C10.8,45.8,2,48,0,48Z" fill="#fff"/></g></g></svg>