<svg xmlns="http://www.w3.org/2000/svg" viewBox="0 0 55.7 86.4"><title>icon_expansion_pack</title><g id="Layer_2" data-name="Layer 2"><g id="icons"><path d="M54.7,5.2c.6-.3,1-.1,1,.6v7.9a2.1,2.1,0,0,1-1,1.8L48.1,19v7.9a2.1,2.1,0,0,1-1,1.7l-6.7,3.5c-.6.3-1,0-1-.7V23.6l-6.7,3.5c-.5.3-1,0-1-.7V18.4a2.1,2.1,0,0,1,1-1.7l6.7-3.5V5.3a2.1,2.1,0,0,1,1-1.7L47.1.1c.6-.3,1,.1,1,.6V8.7Z" fill="#fff"/><path d="M42.3,35.7a4.9,4.9,0,0,1-2.3.6,4.5,4.5,0,0,1-3.7-1.9,5,5,0,0,1-.9-3V30.2l-.8.4a4.8,4.8,0,0,1-2.2.6,4.5,4.5,0,0,1-3.6-1.7,4.9,4.9,0,0,1-1-3.1V18.4a5.8,5.8,0,0,1,.4-2.2L14.3,23.5,3.5,18.1,31.1,3.6l4.2,2.1V5.3a5.7,5.7,0,0,1,.3-1.7l-4.3-2a1,1,0,0,0-.8.1L.5,17.4H.3v.2h0V18H0v61a1,1,0,0,0,.7.9L14,86.4h.8L44.9,70.5a1,1,0,0,0,.5-.9V34ZM13.4,84,2,78.4V19.7l11.4,5.6ZM42,52.3a5.4,5.4,0,0,1-2.6,4.3L19.6,67.2c-1.4.8-2.6.1-2.6-1.5V61.7a5.4,5.4,0,0,1,2.6-4.3l1.5-.8v-.7a1.8,1.8,0,0,1,.9-1.4l3.5-1.9c.5-.3.9,0,.9.5v.7l1.5-.8V45c-1.7.2-3-1.1-3-3.3a9.7,9.7,0,0,1,4.7-7.8c2.6-1.4,4.7-.2,4.7,2.8a9.8,9.8,0,0,1-3.1,6.6v8l1.3-.7v-.7a1.8,1.8,0,0,1,.9-1.4l3.5-1.9c.5-.3.9,0,.9.5v.7l1.7-.9c1.4-.8,2.6-.1,2.6,1.5Z" fill="#fff"/></g></g></svg>