<svg xmlns="http://www.w3.org/2000/svg" viewBox="0 0 67 73.3"><title>icon_vacation</title><g id="Layer_2" data-name="Layer 2"><g id="icons"><path d="M50.6,41.6,48,42.8a53.9,53.9,0,0,0-5.3,11,57.6,57.6,0,0,1,1,17.3v.8l-.2.4c1.3,0,2.6-.8,2.6-1.6C44.1,59.1,44.8,50.9,50.6,41.6Z" fill="#fff"/><path d="M25.3,28.2l3.9,1.8c7.6,11.7,12.9,25.6,11.5,40.8-1.6,4.1-8.4,2.4-8.2.1C35.2,53.9,34.1,41.8,25.3,28.2Z" fill="#fff"/><path d="M27,15.7l1.1-.2c7.1-.7,17.3,4.4,17.3,4.4S38.1,2.9,25.4,7.1a12.2,12.2,0,0,0-4,2.2C25,4.5,33.2.7,33.2.7s-16.3-4-19.8,6.7A11,11,0,0,0,13,8.7h-.1c-5.5-6.1-7.6-2.7-9.3-1s-4.8,4.5,2.9,6.6l1.6.5H7.7c-7.6,1-7.7,10-7.7,10a46.2,46.2,0,0,1,7.2-5.6,12.1,12.1,0,0,0-1.9,2c-7.5,9.9,6.8,20.5,6.8,20.5s-2.1-10.1.5-16.1a14.2,14.2,0,0,1,3.3-4.3A12.7,12.7,0,0,0,20.1,23c3.5.9,11.4,4.7,11.4,4.7a14.8,14.8,0,0,0-3.8-11.4Z" fill="#fff"/><path d="M62.3,35.5A30.3,30.3,0,0,1,67,39.3s-.1-6.1-5-6.8h-.3l1.1-.4c5-1.4,2.5-3.8,1.9-4.5s-2.4-3.5-6,.7h-.1l-.2-.9c-2.3-7.3-12.9-4.6-12.9-4.6s5.3,2.5,7.6,5.8a7.9,7.9,0,0,0-2.6-1.5C42.3,24.4,37.6,36,37.6,36s6.6-3.5,11.2-3h.7l-.4.5a10.4,10.4,0,0,0-2.5,7.7A64.8,64.8,0,0,1,54,38.1a8.1,8.1,0,0,0,2.7-1.2,9.6,9.6,0,0,1,2.2,2.9c1.7,4.1.3,10.9.3,10.9s9.3-7.2,4.4-13.9A8.1,8.1,0,0,0,62.3,35.5Z" fill="#fff"/></g></g></svg>