<svg xmlns="http://www.w3.org/2000/svg" viewBox="0 0 62.2 84.1"><title>icon_game_report</title><g id="Layer_2" data-name="Layer 2"><g id="icons"><path d="M38.3,52.9a9.6,9.6,0,0,0,3.9-1l1.6-1V35.6a9.7,9.7,0,0,0-5.9-2,9.6,9.6,0,0,0-4.3,1l-.7.4A9.8,9.8,0,0,1,30,40.2v7.7l1.3-.7v-.7a1.7,1.7,0,0,1,.8-1.4l3.4-1.8c.5-.2.8,0,.8.5v.7l1.6-.9c1.4-.7,2.5-.1,2.5,1.5V49A5.3,5.3,0,0,1,38.3,52.9Z" fill="#fff"/><path d="M39.2,67.5H37.9a24.3,24.3,0,0,1-15.8-5.9l-3.2,1.7c-1.4.7-2.5.1-2.5-1.5V58.1a4.8,4.8,0,0,1,.8-2.4L16.2,54a24.3,24.3,0,0,1,11-32.5A24,24,0,0,1,37.9,19a24.6,24.6,0,0,1,5.9.7V7.1h0V6.8h-.6L30.3.1a1,1,0,0,0-.8.1L.5,15.3H.1v.2H0V74.8a1,1,0,0,0,.6.9l12.9,6.1h.8L39.7,68.5ZM12.9,79.6l-11-5.4V17.5l11,5.4ZM3.4,16,30,2,40.5,7.3l-26.7,14Z" fill="#fff"/><path d="M61.9,77.4,51.4,58.1A20.1,20.1,0,1,0,41.5,63L51.9,82.3a3.2,3.2,0,0,0,4.3,1.4l4.2-2.1A3.2,3.2,0,0,0,61.9,77.4Zm-36.4-28a13.9,13.9,0,1,1,18.6,6.3A13.9,13.9,0,0,1,25.5,49.4Z" fill="#fff"/></g></g></svg>