<svg xmlns="http://www.w3.org/2000/svg" viewBox="0 0 57.4 57.4"><title>icon_patch</title><g id="Layer_2" data-name="Layer 2"><g id="icons"><path d="M8.1,31.9,1.4,38.6a4.9,4.9,0,0,0,0,6.9L11.9,55.9a4.9,4.9,0,0,0,6.9,0l6.7-6.7Z" fill="#fff"/><path d="M38.6,1.4,31.9,8.1,49.3,25.5l6.7-6.7a4.9,4.9,0,0,0,0-6.9L45.5,1.4A4.9,4.9,0,0,0,38.6,1.4Z" fill="#fff"/><path d="M11.9,1.4,1.4,11.9a4.9,4.9,0,0,0,0,6.9L38.6,55.9a4.9,4.9,0,0,0,6.9,0L55.9,45.5a4.9,4.9,0,0,0,0-6.9L18.8,1.4A4.9,4.9,0,0,0,11.9,1.4ZM30.4,40.6a2.4,2.4,0,1,1,0-3.4A2.4,2.4,0,0,1,30.4,40.6Zm-5.1-5.1a2.4,2.4,0,1,1,0-3.4A2.4,2.4,0,0,1,25.2,35.5Zm-5.1-5.1a2.4,2.4,0,1,1,0-3.4A2.4,2.4,0,0,1,20.1,30.4Zm15.4,5.1a2.4,2.4,0,1,1,0-3.4A2.4,2.4,0,0,1,35.5,35.5Zm-5.1-5.1a2.4,2.4,0,1,1,0-3.4A2.4,2.4,0,0,1,30.4,30.4Zm-5.1-5.1a2.4,2.4,0,1,1,0-3.4A2.4,2.4,0,0,1,25.2,25.2Zm15.4,5.1a2.4,2.4,0,1,1,0-3.4A2.4,2.4,0,0,1,40.6,30.4Zm-5.1-5.1a2.4,2.4,0,1,1,0-3.4A2.4,2.4,0,0,1,35.5,25.2Zm-5.1-5.1a2.4,2.4,0,1,1,0-3.4A2.4,2.4,0,0,1,30.4,20.1Z" fill="#fff"/></g></g></svg>