<svg xmlns="http://www.w3.org/2000/svg" viewBox="0 0 45.4 84.9"><title>icon_new_game</title><g id="Layer_2" data-name="Layer 2"><g id="icons"><path d="M45.4,7.3h0V7h-.6L31.4.1a1,1,0,0,0-.8.1L.5,15.9H.3v.2h0v.2H0v61a1,1,0,0,0,.7.9L14,84.9h.8L44.9,69a1,1,0,0,0,.5-.9V7.4ZM13.4,82.5,2,76.9V18.2l11.4,5.6ZM14.3,22,3.5,16.6,31.1,2.1,41.9,7.5ZM42,50.8a5.4,5.4,0,0,1-2.6,4.3L19.6,65.7c-1.4.8-2.6.1-2.6-1.5V60.2a5.4,5.4,0,0,1,2.6-4.3l1.5-.8v-.7a1.8,1.8,0,0,1,.9-1.4L25.5,51c.5-.3.9,0,.9.5v.7l1.5-.8v-8c-1.7.2-3-1.1-3-3.3a9.7,9.7,0,0,1,4.7-7.8c2.6-1.4,4.7-.2,4.7,2.8a9.8,9.8,0,0,1-3.1,6.6v8l1.3-.7v-.7a1.8,1.8,0,0,1,.9-1.4L36.8,45c.5-.3.9,0,.9.5v.7l1.7-.9c1.4-.8,2.6-.1,2.6,1.5Z" fill="#fff"/></g></g></svg>