<svg xmlns="http://www.w3.org/2000/svg" viewBox="0 0 52.7 93.2"><title>icon_game_history</title><g id="Layer_2" data-name="Layer 2"><g id="icons"><path d="M45.9,35.5a10.3,10.3,0,0,0-4.5-6.1c-5.3-3-11.5-2.4-15.8-1.3a37.6,37.6,0,0,0-5.2,1.7V34A8.2,8.2,0,0,1,17.5,40V90.8L6.1,84.1V35.3l-2-1.8V84.8a1,1,0,0,0,.7.9l13.4,7.4H19L49,77.3a1,1,0,0,0,.5-.9V38.5A3.9,3.9,0,0,1,45.9,35.5ZM46.2,59a5.4,5.4,0,0,1-2.6,4.3L23.7,74c-1.4.8-2.6.1-2.6-1.5V68.5a5.4,5.4,0,0,1,2.6-4.3l1.5-.8v-.7a1.8,1.8,0,0,1,.9-1.4l3.5-1.9c.5-.3.9,0,.9.5v.7l1.5-.8v-8c-1.7.2-3-1.1-3-3.3a9.7,9.7,0,0,1,4.7-7.8c2.6-1.4,4.7-.2,4.7,2.8A9.8,9.8,0,0,1,35.3,50v8l1.3-.7v-.7a1.8,1.8,0,0,1,.9-1.4L41,53.2c.5-.3.9,0,.9.5v.7l1.7-.9c1.4-.8,2.6-.1,2.6,1.5Z" fill="#fff"/><path d="M16.9,7.1V1.6c0-1.8-1.9-2.2-3-.7L.5,19.9a2.2,2.2,0,0,0,0,2.8L13.9,35c1.1,1,3-.4,3-2.2V26.9a2.6,2.6,0,0,1,1.4-2.3c4-1.9,15.7-6.4,25.1-1a13.3,13.3,0,0,1,5.8,7.8c.6,1.9,3.1.9,3.3-1.2.7-6.5.1-14.2-5.1-18.5C38.2,4,23.6,7.2,18.6,8.6,17.6,8.9,16.9,8.2,16.9,7.1Z" fill="#fff"/></g></g></svg>