<svg xmlns="http://www.w3.org/2000/svg" viewBox="0 0 45.4 84.9"><title>icon_sequel</title><g id="Layer_2" data-name="Layer 2"><g id="icons"><path d="M45.4,7.3h0V7h-.6L31.4.1a1,1,0,0,0-.8.1L.5,15.9H.3v.2h0v.2H0v61a1,1,0,0,0,.7.9L14,84.9h.8L44.9,69a1,1,0,0,0,.5-.9V7.4ZM13.4,82.5,2,76.9V18.2l11.4,5.6Zm27-46a4.3,4.3,0,0,1-2.1,3.4L22.8,48.2c-1.1.6-2.1.1-2.1-1.2V43.9a4.3,4.3,0,0,1,2.1-3.4l1.2-.6v-.6a1.4,1.4,0,0,1,.7-1.1l2.7-1.5c.4-.2.7,0,.7.4v.6l1.2-.6V30.8c-1.4.1-2.3-.8-2.3-2.6a7.6,7.6,0,0,1,3.7-6.1c2-1.1,3.7-.1,3.7,2.2a7.6,7.6,0,0,1-2.4,5.2v6.2l1-.5v-.6a1.4,1.4,0,0,1,.7-1.1L36.3,32c.4-.2.7,0,.7.4V33l1.3-.7c1.1-.6,2.1-.1,2.1,1.2ZM29.8,54.7a13.6,13.6,0,0,0-3.6,3.4c-.2.3-.5.2-.5,0L23.9,55c-.1-.2,0-.4.3-.7A23.9,23.9,0,0,1,31.1,48c4.4-2.4,7.1-1.3,7.1,2.8s-1.6,8-5.1,13.7l5.4-2.9c.3-.1.5-.1.5.2v5.1a.9.9,0,0,1-.5.7L24,75.2c-.3.2-.5.1-.5-.2V71.3a2.3,2.3,0,0,1,.3-1c4.9-7.9,7.5-13.1,7.5-15.2S30.7,54.2,29.8,54.7ZM14.3,22,3.5,16.6,31.1,2.1,41.9,7.5Z" fill="#fff"/></g></g></svg>