<svg xmlns="http://www.w3.org/2000/svg" viewBox="0 0 81.3 53.2"><title>icon_train</title><g id="Layer_2" data-name="Layer 2"><g id="icons"><path d="M41.3,41a6.6,6.6,0,0,1-3.2-.9L19.6,29.8V43.4s0,9.9,21.7,9.9S63,43.4,63,43.4V29.8L44.5,40.1A6.6,6.6,0,0,1,41.3,41Z" fill="#fff"/><path d="M10.3,29a24.5,24.5,0,0,0,4.1-3.2l-3.3-1.4L8.5,26.2C5.8,28,3.7,30.1,2.9,33.5a4.5,4.5,0,0,0,.5,8.6h0A52.1,52.1,0,0,0,2.3,52.4c.8.9,4,1.1,6.2-.1A43.6,43.6,0,0,0,6.6,41.7h0a4.5,4.5,0,0,0-.4-8.2A9.2,9.2,0,0,1,10.3,29Z" fill="#fff"/><path d="M79.8,16.2,44,.6a6.8,6.8,0,0,0-5.4,0L2.8,16.2a2.5,2.5,0,0,0,0,4.5l36,15.7a6.3,6.3,0,0,0,5,0l36-15.7A2.5,2.5,0,0,0,79.8,16.2ZM41.3,13.4l-36.2,5L39.8,3.3A3.8,3.8,0,0,1,41.3,3C41.8,3,41.7,13.6,41.3,13.4Z" fill="#fff"/></g></g></svg>