<?xml version="1.0" encoding="utf-8"?>
<!-- Generator: Adobe Illustrator 22.1.0, SVG Export Plug-In . SVG Version: 6.00 Build 0)  -->
<svg version="1.1" id="Layer_1" xmlns="http://www.w3.org/2000/svg" xmlns:xlink="http://www.w3.org/1999/xlink" x="0px" y="0px"
	 viewBox="0 0 64 64" style="enable-background:new 0 0 64 64;" xml:space="preserve">
<style type="text/css">
	.st0{display:none;fill:#FFFFFF;}
	.st1{display:none;}
	.st2{display:inline;fill:#FFFFFF;}
	.st3{display:inline;fill:#8A9398;}
	.st4{fill:#FFFFFF;}
</style>
<path class="st0" d="M60.6,26.3H37.7V3.4c0-1-0.9-1.9-1.9-1.9h-7.6c-1,0-1.9,0.9-1.9,1.9v22.9H3.4c-1,0-1.9,0.9-1.9,1.9v7.6
	c0,1,0.9,1.9,1.9,1.9h22.9v22.9c0,1,0.9,1.9,1.9,1.9h7.6c1,0,1.9-0.9,1.9-1.9V37.7h22.9c1,0,1.9-0.9,1.9-1.9v-7.6
	C62.5,27.1,61.6,26.3,60.6,26.3z"/>
<g class="st1">
	<path class="st2" d="M37.1,26.9v-4.5c0-0.6-0.5-1.1-1.1-1.1H22.4V7.8c0-0.6-0.5-1.1-1.1-1.1h-4.5c-0.6,0-1.1,0.5-1.1,1.1v13.5H2.1
		c-0.6,0-1.1,0.5-1.1,1.1v4.5c0,0.6,0.5,1.1,1.1,1.1h13.5v13.5c0,0.6,0.5,1.1,1.1,1.1h4.5c0.6,0,1.1-0.5,1.1-1.1V28.1h13.5
		C36.6,28.1,37.1,27.5,37.1,26.9z"/>
	<path class="st2" d="M61.9,35.9H48.3V22.4c0-0.6-0.5-1.1-1.1-1.1h-4.5c-0.6,0-1.1,0.5-1.1,1.1v13.5H28.1c-0.6,0-1.1,0.5-1.1,1.1
		v4.5c0,0.6,0.5,1.1,1.1,1.1h13.5v13.5c0,0.6,0.5,1.1,1.1,1.1h4.5c0.6,0,1.1-0.5,1.1-1.1V42.7h13.5c0.6,0,1.1-0.5,1.1-1.1v-4.5
		C63,36.5,62.5,35.9,61.9,35.9z"/>
</g>
<path class="st0" d="M61.4,26.2h-5.7c-0.6-2.4-1.5-4.6-2.7-6.7l4.1-4.1c0.6-0.6,0.6-1.6,0-2.2L50.9,7c-0.6-0.6-1.6-0.6-2.2,0l-4,4
	c-2.1-1.3-4.4-2.3-6.8-2.9V2.6c0-0.9-0.7-1.6-1.6-1.6h-8.9c-0.9,0-1.6,0.7-1.6,1.6v5.6c-2.3,0.6-4.6,1.5-6.6,2.7L15.4,7
	c-0.6-0.6-1.6-0.6-2.2,0l-6.3,6.3c-0.6,0.6-0.6,1.6,0,2.2l3.9,3.9c-1.2,2.1-2.2,4.3-2.8,6.7H2.6c-0.9,0-1.6,0.7-1.6,1.6v8.7
	C1,37.3,1.7,38,2.6,38h5.5c0.6,2.5,1.6,4.8,2.9,6.8l-3.9,3.9c-0.6,0.6-0.6,1.6,0,2.2l6.1,6.1c0.6,0.6,1.6,0.6,2.2,0l3.9-4
	c2,1.2,4.2,2.1,6.5,2.7v5.6c0,0.9,0.7,1.6,1.6,1.6h8.9c0.9,0,1.6-0.7,1.6-1.6v-5.6c2.3-0.6,4.5-1.5,6.6-2.7l4,4
	c0.6,0.6,1.6,0.6,2.2,0l6.3-6.3c0.6-0.6,0.6-1.6,0-2.2l-4-4c1.2-2,2.1-4.3,2.7-6.6h5.8c0.9,0,1.6-0.7,1.6-1.6v-8.7
	C63,26.9,62.3,26.2,61.4,26.2z M46.2,32c0,7.9-6.4,14.3-14.3,14.3c-7.9,0-14.3-6.4-14.3-14.3c0-7.9,6.4-14.3,14.3-14.3
	C39.8,17.7,46.2,24.1,46.2,32z"/>
<g class="st1">
	<path class="st2" d="M61,2H3C2.5,2,2,2.5,2,3V15c0,0.6,0.5,1,1,1H61c0.6,0,1-0.5,1-1V3C62,2.5,61.5,2,61,2z"/>
	<path class="st2" d="M61,25H3c-0.6,0-1,0.5-1,1V38c0,0.6,0.5,1,1,1H61c0.6,0,1-0.5,1-1V26C62,25.5,61.5,25,61,25z"/>
	<path class="st2" d="M61,48H3c-0.6,0-1,0.5-1,1V61c0,0.6,0.5,1,1,1H61c0.6,0,1-0.5,1-1V49C62,48.5,61.5,48,61,48z"/>
</g>
<g class="st1">
	<path class="st2" d="M20.9,42.2c0-1.6-0.4-2.8-1.3-3.8c-0.9-1-2.4-1.9-4.6-2.7c-4.3-1.6-7.4-3.3-9.5-5.2c-2.1-1.9-3.1-4.6-3.1-8.1
		c0-3.2,1-5.9,3.1-7.9c2.1-2.1,4.8-3.3,8.3-3.6V4.7h4.6v6.2c3.4,0.5,6,1.9,7.9,4.2c1.9,2.3,2.9,5.3,2.8,9l-0.1,0.1h-8.2
		c0-2.3-0.5-4-1.4-5.2c-0.9-1.2-2.2-1.8-3.8-1.8c-1.6,0-2.9,0.5-3.7,1.4c-0.8,0.9-1.2,2.2-1.2,3.8c0,1.5,0.4,2.7,1.3,3.6
		c0.9,0.9,2.4,1.8,4.7,2.7c4.2,1.7,7.4,3.4,9.4,5.3c2,1.9,3.1,4.5,3.1,8c0,3.3-1,6-3.1,8c-2,2-4.8,3.2-8.4,3.5v5.7h-4.6v-5.7
		c-3.6-0.4-6.5-1.6-8.9-3.8c-2.3-2.2-3.5-5.4-3.4-9.6l0.1-0.1h8.2c0,2.6,0.6,4.4,1.8,5.5c1.2,1.1,2.7,1.7,4.5,1.7
		c1.7,0,3.1-0.5,4-1.4C20.4,45,20.9,43.7,20.9,42.2z"/>
	<path class="st2" d="M54.6,42.2c0-1.6-0.4-2.8-1.3-3.8c-0.9-1-2.4-1.9-4.6-2.7c-4.3-1.6-7.4-3.3-9.5-5.2c-2.1-1.9-3.1-4.6-3.1-8.1
		c0-3.2,1-5.9,3.1-7.9c2.1-2.1,4.8-3.3,8.3-3.6V4.7h4.6v6.2c3.4,0.5,6,1.9,7.9,4.2c1.9,2.3,2.9,5.3,2.8,9l-0.1,0.1h-8.2
		c0-2.3-0.5-4-1.4-5.2c-0.9-1.2-2.2-1.8-3.8-1.8c-1.6,0-2.9,0.5-3.7,1.4c-0.8,0.9-1.2,2.2-1.2,3.8c0,1.5,0.4,2.7,1.3,3.6
		c0.9,0.9,2.4,1.8,4.7,2.7c4.2,1.7,7.4,3.4,9.4,5.3c2,1.9,3.1,4.5,3.1,8c0,3.3-1,6-3.1,8c-2,2-4.8,3.2-8.4,3.5v5.7H47v-5.7
		c-3.6-0.4-6.5-1.6-8.9-3.8c-2.3-2.2-3.5-5.4-3.4-9.6l0.1-0.1H43c0,2.6,0.6,4.4,1.8,5.5c1.2,1.1,2.7,1.7,4.5,1.7
		c1.7,0,3.1-0.5,4-1.4C54.2,45,54.6,43.7,54.6,42.2z"/>
</g>
<g class="st1">
	<path class="st2" d="M18.5,38l-2.2,2.2l7,7l2.4-2.4c1.8-1.8,1.6-4.9-0.3-6.7C23.5,36.1,20.4,36.1,18.5,38z"/>
	<path class="st2" d="M50.4,2h-9.2L9.5,33.6v24.2c0,2.3,1.8,4.2,4.1,4.2h8.2l32.7-32.7V6.2C54.5,3.9,52.7,2,50.4,2z M28,46.7
		l-4.8,4.8L12,40.3l4.4-4.4c3.1-3.1,8.2-3.1,11.3,0C30.6,38.8,30.9,43.8,28,46.7z M35.2,39.6L23.9,28.3l2.3-2.3l9.3,9.3l5.8-5.8
		l1.9,1.9L35.2,39.6z M49.8,25.2c-3.3,3.3-8.5,3.4-11.6,0.2c-3.2-3.2-3.1-8.4,0.2-11.7c1.9-1.9,4.4-2.7,6.8-2.5l-0.3,3.3
		c-1.5-0.3-3.2,0.2-4.3,1.4c-2,2-2.1,5,0,7.1c2.1,2.1,5.2,2,7.1,0c1.2-1.2,1.7-2.8,1.4-4.3l3.3-0.3C52.5,20.8,51.7,23.3,49.8,25.2z"
		/>
</g>
<g class="st1">
	<path class="st3" d="M32,1C14.9,1,1,14.9,1,32c0,17.1,13.9,31,31,31c17.1,0,31-13.9,31-31C63,14.9,49.1,1,32,1z M32,55.4
		C19.1,55.4,8.6,44.9,8.6,32S19.1,8.6,32,8.6c12.9,0,23.4,10.5,23.4,23.4S44.9,55.4,32,55.4z"/>
	<path class="st3" d="M48.6,28.5H34.5V12.5c0-1.4-1.1-2.5-2.5-2.5c-1.4,0-2.5,1.1-2.5,2.5V31c0,0.1,0,0.1,0,0.2c0,0.2,0,0.4,0,0.6
		c0,1.8,1,3.2,2.3,3.2h16.8c1.3,0,2.3-1.4,2.3-3.2S49.8,28.5,48.6,28.5z"/>
</g>
<path class="st4" d="M51.4,8.3L32,27.7L12.6,8.3c-0.4-0.4-1-0.4-1.4,0l-2.9,2.9c-0.4,0.4-0.4,1,0,1.4L27.7,32L8.3,51.4
	c-0.4,0.4-0.4,1,0,1.4l2.9,2.9c0.4,0.4,1,0.4,1.4,0L32,36.3l19.4,19.4c0.4,0.4,1,0.4,1.4,0l2.9-2.9c0.4-0.4,0.4-1,0-1.4L36.3,32
	l19.4-19.4c0.4-0.4,0.4-1,0-1.4l-2.9-2.9C52.4,7.9,51.8,7.9,51.4,8.3z"/>
</svg>
