<?xml version="1.0" encoding="utf-8"?>
<!-- Generator: Adobe Illustrator 22.1.0, SVG Export Plug-In . SVG Version: 6.00 Build 0)  -->
<svg version="1.1" id="Layer_1" xmlns="http://www.w3.org/2000/svg" xmlns:xlink="http://www.w3.org/1999/xlink" x="0px" y="0px"
	 viewBox="0 0 64 64" style="enable-background:new 0 0 64 64;" xml:space="preserve">
<style type="text/css">
	.st0{fill:#FFFFFF;}
	.st1{display:none;}
	.st2{display:inline;fill:#FFFFFF;}
</style>
<path class="st0" d="M60.6,26.3H37.7V3.4c0-1-0.9-1.9-1.9-1.9h-7.6c-1,0-1.9,0.9-1.9,1.9v22.9H3.4c-1,0-1.9,0.9-1.9,1.9v7.6
	c0,1,0.9,1.9,1.9,1.9h22.9v22.9c0,1,0.9,1.9,1.9,1.9h7.6c1,0,1.9-0.9,1.9-1.9V37.7h22.9c1,0,1.9-0.9,1.9-1.9v-7.6
	C62.5,27.1,61.6,26.3,60.6,26.3z"/>
<g class="st1">
	<path class="st2" d="M37.1,26.9v-4.5c0-0.6-0.5-1.1-1.1-1.1H22.4V7.8c0-0.6-0.5-1.1-1.1-1.1h-4.5c-0.6,0-1.1,0.5-1.1,1.1v13.5H2.1
		c-0.6,0-1.1,0.5-1.1,1.1v4.5c0,0.6,0.5,1.1,1.1,1.1h13.5v13.5c0,0.6,0.5,1.1,1.1,1.1h4.5c0.6,0,1.1-0.5,1.1-1.1V28.1h13.5
		C36.6,28.1,37.1,27.5,37.1,26.9z"/>
	<path class="st2" d="M61.9,35.9H48.3V22.4c0-0.6-0.5-1.1-1.1-1.1h-4.5c-0.6,0-1.1,0.5-1.1,1.1v13.5H28.1c-0.6,0-1.1,0.5-1.1,1.1
		v4.5c0,0.6,0.5,1.1,1.1,1.1h13.5v13.5c0,0.6,0.5,1.1,1.1,1.1h4.5c0.6,0,1.1-0.5,1.1-1.1V42.7h13.5c0.6,0,1.1-0.5,1.1-1.1v-4.5
		C63,36.5,62.5,35.9,61.9,35.9z"/>
</g>
</svg>
