<?xml version="1.0" encoding="utf-8"?>
<!-- Generator: Adobe Illustrator 22.1.0, SVG Export Plug-In . SVG Version: 6.00 Build 0)  -->
<svg version="1.1" id="Layer_1" xmlns="http://www.w3.org/2000/svg" xmlns:xlink="http://www.w3.org/1999/xlink" x="0px" y="0px"
	 viewBox="0 0 64 64" style="enable-background:new 0 0 64 64;" xml:space="preserve">
<style type="text/css">
	.st0{display:none;fill:#FFFFFF;}
	.st1{display:none;}
	.st2{display:inline;fill:#FFFFFF;}
	.st3{display:inline;fill:#8A9398;}
	.st4{display:inline;}
	.st5{fill:#E74C3C;}
	.st6{fill:#57D68D;}
	.st7{fill:#8A9398;}
	.st8{fill:#F2F2F2;}
	.st9{fill:#E6E6E6;}
	.st10{fill:#FFFFFF;}
</style>
<path class="st0" d="M60.6,26.3H37.7V3.4c0-1-0.9-1.9-1.9-1.9h-7.6c-1,0-1.9,0.9-1.9,1.9v22.9H3.4c-1,0-1.9,0.9-1.9,1.9v7.6
	c0,1,0.9,1.9,1.9,1.9h22.9v22.9c0,1,0.9,1.9,1.9,1.9h7.6c1,0,1.9-0.9,1.9-1.9V37.7h22.9c1,0,1.9-0.9,1.9-1.9v-7.6
	C62.5,27.1,61.6,26.3,60.6,26.3z"/>
<g class="st1">
	<path class="st2" d="M37.1,26.9v-4.5c0-0.6-0.5-1.1-1.1-1.1H22.4V7.8c0-0.6-0.5-1.1-1.1-1.1h-4.5c-0.6,0-1.1,0.5-1.1,1.1v13.5H2.1
		c-0.6,0-1.1,0.5-1.1,1.1v4.5c0,0.6,0.5,1.1,1.1,1.1h13.5v13.5c0,0.6,0.5,1.1,1.1,1.1h4.5c0.6,0,1.1-0.5,1.1-1.1V28.1h13.5
		C36.6,28.1,37.1,27.5,37.1,26.9z"/>
	<path class="st2" d="M61.9,35.9H48.3V22.4c0-0.6-0.5-1.1-1.1-1.1h-4.5c-0.6,0-1.1,0.5-1.1,1.1v13.5H28.1c-0.6,0-1.1,0.5-1.1,1.1
		v4.5c0,0.6,0.5,1.1,1.1,1.1h13.5v13.5c0,0.6,0.5,1.1,1.1,1.1h4.5c0.6,0,1.1-0.5,1.1-1.1V42.7h13.5c0.6,0,1.1-0.5,1.1-1.1v-4.5
		C63,36.5,62.5,35.9,61.9,35.9z"/>
</g>
<path class="st0" d="M61.4,26.2h-5.7c-0.6-2.4-1.5-4.6-2.7-6.7l4.1-4.1c0.6-0.6,0.6-1.6,0-2.2L50.9,7c-0.6-0.6-1.6-0.6-2.2,0l-4,4
	c-2.1-1.3-4.4-2.3-6.8-2.9V2.6c0-0.9-0.7-1.6-1.6-1.6h-8.9c-0.9,0-1.6,0.7-1.6,1.6v5.6c-2.3,0.6-4.6,1.5-6.6,2.7L15.4,7
	c-0.6-0.6-1.6-0.6-2.2,0l-6.3,6.3c-0.6,0.6-0.6,1.6,0,2.2l3.9,3.9c-1.2,2.1-2.2,4.3-2.8,6.7H2.6c-0.9,0-1.6,0.7-1.6,1.6v8.7
	C1,37.3,1.7,38,2.6,38h5.5c0.6,2.5,1.6,4.8,2.9,6.8l-3.9,3.9c-0.6,0.6-0.6,1.6,0,2.2l6.1,6.1c0.6,0.6,1.6,0.6,2.2,0l3.9-4
	c2,1.2,4.2,2.1,6.5,2.7v5.6c0,0.9,0.7,1.6,1.6,1.6h8.9c0.9,0,1.6-0.7,1.6-1.6v-5.6c2.3-0.6,4.5-1.5,6.6-2.7l4,4
	c0.6,0.6,1.6,0.6,2.2,0l6.3-6.3c0.6-0.6,0.6-1.6,0-2.2l-4-4c1.2-2,2.1-4.3,2.7-6.6h5.8c0.9,0,1.6-0.7,1.6-1.6v-8.7
	C63,26.9,62.3,26.2,61.4,26.2z M46.2,32c0,7.9-6.4,14.3-14.3,14.3c-7.9,0-14.3-6.4-14.3-14.3c0-7.9,6.4-14.3,14.3-14.3
	C39.8,17.7,46.2,24.1,46.2,32z"/>
<g class="st1">
	<path class="st2" d="M61,2H3C2.5,2,2,2.5,2,3V15c0,0.6,0.5,1,1,1H61c0.6,0,1-0.5,1-1V3C62,2.5,61.5,2,61,2z"/>
	<path class="st2" d="M61,25H3c-0.6,0-1,0.5-1,1V38c0,0.6,0.5,1,1,1H61c0.6,0,1-0.5,1-1V26C62,25.5,61.5,25,61,25z"/>
	<path class="st2" d="M61,48H3c-0.6,0-1,0.5-1,1V61c0,0.6,0.5,1,1,1H61c0.6,0,1-0.5,1-1V49C62,48.5,61.5,48,61,48z"/>
</g>
<g class="st1">
	<path class="st2" d="M20.9,42.2c0-1.6-0.4-2.8-1.3-3.8c-0.9-1-2.4-1.9-4.6-2.7c-4.3-1.6-7.4-3.3-9.5-5.2c-2.1-1.9-3.1-4.6-3.1-8.1
		c0-3.2,1-5.9,3.1-7.9c2.1-2.1,4.8-3.3,8.3-3.6V4.7h4.6v6.2c3.4,0.5,6,1.9,7.9,4.2c1.9,2.3,2.9,5.3,2.8,9l-0.1,0.1h-8.2
		c0-2.3-0.5-4-1.4-5.2c-0.9-1.2-2.2-1.8-3.8-1.8c-1.6,0-2.9,0.5-3.7,1.4c-0.8,0.9-1.2,2.2-1.2,3.8c0,1.5,0.4,2.7,1.3,3.6
		c0.9,0.9,2.4,1.8,4.7,2.7c4.2,1.7,7.4,3.4,9.4,5.3c2,1.9,3.1,4.5,3.1,8c0,3.3-1,6-3.1,8c-2,2-4.8,3.2-8.4,3.5v5.7h-4.6v-5.7
		c-3.6-0.4-6.5-1.6-8.9-3.8c-2.3-2.2-3.5-5.4-3.4-9.6l0.1-0.1h8.2c0,2.6,0.6,4.4,1.8,5.5c1.2,1.1,2.7,1.7,4.5,1.7
		c1.7,0,3.1-0.5,4-1.4C20.4,45,20.9,43.7,20.9,42.2z"/>
	<path class="st2" d="M54.6,42.2c0-1.6-0.4-2.8-1.3-3.8c-0.9-1-2.4-1.9-4.6-2.7c-4.3-1.6-7.4-3.3-9.5-5.2c-2.1-1.9-3.1-4.6-3.1-8.1
		c0-3.2,1-5.9,3.1-7.9c2.1-2.1,4.8-3.3,8.3-3.6V4.7h4.6v6.2c3.4,0.5,6,1.9,7.9,4.2c1.9,2.3,2.9,5.3,2.8,9l-0.1,0.1h-8.2
		c0-2.3-0.5-4-1.4-5.2c-0.9-1.2-2.2-1.8-3.8-1.8c-1.6,0-2.9,0.5-3.7,1.4c-0.8,0.9-1.2,2.2-1.2,3.8c0,1.5,0.4,2.7,1.3,3.6
		c0.9,0.9,2.4,1.8,4.7,2.7c4.2,1.7,7.4,3.4,9.4,5.3c2,1.9,3.1,4.5,3.1,8c0,3.3-1,6-3.1,8c-2,2-4.8,3.2-8.4,3.5v5.7H47v-5.7
		c-3.6-0.4-6.5-1.6-8.9-3.8c-2.3-2.2-3.5-5.4-3.4-9.6l0.1-0.1H43c0,2.6,0.6,4.4,1.8,5.5c1.2,1.1,2.7,1.7,4.5,1.7
		c1.7,0,3.1-0.5,4-1.4C54.2,45,54.6,43.7,54.6,42.2z"/>
</g>
<g class="st1">
	<path class="st2" d="M18.5,38l-2.2,2.2l7,7l2.4-2.4c1.8-1.8,1.6-4.9-0.3-6.7C23.5,36.1,20.4,36.1,18.5,38z"/>
	<path class="st2" d="M50.4,2h-9.2L9.5,33.6v24.2c0,2.3,1.8,4.2,4.1,4.2h8.2l32.7-32.7V6.2C54.5,3.9,52.7,2,50.4,2z M28,46.7
		l-4.8,4.8L12,40.3l4.4-4.4c3.1-3.1,8.2-3.1,11.3,0C30.6,38.8,30.9,43.8,28,46.7z M35.2,39.6L23.9,28.3l2.3-2.3l9.3,9.3l5.8-5.8
		l1.9,1.9L35.2,39.6z M49.8,25.2c-3.3,3.3-8.5,3.4-11.6,0.2c-3.2-3.2-3.1-8.4,0.2-11.7c1.9-1.9,4.4-2.7,6.8-2.5l-0.3,3.3
		c-1.5-0.3-3.2,0.2-4.3,1.4c-2,2-2.1,5,0,7.1c2.1,2.1,5.2,2,7.1,0c1.2-1.2,1.7-2.8,1.4-4.3l3.3-0.3C52.5,20.8,51.7,23.3,49.8,25.2z"
		/>
</g>
<g class="st1">
	<path class="st3" d="M32,1C14.9,1,1,14.9,1,32c0,17.1,13.9,31,31,31c17.1,0,31-13.9,31-31C63,14.9,49.1,1,32,1z M32,55.4
		C19.1,55.4,8.6,44.9,8.6,32S19.1,8.6,32,8.6c12.9,0,23.4,10.5,23.4,23.4S44.9,55.4,32,55.4z"/>
	<path class="st3" d="M48.6,28.5H34.5V12.5c0-1.4-1.1-2.5-2.5-2.5c-1.4,0-2.5,1.1-2.5,2.5V31c0,0.1,0,0.1,0,0.2c0,0.2,0,0.4,0,0.6
		c0,1.8,1,3.2,2.3,3.2h16.8c1.3,0,2.3-1.4,2.3-3.2S49.8,28.5,48.6,28.5z"/>
</g>
<path class="st0" d="M51.4,8.3L32,27.7L12.6,8.3c-0.4-0.4-1-0.4-1.4,0l-2.9,2.9c-0.4,0.4-0.4,1,0,1.4L27.7,32L8.3,51.4
	c-0.4,0.4-0.4,1,0,1.4l2.9,2.9c0.4,0.4,1,0.4,1.4,0L32,36.3l19.4,19.4c0.4,0.4,1,0.4,1.4,0l2.9-2.9c0.4-0.4,0.4-1,0-1.4L36.3,32
	l19.4-19.4c0.4-0.4,0.4-1,0-1.4l-2.9-2.9C52.4,7.9,51.8,7.9,51.4,8.3z"/>
<g class="st1">
	<g id="layer8_3_" class="st4">
		<path id="path125302_3_" class="st5" d="M63,32c0,17.1-13.9,31-31,31S1,49.1,1,32S14.9,1,32,1S63,14.9,63,32z"/>
	</g>
	<path class="st2" d="M44,33.9c0,0.2-0.2,0.4-0.4,0.4H20.4c-0.2,0-0.4-0.2-0.4-0.4v-3.8c0-0.2,0.2-0.4,0.4-0.4h23.1
		c0.2,0,0.4,0.2,0.4,0.4V33.9z"/>
</g>
<g class="st1">
	<g id="layer8_4_" class="st4">
		<path id="path125302_4_" class="st6" d="M63,32c0,17.1-13.9,31-31,31S1,49.1,1,32S14.9,1,32,1S63,14.9,63,32z"/>
	</g>
	<path class="st2" d="M43.3,29.8h-9v-9c0-0.4-0.3-0.8-0.8-0.8h-3c-0.4,0-0.8,0.3-0.8,0.8v9h-9c-0.4,0-0.8,0.3-0.8,0.8v3
		c0,0.4,0.3,0.8,0.8,0.8h9v9c0,0.4,0.3,0.8,0.8,0.8h3c0.4,0,0.8-0.3,0.8-0.8v-9h9c0.4,0,0.8-0.3,0.8-0.8v-3
		C44,30.1,43.7,29.8,43.3,29.8z"/>
</g>
<g class="st1">
	<g id="layer8_2_" class="st4">
		<path id="path125302_2_" class="st7" d="M63,32c0,17.1-13.9,31-31,31S1,49.1,1,32S14.9,1,32,1S63,14.9,63,32z"/>
	</g>
	<g class="st4">
		<path class="st8" d="M26.4,33.5c1.6,1.4,3.7,2.3,6,2.3c2.3,0,4.4-0.9,6-2.3c5.5,2.2,9.8,7.2,11.3,13.5c3.3-4,5.2-9,5.2-14.6
			C54.9,19.8,44.7,9.6,32,9.6C19.3,9.6,9.1,19.8,9.1,32.5c0,5.9,2.2,11.3,5.9,15.3C16.3,41.2,20.7,35.8,26.4,33.5z M32.4,17.4
			c4.6,0,8.4,3.8,8.4,8.4c0,4.6-3.8,8.4-8.4,8.4c-4.6,0-8.4-3.8-8.4-8.4C24,21.1,27.8,17.4,32.4,17.4z"/>
	</g>
</g>
<g class="st1">
	<g id="layer8_1_" class="st4">
		<path id="path125302_1_" class="st7" d="M63,32c0,17.1-13.9,31-31,31S1,49.1,1,32S14.9,1,32,1S63,14.9,63,32z"/>
	</g>
	<g class="st4">
		<g>
			<path class="st9" d="M48,24.7c-1.2,1.1-2.8,1.8-4.6,1.8c-1.8,0-3.3-0.7-4.6-1.8c-5.3,2.2-9,8-9,14.8c0,0.9,0.1,1.8,0.2,2.6h26.8
				c0.1-0.8,0.2-1.7,0.2-2.6C57,32.7,53.2,26.9,48,24.7z"/>
			<path class="st9" d="M43.4,25.2c3.5,0,6.4-3,6.4-6.7c0-3.7-2.9-6.7-6.4-6.7c-3.5,0-6.4,3-6.4,6.7C37,22.2,39.9,25.2,43.4,25.2z"
				/>
		</g>
		<g>
			<path class="st9" d="M25.2,24.7c-1.2,1.1-2.8,1.8-4.6,1.8c-1.7,0-3.3-0.7-4.6-1.8c-5.3,2.2-9,8-9,14.8c0,0.9,0.1,1.8,0.2,2.6H34
				c0.1-0.8,0.2-1.7,0.2-2.6C34.2,32.7,30.4,26.9,25.2,24.7z"/>
			<path class="st9" d="M20.6,25.2c3.5,0,6.4-3,6.4-6.7c0-3.7-2.9-6.7-6.4-6.7c-3.5,0-6.4,3-6.4,6.7C14.2,22.2,17.1,25.2,20.6,25.2z
				"/>
		</g>
		<g>
			<path class="st10" d="M36.5,34.8c-1.2,1.1-2.8,1.8-4.6,1.8c-1.8,0-3.3-0.7-4.6-1.8c-5.3,2.2-9,8-9,14.8c0,0.9,0.1,1.8,0.2,2.6
				h26.8c0.1-0.8,0.2-1.7,0.2-2.6C45.5,42.7,41.7,36.9,36.5,34.8z"/>
			<path class="st10" d="M31.9,35.3c3.5,0,6.4-3,6.4-6.7c0-3.7-2.9-6.7-6.4-6.7c-3.5,0-6.4,3-6.4,6.7C25.5,32.3,28.4,35.3,31.9,35.3
				z"/>
		</g>
	</g>
</g>
<g class="st1">
	<g id="layer8_5_" class="st4">
		<path id="path125302_5_" class="st7" d="M63,32c0,17.1-13.9,31-31,31S1,49.1,1,32S14.9,1,32,1S63,14.9,63,32z"/>
	</g>
	<g class="st4">
		<path class="st10" d="M25.4,23.9c-2.1,0-3.8,0.7-5.1,2.1c-1.2,1.4-1.9,3.4-1.9,5.9c0,2.6,0.6,4.5,1.8,5.9c1.2,1.4,2.9,2.1,5.1,2.1
			c1.4,0,2.9-0.2,4.7-0.7v2c-1.4,0.5-3,0.8-5,0.8c-2.9,0-5.1-0.9-6.7-2.6c-1.6-1.7-2.3-4.2-2.3-7.4c0-2,0.4-3.8,1.1-5.3
			c0.8-1.5,1.8-2.7,3.3-3.5c1.4-0.8,3.1-1.2,5-1.2c2,0,3.8,0.4,5.4,1.1l-1,2C28.3,24.3,26.9,23.9,25.4,23.9z"/>
		<path class="st10" d="M40.6,26.8c0.6,0,1.2,0.1,1.7,0.2L42.1,29c-0.6-0.1-1.1-0.2-1.6-0.2c-1.2,0-2.2,0.5-3,1.4
			c-0.8,1-1.3,2.2-1.3,3.6v7.9h-2.2V27.1h1.8l0.3,2.7h0.1c0.5-1,1.2-1.7,2-2.2C38.9,27.1,39.7,26.8,40.6,26.8z"/>
		<path class="st10" d="M44.8,40.3c0-0.6,0.1-1,0.4-1.4c0.3-0.3,0.7-0.5,1.2-0.5c0.5,0,0.9,0.2,1.2,0.5c0.3,0.3,0.4,0.8,0.4,1.4
			c0,0.6-0.1,1-0.4,1.3c-0.3,0.3-0.7,0.5-1.2,0.5c-0.5,0-0.8-0.1-1.1-0.4C44.9,41.4,44.8,40.9,44.8,40.3z"/>
	</g>
</g>
<g class="st1">
	<g id="layer8_6_" class="st4">
		<path id="path125302_6_" class="st7" d="M63,32c0,17.1-13.9,31-31,31C14.9,63,1,49.1,1,32S14.9,1,32,1C49.1,1,63,14.9,63,32z"/>
	</g>
	<g class="st4">
		<path class="st10" d="M47.4,16H16.6c-0.3,0-0.6,0.2-0.6,0.5v6.4c0,0.3,0.2,0.5,0.6,0.5h30.9c0.3,0,0.6-0.2,0.6-0.5v-6.4
			C48,16.2,47.8,16,47.4,16z"/>
		<path class="st10" d="M47.4,28.3H16.6c-0.3,0-0.6,0.2-0.6,0.5v6.4c0,0.3,0.2,0.5,0.6,0.5h30.9c0.3,0,0.6-0.2,0.6-0.5v-6.4
			C48,28.5,47.8,28.3,47.4,28.3z"/>
		<path class="st10" d="M47.4,40.5H16.6c-0.3,0-0.6,0.2-0.6,0.5v6.4c0,0.3,0.2,0.5,0.6,0.5h30.9c0.3,0,0.6-0.2,0.6-0.5v-6.4
			C48,40.8,47.8,40.5,47.4,40.5z"/>
	</g>
</g>
<g class="st1">
	<g id="layer8_7_" class="st4">
		<path id="path125302_7_" class="st7" d="M63,32c0,17.1-13.9,31-31,31C14.9,63,1,49.1,1,32S14.9,1,32,1C49.1,1,63,14.9,63,32z"/>
	</g>
	<g class="st4">
		<path class="st10" d="M40.6,30.3h-5.1l6.5,16.4H21.9l6.5-16.4h-5.1l-7.2,17.9c-0.5,1.3,0,2.9,1.1,3.5c0.3,0.2,0.7,0.2,1,0.2
			c0,0,0,0,0.1,0h27.1c0,0,0.1,0,0.1,0c0.3,0,0.7-0.1,1-0.2c1.1-0.6,1.6-2.2,1.1-3.5L40.6,30.3z"/>
		<rect x="23.4" y="15.9" class="st10" width="5" height="14.5"/>
		<rect x="35.6" y="15.9" class="st10" width="5" height="14.5"/>
		<path class="st10" d="M43.6,14.4c0,1.3-1.3,2.4-2.9,2.4H23.4c-1.6,0-2.9-1.1-2.9-2.4l0,0c0-1.3,1.3-2.4,2.9-2.4h17.3
			C42.3,12,43.6,13.1,43.6,14.4L43.6,14.4z"/>
		<path class="st10" d="M36.2,36.7c-0.2,1-1,1.8-1.9,1.8c-1.1,0-2-1.1-2-2.4c0-1.3,0.9-2.4,2-2.4c0.3,0,0.6,0.1,0.8,0.2l-0.8-2h-4.9
			l-5,13h15L36.2,36.7z M35.1,42.6c-0.5,0-1-0.5-1-1.2c0-0.6,0.4-1.2,1-1.2c0.5,0,1,0.5,1,1.2C36.1,42.1,35.6,42.6,35.1,42.6z"/>
	</g>
</g>
<g class="st1">
	<path class="st3" d="M55.7,56.3L44.9,29.4h0V7.8h-7.6v21.6h0l0,0v0.1h0L47.2,54H16.8l9.8-24.5h0v-0.1l0,0h0V7.8h-7.6v21.6h0
		L8.3,56.3c-0.8,2-0.1,4.4,1.7,5.3c0.5,0.3,1,0.4,1.5,0.4c0,0,0.1,0,0.1,0h40.7c0.1,0,0.1,0,0.2,0c0.5,0,1.1-0.1,1.6-0.4
		C55.7,60.7,56.5,58.3,55.7,56.3z"/>
	<path class="st3" d="M49.3,5.6c0,2-1.9,3.6-4.3,3.6H19c-2.4,0-4.3-1.6-4.3-3.6l0,0c0-2,1.9-3.6,4.3-3.6h26
		C47.4,2,49.3,3.6,49.3,5.6L49.3,5.6z"/>
	<path class="st3" d="M38.4,39c-0.3,1.5-1.5,2.7-2.9,2.7c-1.6,0-3-1.6-3-3.5s1.3-3.5,3-3.5c0.5,0,0.9,0.1,1.3,0.4l-1.2-3h-7.4
		l-7.5,19.5h22.5L38.4,39z M36.6,47.9c-0.8,0-1.5-0.8-1.5-1.8c0-1,0.7-1.8,1.5-1.8c0.8,0,1.5,0.8,1.5,1.8
		C38.1,47.1,37.5,47.9,36.6,47.9z"/>
</g>
<g class="st1">
	<path class="st2" d="M30.1,50.5c-1.8,1.8-4.7,1.7-6.6-0.1L3.4,30.3c-1.8-1.8-1.9-4.8-0.1-6.6l0,0C5.1,22,8,22,9.9,23.9L30,44
		C31.8,45.8,31.9,48.7,30.1,50.5L30.1,50.5z"/>
	<path class="st2" d="M30.7,49.9c-2,2-5.1,2.2-6.9,0.4l0,0c-1.8-1.8-1.6-4.9,0.4-6.9l29.7-29.7c2-2,5.1-2.2,6.9-0.4l0,0
		c1.8,1.8,1.6,4.9-0.4,6.9L30.7,49.9z"/>
</g>
<g class="st1">
	<g id="layer8_8_" class="st4">
		<path id="path125302_8_" class="st7" d="M63,32c0,17.1-13.9,31-31,31S1,49.1,1,32S14.9,1,32,1S63,14.9,63,32z"/>
	</g>
	<g class="st4">
		<path class="st10" d="M32,13.1c-10.5,0-19,4.2-19,9.3c0,5.1,8.5,9.3,19,9.3s19-4.2,19-9.3C51,17.3,42.5,13.1,32,13.1z M35.5,25.7
			c-0.6,0.4-1.5,0.7-2.6,0.7v1.2h-1.4v-1.2c-1.1-0.1-2.1-0.3-2.8-0.8c-0.7-0.5-1.1-1.1-1.1-2l0,0h2.6c0,0.5,0.2,0.9,0.6,1.1
			c0.4,0.2,0.8,0.3,1.4,0.3c0.5,0,1-0.1,1.3-0.3c0.3-0.2,0.4-0.5,0.4-0.8c0-0.3-0.1-0.6-0.4-0.8c-0.3-0.2-0.8-0.4-1.4-0.6
			c-1.3-0.3-2.3-0.7-3-1.1c-0.6-0.4-1-1-1-1.7c0-0.7,0.3-1.2,1-1.6c0.6-0.4,1.5-0.7,2.6-0.8v-1.3H33v1.3c1.1,0.1,1.9,0.4,2.5,0.9
			c0.6,0.5,0.9,1.1,0.9,1.9l0,0h-2.6c0-0.5-0.1-0.8-0.4-1.1c-0.3-0.3-0.7-0.4-1.2-0.4c-0.5,0-0.9,0.1-1.2,0.3
			c-0.3,0.2-0.4,0.5-0.4,0.8c0,0.3,0.1,0.6,0.4,0.8c0.3,0.2,0.8,0.4,1.5,0.6c1.3,0.3,2.3,0.7,2.9,1.1c0.6,0.4,1,0.9,1,1.7
			C36.4,24.7,36.1,25.3,35.5,25.7z"/>
		<path class="st10" d="M51,26.9c-0.3,5-8.7,9-19,9s-18.7-4-19-9c0,0.1,0,0.2,0,0.3c0,0.1,0,0.2,0,0.2v4.3c0,0.1,0,0.2,0,0.2
			c0,0.1,0,0.2,0,0.3v0.1l0,0c0.4,5,8.7,9,19,9c10.4,0,18.8-4.1,19-9.2l0,0v-5C51,27.1,51,27,51,26.9z M13.2,28.6L13.2,28.6
			l-0.1-0.2C13.2,28.4,13.2,28.5,13.2,28.6z"/>
		<path class="st10" d="M51,36.7c-0.3,5-8.7,9-19,9s-18.7-4-19-9c0,0.1,0,0.2,0,0.3c0,0.1,0,0.2,0,0.2v4.3c0,0.1,0,0.2,0,0.2
			c0,0.1,0,0.2,0,0.3v0.1l0,0c0.4,5,8.7,9,19,9c10.4,0,18.8-4.1,19-9.2l0,0v-5C51,36.9,51,36.8,51,36.7z M13.2,38.3L13.2,38.3
			l-0.1-0.2C13.2,38.2,13.2,38.2,13.2,38.3z"/>
	</g>
</g>
<path class="st0" d="M63,26.8C63,14.8,49.1,5,32,5S1,14.8,1,26.8c0,9.5,8.7,17.6,20.7,20.6C19.8,52.7,16.1,59,16.1,59
	c7.3-1,18.9-7.6,25.3-11.4C53.9,44.8,63,36.5,63,26.8z"/>
<g id="Layer_3_copy" class="st1">
	<path class="st2" d="M59.2,16H4.8C2.7,16,1,17.3,1,18.9v26.2C1,46.7,2.7,48,4.8,48h54.3c2.1,0,3.8-1.3,3.8-2.9V18.9
		C63,17.3,61.3,16,59.2,16z M61,43.4c0,1.4-1.6,2.6-3.6,2.6H6.6c-2,0-3.6-1.1-3.6-2.6V20.6C3,19.1,4.6,18,6.6,18h50.8
		c2,0,3.6,1.1,3.6,2.6V43.4z"/>
	<path class="st2" d="M56.5,19H7.5C5.5,19,4,20.1,4,21.4v21.3C4,43.9,5.5,45,7.5,45h49.1c1.9,0,3.5-1.1,3.5-2.4V21.4
		C60,20.1,58.5,19,56.5,19z M27,34.5c0,0.6-0.5,1-1,1h-5.5V41c0,0.6-0.5,1-1,1h-4.9c-0.6,0-1-0.5-1-1v-5.5H8c-0.6,0-1-0.5-1-1v-4.9
		c0-0.6,0.5-1,1-1h5.5V23c0-0.6,0.5-1,1-1h4.9c0.6,0,1,0.5,1,1v5.5H26c0.6,0,1,0.5,1,1L27,34.5L27,34.5z M37.8,43c-3.3,0-6-2.7-6-6
		c0-3.3,2.7-6,6-6c3.3,0,6,2.7,6,6C43.8,40.3,41.1,43,37.8,43z M50.7,34c-3.3,0-6-2.7-6-6c0-3.3,2.7-6,6-6s6,2.7,6,6
		C56.7,31.3,54,34,50.7,34z"/>
</g>
<g id="Layer_11_copy" class="st1">
	<g class="st4">
		<path class="st10" d="M55.5,4.3c-4.1-2.2-7.7-4.5-9.6-2.6c-3.3,6-12.3,24.8-12.3,24.8c-4.9,9.3-9.5,15.9-10.7,17.9
			c-2,3.4-1.1,16.3-1.1,16.3c8.4-3.8,11.7-6.5,13.9-9.2c2.1-2.7,3.8-7.9,8.9-16c7-11.2,15.3-21.1,17.3-24.8
			C62.8,8.1,59.6,6.5,55.5,4.3z M53.8,18.3c-3,4.1-5,6.5-9.4,13.3c-4.5,6.9-9,16-10.7,17.3c-1.7,1.3-3.6,2-3.6,2
			c0.4-2.4,0.9-5.7,0.9-5.7c-2.1,1.1-5.3,3-5.3,3c0-3.8,3.1-9,5.1-12.5c2.9-4.9,3.9-7.3,6.3-11.8c2.4-4.5,4.7-8.8,5.9-11
			c1.9-3.5,6.4-0.7,6.4-0.7C54.1,15.1,55.2,16.4,53.8,18.3z"/>
		<path class="st10" d="M12.3,59.7c-0.9-1.3,8-4.7,8-8.3c0-3.3-2.5-3.9-5.9-3.9c-2,0-3.9-0.7-3.4-2c0.7-2.3,5.6-5.8,13.6-10.4
			c0,0-20.6-1.6-22.5,11.9c-0.3,2,0,5,5.3,4.1c4.5-0.7,10.4-0.3,6.9,2.4c-4.5,3.4-6.4,5.5-6,7.1c1,3.8,9,2.4,13.6,0
			C21.8,60.7,13.9,62.2,12.3,59.7z"/>
	</g>
</g>
<g id="Layer_2_copy" class="st1">
	<path class="st2" d="M54,63v-1c0-2.2-1.8-4-4-4H14c-2.2,0-4,1.8-4,4v1H54z"/>
	<rect x="24" y="46.5" class="st2" width="16" height="12"/>
	<path class="st2" d="M59.2,1H4.8C2.7,1,1,2.7,1,4.9v29.6h3v-30h56v30h3V4.9C63,2.7,61.3,1,59.2,1z"/>
	<path class="st2" d="M60,36.5H4H1v7.6C1,46.3,2.7,48,4.8,48h54.4c2.1,0,3.8-1.7,3.8-3.9v-7.6H60z M32,45.5c-1.7,0-3-1.3-3-3
		c0-1.7,1.3-3,3-3c1.7,0,3,1.3,3,3C35,44.2,33.7,45.5,32,45.5z"/>
</g>
<path class="st0" d="M27,40.9c4.5-2.4,8.9-3.8,12.4-4.7c0.2-1.6,0.5-3.7,1.1-6.4c-5.7,0.7-11.2,4.3-11.2,4.3c3.1-4,7.8-6,11.8-7
	c0.4-1.7,0.9-3.6,1.5-5.8c-4.7,0.6-8.2,3.9-8.2,3.9c2.2-3.3,5.9-5.4,9-6.6c0.7-2.2,1.4-4.6,2.3-7.2C42.1,13,38,16.9,38,16.9
	c2.3-3.9,6.1-6.6,8.8-8.2c0.8-2.3,1.8-4.8,2.8-7.5c0,0-33.2,23.2-35,61.6c0,0,1.1-2.1,4.5-3.8c0,0-2.6-9.4,2.3-13.4
	c2.5-2.1,5.9-2.6,13.1-2.8c0,0,1.6-0.6,4.8-2.7c0,0,0-0.1,0-0.2C33.3,39,27,40.9,27,40.9z"/>
<path class="st0" d="M61.6,19.7L50.6,30.8l-14-2.8L36,27.5l-2.8-14L44.3,2.4c-6.8-1.3-14.2,0.7-19.5,6c-6.1,6.1-7.8,14.9-5.2,22.5
	L2,48.5C5.2,54.2,9.8,58.8,15.5,62l17.6-17.6c7.6,2.6,16.4,0.9,22.5-5.2C60.9,33.9,62.9,26.6,61.6,19.7z"/>
<g>
	<g id="layer8_9_">
		<path id="path125302_9_" class="st7" d="M63,32c0,17.1-13.9,31-31,31S1,49.1,1,32S14.9,1,32,1S63,14.9,63,32z"/>
	</g>
	<rect x="16" y="16" class="st10" width="8" height="32"/>
	<rect x="40" y="24" class="st10" width="8" height="24"/>
	<rect x="28" y="32" class="st10" width="8" height="16"/>
</g>
</svg>
